<?xml version="1.0" encoding="utf-8"?>
<!-- Generator: Adobe Illustrator 22.0.1, SVG Export Plug-In . SVG Version: 6.00 Build 0)  -->
<svg version="1.1" xmlns="http://www.w3.org/2000/svg" xmlns:xlink="http://www.w3.org/1999/xlink" x="0px" y="0px"
	 viewBox="0 0 997 594" style="enable-background:new 0 0 997 594;" xml:space="preserve">
<style type="text/css">
	.st0{fill:#EFF2F7;}
	.st1{fill:#FFFFFF;}
	.st2{opacity:0.5;fill:url(#SVGID_1_);}
	.st3{opacity:0.5;fill:url(#SVGID_2_);}
	.st4{fill:#5BB59B;}
	.st5{fill:#524F63;}
	.st6{fill:#63A590;}
	.st7{opacity:0.5;fill:url(#SVGID_3_);}
	.st8{opacity:0.5;fill:url(#SVGID_4_);}
	.st9{opacity:0.5;fill:url(#SVGID_5_);}
	.st10{opacity:0.5;fill:url(#SVGID_6_);}
	.st11{opacity:0.5;fill:url(#SVGID_7_);}
	.st12{fill:#E0E4ED;}
	.st13{fill:#424051;}
	.st14{fill:#EEBCC5;}
	.st15{fill:#9092EC;}
	.st16{fill:#EAD18C;}
	.st17{opacity:0.5;fill:url(#SVGID_8_);}
	.st18{fill:#91616A;}
	.st19{fill:#5B61D3;}
	.st20{fill:#8385E6;}
	.st21{fill:url(#SVGID_9_);}
	.st22{fill:url(#SVGID_10_);}
	.st23{fill:#4A4549;}
	.st24{fill:url(#SVGID_11_);}
	.st25{fill:#D98E9D;}
	.st26{fill:url(#SVGID_12_);}
	.st27{opacity:0.7;fill:#4A4549;}
	.st28{fill:#75454F;}
	.st29{fill:#8284E5;}
	.st30{fill:#37354C;}
	.st31{fill:url(#SVGID_13_);}
	.st32{fill:none;stroke:#524F63;stroke-miterlimit:10;}
	.st33{fill:#BCBACE;}
	.st34{fill:url(#SVGID_14_);}
</style>
<g id="BACKGROUND">
	<rect class="st0" width="997" height="594"/>
</g>
<g id="OBJECTS">
	<g>
		<rect x="752.8" y="223" class="st1" width="172.9" height="140.8"/>
	</g>
	<linearGradient id="SVGID_1_" gradientUnits="userSpaceOnUse" x1="583.9459" y1="444.3366" x2="515.6729" y2="489.8521">
		<stop  offset="0" style="stop-color:#4A50C2;stop-opacity:2.000000e-02"/>
		<stop  offset="1" style="stop-color:#444BCC;stop-opacity:0.64"/>
	</linearGradient>
	<path class="st2" d="M581.5,459.9c0,1.6-9.3,2.9-20.9,2.9c-11.5,0-20.9-1.3-20.9-2.9s9.3-2.9,20.9-2.9
		C572.1,457,581.5,458.3,581.5,459.9z"/>
	<linearGradient id="SVGID_2_" gradientUnits="userSpaceOnUse" x1="968.0344" y1="445.269" x2="899.7614" y2="490.7843">
		<stop  offset="0" style="stop-color:#4A50C2;stop-opacity:2.000000e-02"/>
		<stop  offset="1" style="stop-color:#444BCC;stop-opacity:0.64"/>
	</linearGradient>
	<path class="st3" d="M965.6,460.8c0,1.6-9.3,2.9-20.9,2.9c-11.5,0-20.9-1.3-20.9-2.9c0-1.6,9.3-2.9,20.9-2.9
		C956.2,457.9,965.6,459.2,965.6,460.8z"/>
	<g>
		<rect x="565.4" y="223" class="st1" width="172.9" height="140.8"/>
	</g>
	<polygon class="st0" points="925.7,271.9 907.2,271.9 907.2,307.3 884.5,307.3 884.5,317.3 865.9,317.3 865.9,263.5 843.6,263.5 
		843.6,330.4 822.2,330.4 822.2,272 805.5,272 805.5,320.1 801.3,320.1 801.3,310.1 779.5,310.1 779.5,330.1 771.3,330.1 
		771.3,260.4 752.8,260.4 752.8,317.3 752.8,317.3 752.8,363.8 925.7,363.8 	"/>
	<polygon class="st0" points="738.3,271.9 723.6,271.9 723.6,307.3 700.8,307.3 700.8,317.3 682.3,317.3 682.3,263.5 660,263.5 
		660,330.4 638.6,330.4 638.6,272 621.8,272 621.8,320.1 617.6,320.1 617.6,310.1 595.9,310.1 595.9,330.1 587.7,330.1 587.7,260.4 
		565.4,260.4 565.4,344.9 565.4,363.8 738.3,363.8 	"/>
	<g>
		<path class="st4" d="M544.4,369.5c0,0-6.5,28.6,3.8,48.1c10.3,19.4,10.3,19.4,10.3,19.4S561.1,388.4,544.4,369.5z"/>
		<path class="st1" d="M544.8,444.3c0.6,3.5,1.4,7.1,3.2,10.2c1.7,3.1,4.5,5.8,8,6.6c1.6,0.4,3.2,0.4,4.8,0.3c1.8,0,3.6-0.2,5.2-1.1
			c2-1.2,3-3.4,3.8-5.6c1.4-3.7,2.4-7.5,3.1-11.3c0.4-2.2,0.7-4.6-0.4-6.6c-1.4-2.7-4.7-3.8-7.7-4.3c-5-0.8-11.9-1.2-16.7,0.8
			C543.9,435.1,544.2,440.4,544.8,444.3z"/>
		<path class="st5" d="M556.2,437.1c4,0.2,8.3-0.4,10.8-1.7c0.5-0.3,0.9-0.6,0.7-0.9c-0.3-0.4-1.3-0.6-2.3-0.6
			c-4.8-0.5-10.1-0.7-14.8,0.1C543.8,435.1,552.6,436.9,556.2,437.1z"/>
		<path class="st6" d="M554.1,362.5c0,0-3.2,54.5,4.3,74.5C558.4,437,563.3,388.4,554.1,362.5z"/>
		<path class="st4" d="M557.5,436.6h1.8c2.6-10.8,10.3-45.8,6.2-62.1c0,0-13,45.9-9.7,56.2C556.5,433.4,557.1,435.3,557.5,436.6z"/>
	</g>
	<g>
		<path class="st4" d="M929.4,371.4c0,0-6.5,28.6,3.8,48.1c10.3,19.4,10.3,19.4,10.3,19.4S946.1,390.3,929.4,371.4z"/>
		<path class="st1" d="M929.8,446.1c0.6,3.5,1.4,7.1,3.2,10.2c1.7,3.1,4.5,5.8,8,6.6c1.6,0.4,3.2,0.4,4.8,0.3c1.8,0,3.6-0.2,5.2-1.1
			c2-1.2,3-3.4,3.8-5.6c1.4-3.7,2.4-7.5,3.1-11.3c0.4-2.2,0.7-4.6-0.4-6.6c-1.4-2.7-4.7-3.8-7.7-4.3c-5-0.8-11.9-1.2-16.7,0.8
			C928.9,436.9,929.2,442.3,929.8,446.1z"/>
		<path class="st5" d="M941.2,439c4,0.2,8.3-0.4,10.8-1.7c0.5-0.3,0.9-0.6,0.7-0.9c-0.3-0.4-1.3-0.6-2.3-0.6
			c-4.8-0.5-10.1-0.7-14.8,0.1C928.8,436.9,937.6,438.8,941.2,439z"/>
		<path class="st6" d="M939.1,364.4c0,0-3.2,54.5,4.3,74.5C943.4,438.9,948.3,390.3,939.1,364.4z"/>
		<path class="st4" d="M942.5,438.5h1.8c2.6-10.8,10.3-45.8,6.2-62.1c0,0-13,45.9-9.7,56.2C941.5,435.3,942.1,437.2,942.5,438.5z"/>
	</g>
	<linearGradient id="SVGID_3_" gradientUnits="userSpaceOnUse" x1="645.9335" y1="433.8822" x2="492.1175" y2="536.4264">
		<stop  offset="0" style="stop-color:#4A50C2;stop-opacity:2.000000e-02"/>
		<stop  offset="1" style="stop-color:#444BCC;stop-opacity:0.64"/>
	</linearGradient>
	<ellipse class="st7" cx="593.3" cy="468.9" rx="47.1" ry="6.1"/>
	<linearGradient id="SVGID_4_" gradientUnits="userSpaceOnUse" x1="959.159" y1="438.5433" x2="805.343" y2="541.0875">
		<stop  offset="0" style="stop-color:#4A50C2;stop-opacity:2.000000e-02"/>
		<stop  offset="1" style="stop-color:#444BCC;stop-opacity:0.64"/>
	</linearGradient>
	<path class="st8" d="M953.6,473.6c0,3.3-21.1,6.1-47.1,6.1c-26,0-47.1-2.7-47.1-6.1c0-3.3,21.1-6.1,47.1-6.1
		C932.6,467.5,953.6,470.3,953.6,473.6z"/>
	<linearGradient id="SVGID_5_" gradientUnits="userSpaceOnUse" x1="754.0709" y1="432.4835" x2="600.2549" y2="535.0277">
		<stop  offset="0" style="stop-color:#4A50C2;stop-opacity:2.000000e-02"/>
		<stop  offset="1" style="stop-color:#444BCC;stop-opacity:0.64"/>
	</linearGradient>
	<ellipse class="st9" cx="701.5" cy="467.5" rx="47.1" ry="6.1"/>
	<linearGradient id="SVGID_6_" gradientUnits="userSpaceOnUse" x1="878.056" y1="430.6191" x2="724.24" y2="533.1633">
		<stop  offset="0" style="stop-color:#4A50C2;stop-opacity:2.000000e-02"/>
		<stop  offset="1" style="stop-color:#444BCC;stop-opacity:0.64"/>
	</linearGradient>
	<path class="st10" d="M872.5,465.7c0,3.3-21.1,6.1-47.1,6.1c-26,0-47.1-2.7-47.1-6.1c0-3.3,21.1-6.1,47.1-6.1
		C851.5,459.6,872.5,462.3,872.5,465.7z"/>
	<linearGradient id="SVGID_7_" gradientUnits="userSpaceOnUse" x1="782.9128" y1="434.4597" x2="690.4219" y2="496.1204">
		<stop  offset="0" style="stop-color:#4A50C2;stop-opacity:2.000000e-02"/>
		<stop  offset="1" style="stop-color:#444BCC;stop-opacity:0.64"/>
	</linearGradient>
	<ellipse class="st11" cx="751.3" cy="455.5" rx="28.1" ry="6.1"/>
	<g>
		<path class="st12" d="M601.7,306.6l17.8,2.9l-8.5-7.7l4-4.5l15.4,13.7c2.1,2.2,0.6,5.9-2.5,6l-21.5,0.7L601.7,306.6z"/>
		<polygon class="st5" points="609.2,352.1 608.8,468.1 602.7,468.5 598.5,370.1 592.8,370.6 587,467.6 580.9,467.2 581.7,350 		"/>
		<path class="st12" d="M601.7,306.6l-20.5-0.9c-2.1-0.1-4.2,0.8-5.5,2.4l6,47l28,0.6l-2.6-43.1
			C607.2,312.6,602.5,306.6,601.7,306.6z"/>
		<path class="st1" d="M611,297.6c-1.1,0.9-2.6,1.7-2.8,3.1c-0.2,1.2,0.7,2.5,1.9,2.9c1.2,0.4,2.5,0.2,3.6-0.3
			c1.8-0.8,3.3-2.5,3.7-4.5c0.2-1.4-0.4-4.2-2.1-4.7C613.4,293.6,612.4,296.5,611,297.6z"/>
		<polygon class="st13" points="580.9,467.2 569,470.8 569.5,471.8 586.7,469.9 587,467.6 		"/>
		<path class="st14" d="M542.5,307l-1.9-3.2l2.1-4.3c0,0,1.1-3,1.1-4c0-0.9-0.9-2.3-1.9-0.6c-0.9,1.7-1.9,3-1.9,3l-5.6-8.3
			c-0.2-0.2-0.4-0.4-0.7-0.4l0,0c-0.6,0-1.1,0.7-0.8,1.3l1.3,2.4c0.4,0.8-0.5,1.6-1.2,1.1l-0.3-0.2c-1.4-1-3.3-0.6-4.3,0.8l-0.1,0.1
			l0.1,2.8c0.1,1.8,0.9,3.5,2.3,4.6c3.3,2.7,9.1,7.4,9.3,7C540.3,308.7,542.5,307,542.5,307z"/>
		<path class="st14" d="M606.2,288.5c-0.8-0.4-1.8,0-2.3,0.7c-0.5,0.7-0.5,1.7-0.2,2.5c0.5,1.5,2.2,2.6,3.8,2.3
			c1.6-0.2,2.9-1.9,2.6-3.4c-0.2-1.1-1-2.1-2.1-2.5c-1.1-0.4-2.3-0.3-3.4,0.1"/>
		<path class="st14" d="M605.8,290.3l9.2,7.3c0,0,0.2,4-2,4.4c-0.7,0.4-9.2-8.6-9.2-8.6L605.8,290.3z"/>
		<path class="st13" d="M602.7,468.5l0.3,1.9l14.9,2.5c0,0,0.7-1.2,0.3-1.3c-0.4-0.1-9.4-3.5-9.4-3.5L602.7,468.5z"/>
		<path class="st14" d="M588.1,296.7l0.5,12.8c0,1.5,1.1,2.7,2.5,3l0,0c1.7,0.3,3.2-0.9,3.5-2.6l0.6-11.1L588.1,296.7z"/>
		<g>
			
				<rect x="599.2" y="285.3" transform="matrix(0.9831 0.1829 -0.1829 0.9831 63.6163 -105.2652)" class="st5" width="6.6" height="13.9"/>
			
				<rect x="599.3" y="285.3" transform="matrix(0.9831 0.1829 -0.1829 0.9831 63.5962 -105.1982)" class="st5" width="5.9" height="13.9"/>
		</g>
		<path class="st1" d="M587.4,307.6c0,0-0.9,0.8-1,1.1c-0.1,0.3,3.6,6,3.6,6l2.5-3.9l3.1,3.9l1.3-7.1l-2.1-0.5l-2.3,2.7l-4.1-3.3
			L587.4,307.6z"/>
		<polygon class="st15" points="592.4,310.7 590.9,313.3 592,315.2 591.4,316.7 592,335.5 594.1,337.9 596.1,335.6 594.1,316.6 
			592.9,315.1 594.3,313.1 		"/>
		<path class="st14" d="M582.8,283c-1.3,3-1.2,6.4-0.5,9.6c0.7,3.5,2.2,6.9,4.9,9.2c2.7,2.2,7,2.9,9.8,0.7c1.7-1.3,2.6-3.3,3.3-5.3
			c1.3-4,1.5-8.5-0.1-12.3C597.2,277.9,586.4,274.6,582.8,283z"/>
		<polygon class="st12" points="578.2,321.7 556.2,328.8 540.2,311.3 544.2,308 558.9,320.1 575.7,308.2 578.5,313.2 		"/>
		<polygon class="st1" points="537.7,310.2 539.3,312.8 546.9,308.5 543.9,305.5 		"/>
		<path class="st14" d="M579,288.7c-1,0.4-1.4,1.6-1.3,2.6c0.1,1,0.7,2,1.3,2.8c0.4,0.5,0.7,0.9,1.2,1.2c0.5,0.3,1,0.4,1.6,0.5
			c0.7,0.1,1.5,0,1.9-0.5c0.2-0.3,0.3-0.7,0.3-1c0.2-1.7-0.2-2.4-1.2-3.6C581.9,289.5,580.7,287.9,579,288.7z"/>
		<path class="st5" d="M585.3,288.8c-0.1,1.8-1,3.6-2.5,4.5c-1.2-1.5-1.8-3.4-2-5.2c-0.3-2.3,0.1-4.8,1.5-6.7
			c1.6-2.2,4.2-3.4,6.9-3.6c2.7-0.2,5.3,0.5,7.8,1.5c1.1,0.4,2.4,0.9,3.3,0.1c0.4,0.8,0.7,1.7,0.7,2.6c0,0.7-0.1,1.4-0.5,2
			c-0.7,1-1.7,2.1-2.9,2.3c-8.7,1.9-12.7-2.8-12.8-2.6c-0.1,0.5,0.1,1,0.2,1.5C585.2,286.4,585.4,287.6,585.3,288.8z"/>
	</g>
	<g>
		<path class="st16" d="M713.1,386.3l-2.5-48.1c0,0-12.4-0.7-16-0.7c-2,0-5.4,1-8.1,1.8c-2.5,0.8-4.6,0.7-5.9,3.1l-20.3,38.9
			l12.5,1.2l4.2-4.7l-2.1-3.2l7.6-17.9l-0.1,30.3L713.1,386.3z"/>
		<linearGradient id="SVGID_8_" gradientUnits="userSpaceOnUse" x1="668.678" y1="364.1545" x2="682.3835" y2="364.1545">
			<stop  offset="0" style="stop-color:#EAD18C;stop-opacity:0"/>
			<stop  offset="1" style="stop-color:#524F63;stop-opacity:0.7"/>
		</linearGradient>
		<path class="st17" d="M682.1,349.5l-13.4,24.3l4.2,4.9c0,0,1.7,0.3,3.3-0.2l0.7-0.8l-2.1-3.2l7.6-17.9L682.1,349.5z"/>
		<path class="st18" d="M692.8,376.5c-0.5-0.2-4.7-2.6-7.8-2.6c-3.1,0-6.9,3.3-6.9,3.3s-0.5,1.7,1.6,1.4c2.1-0.3,3.5-0.5,3.5-0.5
			s-3.6,1.9-1.2,2.3c2.4,0.3,12.7,0,12.7,0L692.8,376.5z"/>
		<path class="st19" d="M692.1,383.6h-40v-2.9h40c0.8,0,1.5,0.7,1.5,1.5l0,0C693.5,382.9,692.9,383.6,692.1,383.6z"/>
		<path class="st20" d="M681.1,383.6h-38.6c-1.7,0-3.2-1.1-3.6-2.8l-6.8-25.7c-0.6-2.4,1.2-4.7,3.6-4.7h33.7c1.7,0,3.2,1.1,3.6,2.8
			L681.1,383.6z"/>
		<linearGradient id="SVGID_9_" gradientUnits="userSpaceOnUse" x1="631.8693" y1="366.5562" x2="663.5617" y2="366.5562">
			<stop  offset="0" style="stop-color:#484EC2;stop-opacity:0"/>
			<stop  offset="1" style="stop-color:#444BCC;stop-opacity:0.5018"/>
		</linearGradient>
		<path class="st21" d="M635.6,350.4c-2.5,0-4.3,2.3-3.6,4.7l6.8,25.7c0.2,0.8,0.7,1.5,1.3,2l23.5-32.4H635.6z"/>
		<path class="st1" d="M658.3,369.3c0.4,1.7-0.6,3-2.4,3c-1.7,0-3.5-1.4-3.9-3c-0.4-1.7,0.6-3,2.4-3
			C656.2,366.2,657.9,367.6,658.3,369.3z"/>
		<path class="st18" d="M693.3,331.5c0.3,0.7,2.8,10.2,2.8,10.2s0.9,1.6,2.9,1.4c2.1-0.2,2.9-3.1,2.9-3.1l-3.6-12L693.3,331.5z"/>
		<path class="st18" d="M706.2,325.6c0,6.6-7,13.8-13.5,13.8c-6.6,0-10.2-7.3-10.2-13.8s5.3-11.9,11.9-11.9
			C700.9,313.7,706.2,319,706.2,325.6z"/>
		<path class="st1" d="M695.3,338.7l-1.4,3.6l0.9,3.8l2.8-4l2.8,4.5l3.1-5.5l-2.1-3.6c0,0-1,2.4-3.3,2.9
			C695.8,341,695.3,338.7,695.3,338.7z"/>
		<polygon class="st20" points="697.5,342.2 695.4,344.8 696.5,346.4 694.9,349.7 695.3,371.3 697.3,375.7 700.3,370.8 699.6,350.2 
			698,346.2 699.2,344.5 		"/>
		<linearGradient id="SVGID_10_" gradientUnits="userSpaceOnUse" x1="676.0091" y1="381.6401" x2="743.5614" y2="354.9203">
			<stop  offset="0" style="stop-color:#EAD18C;stop-opacity:0"/>
			<stop  offset="1" style="stop-color:#524F63;stop-opacity:0.7"/>
		</linearGradient>
		<polygon class="st22" points="712.1,348.2 712.9,386.2 695,386 		"/>
		<path class="st16" d="M710.6,338.2l1.6,35.8l-16.6,3.4l2.3,4.3l23.7,1.4l-3.2-35.4c-0.3-3.7-2.5-6.9-5.8-8.5L710.6,338.2z"/>
		<polygon class="st1" points="692.8,376.5 696.1,376.9 699.1,381.7 693.5,382.1 		"/>
		<path class="st5" d="M676.3,392.8l-29.3,7.5l14.9,58.6l5.1-2.6l-4.4-50.4l26.2-8.2l-15.2,8.7l0.3,47.8h4.6
			c0,0,12.9-46.8,14.1-46.8c1.3,0,22.9-14.4,22.9-14.4L676.3,392.8z"/>
		<polygon class="st5" points="646.2,463.4 666.5,462 667.1,455.6 645.3,460.5 		"/>
		<polygon class="st5" points="662.7,467 666.8,467.5 678.4,463.2 678.6,454.2 674,454.2 672,459.8 665.7,463.6 		"/>
		<path class="st23" d="M682,321.4c-0.5,0.9-0.9,1.9-0.6,2.8c0.4,1.1,1.8,1.5,3,1.6c2,0.2,4.1,0.3,6.1,0.3c1.4,0,2.7-0.1,4.1-0.4
			c2.2-0.5,4.1-1.6,6.1-2.7c1.4-0.8,2.9-1.8,3.2-3.3c0.2-1.6-0.9-3-1.9-4.1c-0.6-0.7-1.2-1.3-1.9-1.9c-1.8-1.3-4.1-1.6-6.3-1.3
			C688.4,313.2,684.5,316.8,682,321.4z"/>
		<path class="st23" d="M701.4,325.2c0.2-0.6,1-1,1.6-0.7c0.6,0.2,1,0.8,1.1,1.5c0.1,0.6-0.1,1.3-0.4,1.9c-0.1,0.3-0.3,0.6-0.4,0.9
			c-0.1,0.3-0.1,0.5-0.1,0.8c0,1.2,0,2.3,0.1,3.5c1-0.4,1.5-1.3,2-2.2c1.1-2,2.2-4.1,2-6.4c-0.1-1.9-1-3.6-2-5.2
			c-0.2-0.3-0.4-0.7-0.7-0.9c-0.5-0.3-1.1-0.3-1.6-0.2c-0.5,0.2-1,0.5-1.5,0.8c-0.5,0.3-0.9,0.6-1.4,0.9c-0.4,0.3-0.9,0.6-1.2,1.1
			c-0.4,0.9,0.2,1.3,0.7,1.8C700,323,699.5,328.8,701.4,325.2z"/>
		<g>
			<path class="st0" d="M684,335.2c-1.6,0-3.3-1.3-3.9-3c-0.3-0.9-0.2-1.7,0.2-2.3c0.4-0.5,1-0.8,1.7-0.8c1.6,0,3.3,1.3,3.9,3
				c0.3,0.9,0.2,1.7-0.2,2.3C685.3,334.9,684.7,335.2,684,335.2z M681.9,329.5c-0.6,0-1.1,0.2-1.3,0.6c-0.3,0.5-0.4,1.2-0.1,1.9
				c0.5,1.5,2.1,2.7,3.5,2.7c0.6,0,1.1-0.2,1.3-0.6c0.3-0.5,0.4-1.2,0.1-1.9C684.9,330.7,683.3,329.5,681.9,329.5z"/>
		</g>
		<g>
			<path class="st0" d="M691.8,335.2c-1.6,0-3.3-1.3-3.9-3c-0.3-0.9-0.2-1.7,0.2-2.3c0.4-0.5,1-0.8,1.7-0.8c1.6,0,3.3,1.3,3.9,3
				c0.3,0.9,0.2,1.7-0.2,2.3C693.2,334.9,692.6,335.2,691.8,335.2z M689.8,329.5c-0.6,0-1.1,0.2-1.3,0.6c-0.3,0.5-0.4,1.2-0.1,1.9
				c0.5,1.5,2.1,2.7,3.5,2.7c0.6,0,1.1-0.2,1.3-0.6c0.3-0.5,0.4-1.2,0.1-1.9C692.8,330.7,691.2,329.5,689.8,329.5z"/>
		</g>
	</g>
	<g>
		<path class="st5" d="M735.3,307c0.1,1.9,1.1,3.7,0.6,5.5c-0.4,1.5-1.8,2.5-2.2,4c-0.5,1.7,0.4,3.4,1.2,4.9
			c0.7,1.3,1.7,2.7,3.1,2.7c0.6,0,1.2-0.3,1.8-0.6c1.4-0.7,2.8-1.4,4.2-2.1c0.6-0.3,1.2-0.6,1.7-1.1c0.7-0.7,1.1-1.7,1.4-2.6
			c1.1-2.9,2-6,1.8-9.1c-0.2-3.1-1.9-6.3-4.9-7.5c-1.6-0.6-6.4-1.2-7.8,0.2c-0.6,0.6-0.3,1.3-0.4,2.1
			C735.7,304.7,735.2,305.8,735.3,307z"/>
		<path class="st14" d="M738.7,316.3l-1.4,0.4c-5.9,3.8-9.3,9.2-10.1,16.1l-3,48.6l4.5-2L738.7,316.3z"/>
		<path class="st20" d="M768.4,316l-24-1c-2-0.1-5.6,0.6-7.6,1.2l-3.1,1.4l5.4,25.7h0c-4.9,8.3-7.4,17.9-7.1,27.5L735,406h26.9
			l3.4-37c0.3-7.6-1.1-15.1-4.1-22.1l-1.5-3.4L768.4,316z"/>
		<linearGradient id="SVGID_11_" gradientUnits="userSpaceOnUse" x1="742.9988" y1="338.8634" x2="755.6563" y2="305.3824">
			<stop  offset="0" style="stop-color:#484EC2;stop-opacity:0"/>
			<stop  offset="1" style="stop-color:#444BCC;stop-opacity:0.5018"/>
		</linearGradient>
		<path class="st24" d="M739.6,326.3c0.7,1.2,1.6,2.3,2.8,3.1c1.6,0.9,3.6,1.1,5.4,0.7c1.8-0.4,3.5-1.2,5.1-2.2
			c2.9-1.7,5.6-3.7,7.8-6.3c1.5-1.8,2.6-4.5,1.4-6.5c-0.8-1.3-2.3-1.9-3.8-2.3C750.5,310.6,733.6,315.1,739.6,326.3z"/>
		<path class="st14" d="M758.1,303.4c0,6.4-6.8,15.1-13.2,15.1c-6.4,0-9.9-8.7-9.9-15.1c0-6.4,5.2-11.6,11.6-11.6
			C752.9,291.9,758.1,297,758.1,303.4z"/>
		<path class="st14" d="M768.4,316l16.7,21.7c1.7,2.3,1.1,5.6-1.3,7.1l-19.5,11.9l-2.4-3.8l13.4-10.7c1-0.8,1.2-2.2,0.5-3.2
			l-10.1-14.4L768.4,316z"/>
		<path class="st14" d="M715,383.6h10.5c1.7,0,3.1-1.3,3.2-3l0.1-1.2L715,383.6z"/>
		<path class="st14" d="M743.4,311.2c-0.2-0.4,2.8,7.6,2.8,7.6s0.7,3.3,3.4,2.5c2.8-0.8,1.1-12.5,0.7-12.6
			C749.9,308.6,743.7,311.9,743.4,311.2z"/>
		<path class="st5" d="M750.3,301.9c-5.4,3.3-11,6.6-17.2,7c1.4-1.7,1.1-4.2,1.4-6.5c0.4-3.6,2.6-7.1,5.7-9
			c3.1-1.9,7.1-2.4,10.6-1.2c1.3,0.5,2.5,1.2,3.3,2.3C756.3,297.8,752.7,300.4,750.3,301.9z"/>
		<path class="st5" d="M749.8,314.8c0.4,1.7,1.4,3.2,1.6,5c0.1,1.1-0.1,2.3-0.4,3.4c-0.3,1.3-0.6,2.7-0.9,4c1.9-0.4,3.6-1.3,5-2.5
			c5.4-4.3,8.1-11.6,6.9-18.3c-0.3-1.9-1-3.8-1.7-5.6c-0.5-1.4-1.1-2.8-2.1-4c-0.9-1.2-2.3-2.1-3.8-2.1c-1.8,0-3.4,1.1-4.5,2.6
			c-0.7,1-1.2,2.2-1.2,3.4c0,1.2,0.5,5.4,1.6,5.9c1.4-0.9,3.6-0.1,4.1,1.5c0.9,2.5-1.3,3-2.8,3.8
			C749.8,312.8,749.4,312.8,749.8,314.8z"/>
		<path class="st5" d="M762.1,307.2c1.1,0.9,2.4,1.5,3.4,2.5s1.7,2.5,1.1,3.9c-0.3,0.8-1.1,1.4-1.7,2c-0.6,0.6-1.2,1.4-1.1,2.3
			c0.1,0.6,0.4,1.1,0.8,1.6c0.9,1.3,1.6,2.8,1.3,4.3c-0.2,1.2-1.1,2.3-2.1,2.9c-1.1,0.6-2.4,0.8-3.6,0.6c-0.7-0.1-1.4-0.3-2.1-0.3
			c-1.9,0.1-3.4,1.8-5.3,2c-1.1,0.1-2.2-0.3-2.9-1.1c-0.7-0.8-1.1-1.9-0.9-3c0.3-1.7,1.8-3,3.2-4c1.4-1.1,2.9-2.4,3.1-4.1
			c0.2-1.3-0.5-2.6-0.3-3.9c0.2-1.9,2-3.3,2.4-5.1c0.2-1-0.1-3.7,1.5-3.7C760,304.2,761.1,306.5,762.1,307.2z"/>
		<path class="st5" d="M748.3,305.1c-0.3,0.6-0.8,1.2-1.2,1.8c-0.6,0.8-1.2,1.6-1.8,2.4c0.4-1.6,0.6-3.2,0.4-4.8
			c0-0.2-0.1-0.5,0-0.7c0.1-0.5,0.5-0.8,0.9-1c0.6-0.4,2-1.6,2.6-0.8C749.6,302.6,748.6,304.6,748.3,305.1z"/>
	</g>
	<g>
		<polygon class="st5" points="762.4,349.4 761.3,350.4 765.1,354.8 		"/>
		<path class="st25" d="M843.6,386.3l-2.5-48.1c0,0-12.4-2.6-16-2.6c-2,0-5.4,1-8.1,1.8c-2.5,0.8-4.6,2.6-5.9,5l-20.3,38.9l12.5,1.2
			l4.2-4.7l-2.1-3.2l7.6-17.9l-0.1,30.3L843.6,386.3z"/>
		<path class="st14" d="M842,324.3c0,6.6-5.3,11.9-11.9,11.9c-3.6,0-6.2-3.8-8.3-6.3c-1.8-2.1-3.1-2.7-3.1-5.6
			c0-6.6,4.9-11.8,11.5-11.8S842,317.7,842,324.3z"/>
		<polygon class="st5" points="811.6,383.6 770.1,383.6 761.3,350.4 802.8,350.4 		"/>
		<polygon class="st1" points="811.6,383.6 771.4,383.6 762.4,349.4 803,350.4 		"/>
		<rect x="770.4" y="381.2" class="st5" width="28.5" height="2.4"/>
		<linearGradient id="SVGID_12_" gradientUnits="userSpaceOnUse" x1="812.7709" y1="365.8008" x2="842.7985" y2="365.8008">
			<stop  offset="0" style="stop-color:#B6567A;stop-opacity:0"/>
			<stop  offset="1" style="stop-color:#C45771"/>
		</linearGradient>
		<path class="st26" d="M826.9,378l15.9-7.6l-1.3-25.6l-2.8,0.2l-20.6,21.6c0,0-3.1,8-5.3,14.4l0,5.9l21.4-0.4L826.9,378z"/>
		<polygon class="st20" points="800.5,375.9 778.4,375.9 773.4,357.1 795.8,357.6 		"/>
		<path class="st15" d="M806.8,392.8l-29.3,7.5l14.9,58.6l5.1-2.6l-4.4-50.4l26.2-8.2l-15.2,8.7l0.3,47.8h4.6
			c0,0,12.9-46.8,14.1-46.8c1.3,0,22.9-14.4,22.9-14.4L806.8,392.8z"/>
		<polygon class="st5" points="776.7,463.4 797,462 797.6,455.6 775.8,460.5 		"/>
		<path class="st0" d="M822.6,340.6c0.2,2.3,0.6,4.6,1.3,6.8c0.1,0.5,0.3,1,0.7,1.3c0.8,0.6,2,0.1,2.9-0.5c1.5-1,2.9-2.2,4-3.7
			c0.7-0.9,1.4-1.9,1.6-3.1c0.2-1.1,0-2.5-0.9-3.2c-1.4-1.2-4.3-1.1-6-1.2C823.8,337,822.4,338,822.6,340.6z"/>
		<polygon class="st5" points="793.2,467 797.3,467.5 808.9,463.2 809.1,454.2 804.5,454.2 802.5,459.8 796.2,463.6 		"/>
		<path class="st14" d="M825.6,330.3l-0.9,10c0,0,0.7,4.2,3.2,3.5c2.5-0.7,2.8-2.6,2.8-2.6l1.1-12L825.6,330.3z"/>
		<path class="st23" d="M834.5,320.4c1.9-0.1,3.8-0.2,5.5-1c1.7-0.8,3.1-2.5,3.1-4.3c0-1.9-2-3.6-3.7-3.1c-0.4,0.1-0.8,0.4-1.2,0.5
			c-0.6,0.2-1.3,0-2-0.2c-4.8-1.4-10.2-2.4-14.7-0.1c-0.8,0.4-1.6,1-2.1,1.8c-0.3,0.6-0.4,1.4-0.5,2.1c-0.2,1.9-0.3,3.9-0.4,5.8
			c1.3-0.7,2.6-1.5,3.9-2.1c1.3-0.6,2.2,0,3.6,0.3C828.8,320.5,831.7,320.5,834.5,320.4z"/>
		<path class="st27" d="M823.3,317.2c-1.2-0.2-2.5,0.2-3.5,1c-0.9,1.5-1.5,3.2-1.6,5c0.1,0.6,0.3,1.3,0.2,1.9c0,0.4,0.2,1,0.4,1.7
			c0.7,1,1.8,1.7,2.9,3c0,0.1,0.1,0.1,0.1,0.2c1.2-2,3-6.5,3.4-7c0.5-0.7,2.3-2.8,2-3.7C826.9,318.4,824.2,317.4,823.3,317.2z"/>
		<path class="st14" d="M823.3,322.1c-0.1-0.1-0.2-0.3-0.3-0.4c-0.2-0.1-0.4-0.1-0.6-0.1c-0.8,0-1.7,0.1-2.2,0.7
			c-0.2,0.3-0.3,0.6-0.4,0.9c-0.2,0.8-0.2,1.6-0.1,2.4c0.1,1.2,0.7,2.6,1.9,2.8c0.7,0.2,1.5-0.1,2-0.6
			C825.6,326.1,824.6,323.9,823.3,322.1z"/>
		<path class="st23" d="M838.4,328.3c0.6-0.1,1.2-0.3,1.9-0.1c0.6,0.1,1.2,0.6,1.2,1.3c0,0.3-0.1,0.6-0.1,0.9
			c-0.2,0.9,0.2,1.9,0.5,2.8c0.7,1.9,1.2,4.3,0,6c-1.1,1.6-3.3,2-5.2,2c-5.8-0.3-11.2-4.4-13-9.9c-0.6-1.9-0.8-4-0.2-5.9
			c0.2-0.6,0.7-1.3,1.3-1c0.3,2.2,1.8,4.3,3.8,5.3C832.1,331.2,835,329.1,838.4,328.3z"/>
		<g>
			<path class="st5" d="M763.7,350.4l38.6,0.9l8,31.2h-38.2L763.7,350.4 M762.4,349.4l9,34.2h40.2l-8.5-33.2L762.4,349.4
				L762.4,349.4z"/>
		</g>
		<path class="st1" d="M827.5,383.6h-57.1v-2.4h57.1c0.7,0,1.2,0.5,1.2,1.2l0,0C828.7,383,828.2,383.6,827.5,383.6z"/>
		<path class="st19" d="M798.6,383.6h-28.2v-2.4h28.2c0.7,0,1.2,0.5,1.2,1.2l0,0C799.8,383,799.3,383.6,798.6,383.6z"/>
		<path class="st25" d="M841.1,338.2l-10.4,27.5l-26.5,3.5l1,5.3l33.9-1.1l9.2-24.1c0.5-1.2,0.5-2.5,0.2-3.7c-0.8-2.7-2.8-5-5.4-6.3
			L841.1,338.2z"/>
		<path class="st14" d="M804.3,369.2l-14.3-7.6c0,0-0.8,1.1,0.4,2.1c1.1,0.9,4.7,3.6,4.7,3.6v2.1c1.2,3.9,4.9,5.7,8.9,5.3l1.3-0.1
			L804.3,369.2z"/>
	</g>
	<g>
		<path class="st28" d="M862.5,383.5h-17.1c0,0-0.5-1.2,2.2-1.7c2.7-0.5,10.4-0.7,10.4-0.7l2-2.2l2.7,0.7L862.5,383.5z"/>
		<path class="st29" d="M876.5,331.4l-18.2,49.1l4.5,1.1l27.9-47.8c0,0-0.8-3.1-5.5-6.1C880.4,324.7,876.5,331.4,876.5,331.4z"/>
		<path class="st18" d="M877,308.9c-3.5-5.5-10.9-7.1-16.4-3.6c-3.1,2-5.1,5.5-5.4,9.2c-0.2,1.8-0.2,2.5,0.6,4.2
			c0.8,1.7,2.8,4.1,1.6,7.5c-0.3,0.8,0,2,0.9,2.4c0.9,0.4,1.8-0.6,2.7-0.7c1.7-0.1,5.1,2.5,6.3,3.6c0.5,0.4,1.1,0.9,1.8,1
			c0.6,0.1,1.2-0.1,1.7-0.4c2.6-1.4,4.2-4.1,5.5-6.7c1.2-2.5,2.3-5.1,2.5-7.8C879.2,314.7,878.7,311.6,877,308.9z"/>
		<path class="st18" d="M876.5,331.9c0.5,0.5,1.1,1.1,1.8,1c0.3,0,0.6-0.2,0.9-0.4c0.7-0.5,1.4-1.1,2-1.7c0.4-0.4,0.7-0.8,0.8-1.4
			c0-0.3-0.1-0.6-0.2-0.9c-1.2-2.7-3.7-4.8-4.5-7.6c-0.4-1.3-0.4-2.7-0.9-3.9c-0.4-1.3-1.5-2.5-2.8-2.5c-0.8,0-1.5,0.4-2.2,0.8
			c-2.1,1.5-3.3,4.2-3.1,6.8c0.2,2.3,1.5,4.5,3.5,5.8C873.6,329,874.9,330.3,876.5,331.9z"/>
		<path class="st23" d="M860.5,305.3c-2.2,1.4-3.8,3.6-4.7,6.1c2.3,1.1,8.1-1.4,9.7-2.3c-0.2,4,2,8,5.4,10c2.1,1.2,4.6,1.8,6.6,3
			c0.5-1.5,1-3,1.1-4.5c0.6-2.9,0.1-6-1.7-8.7C873.4,303.4,866.1,301.8,860.5,305.3z"/>
		<path class="st18" d="M866.9,317.4c-0.7-1.2,0-2.9,1.3-3.6c1.3-0.6,2.9-0.2,3.9,0.7c1,1,1.4,2.5,1.3,3.9c-0.1,1.8-1.4,3.7-3.2,3.6
			c-1,0-1.8-0.7-2.4-1.5c-0.5-0.8-0.8-1.8-1.1-2.7"/>
		<polygon class="st1" points="883.1,325.8 879.7,321.8 874.3,331.7 876.3,337.9 883.4,329.9 		"/>
		<path class="st15" d="M886.9,326.3l31.8,35.4l-19.5,17.1l-23.9-36.7c-2.4-3.5,1.3-11.3,3.7-14.8l0,0
			C880.9,324.8,884.5,324.3,886.9,326.3z"/>
		<polygon class="st30" points="917.6,470.4 909.1,422.1 899.3,378.8 918.7,361.7 917.6,421.6 922.4,468 		"/>
		<polygon class="st5" points="918.7,361.7 902.7,471.9 897.8,471.1 899.3,378.8 		"/>
		<polygon class="st5" points="888.9,475.4 901.8,474.9 902.5,470.9 898.8,470.4 886.4,473.9 886.7,475.6 		"/>
		<polygon class="st30" points="922.4,468 922.8,471.7 907.9,472.6 907.8,471.4 920.9,467.2 		"/>
		<path class="st18" d="M856.1,383.5h-17.1c0,0-0.5-1.2,2.2-1.7c2.7-0.5,11-0.7,11-0.7l1.4-2.3l3.7,1.4L856.1,383.5z"/>
		<path class="st15" d="M880.4,329.5l-12.9,24.4L851.9,381l5,0.2l13.8-19.1l18.3-23.4c2.4-1.9,3.1-5.2,1.7-7.9l0,0
			C888.9,326.8,883.4,326.1,880.4,329.5z"/>
		<linearGradient id="SVGID_13_" gradientUnits="userSpaceOnUse" x1="882.6591" y1="364.1336" x2="886.9095" y2="337.9674">
			<stop  offset="0" style="stop-color:#484EC2;stop-opacity:0"/>
			<stop  offset="1" style="stop-color:#444BCC;stop-opacity:0.5018"/>
		</linearGradient>
		<path class="st31" d="M887.8,361.2c-0.4-5-2.1-20.4-2.1-20.4l-5.3,9L887.8,361.2z"/>
	</g>
	<g>
		<path class="st14" d="M746.7,401.8c-0.9,0-7.8,2.9-7.8,2.9l5.4,44.7c-1.2,0.6-2.9,0.9-4.1,1.3c-2.7,0.8-5.1,1-7.4,2.6
			c-0.2,0.1-0.2,0.8-0.3,1c-0.1,0.5,0.6,0.7,1.1,0.8c3.2,0.1,6.5,0.2,9.7,0c2.1-0.1,3.7-1.1,5.6-2.1c1.1-0.5,1.5-2.2,1.4-2.9
			C750.3,449.9,747.5,401.8,746.7,401.8z"/>
		<path class="st5" d="M740.7,453.5c3.1-0.3,7.3-1.7,9.7-3.6c0.2,2.1-0.4,4-4.3,5c-4.5,1.2-9.4,2.4-13.9,1.1c-0.5-0.1-1-0.4-1-0.9
			c0-0.2,0.1-0.4,0.3-0.6c0.8-1.1,3.2-3,4.6-2.5c0.7,0.2,1.3,1.1,2.1,1.3C739,453.5,739.9,453.6,740.7,453.5z"/>
	</g>
	<g>
		<path class="st14" d="M746.7,455.1"/>
		<path class="st14" d="M763.4,450.2c0-0.2-2.8-48.3-3.6-48.3c-0.9,0-7.8,2.9-7.8,2.9l5.4,44.7c0.9,2.4,1.7,4.7,3,6.9
			c1.3,2.2,3.1,4.2,5.4,5.4c0.2,0.1,0.6,0.2,0.8,0.1c0.1-0.1,0.2-0.3,0.2-0.4c0.4-1.3-0.2-2.7-0.7-4
			C765.1,455.1,763.6,452.7,763.4,450.2z"/>
		<path class="st5" d="M758.8,456.1c1.4,2.6,3.1,5.2,5.8,6.4c0.5,0.2,1,0.4,1.4,0.3c0.7-0.1,1.1-0.7,1.3-1.4c0.2-0.7,0.1-1.3-0.1-2
			c-0.3-1-0.7-1.9-1.2-2.8c-0.1-0.2-0.3-0.4-0.5-0.5c-0.3,0-0.6,0.2-0.8,0.4c-0.7,0.5-1.7,0.4-2.4,0c-0.7-0.4-1.3-1.1-1.8-1.8
			c-1-1.4-1.9-3.9-3.3-4.7C756.7,452,757.8,454.3,758.8,456.1z"/>
	</g>
	<g>
		<circle class="st5" cx="682.4" cy="463.3" r="3.3"/>
		<circle class="st5" cx="722.4" cy="463.3" r="3.3"/>
		<path class="st5" d="M704.9,463.3c0,1.8-1.5,3.3-3.3,3.3c-1.8,0-3.3-1.5-3.3-3.3s1.5-3.3,3.3-3.3
			C703.4,460,704.9,461.5,704.9,463.3z"/>
		<path class="st32" d="M682.4,463.3v-1.7c0-3.8,3.1-7,7-7h13.1v-33.9"/>
		<path class="st32" d="M722.1,463.3v-1.7c0-3.8-3.1-7-7-7H702v-33.9"/>
		<line class="st32" x1="701.6" y1="463.3" x2="701.6" y2="454.6"/>
		<rect x="698" y="437.5" class="st5" width="7.4" height="16.8"/>
		<rect x="699.2" y="421" class="st5" width="4.7" height="19.1"/>
	</g>
	<g>
		<circle class="st5" cx="810" cy="463.3" r="3.3"/>
		<circle class="st5" cx="850" cy="463.3" r="3.3"/>
		<circle class="st5" cx="829.2" cy="463.3" r="3.3"/>
		<path class="st32" d="M810,463.3v-1.7c0-3.8,3.1-7,7-7H830v-33.9"/>
		<path class="st32" d="M849.6,463.3v-1.7c0-3.8-3.1-7-7-7h-13.1v-33.9"/>
		<line class="st32" x1="829.2" y1="463.3" x2="829.2" y2="454.6"/>
		<rect x="825.6" y="437.5" class="st5" width="7.4" height="16.8"/>
		<rect x="826.8" y="421" class="st5" width="4.7" height="19.1"/>
	</g>
	<g>
		<rect x="628.9" y="387.1" class="st33" width="228.3" height="36.2"/>
		<rect x="629.2" y="387.4" class="st5" width="3.8" height="92.2"/>
		<rect x="856" y="387.4" class="st5" width="3.8" height="92.2"/>
		<linearGradient id="SVGID_14_" gradientUnits="userSpaceOnUse" x1="742.99" y1="403.5236" x2="759.1484" y2="328.946">
			<stop  offset="0" style="stop-color:#676475;stop-opacity:0"/>
			<stop  offset="1" style="stop-color:#524F63;stop-opacity:0.7"/>
		</linearGradient>
		<polygon class="st34" points="859.8,408.5 628.6,387.4 859.8,387.4 		"/>
		<rect x="620" y="383.6" class="st12" width="248.3" height="6.1"/>
	</g>
</g>
<g id="DESIGNED_BY_FREEPIK">
</g>
</svg>
