<?xml version="1.0" encoding="utf-8"?>
<!-- Generator: Adobe Illustrator 22.0.1, SVG Export Plug-In . SVG Version: 6.00 Build 0)  -->
<svg version="1.1" xmlns="http://www.w3.org/2000/svg" xmlns:xlink="http://www.w3.org/1999/xlink" x="0px" y="0px"
	 viewBox="0 0 784 500" style="enable-background:new 0 0 784 500;" xml:space="preserve">
<style type="text/css">
	.st0{clip-path:url(#SVGID_2_);}
	.st1{fill:#EF5451;}
	.st2{fill:#CD3D3F;}
	.st3{fill:#732021;}
	.st4{fill:#DFEBCC;}
	.st5{fill:#FFFAEF;}
	.st6{fill:#CD3C4C;}
	.st7{fill:#FFFFFF;}
	.st8{fill:#DD8934;}
	.st9{fill:#E4BC67;}
	.st10{fill:#8FC8CB;}
	.st11{fill:#ABD3CB;}
</style>
<g id="BACKGROUND_2">
	<g>
		<g>
			<g>
				<defs>
					<rect id="SVGID_1_" width="784" height="500"/>
				</defs>
				<clipPath id="SVGID_2_">
					<use xlink:href="#SVGID_1_"  style="overflow:visible;"/>
				</clipPath>
				<g class="st0">
					<path class="st1" d="M126.9,40.3c0,10.7-8.6,19.3-19.3,19.3c-10.7,0-19.3-8.6-19.3-19.3c0-10.7,19.3-38.8,19.3-38.8
						S126.9,29.6,126.9,40.3z"/>
					<path class="st2" d="M92.3,27.7c-2.3,4.9-3.9,9.5-3.9,12.6c0,10.7,8.6,19.3,19.3,19.3c10.7,0,19.3-8.6,19.3-19.3
						c0-0.2,0-0.4,0-0.6c-3.6,2.3-7.9,3.6-12.5,3.6C104.2,43.3,95.5,36.8,92.3,27.7z"/>
					<path class="st3" d="M107.6,61.1c-11.5,0-20.8-9.3-20.8-20.8c0-11,18.8-38.5,19.6-39.6c0.3-0.4,0.7-0.6,1.2-0.6
						c0.5,0,0.9,0.2,1.2,0.6c0.8,1.2,19.6,28.6,19.6,39.6C128.4,51.7,119.1,61.1,107.6,61.1z M107.6,4.1
						c-4.2,6.3-17.8,27.6-17.8,36.1c0,9.8,8,17.8,17.8,17.8c9.8,0,17.8-8,17.8-17.8C125.5,31.7,111.8,10.5,107.6,4.1z"/>
				</g>
				<g class="st0">
					<path class="st1" d="M351.2,472.7c0,10.7-8.6,19.3-19.3,19.3c-10.7,0-19.3-8.6-19.3-19.3c0-10.7,19.3-38.8,19.3-38.8
						S351.2,462.1,351.2,472.7z"/>
					<path class="st2" d="M316.5,460.2c-2.3,4.9-3.9,9.5-3.9,12.6c0,10.7,8.6,19.3,19.3,19.3c10.7,0,19.3-8.6,19.3-19.3
						c0-0.2,0-0.4,0-0.6c-3.6,2.3-7.9,3.6-12.5,3.6C328.4,475.8,319.7,469.3,316.5,460.2z"/>
					<path class="st3" d="M331.9,493.5c-11.5,0-20.8-9.3-20.8-20.8c0-11,18.8-38.5,19.6-39.6c0.3-0.4,0.7-0.6,1.2-0.6
						c0.5,0,0.9,0.2,1.2,0.6c0.8,1.2,19.6,28.6,19.6,39.6C352.6,484.2,343.3,493.5,331.9,493.5z M331.9,436.6
						c-4.2,6.3-17.8,27.6-17.8,36.1c0,9.8,8,17.8,17.8,17.8c9.8,0,17.8-8,17.8-17.8C349.7,464.2,336.1,442.9,331.9,436.6z"/>
				</g>
				<g class="st0">
					<path class="st1" d="M548.8,40.9c0,10.7-8.6,19.3-19.3,19.3c-10.7,0-19.3-8.6-19.3-19.3c0-10.7,19.3-38.8,19.3-38.8
						S548.8,30.3,548.8,40.9z"/>
					<path class="st2" d="M514.2,28.3c-2.3,4.9-3.9,9.5-3.9,12.6c0,10.7,8.6,19.3,19.3,19.3c10.7,0,19.3-8.6,19.3-19.3
						c0-0.2,0-0.4,0-0.6c-3.6,2.3-7.9,3.6-12.5,3.6C526.1,43.9,517.4,37.4,514.2,28.3z"/>
					<path class="st3" d="M529.5,61.7c-11.5,0-20.8-9.3-20.8-20.8c0-11,18.8-38.5,19.6-39.6c0.3-0.4,0.7-0.6,1.2-0.6
						c0.5,0,0.9,0.2,1.2,0.6c0.8,1.2,19.6,28.6,19.6,39.6C550.3,52.4,541,61.7,529.5,61.7z M529.5,4.8c-4.2,6.3-17.8,27.6-17.8,36.1
						c0,9.8,8,17.8,17.8,17.8c9.8,0,17.8-8,17.8-17.8C547.4,32.3,533.7,11.1,529.5,4.8z"/>
				</g>
				<g class="st0">
					<path class="st4" d="M83.1,390.4c0,5.3-4.1,9.6-9.1,9.6H25.8c-5,0-9.1-4.3-9.1-9.6v-29.9c0-5.3,4.1-9.6,9.1-9.6H74
						c5,0,9.1,4.3,9.1,9.6V390.4z"/>
					<path class="st5" d="M77.6,388.3c0,4.4-3.4,8-7.6,8H29.7c-4.2,0-7.6-3.6-7.6-8v-25c0-4.4,3.4-8,7.6-8H70c4.2,0,7.6,3.6,7.6,8
						V388.3z"/>
					<path class="st6" d="M51.4,350.9H25c0,0-8,0.8-8,13.7h65.7c0,0,0.5-13.6-6.7-13.6L51.4,350.9z"/>
					<path class="st1" d="M69.8,355.3H29.5c-4.2,0-7.6,3.6-7.6,8v1.2h55.5v-1.2C77.4,358.9,74,355.3,69.8,355.3z"/>
					<path class="st3" d="M74,401.5H25.8c-5.8,0-10.6-5-10.6-11.1v-29.9c0-6.1,4.7-11.1,10.6-11.1H74c5.8,0,10.6,5,10.6,11.1v29.9
						C84.6,396.5,79.8,401.5,74,401.5z M25.8,352.4c-4.2,0-7.6,3.6-7.6,8.1v29.9c0,4.5,3.4,8.1,7.6,8.1H74c4.2,0,7.6-3.6,7.6-8.1
						v-29.9c0-4.5-3.4-8.1-7.6-8.1H25.8z"/>
					<path class="st3" d="M61,352.4H38.7c-0.8,0-1.5-0.7-1.5-1.5V342c0-0.8,0.7-1.5,1.5-1.5H61c0.8,0,1.5,0.7,1.5,1.5v8.9
						C62.5,351.7,61.8,352.4,61,352.4z M40.2,349.4h19.4v-5.9H40.2V349.4z"/>
					<g>
						<rect x="26.2" y="358.5" class="st7" width="7.8" height="12"/>
						<path class="st3" d="M34,372h-7.8c-0.8,0-1.5-0.7-1.5-1.5v-12c0-0.8,0.7-1.5,1.5-1.5H34c0.8,0,1.5,0.7,1.5,1.5v12
							C35.5,371.4,34.8,372,34,372z M27.7,369.1h4.8V360h-4.8V369.1z"/>
					</g>
					<g>
						<rect x="64.8" y="358.5" class="st7" width="7.8" height="12"/>
						<path class="st3" d="M72.5,372h-7.8c-0.8,0-1.5-0.7-1.5-1.5v-12c0-0.8,0.7-1.5,1.5-1.5h7.8c0.8,0,1.5,0.7,1.5,1.5v12
							C74,371.4,73.4,372,72.5,372z M66.3,369.1h4.8V360h-4.8V369.1z"/>
					</g>
					<path class="st3" d="M26.2,366h-9.6c-0.8,0-1.5-0.7-1.5-1.5c0-0.8,0.7-1.5,1.5-1.5h9.6c0.8,0,1.5,0.7,1.5,1.5
						C27.7,365.3,27.1,366,26.2,366z"/>
					<path class="st3" d="M82.1,366h-9.6c-0.8,0-1.5-0.7-1.5-1.5c0-0.8,0.7-1.5,1.5-1.5h9.6c0.8,0,1.5,0.7,1.5,1.5
						C83.6,365.3,83,366,82.1,366z"/>
					<path class="st3" d="M64.8,366H34.6c-0.8,0-1.5-0.7-1.5-1.5c0-0.8,0.7-1.5,1.5-1.5h30.2c0.8,0,1.5,0.7,1.5,1.5
						C66.3,365.3,65.6,366,64.8,366z"/>
					<rect x="45.3" y="370.5" class="st1" width="9.2" height="21"/>
					<rect x="39.3" y="376.4" class="st1" width="21" height="9.2"/>
				</g>
				<g class="st0">
					<path class="st4" d="M358.7,48.4c0,5.3-4.1,9.6-9.1,9.6h-48.2c-5,0-9.1-4.3-9.1-9.6V18.5c0-5.3,4.1-9.6,9.1-9.6h48.2
						c5,0,9.1,4.3,9.1,9.6V48.4z"/>
					<path class="st5" d="M353.3,46.3c0,4.4-3.4,8-7.6,8h-40.3c-4.2,0-7.6-3.6-7.6-8v-25c0-4.4,3.4-8,7.6-8h40.3
						c4.2,0,7.6,3.6,7.6,8V46.3z"/>
					<path class="st6" d="M327,8.9h-26.4c0,0-8,0.8-8,13.7h65.7c0,0,0.5-13.6-6.7-13.6L327,8.9z"/>
					<path class="st1" d="M345.5,13.3h-40.3c-4.2,0-7.6,3.6-7.6,8v1.2h55.5v-1.2C353.1,16.9,349.7,13.3,345.5,13.3z"/>
					<path class="st3" d="M349.6,59.5h-48.2c-5.8,0-10.6-5-10.6-11.1V18.5c0-6.1,4.7-11.1,10.6-11.1h48.2c5.8,0,10.6,5,10.6,11.1
						v29.9C360.2,54.5,355.4,59.5,349.6,59.5z M301.4,10.4c-4.2,0-7.6,3.6-7.6,8.1v29.9c0,4.5,3.4,8.1,7.6,8.1h48.2
						c4.2,0,7.6-3.6,7.6-8.1V18.5c0-4.5-3.4-8.1-7.6-8.1H301.4z"/>
					<path class="st3" d="M336.7,10.4h-22.3c-0.8,0-1.5-0.7-1.5-1.5V0c0-0.8,0.7-1.5,1.5-1.5h22.3c0.8,0,1.5,0.7,1.5,1.5v8.9
						C338.1,9.7,337.5,10.4,336.7,10.4z M315.8,7.4h19.4V1.5h-19.4V7.4z"/>
					<g>
						<rect x="301.9" y="16.5" class="st7" width="7.7" height="12"/>
						<path class="st3" d="M309.6,30h-7.7c-0.8,0-1.5-0.7-1.5-1.5v-12c0-0.8,0.7-1.5,1.5-1.5h7.7c0.8,0,1.5,0.7,1.5,1.5v12
							C311.1,29.4,310.5,30,309.6,30z M303.4,27.1h4.8V18h-4.8V27.1z"/>
					</g>
					<g>
						<rect x="340.4" y="16.5" class="st7" width="7.8" height="12"/>
						<path class="st3" d="M348.2,30h-7.8c-0.8,0-1.5-0.7-1.5-1.5v-12c0-0.8,0.7-1.5,1.5-1.5h7.8c0.8,0,1.5,0.7,1.5,1.5v12
							C349.7,29.4,349,30,348.2,30z M341.9,27.1h4.8V18h-4.8V27.1z"/>
					</g>
					<path class="st3" d="M301.9,24h-9.6c-0.8,0-1.5-0.7-1.5-1.5c0-0.8,0.7-1.5,1.5-1.5h9.6c0.8,0,1.5,0.7,1.5,1.5
						C303.4,23.4,302.7,24,301.9,24z"/>
					<path class="st3" d="M357.8,24h-9.6c-0.8,0-1.5-0.7-1.5-1.5c0-0.8,0.7-1.5,1.5-1.5h9.6c0.8,0,1.5,0.7,1.5,1.5
						C359.3,23.4,358.6,24,357.8,24z"/>
					<path class="st3" d="M340.4,24h-30.2c-0.8,0-1.5-0.7-1.5-1.5c0-0.8,0.7-1.5,1.5-1.5h30.2c0.8,0,1.5,0.7,1.5,1.5
						C341.9,23.4,341.3,24,340.4,24z"/>
					<rect x="320.9" y="28.5" class="st1" width="9.2" height="21"/>
					<rect x="315" y="34.5" class="st1" width="21" height="9.2"/>
				</g>
				<g class="st0">
					<path class="st4" d="M772.5,229.3c0,5.3-4.1,9.6-9.1,9.6h-48.2c-5,0-9.1-4.3-9.1-9.6v-29.9c0-5.3,4.1-9.6,9.1-9.6h48.2
						c5,0,9.1,4.3,9.1,9.6V229.3z"/>
					<path class="st5" d="M767.1,227.3c0,4.4-3.4,8-7.6,8h-40.3c-4.2,0-7.6-3.6-7.6-8v-25c0-4.4,3.4-8,7.6-8h40.3
						c4.2,0,7.6,3.6,7.6,8V227.3z"/>
					<path class="st6" d="M740.8,189.8h-26.4c0,0-8,0.8-8,13.7h65.7c0,0,0.5-13.6-6.7-13.6L740.8,189.8z"/>
					<path class="st1" d="M759.2,194.2h-40.3c-4.2,0-7.6,3.6-7.6,8v1.2h55.5v-1.2C766.9,197.8,763.4,194.2,759.2,194.2z"/>
					<path class="st3" d="M763.4,240.4h-48.2c-5.8,0-10.6-5-10.6-11.1v-29.9c0-6.1,4.7-11.1,10.6-11.1h48.2c5.8,0,10.6,5,10.6,11.1
						v29.9C774,235.4,769.2,240.4,763.4,240.4z M715.2,191.3c-4.2,0-7.6,3.6-7.6,8.1v29.9c0,4.5,3.4,8.1,7.6,8.1h48.2
						c4.2,0,7.6-3.6,7.6-8.1v-29.9c0-4.5-3.4-8.1-7.6-8.1H715.2z"/>
					<path class="st3" d="M750.4,191.3h-22.3c-0.8,0-1.5-0.7-1.5-1.5V181c0-0.8,0.7-1.5,1.5-1.5h22.3c0.8,0,1.5,0.7,1.5,1.5v8.9
						C751.9,190.6,751.3,191.3,750.4,191.3z M729.6,188.3H749v-5.9h-19.4V188.3z"/>
					<g>
						<rect x="715.7" y="197.5" class="st7" width="7.7" height="12"/>
						<path class="st3" d="M723.4,210.9h-7.7c-0.8,0-1.5-0.7-1.5-1.5v-12c0-0.8,0.7-1.5,1.5-1.5h7.7c0.8,0,1.5,0.7,1.5,1.5v12
							C724.9,210.3,724.2,210.9,723.4,210.9z M717.1,208h4.8v-9.1h-4.8V208z"/>
					</g>
					<g>
						<rect x="754.2" y="197.5" class="st7" width="7.7" height="12"/>
						<path class="st3" d="M762,210.9h-7.7c-0.8,0-1.5-0.7-1.5-1.5v-12c0-0.8,0.7-1.5,1.5-1.5h7.7c0.8,0,1.5,0.7,1.5,1.5v12
							C763.4,210.3,762.8,210.9,762,210.9z M755.7,208h4.8v-9.1h-4.8V208z"/>
					</g>
					<path class="st3" d="M715.7,204.9h-9.6c-0.8,0-1.5-0.7-1.5-1.5c0-0.8,0.7-1.5,1.5-1.5h9.6c0.8,0,1.5,0.7,1.5,1.5
						C717.1,204.3,716.5,204.9,715.7,204.9z"/>
					<path class="st3" d="M771.6,204.9H762c-0.8,0-1.5-0.7-1.5-1.5c0-0.8,0.7-1.5,1.5-1.5h9.6c0.8,0,1.5,0.7,1.5,1.5
						C773,204.3,772.4,204.9,771.6,204.9z"/>
					<path class="st3" d="M754.2,204.9H724c-0.8,0-1.5-0.7-1.5-1.5c0-0.8,0.7-1.5,1.5-1.5h30.2c0.8,0,1.5,0.7,1.5,1.5
						C755.7,204.3,755,204.9,754.2,204.9z"/>
					<rect x="734.7" y="209.5" class="st1" width="9.2" height="21"/>
					<rect x="728.8" y="215.4" class="st1" width="21" height="9.2"/>
				</g>
				<g class="st0">
					<path class="st4" d="M689.7,484.3c0,5.3-4.1,9.6-9.1,9.6h-48.2c-5,0-9.1-4.3-9.1-9.6v-29.9c0-5.3,4.1-9.6,9.1-9.6h48.2
						c5,0,9.1,4.3,9.1,9.6V484.3z"/>
					<path class="st5" d="M684.2,482.3c0,4.4-3.4,8-7.6,8h-40.3c-4.2,0-7.6-3.6-7.6-8v-25c0-4.4,3.4-8,7.6-8h40.3
						c4.2,0,7.6,3.6,7.6,8V482.3z"/>
					<path class="st6" d="M658,444.8h-26.4c0,0-8,0.8-8,13.7h65.7c0,0,0.5-13.6-6.7-13.6L658,444.8z"/>
					<path class="st1" d="M676.4,449.2h-40.3c-4.2,0-7.6,3.6-7.6,8v1.2H684v-1.2C684,452.8,680.6,449.2,676.4,449.2z"/>
					<path class="st3" d="M680.6,495.4h-48.2c-5.8,0-10.6-5-10.6-11.1v-29.9c0-6.1,4.7-11.1,10.6-11.1h48.2c5.8,0,10.6,5,10.6,11.1
						v29.9C691.1,490.4,686.4,495.4,680.6,495.4z M632.3,446.3c-4.2,0-7.6,3.6-7.6,8.1v29.9c0,4.5,3.4,8.1,7.6,8.1h48.2
						c4.2,0,7.6-3.6,7.6-8.1v-29.9c0-4.5-3.4-8.1-7.6-8.1H632.3z"/>
					<path class="st3" d="M667.6,446.3h-22.3c-0.8,0-1.5-0.7-1.5-1.5V436c0-0.8,0.7-1.5,1.5-1.5h22.3c0.8,0,1.5,0.7,1.5,1.5v8.9
						C669.1,445.6,668.4,446.3,667.6,446.3z M646.8,443.3h19.4v-5.9h-19.4V443.3z"/>
					<g>
						<rect x="632.8" y="452.5" class="st7" width="7.7" height="12"/>
						<path class="st3" d="M640.6,465.9h-7.7c-0.8,0-1.5-0.7-1.5-1.5v-12c0-0.8,0.7-1.5,1.5-1.5h7.7c0.8,0,1.5,0.7,1.5,1.5v12
							C642.1,465.3,641.4,465.9,640.6,465.9z M634.3,463h4.8v-9.1h-4.8V463z"/>
					</g>
					<g>
						<rect x="671.4" y="452.5" class="st7" width="7.7" height="12"/>
						<path class="st3" d="M679.1,465.9h-7.7c-0.8,0-1.5-0.7-1.5-1.5v-12c0-0.8,0.7-1.5,1.5-1.5h7.7c0.8,0,1.5,0.7,1.5,1.5v12
							C680.6,465.3,679.9,465.9,679.1,465.9z M672.9,463h4.8v-9.1h-4.8V463z"/>
					</g>
					<path class="st3" d="M632.8,459.9h-9.6c-0.8,0-1.5-0.7-1.5-1.5c0-0.8,0.7-1.5,1.5-1.5h9.6c0.8,0,1.5,0.7,1.5,1.5
						C634.3,459.3,633.6,459.9,632.8,459.9z"/>
					<path class="st3" d="M688.7,459.9h-9.6c-0.8,0-1.5-0.7-1.5-1.5c0-0.8,0.7-1.5,1.5-1.5h9.6c0.8,0,1.5,0.7,1.5,1.5
						C690.2,459.3,689.5,459.9,688.7,459.9z"/>
					<path class="st3" d="M671.4,459.9h-30.2c-0.8,0-1.5-0.7-1.5-1.5c0-0.8,0.7-1.5,1.5-1.5h30.2c0.8,0,1.5,0.7,1.5,1.5
						C672.9,459.3,672.2,459.9,671.4,459.9z"/>
					<rect x="651.8" y="464.5" class="st1" width="9.2" height="21"/>
					<rect x="645.9" y="470.4" class="st1" width="21" height="9.2"/>
				</g>
				<g class="st0">
					<path class="st4" d="M730.7,419.6c0,13.3-10.8,24.2-24.2,24.2c-13.3,0-24.2-10.8-24.2-24.2c0-13.3,10.8-24.2,24.2-24.2
						C719.8,395.5,730.7,406.3,730.7,419.6z"/>
					<path class="st5" d="M730.7,417.7c0,11-8.9,20-20,20c-11,0-20-9-20-20c0-11,8.9-20,20-20C721.7,397.7,730.7,406.7,730.7,417.7z
						"/>
					<path class="st3" d="M706.5,445.3c-14.1,0-25.6-11.5-25.6-25.6c0-14.1,11.5-25.6,25.6-25.6s25.6,11.5,25.6,25.6
						C732.1,433.8,720.6,445.3,706.5,445.3z M706.5,396.9c-12.5,0-22.7,10.2-22.7,22.7c0,12.5,10.2,22.7,22.7,22.7
						c12.5,0,22.7-10.2,22.7-22.7C729.2,407.1,719,396.9,706.5,396.9z"/>
					<path class="st3" d="M706.5,445.3c-0.8,0-1.5-0.7-1.5-1.5v-48.3c0-0.8,0.7-1.5,1.5-1.5c0.8,0,1.5,0.7,1.5,1.5v48.3
						C708,444.6,707.3,445.3,706.5,445.3z"/>
				</g>
				<g class="st0">
					<path class="st4" d="M681.7,32.9c0,13.3-10.8,24.2-24.2,24.2c-13.3,0-24.2-10.8-24.2-24.2c0-13.3,10.8-24.2,24.2-24.2
						C670.8,8.7,681.7,19.6,681.7,32.9z"/>
					<path class="st5" d="M681.7,31c0,11-8.9,20-20,20c-11,0-20-9-20-20c0-11,8.9-20,20-20C672.7,11,681.7,20,681.7,31z"/>
					<path class="st3" d="M657.5,58.6c-14.1,0-25.6-11.5-25.6-25.6c0-14.1,11.5-25.6,25.6-25.6s25.6,11.5,25.6,25.6
						C683.1,47.1,671.6,58.6,657.5,58.6z M657.5,10.2c-12.5,0-22.7,10.2-22.7,22.7c0,12.5,10.2,22.7,22.7,22.7
						c12.5,0,22.7-10.2,22.7-22.7C680.2,20.4,670,10.2,657.5,10.2z"/>
					<path class="st3" d="M657.5,58.6c-0.8,0-1.5-0.7-1.5-1.5V8.7c0-0.8,0.7-1.5,1.5-1.5c0.8,0,1.5,0.7,1.5,1.5v48.3
						C659,57.9,658.3,58.6,657.5,58.6z"/>
				</g>
				<g class="st0">
					<path class="st4" d="M60.9,120.9c0,13.3-10.8,24.2-24.2,24.2c-13.3,0-24.2-10.8-24.2-24.2c0-13.3,10.8-24.2,24.2-24.2
						C50.1,96.7,60.9,107.6,60.9,120.9z"/>
					<path class="st5" d="M60.9,119c0,11-8.9,20-20,20c-11,0-20-9-20-20c0-11,8.9-20,20-20C52,99,60.9,108,60.9,119z"/>
					<path class="st3" d="M36.8,146.6c-14.1,0-25.6-11.5-25.6-25.6c0-14.1,11.5-25.6,25.6-25.6c14.1,0,25.6,11.5,25.6,25.6
						C62.4,135,50.9,146.6,36.8,146.6z M36.8,98.2c-12.5,0-22.7,10.2-22.7,22.7c0,12.5,10.2,22.7,22.7,22.7
						c12.5,0,22.7-10.2,22.7-22.7C59.4,108.4,49.3,98.2,36.8,98.2z"/>
					<path class="st3" d="M36.8,146.6c-0.8,0-1.5-0.7-1.5-1.5V96.7c0-0.8,0.7-1.5,1.5-1.5c0.8,0,1.5,0.7,1.5,1.5v48.3
						C38.2,145.9,37.6,146.6,36.8,146.6z"/>
				</g>
				<g class="st0">
					
						<ellipse transform="matrix(0.9999 -1.339989e-02 1.339989e-02 0.9999 -6.201 1.9901)" class="st8" cx="145.4" cy="463.7" rx="24.2" ry="24.2"/>
					<path class="st9" d="M169.6,461.8c0,11-9,20-20,20c-11,0-20-8.9-20-20c0-11,8.9-20,20-20C160.6,441.8,169.6,450.8,169.6,461.8z
						"/>
					<path class="st3" d="M145.4,489.4c-14.1,0-25.6-11.5-25.6-25.6s11.5-25.6,25.6-25.6c14.1,0,25.6,11.5,25.6,25.6
						S159.5,489.4,145.4,489.4z M145.4,441c-12.5,0-22.7,10.2-22.7,22.7c0,12.5,10.2,22.7,22.7,22.7c12.5,0,22.7-10.2,22.7-22.7
						C168.1,451.2,157.9,441,145.4,441z"/>
					<path class="st3" d="M145.4,489.4c-0.8,0-1.5-0.7-1.5-1.5v-48.3c0-0.8,0.7-1.5,1.5-1.5c0.8,0,1.5,0.7,1.5,1.5v48.3
						C146.9,488.7,146.2,489.4,145.4,489.4z"/>
				</g>
				<g class="st0">
					<circle class="st8" cx="706.2" cy="85.4" r="24.2"/>
					<path class="st9" d="M730.3,83.4c0,11-9,20-20,20c-11,0-20-8.9-20-20c0-11,8.9-20,20-20C721.4,63.5,730.3,72.4,730.3,83.4z"/>
					<path class="st3" d="M706.2,111c-14.1,0-25.6-11.5-25.6-25.6s11.5-25.6,25.6-25.6c14.1,0,25.6,11.5,25.6,25.6
						S720.3,111,706.2,111z M706.2,62.7c-12.5,0-22.7,10.2-22.7,22.7s10.2,22.7,22.7,22.7c12.5,0,22.7-10.2,22.7-22.7
						S718.7,62.7,706.2,62.7z"/>
					<path class="st3" d="M706.2,111c-0.8,0-1.5-0.7-1.5-1.5V61.2c0-0.8,0.7-1.5,1.5-1.5c0.8,0,1.5,0.7,1.5,1.5v48.3
						C707.6,110.3,707,111,706.2,111z"/>
				</g>
				<g class="st0">
					<path class="st10" d="M436.2,10.4c0,13.3-10.8,24.2-24.2,24.2c-13.3,0-24.2-10.8-24.2-24.2c0-13.3,10.8-24.2,24.2-24.2
						C425.3-13.7,436.2-2.9,436.2,10.4z"/>
					<path class="st11" d="M436.2,8.5c0,11-8.9,20-20,20c-11,0-20-8.9-20-20c0-11,8.9-20,20-20C427.2-11.5,436.2-2.5,436.2,8.5z"/>
					<path class="st3" d="M412,36.1c-14.1,0-25.6-11.5-25.6-25.6c0-14.1,11.5-25.6,25.6-25.6c14.1,0,25.6,11.5,25.6,25.6
						C437.6,24.6,426.1,36.1,412,36.1z M412-12.3c-12.5,0-22.7,10.2-22.7,22.7c0,12.5,10.2,22.7,22.7,22.7
						c12.5,0,22.7-10.2,22.7-22.7C434.7-2.1,424.5-12.3,412-12.3z"/>
					<path class="st3" d="M412,36.1c-0.8,0-1.5-0.7-1.5-1.5v-48.3c0-0.8,0.7-1.5,1.5-1.5c0.8,0,1.5,0.7,1.5,1.5v48.3
						C413.5,35.4,412.8,36.1,412,36.1z"/>
				</g>
				<g class="st0">
					<path class="st5" d="M62.4,435.4l-17.7-17.7c-1.9-1.9-4.9-1.9-6.8,0c-1.9,1.9-1.9,4.9,0,6.8l2.6,2.6L9.2,458.3
						c-3.5,3.5-3.5,9.1,0,12.5l0.1,0.1c3.5,3.5,9.1,3.5,12.5,0l31.3-31.3l2.6,2.6c1.9,1.9,4.9,1.9,6.8,0
						C64.3,440.3,64.3,437.2,62.4,435.4z"/>
					<path class="st4" d="M37.9,417.7c-1.8,1.9-1.8,4.9,0,6.7l2.6,2.6L9.2,458.3c-2.5,2.5-3.2,6.1-2.1,9.2l40.3-40.3L37.9,417.7z"/>
					<path class="st1" d="M29.5,437.9c0,0,0.2,11.7,11.1,14.2l-18.8,18.8c0,0-6.9,5.7-12.6-0.1c0,0-5.3-7.2,0.7-13.2L29.5,437.9z"/>
					<path class="st6" d="M29.5,437.9L9.8,457.6c-3.3,3.3-3.2,6.9-2.4,9.6l23.4-23.4C29.6,440.7,29.5,437.9,29.5,437.9z"/>
					<path class="st3" d="M8.2,471.9L8.2,471.9c-4.1-4.1-4.1-10.7-0.1-14.7L38.4,427l-1.5-1.5c-2.4-2.4-2.4-6.4,0-8.9
						c2.4-2.4,6.4-2.4,8.9,0l17.7,17.7c2.4,2.4,2.4,6.4,0,8.9c-2.4,2.4-6.4,2.4-8.9,0l-1.5-1.5l-30.3,30.3
						C18.8,476,12.3,476,8.2,471.9z M43.7,418.7c-1.3-1.3-3.4-1.3-4.7,0c-1.3,1.3-1.3,3.4,0,4.7l2.6,2.6c0.6,0.6,0.6,1.5,0,2.1
						l-31.3,31.3c-2.9,2.9-2.9,7.6,0,10.4l0.1,0.1c2.9,2.9,7.6,2.9,10.4,0l31.3-31.3c0.6-0.6,1.5-0.6,2.1,0l2.6,2.6
						c1.3,1.3,3.4,1.3,4.7,0c1.3-1.3,1.3-3.4,0-4.7L43.7,418.7z"/>
					<path class="st3" d="M34.4,449.1c-4.7-4.7-5.4-11.6-5.4-12c-0.1-0.8,0.5-1.5,1.3-1.6c0.8-0.1,1.5,0.5,1.6,1.3
						c0,0.5,1,10.7,9.7,13.2c0.8,0.2,1.2,1,1,1.8c-0.2,0.8-1,1.2-1.8,1C38.1,452.1,36,450.7,34.4,449.1z"/>
					<path class="st3" d="M49,443.6l-4-4c-0.6-0.6-0.6-1.5,0-2.1c0.6-0.6,1.5-0.6,2.1,0l4,4c0.6,0.6,0.6,1.5,0,2.1
						C50.6,444.2,49.6,444.2,49,443.6z"/>
					<path class="st3" d="M43.9,448.8l-4-4c-0.6-0.6-0.6-1.5,0-2.1c0.6-0.6,1.5-0.6,2.1,0l4,4c0.6,0.6,0.6,1.5,0,2.1
						C45.4,449.4,44.4,449.4,43.9,448.8z"/>
					<path class="st3" d="M35.2,457.5l-4-4c-0.6-0.6-0.6-1.5,0-2.1c0.6-0.6,1.5-0.6,2.1,0l4,4c0.6,0.6,0.6,1.5,0,2.1
						C36.8,458,35.8,458,35.2,457.5z"/>
					<path class="st3" d="M30.1,462.6l-4-4c-0.6-0.6-0.6-1.5,0-2.1c0.6-0.6,1.5-0.6,2.1,0l4,4c0.6,0.6,0.6,1.5,0,2.1
						C31.6,463.2,30.6,463.2,30.1,462.6z"/>
				</g>
				<g class="st0">
					<path class="st5" d="M492.4,14.7L474.7-3c-1.9-1.9-4.9-1.9-6.8,0c-1.9,1.9-1.9,4.9,0,6.8l2.6,2.6l-31.3,31.3
						c-3.5,3.5-3.5,9.1,0,12.5l0.1,0.1c3.5,3.5,9.1,3.5,12.5,0L483.1,19l2.6,2.6c1.9,1.9,4.9,1.9,6.8,0
						C494.3,19.6,494.3,16.6,492.4,14.7z"/>
					<path class="st4" d="M467.9-2.9c-1.8,1.9-1.8,4.9,0.1,6.7l2.6,2.6l-31.3,31.3c-2.5,2.5-3.2,6.1-2.1,9.2l40.3-40.3L467.9-2.9z"
						/>
					<path class="st1" d="M459.5,17.3c0,0,0.2,11.7,11.1,14.2l-18.8,18.8c0,0-6.9,5.7-12.6-0.1c0,0-5.3-7.2,0.7-13.2L459.5,17.3z"/>
					<path class="st6" d="M459.5,17.3L439.8,37c-3.3,3.3-3.2,6.9-2.4,9.6l23.4-23.4C459.6,20,459.5,17.3,459.5,17.3z"/>
					<path class="st3" d="M438.2,51.3L438.2,51.3c-4.1-4.1-4.1-10.7-0.1-14.7l30.3-30.3l-1.5-1.5c-2.4-2.4-2.4-6.4,0-8.9
						c2.4-2.4,6.4-2.4,8.9,0l17.7,17.7c2.4,2.4,2.4,6.4,0,8.9c-2.4,2.4-6.4,2.4-8.9,0l-1.5-1.5l-30.3,30.3
						C448.8,55.3,442.3,55.3,438.2,51.3z M473.7-2c-1.3-1.3-3.4-1.3-4.7,0c-1.3,1.3-1.3,3.4,0,4.7l2.6,2.6c0.6,0.6,0.6,1.5,0,2.1
						l-31.3,31.3c-2.9,2.9-2.9,7.6,0,10.4l0.1,0.1c2.9,2.9,7.6,2.9,10.4,0l31.3-31.3c0.6-0.6,1.5-0.6,2.1,0l2.6,2.6
						c1.3,1.3,3.4,1.3,4.7,0c1.3-1.3,1.3-3.4,0-4.7L473.7-2z"/>
					<path class="st3" d="M464.4,28.5c-4.7-4.7-5.4-11.6-5.4-12c-0.1-0.8,0.5-1.5,1.3-1.6s1.5,0.5,1.6,1.3c0,0.5,1,10.7,9.7,13.2
						c0.8,0.2,1.2,1,1,1.8c-0.2,0.8-1,1.2-1.8,1C468.1,31.5,466,30.1,464.4,28.5z"/>
					<path class="st3" d="M479.1,23l-4-4c-0.6-0.6-0.6-1.5,0-2.1c0.6-0.6,1.5-0.6,2.1,0l4,4c0.6,0.6,0.6,1.5,0,2.1
						C480.6,23.6,479.6,23.6,479.1,23z"/>
					<path class="st3" d="M473.9,28.2l-4-4c-0.6-0.6-0.6-1.5,0-2.1c0.6-0.6,1.5-0.6,2.1,0l4,4c0.6,0.6,0.6,1.5,0,2.1
						C475.4,28.8,474.4,28.8,473.9,28.2z"/>
					<path class="st3" d="M465.2,36.8l-4-4c-0.6-0.6-0.6-1.5,0-2.1c0.6-0.6,1.5-0.6,2.1,0l4,4c0.6,0.6,0.6,1.5,0,2.1
						C466.8,37.4,465.8,37.4,465.2,36.8z"/>
					<path class="st3" d="M460.1,42l-4-4c-0.6-0.6-0.6-1.5,0-2.1c0.6-0.6,1.5-0.6,2.1,0l4,4c0.6,0.6,0.6,1.5,0,2.1
						C461.6,42.6,460.6,42.6,460.1,42z"/>
				</g>
				<g class="st0">
					<path class="st5" d="M770.7,455.9L753,438.2c-1.9-1.9-4.9-1.9-6.8,0c-1.9,1.9-1.9,4.9,0,6.8l2.6,2.6l-31.3,31.3
						c-3.5,3.5-3.5,9.1,0,12.5l0.1,0.1c3.5,3.5,9.1,3.5,12.5,0l31.3-31.3l2.6,2.6c1.9,1.9,4.9,1.9,6.8,0
						C772.6,460.8,772.6,457.8,770.7,455.9z"/>
					<path class="st4" d="M746.1,438.2c-1.8,1.9-1.8,4.9,0.1,6.7l2.6,2.6l-31.3,31.3c-2.5,2.5-3.2,6.1-2.1,9.2l40.3-40.3
						L746.1,438.2z"/>
					<path class="st1" d="M737.8,458.5c0,0,0.2,11.7,11.1,14.2l-18.8,18.8c0,0-6.9,5.7-12.6-0.1c0,0-5.3-7.2,0.7-13.2L737.8,458.5z"
						/>
					<path class="st6" d="M737.8,458.5l-19.7,19.7c-3.3,3.3-3.2,6.9-2.4,9.6l23.4-23.4C737.8,461.2,737.8,458.5,737.8,458.5z"/>
					<path class="st3" d="M716.5,492.5L716.5,492.5c-4.1-4.1-4.1-10.7-0.1-14.7l30.3-30.3l-1.5-1.5c-2.4-2.4-2.4-6.4,0-8.9
						c2.4-2.4,6.4-2.4,8.9,0l17.7,17.7c2.4,2.4,2.4,6.4,0,8.9c-2.4,2.4-6.4,2.4-8.9,0l-1.5-1.5l-30.3,30.3
						C727.1,496.5,720.5,496.5,716.5,492.5z M751.9,439.2c-1.3-1.3-3.4-1.3-4.7,0c-1.3,1.3-1.3,3.4,0,4.7l2.6,2.6
						c0.6,0.6,0.6,1.5,0,2.1l-31.3,31.3c-2.9,2.9-2.9,7.6,0,10.4l0.1,0.1c2.9,2.9,7.6,2.9,10.4,0l31.3-31.3c0.6-0.6,1.5-0.6,2.1,0
						l2.6,2.6c1.3,1.3,3.4,1.3,4.7,0c1.3-1.3,1.3-3.4,0-4.7L751.9,439.2z"/>
					<path class="st3" d="M742.6,469.6c-4.7-4.7-5.4-11.6-5.4-12c-0.1-0.8,0.5-1.5,1.3-1.6c0.8-0.1,1.5,0.5,1.6,1.3
						c0,0.5,1,10.7,9.7,13.2c0.8,0.2,1.2,1,1,1.8c-0.2,0.8-1,1.2-1.8,1C746.4,472.6,744.3,471.3,742.6,469.6z"/>
					<path class="st3" d="M757.3,464.2l-4-4c-0.6-0.6-0.6-1.5,0-2.1c0.6-0.6,1.5-0.6,2.1,0l4,4c0.6,0.6,0.6,1.5,0,2.1
						C758.8,464.8,757.9,464.8,757.3,464.2z"/>
					<path class="st3" d="M752.1,469.4l-4-4c-0.6-0.6-0.6-1.5,0-2.1c0.6-0.6,1.5-0.6,2.1,0l4,4c0.6,0.6,0.6,1.5,0,2.1
						C753.6,469.9,752.7,469.9,752.1,469.4z"/>
					<path class="st3" d="M743.5,478l-4-4c-0.6-0.6-0.6-1.5,0-2.1c0.6-0.6,1.5-0.6,2.1,0l4,4c0.6,0.6,0.6,1.5,0,2.1
						C745,478.6,744.1,478.6,743.5,478z"/>
					<path class="st3" d="M738.3,483.2l-4-4c-0.6-0.6-0.6-1.5,0-2.1c0.6-0.6,1.5-0.6,2.1,0l4,4c0.6,0.6,0.6,1.5,0,2.1
						C739.8,483.7,738.9,483.7,738.3,483.2z"/>
				</g>
				<g class="st0">
					<path class="st5" d="M764,106.6h-25.1c-2.6,0-4.8,2.1-4.8,4.8s2.1,4.8,4.8,4.8h3.6v44.3c0,4.9,4,8.9,8.9,8.9h0.1
						c4.9,0,8.9-4,8.9-8.9v-44.3h3.6c2.6,0,4.8-2.1,4.8-4.8S766.7,106.6,764,106.6z"/>
					<path class="st4" d="M734.2,111.4c0,2.6,2.2,4.7,4.8,4.7h3.6v44.3c0,3.5,2.1,6.6,5.1,8v-57H734.2z"/>
					<path class="st11" d="M742.6,131.7c0,0,8.4,8.1,17.9,2.2v26.6c0,0-0.9,8.9-9,8.9c0,0-8.9-1.3-8.9-9.8V131.7z"/>
					<path class="st10" d="M742.6,131.7v27.9c0,4.7,2.7,7.1,5.1,8.4v-33.1C744.5,133.6,742.6,131.7,742.6,131.7z"/>
					<path class="st3" d="M751.6,170.8h-0.1c-5.7,0-10.3-4.6-10.3-10.3v-42.8h-2.1c-3.5,0-6.3-2.8-6.3-6.3c0-3.5,2.8-6.3,6.3-6.3
						H764c3.5,0,6.3,2.8,6.3,6.3c0,3.5-2.8,6.3-6.3,6.3h-2.1v42.8C761.9,166.1,757.3,170.8,751.6,170.8z M738.9,108
						c-1.8,0-3.3,1.5-3.3,3.3c0,1.8,1.5,3.3,3.3,3.3h3.6c0.8,0,1.5,0.7,1.5,1.5v44.3c0,4.1,3.3,7.4,7.4,7.4h0.1
						c4.1,0,7.4-3.3,7.4-7.4v-44.3c0-0.8,0.7-1.5,1.5-1.5h3.6c1.8,0,3.3-1.5,3.3-3.3c0-1.8-1.5-3.3-3.3-3.3H738.9z"/>
					<path class="st3" d="M753.9,136.1c-6.7,0-12-4.4-12.3-4.7c-0.6-0.5-0.7-1.5-0.2-2.1c0.5-0.6,1.5-0.7,2.1-0.2
						c0.4,0.3,8.3,6.8,16.2,2.4c0.7-0.4,1.6-0.1,2,0.6c0.4,0.7,0.1,1.6-0.6,2C758.7,135.6,756.2,136.1,753.9,136.1z"/>
					<path class="st3" d="M760.4,121.9h-5.7c-0.8,0-1.5-0.7-1.5-1.5c0-0.8,0.7-1.5,1.5-1.5h5.7c0.8,0,1.5,0.7,1.5,1.5
						C761.9,121.2,761.2,121.9,760.4,121.9z"/>
					<path class="st3" d="M760.4,129.2h-5.7c-0.8,0-1.5-0.7-1.5-1.5s0.7-1.5,1.5-1.5h5.7c0.8,0,1.5,0.7,1.5,1.5
						S761.2,129.2,760.4,129.2z"/>
					<path class="st3" d="M760.4,141.4h-5.7c-0.8,0-1.5-0.7-1.5-1.5c0-0.8,0.7-1.5,1.5-1.5h5.7c0.8,0,1.5,0.7,1.5,1.5
						C761.9,140.8,761.2,141.4,760.4,141.4z"/>
					<path class="st3" d="M760.4,148.8h-5.7c-0.8,0-1.5-0.7-1.5-1.5c0-0.8,0.7-1.5,1.5-1.5h5.7c0.8,0,1.5,0.7,1.5,1.5
						C761.9,148.1,761.2,148.8,760.4,148.8z"/>
				</g>
				<g class="st0">
					<path class="st5" d="M103.1,207.9H78c-2.6,0-4.8,2.1-4.8,4.8c0,2.6,2.1,4.8,4.8,4.8h3.6v44.3c0,4.9,4,8.9,8.9,8.9h0.1
						c4.9,0,8.9-4,8.9-8.9v-44.3h3.6c2.7,0,4.8-2.1,4.8-4.8C107.9,210.1,105.7,207.9,103.1,207.9z"/>
					<path class="st4" d="M73.2,212.8c0,2.6,2.2,4.7,4.8,4.7h3.6v44.3c0,3.5,2.1,6.6,5.1,8v-57H73.2z"/>
					<path class="st9" d="M81.6,233c0,0,8.4,8.1,17.9,2.2v26.6c0,0-0.9,8.9-9,8.9c0,0-8.9-1.3-8.9-9.8V233z"/>
					<path class="st8" d="M81.6,233v27.9c0,4.7,2.7,7.1,5.1,8.4v-33.1C83.6,234.9,81.6,233,81.6,233z"/>
					<path class="st3" d="M90.6,272.1h-0.1c-5.7,0-10.3-4.6-10.3-10.3V219H78c-3.5,0-6.3-2.8-6.3-6.3c0-3.5,2.8-6.3,6.3-6.3h25.1
						c3.5,0,6.3,2.8,6.3,6.3c0,3.5-2.8,6.3-6.3,6.3H101v42.8C101,267.5,96.3,272.1,90.6,272.1z M78,209.4c-1.8,0-3.3,1.5-3.3,3.3
						c0,1.8,1.5,3.3,3.3,3.3h3.6c0.8,0,1.5,0.7,1.5,1.5v44.3c0,4.1,3.3,7.4,7.4,7.4h0.1c4.1,0,7.4-3.3,7.4-7.4v-44.3
						c0-0.8,0.7-1.5,1.5-1.5h3.6c1.8,0,3.3-1.5,3.3-3.3c0-1.8-1.5-3.3-3.3-3.3H78z"/>
					<path class="st3" d="M93,237.5c-6.7,0-12-4.4-12.3-4.7c-0.6-0.5-0.7-1.5-0.2-2.1c0.5-0.6,1.5-0.7,2.1-0.2
						c0.4,0.3,8.3,6.8,16.2,2.4c0.7-0.4,1.6-0.1,2,0.6c0.4,0.7,0.1,1.6-0.6,2C97.7,237,95.3,237.5,93,237.5z"/>
					<path class="st3" d="M99.5,223.2h-5.7c-0.8,0-1.5-0.7-1.5-1.5c0-0.8,0.7-1.5,1.5-1.5h5.7c0.8,0,1.5,0.7,1.5,1.5
						C101,222.6,100.3,223.2,99.5,223.2z"/>
					<path class="st3" d="M99.5,230.6h-5.7c-0.8,0-1.5-0.7-1.5-1.5s0.7-1.5,1.5-1.5h5.7c0.8,0,1.5,0.7,1.5,1.5
						S100.3,230.6,99.5,230.6z"/>
					<path class="st3" d="M99.5,242.8h-5.7c-0.8,0-1.5-0.7-1.5-1.5c0-0.8,0.7-1.5,1.5-1.5h5.7c0.8,0,1.5,0.7,1.5,1.5
						C101,242.1,100.3,242.8,99.5,242.8z"/>
					<path class="st3" d="M99.5,250.1h-5.7c-0.8,0-1.5-0.7-1.5-1.5c0-0.8,0.7-1.5,1.5-1.5h5.7c0.8,0,1.5,0.7,1.5,1.5
						C101,249.4,100.3,250.1,99.5,250.1z"/>
				</g>
				<g class="st0">
					<path class="st5" d="M97.6,468.2v-27.6h3.6c2.6,0,4.8-2.1,4.8-4.8s-2.1-4.8-4.8-4.8H76.1c-2.6,0-4.8,2.1-4.8,4.8
						s2.1,4.8,4.8,4.8h3.6v27.6l-20.3,25.5h29.2h0.1h29.2L97.6,468.2z"/>
					<path class="st4" d="M71.9,435.9h12.9V470l-17.3,22.9h-7.4l18.7-24.5v-28.2h-2.6C76.1,440.2,72,438,71.9,435.9z"/>
					<path class="st11" d="M76.1,472.8c0,0,8.4,8,25.1,0l16.7,21H59.4L76.1,472.8z"/>
					<path class="st10" d="M60.3,492.9L60.3,492.9l7.4,0L81,475.3c-3.1-1.1-4.7-2.5-4.7-2.5L60.3,492.9z"/>
					<path class="st3" d="M117.9,495.2H59.4c-0.6,0-1.1-0.3-1.3-0.8c-0.2-0.5-0.2-1.1,0.2-1.6l20-25.1v-25.6h-2.1
						c-3.5,0-6.3-2.8-6.3-6.3c0-3.5,2.8-6.3,6.3-6.3h25.1c3.5,0,6.3,2.8,6.3,6.3c0,3.5-2.8,6.3-6.3,6.3H99v25.6l20,25.1
						c0.4,0.4,0.4,1,0.2,1.6C119,494.9,118.5,495.2,117.9,495.2z M62.4,492.3h52.4l-18.4-23.1c-0.2-0.3-0.3-0.6-0.3-0.9v-27.6
						c0-0.8,0.7-1.5,1.5-1.5h3.6c1.8,0,3.3-1.5,3.3-3.3c0-1.8-1.5-3.3-3.3-3.3H76.1c-1.8,0-3.3,1.5-3.3,3.3c0,1.8,1.5,3.3,3.3,3.3
						h3.6c0.8,0,1.5,0.7,1.5,1.5v27.6c0,0.3-0.1,0.7-0.3,0.9L62.4,492.3z"/>
					<path class="st3" d="M88.3,477.5c-7.7,0-12.6-4.1-12.7-4.2c-0.6-0.5-0.7-1.5-0.2-2.1c0.5-0.6,1.5-0.7,2.1-0.2
						c0.4,0.3,9.5,7.8,22.4-0.1c0.7-0.4,1.6-0.2,2,0.5c0.4,0.7,0.2,1.6-0.5,2C96.6,476.5,92.1,477.5,88.3,477.5z"/>
					<path class="st3" d="M97.6,446.9h-6.8c-0.8,0-1.5-0.7-1.5-1.5c0-0.8,0.7-1.5,1.5-1.5h6.8c0.8,0,1.5,0.7,1.5,1.5
						C99,446.2,98.4,446.9,97.6,446.9z"/>
					<path class="st3" d="M97.6,453.7h-6.8c-0.8,0-1.5-0.7-1.5-1.5c0-0.8,0.7-1.5,1.5-1.5h6.8c0.8,0,1.5,0.7,1.5,1.5
						C99,453,98.4,453.7,97.6,453.7z"/>
					<path class="st3" d="M97.6,459.9h-6.8c-0.8,0-1.5-0.7-1.5-1.5c0-0.8,0.7-1.5,1.5-1.5h6.8c0.8,0,1.5,0.7,1.5,1.5
						C99,459.3,98.4,459.9,97.6,459.9z"/>
					<path class="st3" d="M97.6,466.7h-6.8c-0.8,0-1.5-0.7-1.5-1.5s0.7-1.5,1.5-1.5h6.8c0.8,0,1.5,0.7,1.5,1.5
						S98.4,466.7,97.6,466.7z"/>
				</g>
				<g class="st0">
					<path class="st5" d="M709.6,353.6V326h3.6c2.6,0,4.8-2.1,4.8-4.8c0-2.6-2.1-4.8-4.8-4.8h-25.1c-2.6,0-4.8,2.1-4.8,4.8
						c0,2.7,2.1,4.8,4.8,4.8h3.6v27.6l-20.3,25.5h29.2h0.1H730L709.6,353.6z"/>
					<path class="st4" d="M684,321.3h12.9v34.1l-17.3,22.9h-7.4l18.7-24.5v-28.2h-2.6C688.2,325.5,684.1,323.4,684,321.3z"/>
					<path class="st1" d="M688.1,358.2c0,0,8.4,8,25.1,0l16.7,21h-58.5L688.1,358.2z"/>
					<path class="st2" d="M672.4,378.3L672.4,378.3l7.4,0l13.3-17.6c-3.1-1.1-4.7-2.5-4.7-2.5L672.4,378.3z"/>
					<path class="st3" d="M730,380.6h-58.5c-0.6,0-1.1-0.3-1.3-0.8c-0.2-0.5-0.2-1.1,0.2-1.6l20-25.1v-25.6h-2.1
						c-3.5,0-6.3-2.8-6.3-6.3c0-3.5,2.8-6.3,6.3-6.3h25.1c3.5,0,6.3,2.8,6.3,6.3c0,3.5-2.8,6.3-6.3,6.3h-2.1v25.6l20,25.1
						c0.4,0.4,0.4,1.1,0.2,1.6C731,380.3,730.5,380.6,730,380.6z M674.5,377.6h52.4l-18.4-23.1c-0.2-0.3-0.3-0.6-0.3-0.9V326
						c0-0.8,0.7-1.5,1.5-1.5h3.6c1.8,0,3.3-1.5,3.3-3.3c0-1.8-1.5-3.3-3.3-3.3h-25.1c-1.8,0-3.3,1.5-3.3,3.3c0,1.8,1.5,3.3,3.3,3.3
						h3.6c0.8,0,1.5,0.7,1.5,1.5v27.6c0,0.3-0.1,0.7-0.3,0.9L674.5,377.6z"/>
					<path class="st3" d="M700.3,362.8c-7.7,0-12.6-4.1-12.7-4.2c-0.6-0.5-0.7-1.5-0.2-2.1c0.5-0.6,1.5-0.7,2.1-0.2
						c0.4,0.3,9.5,7.8,22.4-0.1c0.7-0.4,1.6-0.2,2,0.5c0.4,0.7,0.2,1.6-0.5,2C708.6,361.8,704.1,362.8,700.3,362.8z"/>
					<path class="st3" d="M709.6,332.2h-6.8c-0.8,0-1.5-0.7-1.5-1.5c0-0.8,0.7-1.5,1.5-1.5h6.8c0.8,0,1.5,0.7,1.5,1.5
						C711.1,331.6,710.4,332.2,709.6,332.2z"/>
					<path class="st3" d="M709.6,339h-6.8c-0.8,0-1.5-0.7-1.5-1.5c0-0.8,0.7-1.5,1.5-1.5h6.8c0.8,0,1.5,0.7,1.5,1.5
						C711.1,338.4,710.4,339,709.6,339z"/>
					<path class="st3" d="M709.6,345.3h-6.8c-0.8,0-1.5-0.7-1.5-1.5c0-0.8,0.7-1.5,1.5-1.5h6.8c0.8,0,1.5,0.7,1.5,1.5
						C711.1,344.6,710.4,345.3,709.6,345.3z"/>
					<path class="st3" d="M709.6,352.1h-6.8c-0.8,0-1.5-0.7-1.5-1.5c0-0.8,0.7-1.5,1.5-1.5h6.8c0.8,0,1.5,0.7,1.5,1.5
						C711.1,351.4,710.4,352.1,709.6,352.1z"/>
				</g>
				<g class="st0">
					<path class="st5" d="M58.6,46.7V19.1h3.6c2.6,0,4.8-2.1,4.8-4.8c0-2.6-2.1-4.8-4.8-4.8H37.1c-2.7,0-4.8,2.1-4.8,4.8
						c0,2.7,2.1,4.8,4.8,4.8h3.6v27.6L20.4,72.3h29.2h0.1h29.2L58.6,46.7z"/>
					<path class="st4" d="M32.9,14.4h12.9v34.1L28.5,71.4h-7.4l18.7-24.5V18.6h-2.6C37.1,18.6,33.1,16.5,32.9,14.4z"/>
					<path class="st9" d="M37.1,51.3c0,0,8.4,8,25.1,0l16.7,21H20.4L37.1,51.3z"/>
					<path class="st8" d="M21.4,71.4L21.4,71.4l7.4,0l13.3-17.6c-3.1-1.1-4.7-2.5-4.7-2.5L21.4,71.4z"/>
					<path class="st3" d="M78.9,73.7H20.4c-0.6,0-1.1-0.3-1.3-0.8c-0.2-0.5-0.2-1.1,0.2-1.6l20-25.1V20.6h-2.1
						c-3.5,0-6.3-2.8-6.3-6.3S33.7,8,37.1,8h25.1c3.5,0,6.3,2.8,6.3,6.3s-2.8,6.3-6.3,6.3h-2.1v25.6l20,25.1
						c0.4,0.4,0.4,1.1,0.2,1.6C80,73.4,79.5,73.7,78.9,73.7z M23.5,70.8h52.4L57.5,47.6c-0.2-0.3-0.3-0.6-0.3-0.9V19.1
						c0-0.8,0.7-1.5,1.5-1.5h3.6c1.8,0,3.3-1.5,3.3-3.3S64.1,11,62.2,11H37.1c-1.8,0-3.3,1.5-3.3,3.3s1.5,3.3,3.3,3.3h3.6
						c0.8,0,1.5,0.7,1.5,1.5v27.6c0,0.3-0.1,0.7-0.3,0.9L23.5,70.8z"/>
					<path class="st3" d="M49.3,56c-7.7,0-12.6-4.1-12.7-4.2c-0.6-0.5-0.7-1.5-0.2-2.1c0.5-0.6,1.5-0.7,2.1-0.2
						C39,49.9,48,57.4,61,49.4c0.7-0.4,1.6-0.2,2,0.5c0.4,0.7,0.2,1.6-0.5,2C57.6,54.9,53.1,56,49.3,56z"/>
					<path class="st3" d="M58.6,25.4h-6.8c-0.8,0-1.5-0.7-1.5-1.5c0-0.8,0.7-1.5,1.5-1.5h6.8c0.8,0,1.5,0.7,1.5,1.5
						C60.1,24.7,59.4,25.4,58.6,25.4z"/>
					<path class="st3" d="M58.6,32.2h-6.8c-0.8,0-1.5-0.7-1.5-1.5c0-0.8,0.7-1.5,1.5-1.5h6.8c0.8,0,1.5,0.7,1.5,1.5
						C60.1,31.5,59.4,32.2,58.6,32.2z"/>
					<path class="st3" d="M58.6,38.4h-6.8c-0.8,0-1.5-0.7-1.5-1.5c0-0.8,0.7-1.5,1.5-1.5h6.8c0.8,0,1.5,0.7,1.5,1.5
						C60.1,37.8,59.4,38.4,58.6,38.4z"/>
					<path class="st3" d="M58.6,45.2h-6.8c-0.8,0-1.5-0.7-1.5-1.5c0-0.8,0.7-1.5,1.5-1.5h6.8c0.8,0,1.5,0.7,1.5,1.5
						C60.1,44.6,59.4,45.2,58.6,45.2z"/>
				</g>
				<g class="st0">
					<path class="st5" d="M590.6,466.6V439h3.6c2.6,0,4.8-2.1,4.8-4.8c0-2.6-2.1-4.8-4.8-4.8h-25.1c-2.7,0-4.8,2.1-4.8,4.8
						c0,2.7,2.1,4.8,4.8,4.8h3.6v27.6l-20.3,25.5h29.2h0.1h29.2L590.6,466.6z"/>
					<path class="st4" d="M564.9,434.3h12.9v34.1l-17.3,22.9h-7.4l18.7-24.5v-28.2h-2.6C569.1,438.5,565,436.4,564.9,434.3z"/>
					<path class="st9" d="M569.1,471.2c0,0,8.4,8,25.1,0l16.7,21h-58.5L569.1,471.2z"/>
					<path class="st8" d="M553.3,491.3L553.3,491.3l7.4,0l13.3-17.6c-3.1-1.1-4.7-2.5-4.7-2.5L553.3,491.3z"/>
					<path class="st3" d="M610.9,493.6h-58.5c-0.6,0-1.1-0.3-1.3-0.8c-0.2-0.5-0.2-1.1,0.2-1.6l20-25.1v-25.6h-2.1
						c-3.5,0-6.3-2.8-6.3-6.3c0-3.5,2.8-6.3,6.3-6.3h25.1c3.5,0,6.3,2.8,6.3,6.3c0,3.5-2.8,6.3-6.3,6.3H592v25.6l20,25.1
						c0.4,0.4,0.4,1.1,0.2,1.6C612,493.3,611.4,493.6,610.9,493.6z M555.4,490.7h52.4l-18.4-23.1c-0.2-0.3-0.3-0.6-0.3-0.9V439
						c0-0.8,0.7-1.5,1.5-1.5h3.6c1.8,0,3.3-1.5,3.3-3.3c0-1.8-1.5-3.3-3.3-3.3h-25.1c-1.8,0-3.3,1.5-3.3,3.3c0,1.8,1.5,3.3,3.3,3.3
						h3.6c0.8,0,1.5,0.7,1.5,1.5v27.6c0,0.3-0.1,0.7-0.3,0.9L555.4,490.7z"/>
					<path class="st3" d="M581.3,475.8c-7.7,0-12.6-4.1-12.7-4.2c-0.6-0.5-0.7-1.5-0.2-2.1c0.5-0.6,1.5-0.7,2.1-0.2
						c0.4,0.3,9.5,7.8,22.4-0.1c0.7-0.4,1.6-0.2,2,0.5c0.4,0.7,0.2,1.6-0.5,2C589.6,474.8,585.1,475.8,581.3,475.8z"/>
					<path class="st3" d="M590.6,445.3h-6.8c-0.8,0-1.5-0.7-1.5-1.5c0-0.8,0.7-1.5,1.5-1.5h6.8c0.8,0,1.5,0.7,1.5,1.5
						C592,444.6,591.4,445.3,590.6,445.3z"/>
					<path class="st3" d="M590.6,452.1h-6.8c-0.8,0-1.5-0.7-1.5-1.5c0-0.8,0.7-1.5,1.5-1.5h6.8c0.8,0,1.5,0.7,1.5,1.5
						C592,451.4,591.4,452.1,590.6,452.1z"/>
					<path class="st3" d="M590.6,458.3h-6.8c-0.8,0-1.5-0.7-1.5-1.5c0-0.8,0.7-1.5,1.5-1.5h6.8c0.8,0,1.5,0.7,1.5,1.5
						C592,457.6,591.4,458.3,590.6,458.3z"/>
					<path class="st3" d="M590.6,465.1h-6.8c-0.8,0-1.5-0.7-1.5-1.5c0-0.8,0.7-1.5,1.5-1.5h6.8c0.8,0,1.5,0.7,1.5,1.5
						C592,464.5,591.4,465.1,590.6,465.1z"/>
				</g>
				<g class="st0">
					<path class="st1" d="M433.5,466.5c2.9-3,4.7-7,4.7-11.5c0-9.1-7.4-16.5-16.5-16.5c-9.1,0-16.5,6.7-16.5,15.8c0,0.6,0,1.2,0,0.7
						c0-9.1-7.4-16.5-16.5-16.5c-9.1,0-16.5,7.4-16.5,16.5c0,4.5,1.8,8.6,4.7,11.5l0,0l0,0c0.1,0.1,0.1,0.1,0.2,0.2l28.1,28.6
						l28.1-28.6C433.4,466.7,433.4,466.6,433.5,466.5L433.5,466.5L433.5,466.5z"/>
					<path class="st2" d="M385.4,456.6c0-6.4,2.1-12.4,5.7-17.2c-0.8-0.1-1.6-0.2-2.4-0.2c-9.1,0-16.5,7.4-16.5,16.5
						c0,4.5,1.8,8.6,4.7,11.5l0,0c0.1,0.1,0.1,0.1,0.2,0.2l28.1,28.6l10.6-10.8c-0.6,0-1.1,0.1-1.7,0.1
						C398.3,485.3,385.4,472.5,385.4,456.6z"/>
					<path class="st3" d="M405.2,496.8c-0.4,0-0.8-0.2-1.1-0.4L376,467.6c-3.3-3.4-5.2-7.9-5.2-12.6c0-9.9,8.1-18,18-18
						c7.4,0,13.7,4.5,16.5,10.8c2.8-6.4,9.1-10.8,16.5-10.8c9.9,0,18,8.1,18,18c0,4.7-1.8,9.2-5.1,12.6l-0.2,0.2l-28.1,28.6
						C406,496.7,405.6,496.8,405.2,496.8z M388.7,440c-8.3,0-15,6.7-15,15c0,3.9,1.5,7.7,4.3,10.5c0,0,0.1,0.1,0.1,0.1l0.1,0.1
						l27.1,27.6l27.2-27.7c2.8-2.8,4.3-6.5,4.3-10.5c0-8.3-6.7-15-15-15c-8.3,0-15,6.7-15,15v0.4c0,0.8-0.7,1.5-1.5,1.5
						c-0.8,0-1.5-0.7-1.5-1.5V455C403.8,446.7,397,440,388.7,440z"/>
					<path class="st3" d="M401,482.2c-0.6,0-1.2-0.4-1.4-1l-3.5-10.7l-0.9,4.1c-0.2,0.7-0.7,1.2-1.4,1.2h-21.5
						c-0.8,0-1.5-0.7-1.5-1.5c0-0.8,0.7-1.5,1.5-1.5h20.3l1.8-8.2c0.1-0.6,0.7-1.1,1.4-1.2c0.7,0,1.3,0.4,1.5,1l3.5,10.7l3.4-15.3
						c0.2-0.7,0.7-1.2,1.4-1.2c0,0,0,0,0,0c0.7,0,1.3,0.5,1.4,1.1l3,13.2l1.6-7.4c0.1-0.6,0.7-1.1,1.3-1.2c0.6-0.1,1.3,0.3,1.5,1
						l3,7.9h20.8c0.8,0,1.5,0.7,1.5,1.5c0,0.8-0.7,1.5-1.5,1.5h-21.9c-0.6,0-1.2-0.4-1.4-1l-1.5-4.1l-1.9,9.1
						c-0.1,0.7-0.7,1.2-1.4,1.2c-0.7,0-1.3-0.5-1.4-1.1l-3-13.3l-3.1,14.1C402.3,481.7,401.7,482.2,401,482.2
						C401,482.2,401,482.2,401,482.2z"/>
				</g>
				<g class="st0">
					<path class="st1" d="M141.1,105.2c2.9-3,4.7-7,4.7-11.5c0-9.1-7.4-16.5-16.5-16.5c-9.1,0-16.5,6.7-16.5,15.8c0,0.6,0,1.2,0,0.7
						c0-9.1-7.4-16.5-16.5-16.5c-9.1,0-16.5,7.4-16.5,16.5c0,4.5,1.8,8.6,4.7,11.5l0,0l0,0c0.1,0.1,0.1,0.1,0.2,0.2l28.1,28.6
						l28.1-28.6C140.9,105.3,141,105.3,141.1,105.2L141.1,105.2L141.1,105.2z"/>
					<path class="st2" d="M93,95.3c0-6.4,2.1-12.4,5.7-17.2C97.9,78,97.1,78,96.3,78c-9.1,0-16.5,7.4-16.5,16.5
						c0,4.5,1.8,8.6,4.7,11.5l0,0c0.1,0.1,0.1,0.1,0.2,0.2l28.1,28.6l10.6-10.8c-0.6,0-1.1,0.1-1.7,0.1C105.8,124,93,111.2,93,95.3z
						"/>
					<path class="st3" d="M112.8,135.5c-0.4,0-0.8-0.2-1.1-0.4l-28.2-28.8c-3.3-3.4-5.2-7.9-5.2-12.6c0-9.9,8.1-18,18-18
						c7.4,0,13.7,4.5,16.5,10.8c2.8-6.4,9.1-10.8,16.5-10.8c9.9,0,18,8.1,18,18c0,4.7-1.8,9.2-5.1,12.6l-0.2,0.2l-28.1,28.6
						C113.6,135.4,113.2,135.5,112.8,135.5z M96.3,78.7c-8.3,0-15,6.7-15,15c0,3.9,1.5,7.7,4.3,10.5c0,0,0.1,0.1,0.1,0.1l0.1,0.1
						l27.1,27.6l27.2-27.7c2.8-2.8,4.3-6.5,4.3-10.5c0-8.3-6.7-15-15-15c-8.3,0-15,6.7-15,15v0.4c0,0.8-0.7,1.5-1.5,1.5
						c-0.8,0-1.5-0.7-1.5-1.5v-0.4C111.3,85.4,104.6,78.7,96.3,78.7z"/>
					<path class="st3" d="M108.6,120.9c-0.6,0-1.2-0.4-1.4-1l-3.5-10.7l-0.9,4.1c-0.2,0.7-0.7,1.2-1.4,1.2H79.8
						c-0.8,0-1.5-0.7-1.5-1.5c0-0.8,0.7-1.5,1.5-1.5h20.3l1.8-8.2c0.1-0.6,0.7-1.1,1.4-1.2c0.7,0,1.3,0.4,1.5,1l3.5,10.7l3.4-15.3
						c0.2-0.7,0.7-1.2,1.4-1.2c0,0,0,0,0,0c0.7,0,1.3,0.5,1.4,1.1l3,13.2l1.6-7.4c0.1-0.6,0.7-1.1,1.3-1.2c0.6-0.1,1.3,0.3,1.5,1
						l3,7.9h20.8c0.8,0,1.5,0.7,1.5,1.5c0,0.8-0.7,1.5-1.5,1.5h-21.9c-0.6,0-1.2-0.4-1.4-1l-1.5-4.1l-1.9,9.1
						c-0.1,0.7-0.7,1.2-1.4,1.2c-0.7,0-1.3-0.5-1.4-1.1l-3-13.3l-3.1,14.1C109.9,120.4,109.3,120.8,108.6,120.9
						C108.6,120.9,108.6,120.9,108.6,120.9z"/>
				</g>
				<g class="st0">
					
						<rect x="71.7" y="154.1" transform="matrix(0.7071 -0.7071 0.7071 0.7071 -94.3302 101.8068)" class="st5" width="8.1" height="21.4"/>
					
						<rect x="65.9" y="155.9" transform="matrix(0.7072 -0.7071 0.7071 0.7072 -91.9387 96.032)" class="st4" width="8.1" height="6.1"/>
					
						<rect x="67.1" y="166.9" transform="matrix(0.7071 -0.7071 0.7071 0.7071 -99.5273 99.5929)" class="st4" width="6.6" height="6.1"/>
					<path class="st5" d="M28.5,210.5l1.4,1.4c3.5,3.5,9.1,3.5,12.5,0l17.5-17.5l0,0L75,179.2l-13.9-13.9l-9.7,9.7l-5.5,5.5
						L28.5,198C25.1,201.4,25.1,207,28.5,210.5z"/>
					<path class="st4" d="M32.4,201.8l17.5-17.5l5.5-5.5l9.7-9.7l-3.8-3.8l-9.7,9.7l-5.5,5.5L28.5,198c-3.5,3.5-3.5,9.1,0,12.5
						l1.4,1.4c0.4,0.4,0.9,0.8,1.4,1.1C29,209.5,29.3,204.8,32.4,201.8z"/>
					<path class="st11" d="M51.1,176.4c0,0,0.2,9.2,11.7,15.1L42,212.3c0,0-6.8,4.5-12.1-0.4c0,0-6.7-7.6,0-14.8L51.1,176.4z"/>
					<path class="st10" d="M29.8,197c-6.7,7.2,0,14.8,0,14.8c0.4,0.4,0.9,0.7,1.3,1c-2.2-3.4-1.8-8.1,1.2-11.1l17.5-17.5l2.7-2.7
						c-1.4-3-1.5-5.2-1.5-5.2L29.8,197z"/>
					<path class="st3" d="M36.2,215.9c-2.8,0-5.4-1.1-7.3-3l-1.4-1.4c-2-2-3-4.5-3-7.3c0-2.8,1.1-5.4,3-7.3l32.6-32.6
						c0.6-0.6,1.5-0.6,2.1,0l13.9,13.9c0.6,0.6,0.6,1.5,0,2.1L61,195.4c0,0,0,0,0,0l-17.4,17.4C41.5,214.8,38.9,215.9,36.2,215.9z
						 M61.2,167.4L29.6,199c-1.4,1.4-2.2,3.2-2.2,5.2c0,2,0.8,3.8,2.2,5.2l1.4,1.4c1.4,1.4,3.2,2.2,5.2,2.2c2,0,3.8-0.8,5.2-2.2
						l17.5-17.5c0,0,0,0,0,0l14-14L61.2,167.4z"/>
					<path class="st3" d="M80.4,176.7c-0.4,0-0.8-0.1-1-0.4l-15.1-15.1c-0.6-0.6-0.6-1.5,0-2.1l5.7-5.7c0.6-0.6,1.5-0.6,2.1,0
						l15.1,15.1c0.6,0.6,0.6,1.5,0,2.1l-5.7,5.7C81.2,176.5,80.8,176.7,80.4,176.7z M67.4,160.1l13,13l3.7-3.7l-13-13L67.4,160.1z"
						/>
					<path class="st3" d="M70.3,175.9c-0.4,0-0.8-0.1-1-0.4l-4.3-4.3c-0.3-0.3-0.4-0.7-0.4-1s0.2-0.8,0.4-1l4.7-4.7
						c0.6-0.6,1.5-0.6,2.1,0l4.3,4.3c0.3,0.3,0.4,0.7,0.4,1c0,0.4-0.2,0.8-0.4,1l-4.7,4.7C71,175.8,70.6,175.9,70.3,175.9z
						 M68,170.1l2.2,2.2l2.6-2.6l-2.2-2.2L68,170.1z"/>
					<path class="st3" d="M11.1,232.1c-0.4,0-0.8-0.1-1-0.4c-0.6-0.6-0.6-1.5,0-2.1l18.8-18.8c0.6-0.6,1.5-0.6,2.1,0
						c0.6,0.6,0.6,1.5,0,2.1l-18.8,18.8C11.9,232,11.5,232.1,11.1,232.1z"/>
					<path class="st3" d="M41.5,196.8c-0.4,0-0.8-0.1-1-0.4l-4.9-4.9c-0.6-0.6-0.6-1.5,0-2.1c0.6-0.6,1.5-0.6,2.1,0l4.9,4.9
						c0.6,0.6,0.6,1.5,0,2.1C42.3,196.6,41.9,196.8,41.5,196.8z"/>
					<path class="st3" d="M46.9,191.4c-0.4,0-0.8-0.1-1-0.4l-4.9-4.9c-0.6-0.6-0.6-1.5,0-2.1c0.6-0.6,1.5-0.6,2.1,0l4.9,4.9
						c0.6,0.6,0.6,1.5,0,2.1C47.6,191.3,47.3,191.4,46.9,191.4z"/>
					<path class="st3" d="M52.1,186.2c-0.4,0-0.8-0.1-1-0.4l-4.9-4.9c-0.6-0.6-0.6-1.5,0-2.1c0.6-0.6,1.5-0.6,2.1,0l4.9,4.9
						c0.6,0.6,0.6,1.5,0,2.1C52.8,186.1,52.5,186.2,52.1,186.2z"/>
					<path class="st3" d="M57.4,180.9c-0.4,0-0.8-0.1-1-0.4l-4.9-4.9c-0.6-0.6-0.6-1.5,0-2.1c0.6-0.6,1.5-0.6,2.1,0l4.9,4.9
						c0.6,0.6,0.6,1.5,0,2.1C58.2,180.8,57.8,180.9,57.4,180.9z"/>
				</g>
				<g class="st0">
					
						<rect x="296" y="431.6" transform="matrix(0.7071 -0.7071 0.7071 0.7071 -224.8917 341.745)" class="st5" width="8.1" height="21.4"/>
					
						<rect x="290.2" y="433.5" transform="matrix(0.7072 -0.707 0.707 0.7072 -222.4928 335.9161)" class="st4" width="8.1" height="6.1"/>
					
						<rect x="291.5" y="444.4" transform="matrix(0.7071 -0.7071 0.7071 0.7071 -230.0863 339.5134)" class="st4" width="6.6" height="6.1"/>
					<path class="st5" d="M252.9,488.1l1.4,1.4c3.5,3.5,9.1,3.5,12.5,0l17.5-17.5l0,0l15.1-15.1l-13.9-13.9l-9.7,9.7l-5.5,5.5
						l-17.5,17.5C249.4,479,249.4,484.6,252.9,488.1z"/>
					<path class="st4" d="M256.7,479.4l17.5-17.5l5.5-5.5l9.7-9.7l-3.8-3.8l-9.7,9.7l-5.5,5.5l-17.5,17.5c-3.5,3.5-3.5,9.1,0,12.5
						l1.4,1.4c0.4,0.4,0.9,0.8,1.4,1.1C253.3,487.1,253.7,482.4,256.7,479.4z"/>
					<path class="st11" d="M275.4,454c0,0,0.2,9.2,11.7,15.1l-20.8,20.7c0,0-6.8,4.5-12.1-0.4c0,0-6.7-7.6,0-14.8L275.4,454z"/>
					<path class="st10" d="M254.2,474.5c-6.7,7.2,0,14.8,0,14.8c0.4,0.4,0.9,0.7,1.3,1c-2.2-3.4-1.8-8.1,1.2-11.1l17.5-17.5l2.7-2.7
						c-1.4-3-1.5-5.2-1.5-5.2L254.2,474.5z"/>
					<path class="st3" d="M260.5,493.5c-2.8,0-5.4-1.1-7.3-3l-1.4-1.4c-2-2-3-4.5-3-7.3s1.1-5.4,3-7.3l32.6-32.6
						c0.6-0.6,1.5-0.6,2.1,0l13.9,13.9c0.6,0.6,0.6,1.5,0,2.1L285.3,473c0,0,0,0,0,0l-17.4,17.4
						C265.9,492.4,263.3,493.5,260.5,493.5z M285.5,445l-31.6,31.6c-1.4,1.4-2.2,3.2-2.2,5.2c0,2,0.8,3.8,2.2,5.2l1.4,1.4
						c1.4,1.4,3.2,2.2,5.2,2.2s3.8-0.8,5.2-2.2l17.5-17.5c0,0,0,0,0,0l14-14L285.5,445z"/>
					<path class="st3" d="M304.8,454.2c-0.4,0-0.8-0.1-1-0.4l-15.1-15.1c-0.6-0.6-0.6-1.5,0-2.1l5.7-5.7c0.6-0.6,1.5-0.6,2.1,0
						l15.1,15.1c0.6,0.6,0.6,1.5,0,2.1l-5.7,5.7C305.5,454.1,305.1,454.2,304.8,454.2z M291.7,437.6l13,13l3.7-3.7l-13-13
						L291.7,437.6z"/>
					<path class="st3" d="M294.6,453.5c-0.4,0-0.8-0.1-1-0.4l-4.3-4.3c-0.3-0.3-0.4-0.7-0.4-1s0.2-0.8,0.4-1l4.7-4.7
						c0.6-0.6,1.5-0.6,2.1,0l4.3,4.3c0.3,0.3,0.4,0.7,0.4,1c0,0.4-0.2,0.8-0.4,1l-4.7,4.7C295.4,453.3,295,453.5,294.6,453.5z
						 M292.4,447.7l2.2,2.2l2.6-2.6l-2.2-2.2L292.4,447.7z"/>
					<path class="st3" d="M235.5,509.7c-0.4,0-0.8-0.1-1-0.4c-0.6-0.6-0.6-1.5,0-2.1l18.8-18.8c0.6-0.6,1.5-0.6,2.1,0
						c0.6,0.6,0.6,1.5,0,2.1l-18.8,18.8C236.2,509.5,235.8,509.7,235.5,509.7z"/>
					<path class="st3" d="M265.9,474.3c-0.4,0-0.8-0.1-1-0.4l-4.9-4.9c-0.6-0.6-0.6-1.5,0-2.1c0.6-0.6,1.5-0.6,2.1,0l4.9,4.9
						c0.6,0.6,0.6,1.5,0,2.1C266.6,474.2,266.3,474.3,265.9,474.3z"/>
					<path class="st3" d="M271.2,469c-0.4,0-0.8-0.1-1-0.4l-4.9-4.9c-0.6-0.6-0.6-1.5,0-2.1c0.6-0.6,1.5-0.6,2.1,0l4.9,4.9
						c0.6,0.6,0.6,1.5,0,2.1C272,468.9,271.6,469,271.2,469z"/>
					<path class="st3" d="M276.4,463.8c-0.4,0-0.8-0.1-1-0.4l-4.9-4.9c-0.6-0.6-0.6-1.5,0-2.1c0.6-0.6,1.5-0.6,2.1,0l4.9,4.9
						c0.6,0.6,0.6,1.5,0,2.1C277.2,463.7,276.8,463.8,276.4,463.8z"/>
					<path class="st3" d="M281.8,458.5c-0.4,0-0.8-0.1-1-0.4l-4.9-4.9c-0.6-0.6-0.6-1.5,0-2.1c0.6-0.6,1.5-0.6,2.1,0l4.9,4.9
						c0.6,0.6,0.6,1.5,0,2.1C282.5,458.3,282.1,458.5,281.8,458.5z"/>
				</g>
				<g class="st0">
					<rect x="744.2" y="323.7" class="st5" width="21.4" height="8.1"/>
					<rect x="743.7" y="323.7" class="st4" width="6.1" height="8.1"/>
					<rect x="751.7" y="331.8" class="st4" width="6.1" height="6.6"/>
					<path class="st5" d="M753.8,393.5l1.9,0c4.9,0,8.9-4,8.9-8.9v-24.7h0v-21.4l-19.6,0l0,13.7l0,7.8l0,24.7
						C745,389.5,749,393.5,753.8,393.5z"/>
					<path class="st4" d="M750.4,384.6v-24.7v-7.7l0-13.7l-5.4,0l0,13.7l0,7.8l0,24.7c0,4.9,4,8.9,8.9,8.9l1.9,0
						c0.6,0,1.2-0.1,1.7-0.2C753.5,392.5,750.4,388.9,750.4,384.6z"/>
					<path class="st9" d="M745.7,353.4c0,0,6.7,6.3,18.9,2.5l0,29.3c0,0-1.6,8-8.8,8.2c0,0-10.2-0.6-10.5-10.5L745.7,353.4z"/>
					<path class="st8" d="M745.2,383c0.3,9.9,10.5,10.5,10.5,10.5c0.6,0,1.1-0.1,1.6-0.2c-4-0.9-7-4.4-7-8.7l0-24.7v-3.8
						c-3.1-1.1-4.7-2.6-4.7-2.6L745.2,383z"/>
					<path class="st3" d="M763.1,391.9c-2,2-4.5,3-7.3,3h-1.9c-2.8,0-5.4-1.1-7.3-3c-2-2-3-4.5-3-7.3v-46.1c0-0.8,0.7-1.5,1.5-1.5
						l19.6,0c0.8,0,1.5,0.7,1.5,1.5v21.4c0,0,0,0,0,0.1v24.7C766.1,387.4,765,390,763.1,391.9z M746.5,339.9v44.7
						c0,2,0.8,3.8,2.2,5.2c1.4,1.4,3.2,2.2,5.2,2.2h1.9c2,0,3.8-0.8,5.2-2.2c1.4-1.4,2.2-3.2,2.2-5.2v-24.7c0,0,0,0,0-0.1v-19.9
						L746.5,339.9z"/>
					<path class="st3" d="M766.6,332.9c-0.3,0.3-0.6,0.4-1,0.4l-21.4,0c-0.8,0-1.5-0.7-1.5-1.5l0-8.1c0-0.8,0.7-1.5,1.5-1.5h21.4
						c0.8,0,1.5,0.7,1.5,1.5l0,8.1C767,332.2,766.9,332.6,766.6,332.9z M745.6,330.3h18.4v-5.2h-18.4V330.3z"/>
					<path class="st3" d="M758.9,339.5c-0.3,0.3-0.6,0.4-1,0.4h-6.1c-0.4,0-0.8-0.2-1-0.4c-0.3-0.3-0.4-0.7-0.4-1l0-6.6
						c0-0.8,0.7-1.5,1.5-1.5l6.1,0c0.4,0,0.8,0.2,1,0.4c0.3,0.3,0.4,0.7,0.4,1v6.6C759.3,338.9,759.2,339.2,758.9,339.5z M753.2,337
						l3.1,0v-3.7h-3.1L753.2,337z"/>
					<path class="st3" d="M756.8,421.1c-0.3,0.3-0.6,0.4-1,0.4c-0.8,0-1.5-0.7-1.5-1.5v-26.6c0-0.8,0.7-1.5,1.5-1.5
						c0.8,0,1.5,0.7,1.5,1.5l0,26.6C757.2,420.4,757.1,420.8,756.8,421.1z"/>
					<path class="st3" d="M753.3,374.6c-0.3,0.3-0.6,0.4-1,0.4h-7c-0.8,0-1.5-0.7-1.5-1.5c0-0.8,0.7-1.5,1.5-1.5h7
						c0.8,0,1.5,0.7,1.5,1.5C753.8,373.9,753.6,374.3,753.3,374.6z"/>
					<path class="st3" d="M753.3,367c-0.3,0.3-0.6,0.4-1,0.4h-7c-0.8,0-1.5-0.7-1.5-1.5c0-0.8,0.7-1.5,1.5-1.5h7
						c0.8,0,1.5,0.7,1.5,1.5C753.8,366.4,753.6,366.7,753.3,367z"/>
					<path class="st3" d="M753.3,359.7c-0.3,0.3-0.6,0.4-1,0.4h-7c-0.8,0-1.5-0.7-1.5-1.5c0-0.8,0.7-1.5,1.5-1.5l7,0
						c0.8,0,1.5,0.7,1.5,1.5C753.8,359,753.6,359.4,753.3,359.7z"/>
					<path class="st3" d="M753.3,352.1c-0.3,0.3-0.6,0.4-1,0.4l-7,0c-0.8,0-1.5-0.7-1.5-1.5c0-0.8,0.7-1.5,1.5-1.5h7
						c0.8,0,1.5,0.7,1.5,1.5C753.8,351.5,753.6,351.8,753.3,352.1z"/>
				</g>
				<g class="st0">
					
						<rect x="609" y="-3.7" transform="matrix(0.7071 -0.7071 0.7071 0.7071 174.6173 435.5563)" class="st5" width="8.1" height="21.4"/>
					
						<rect x="603.3" y="-1.8" transform="matrix(0.707 -0.7072 0.7072 0.707 177.0872 429.8846)" class="st4" width="8.1" height="6.1"/>
					
						<rect x="604.5" y="9.1" transform="matrix(0.7071 -0.7071 0.7071 0.7071 169.4332 433.364)" class="st4" width="6.6" height="6.1"/>
					<path class="st5" d="M565.9,52.7l1.4,1.4c3.5,3.5,9.1,3.5,12.5,0l17.5-17.5l0,0l15.1-15.1L598.5,7.6l-9.7,9.7l-5.5,5.5
						l-17.5,17.5C562.5,43.7,562.5,49.3,565.9,52.7z"/>
					<path class="st4" d="M569.7,44l17.5-17.5l5.5-5.5l9.7-9.7l-3.8-3.8l-9.7,9.7l-5.5,5.5l-17.5,17.5c-3.5,3.5-3.5,9.1,0,12.5
						l1.4,1.4c0.4,0.4,0.9,0.8,1.4,1.1C566.3,51.7,566.7,47.1,569.7,44z"/>
					<path class="st9" d="M588.5,18.6c0,0,0.2,9.2,11.7,15.1l-20.8,20.7c0,0-6.8,4.5-12.1-0.4c0,0-6.7-7.6,0-14.8L588.5,18.6z"/>
					<path class="st8" d="M567.2,39.2c-6.7,7.2,0,14.8,0,14.8c0.4,0.4,0.9,0.7,1.3,1c-2.2-3.4-1.8-8.1,1.2-11.1l17.5-17.5l2.7-2.7
						c-1.4-3-1.5-5.2-1.5-5.2L567.2,39.2z"/>
					<path class="st3" d="M573.5,58.1c-2.8,0-5.4-1.1-7.3-3l-1.4-1.4c-2-2-3-4.5-3-7.3c0-2.8,1.1-5.4,3-7.3l32.6-32.6
						c0.6-0.6,1.5-0.6,2.1,0l13.9,13.9c0.6,0.6,0.6,1.5,0,2.1l-15.1,15.1c0,0,0,0,0,0l-17.4,17.4C578.9,57.1,576.3,58.1,573.5,58.1z
						 M598.5,9.7L567,41.2c-1.4,1.4-2.2,3.2-2.2,5.2c0,2,0.8,3.8,2.2,5.2l1.4,1.4c1.4,1.4,3.2,2.2,5.2,2.2c2,0,3.8-0.8,5.2-2.2
						l17.5-17.5c0,0,0,0,0,0l14-14L598.5,9.7z"/>
					<path class="st3" d="M617.8,18.9c-0.4,0-0.8-0.1-1-0.4L601.6,3.3c-0.6-0.6-0.6-1.5,0-2.1l5.7-5.7c0.6-0.6,1.5-0.6,2.1,0
						l15.1,15.1c0.6,0.6,0.6,1.5,0,2.1l-5.7,5.7C618.5,18.8,618.2,18.9,617.8,18.9z M604.7,2.3l13,13l3.7-3.7l-13-13L604.7,2.3z"/>
					<path class="st3" d="M607.6,18.1c-0.4,0-0.8-0.1-1-0.4l-4.3-4.3c-0.3-0.3-0.4-0.7-0.4-1c0-0.4,0.2-0.8,0.4-1l4.7-4.7
						c0.6-0.6,1.5-0.6,2.1,0l4.3,4.3c0.3,0.3,0.4,0.7,0.4,1c0,0.4-0.2,0.8-0.4,1l-4.7,4.7C608.4,18,608,18.1,607.6,18.1z
						 M605.4,12.4l2.2,2.2l2.6-2.6L608,9.7L605.4,12.4z"/>
					<path class="st3" d="M548.5,74.3c-0.4,0-0.8-0.1-1-0.4c-0.6-0.6-0.6-1.5,0-2.1L566.2,53c0.6-0.6,1.5-0.6,2.1,0
						c0.6,0.6,0.6,1.5,0,2.1l-18.8,18.8C549.3,74.2,548.9,74.3,548.5,74.3z"/>
					<path class="st3" d="M578.9,39c-0.4,0-0.8-0.1-1-0.4l-4.9-4.9c-0.6-0.6-0.6-1.5,0-2.1c0.6-0.6,1.5-0.6,2.1,0l4.9,4.9
						c0.6,0.6,0.6,1.5,0,2.1C579.7,38.9,579.3,39,578.9,39z"/>
					<path class="st3" d="M584.3,33.7c-0.4,0-0.8-0.1-1-0.4l-4.9-4.9c-0.6-0.6-0.6-1.5,0-2.1c0.6-0.6,1.5-0.6,2.1,0l4.9,4.9
						c0.6,0.6,0.6,1.5,0,2.1C585,33.5,584.6,33.7,584.3,33.7z"/>
					<path class="st3" d="M589.5,28.5c-0.4,0-0.8-0.1-1-0.4l-4.9-4.9c-0.6-0.6-0.6-1.5,0-2.1c0.6-0.6,1.5-0.6,2.1,0l4.9,4.9
						c0.6,0.6,0.6,1.5,0,2.1C590.2,28.3,589.8,28.5,589.5,28.5z"/>
					<path class="st3" d="M594.8,23.1c-0.4,0-0.8-0.1-1-0.4l-4.9-4.9c-0.6-0.6-0.6-1.5,0-2.1c0.6-0.6,1.5-0.6,2.1,0l4.9,4.9
						c0.6,0.6,0.6,1.5,0,2.1C595.6,23,595.2,23.1,594.8,23.1z"/>
				</g>
				<g class="st0">
					<path class="st4" d="M762.9,284.3c0,14.2-11.5,25.7-25.7,25.7c-14.2,0-25.7-11.5-25.7-25.7c0-14.2,11.5-25.7,25.7-25.7
						C751.4,258.7,762.9,270.2,762.9,284.3z"/>
					<circle class="st5" cx="740.2" cy="283.1" r="22.6"/>
					<rect x="730.8" y="269.8" class="st1" width="12.8" height="29.1"/>
					<rect x="722.7" y="278" class="st1" width="29.1" height="12.8"/>
					<path class="st3" d="M737.2,311.5c-15,0-27.1-12.2-27.1-27.1c0-15,12.2-27.1,27.1-27.1c15,0,27.1,12.2,27.1,27.1
						C764.3,299.3,752.2,311.5,737.2,311.5z M737.2,260.2c-13.3,0-24.2,10.8-24.2,24.2c0,13.3,10.8,24.2,24.2,24.2
						c13.3,0,24.2-10.8,24.2-24.2C761.4,271,750.5,260.2,737.2,260.2z"/>
				</g>
				<g class="st0">
					<path class="st4" d="M197.8,38.4c0,14.2-11.5,25.7-25.7,25.7c-14.2,0-25.7-11.5-25.7-25.7c0-14.2,11.5-25.7,25.7-25.7
						C186.3,12.8,197.8,24.3,197.8,38.4z"/>
					<circle class="st5" cx="175.1" cy="37.2" r="22.6"/>
					<rect x="165.8" y="23.9" class="st1" width="12.8" height="29.1"/>
					<rect x="157.6" y="32" class="st1" width="29.1" height="12.8"/>
					<path class="st3" d="M172.1,65.6c-15,0-27.1-12.2-27.1-27.1c0-15,12.2-27.1,27.1-27.1c15,0,27.1,12.2,27.1,27.1
						C199.3,53.4,187.1,65.6,172.1,65.6z M172.1,14.2c-13.3,0-24.2,10.8-24.2,24.2c0,13.3,10.8,24.2,24.2,24.2
						c13.3,0,24.2-10.8,24.2-24.2C196.3,25.1,185.5,14.2,172.1,14.2z"/>
				</g>
				<g class="st0">
					<path class="st4" d="M547.7,467.3c0,14.2-11.5,25.7-25.7,25.7c-14.2,0-25.7-11.5-25.7-25.7c0-14.2,11.5-25.7,25.7-25.7
						C536.2,441.7,547.7,453.1,547.7,467.3z"/>
					
						<ellipse transform="matrix(0.9239 -0.3827 0.3827 0.9239 -138.3843 236.4176)" class="st5" cx="525.1" cy="466.1" rx="22.6" ry="22.6"/>
					<rect x="515.7" y="452.8" class="st1" width="12.8" height="29.1"/>
					<rect x="507.5" y="460.9" class="st1" width="29.1" height="12.8"/>
					<path class="st3" d="M522.1,494.4c-15,0-27.1-12.2-27.1-27.1c0-15,12.2-27.1,27.1-27.1c15,0,27.1,12.2,27.1,27.1
						C549.2,482.3,537,494.4,522.1,494.4z M522.1,443.1c-13.3,0-24.2,10.8-24.2,24.2c0,13.3,10.8,24.2,24.2,24.2
						c13.3,0,24.2-10.8,24.2-24.2C546.2,454,535.4,443.1,522.1,443.1z"/>
				</g>
				<g class="st0">
					<path class="st5" d="M65,261.1v-7.9H40.3v7.9c-4.6,0.3-8.3,4.1-8.3,8.8v2.1v18.6v25.1h41.2v-25.1V272v-2.1
						C73.3,265.2,69.6,261.4,65,261.1z"/>
					<path class="st4" d="M65,258.3H45.8v6c0,0-7.3,0.7-7.3,10.4v40.9H32v-47.1c0,0-0.1-7.5,8.3-7.5v-7.2H65V258.3z"/>
					<rect x="35.3" y="241.9" class="st1" width="34.7" height="11.3"/>
					<path class="st3" d="M73.3,317.1H32c-0.8,0-1.5-0.7-1.5-1.5v-45.8c0-4.9,3.5-9.1,8.3-10.1v-6.6c0-0.8,0.7-1.5,1.5-1.5H65
						c0.8,0,1.5,0.7,1.5,1.5v6.6c4.7,1,8.3,5.2,8.3,10.1v45.8C74.7,316.5,74.1,317.1,73.3,317.1z M33.5,314.2h38.3v-44.3
						c0-3.9-3-7.1-6.9-7.4c-0.8-0.1-1.4-0.7-1.4-1.5v-6.4H41.8v6.4c0,0.8-0.6,1.4-1.4,1.5c-3.9,0.3-6.9,3.5-6.9,7.4V314.2z"/>
					<path class="st3" d="M70,254.7H35.3c-0.8,0-1.5-0.7-1.5-1.5v-11.3c0-0.8,0.7-1.5,1.5-1.5H70c0.8,0,1.5,0.7,1.5,1.5v11.3
						C71.5,254,70.8,254.7,70,254.7z M36.8,251.7h31.7v-8.4H36.8V251.7z"/>
					<path class="st3" d="M43.4,254.7c-0.8,0-1.5-0.7-1.5-1.5v-11.3c0-0.8,0.7-1.5,1.5-1.5c0.8,0,1.5,0.7,1.5,1.5v11.3
						C44.9,254,44.3,254.7,43.4,254.7z"/>
					<path class="st3" d="M52.6,254.7c-0.8,0-1.5-0.7-1.5-1.5v-11.3c0-0.8,0.7-1.5,1.5-1.5c0.8,0,1.5,0.7,1.5,1.5v11.3
						C54.1,254,53.5,254.7,52.6,254.7z"/>
					<path class="st3" d="M61.6,254.7c-0.8,0-1.5-0.7-1.5-1.5v-11.3c0-0.8,0.7-1.5,1.5-1.5c0.8,0,1.5,0.7,1.5,1.5v11.3
						C63.1,254,62.4,254.7,61.6,254.7z"/>
					<rect x="32" y="274.7" class="st1" width="41.2" height="25.8"/>
					<rect x="49.2" y="281.6" class="st5" width="5.4" height="12.2"/>
					<rect x="45.8" y="285" class="st5" width="12.2" height="5.4"/>
					<rect x="32.9" y="273.8" class="st6" width="5.7" height="26.8"/>
					<path class="st3" d="M73.3,302.1H32c-0.8,0-1.5-0.7-1.5-1.5v-25.8c0-0.8,0.7-1.5,1.5-1.5h41.2c0.8,0,1.5,0.7,1.5,1.5v25.8
						C74.7,301.4,74.1,302.1,73.3,302.1z M33.5,299.1h38.3v-22.9H33.5V299.1z"/>
				</g>
				<g class="st0">
					<path class="st5" d="M733.7,18.6l-5.6-5.6l-17.5,17.5l5.6,5.6c-3,3.5-2.9,8.8,0.4,12.1l1.5,1.5l13.2,13.2l17.7,17.7l29.1-29.1
						l-17.7-17.7l-13.2-13.2l-1.5-1.5C742.4,15.7,737.1,15.5,733.7,18.6z"/>
					<path class="st4" d="M731.7,16.6l-13.6,13.6l4.3,4.3c0,0-4.7,5.6,2.2,12.5l28.9,28.9l-4.6,4.6l-33.3-33.3c0,0-5.3-5.2,0.6-11.1
						l-5.1-5.1l17.5-17.5L731.7,16.6z"/>
					
						<rect x="698" y="12.1" transform="matrix(0.7071 -0.7071 0.7071 0.7071 196.9789 511.0165)" class="st1" width="34.7" height="11.3"/>
					<path class="st3" d="M779.1,52.4L750,81.5c-0.6,0.6-1.5,0.6-2.1,0l-32.4-32.4c-3.5-3.5-4-9-1.3-13l-4.7-4.7
						c-0.6-0.6-0.6-1.5,0-2.1L727,12c0.6-0.6,1.5-0.6,2.1,0l4.7,4.7c4-2.7,9.5-2.2,13,1.3l32.4,32.4
						C779.7,50.9,779.7,51.8,779.1,52.4z M748.9,78.4L776,51.3L744.7,20c-2.7-2.7-7.2-2.9-10.1-0.3c-0.6,0.5-1.5,0.5-2-0.1l-4.5-4.5
						l-15.4,15.4l4.5,4.5c0.5,0.5,0.6,1.4,0.1,2c-2.5,2.9-2.4,7.3,0.3,10.1L748.9,78.4z"/>
					<path class="st3" d="M732.6,10.5L708.1,35c-0.6,0.6-1.5,0.6-2.1,0l-8-8c-0.6-0.6-0.6-1.5,0-2.1l24.5-24.5
						c0.6-0.6,1.5-0.6,2.1,0l8,8C733.2,9,733.2,9.9,732.6,10.5z M707.1,31.9l22.4-22.4l-5.9-5.9L701.2,26L707.1,31.9z"/>
					<path class="st3" d="M713.9,29.3c-0.6,0.6-1.5,0.6-2.1,0l-8-8c-0.6-0.6-0.6-1.5,0-2.1c0.6-0.6,1.5-0.6,2.1,0l8,8
						C714.4,27.8,714.4,28.7,713.9,29.3z"/>
					<path class="st3" d="M720.4,22.8c-0.6,0.6-1.5,0.6-2.1,0l-8-8c-0.6-0.6-0.6-1.5,0-2.1c0.6-0.6,1.5-0.6,2.1,0l8,8
						C721,21.3,721,22.2,720.4,22.8z"/>
					<path class="st3" d="M726.7,16.4c-0.6,0.6-1.5,0.6-2.1,0l-8-8c-0.6-0.6-0.6-1.5,0-2.1c0.6-0.6,1.5-0.6,2.1,0l8,8
						C727.3,14.9,727.3,15.9,726.7,16.4z"/>
					
						<rect x="723.1" y="33.2" transform="matrix(0.7071 -0.7071 0.7071 0.7071 185.2188 539.4035)" class="st1" width="41.2" height="25.8"/>
					
						<rect x="740.5" y="40.5" transform="matrix(0.7071 -0.7072 0.7072 0.7071 184.7431 539.2314)" class="st5" width="5.4" height="12.2"/>
					
						<rect x="737.1" y="44" transform="matrix(0.7071 -0.7071 0.7071 0.7071 184.6972 539.1803)" class="st5" width="12.2" height="5.4"/>
					
						<rect x="728.6" y="44.3" transform="matrix(0.7071 -0.7071 0.7071 0.7071 173.3874 534.0947)" class="st6" width="5.7" height="26.8"/>
					<path class="st3" d="M768.5,41.7l-29.1,29.1c-0.6,0.6-1.5,0.6-2.1,0L719,52.6c-0.6-0.6-0.6-1.5,0-2.1l29.1-29.1
						c0.6-0.6,1.5-0.6,2.1,0l18.3,18.3C769,40.2,769,41.2,768.5,41.7z M738.3,67.7l27.1-27.1l-16.2-16.2l-27.1,27.1L738.3,67.7z"/>
				</g>
				<g class="st0">
					<path class="st5" d="M201.7,436.6l-5.6-5.6l-17.5,17.5l5.6,5.6c-3,3.5-2.9,8.8,0.4,12.1l1.5,1.5l13.2,13.2l17.7,17.7l29.1-29.1
						l-17.7-17.7l-13.2-13.2l-1.5-1.5C210.4,433.7,205.1,433.6,201.7,436.6z"/>
					<path class="st4" d="M199.7,434.6l-13.6,13.6l4.3,4.3c0,0-4.7,5.6,2.2,12.5l28.9,28.9l-4.6,4.6l-33.3-33.3
						c0,0-5.3-5.2,0.6-11.1l-5.1-5.1l17.5-17.5L199.7,434.6z"/>
					
						<rect x="166" y="430.1" transform="matrix(0.7071 -0.7071 0.7071 0.7071 -254.4384 257.2626)" class="st1" width="34.7" height="11.3"/>
					<path class="st3" d="M247.1,470.4L218,499.6c-0.6,0.6-1.5,0.6-2.1,0l-32.4-32.4c-3.5-3.5-4-9-1.3-13l-4.7-4.7
						c-0.6-0.6-0.6-1.5,0-2.1L195,430c0.6-0.6,1.5-0.6,2.1,0l4.7,4.7c4-2.7,9.5-2.2,13,1.3l32.4,32.4
						C247.7,468.9,247.7,469.8,247.1,470.4z M216.9,496.4l27.1-27.1l-31.3-31.3c-2.7-2.7-7.2-2.9-10.1-0.3c-0.6,0.5-1.5,0.5-2-0.1
						l-4.5-4.5l-15.4,15.4l4.5,4.5c0.5,0.5,0.6,1.4,0.1,2c-2.5,2.9-2.4,7.3,0.3,10.1L216.9,496.4z"/>
					<path class="st3" d="M200.6,428.6l-24.5,24.5c-0.6,0.6-1.5,0.6-2.1,0l-8-8c-0.6-0.6-0.6-1.5,0-2.1l24.5-24.5
						c0.6-0.6,1.5-0.6,2.1,0l8,8C201.2,427,201.2,428,200.6,428.6z M175.1,449.9l22.4-22.4l-5.9-5.9L169.2,444L175.1,449.9z"/>
					<path class="st3" d="M181.9,447.3c-0.6,0.6-1.5,0.6-2.1,0l-8-8c-0.6-0.6-0.6-1.5,0-2.1c0.6-0.6,1.5-0.6,2.1,0l8,8
						C182.4,445.8,182.4,446.7,181.9,447.3z"/>
					<path class="st3" d="M188.4,440.8c-0.6,0.6-1.5,0.6-2.1,0l-8-8c-0.6-0.6-0.6-1.5,0-2.1c0.6-0.6,1.5-0.6,2.1,0l8,8
						C188.9,439.3,188.9,440.2,188.4,440.8z"/>
					<path class="st3" d="M194.7,434.5c-0.6,0.6-1.5,0.6-2.1,0l-8-8c-0.6-0.6-0.6-1.5,0-2.1c0.6-0.6,1.5-0.6,2.1,0l8,8
						C195.3,433,195.3,433.9,194.7,434.5z"/>
					
						<rect x="191.1" y="451.2" transform="matrix(0.7071 -0.7071 0.7071 0.7071 -266.2003 285.6601)" class="st1" width="41.2" height="25.8"/>
					
						<rect x="208.5" y="458.6" transform="matrix(0.7071 -0.7071 0.7071 0.7071 -266.7078 285.4373)" class="st5" width="5.4" height="12.2"/>
					
						<rect x="205.1" y="462" transform="matrix(0.7072 -0.707 0.707 0.7072 -266.6874 285.3823)" class="st5" width="12.2" height="5.4"/>
					
						<rect x="196.6" y="462.4" transform="matrix(0.7071 -0.7071 0.7071 0.7071 -278.0275 280.3521)" class="st6" width="5.7" height="26.8"/>
					<path class="st3" d="M236.5,459.8l-29.1,29.1c-0.6,0.6-1.5,0.6-2.1,0L187,470.6c-0.6-0.6-0.6-1.5,0-2.1l29.1-29.1
						c0.6-0.6,1.5-0.6,2.1,0l18.3,18.3C237,458.2,237,459.2,236.5,459.8z M206.3,485.8l27.1-27.1l-16.2-16.2l-27.1,27.1L206.3,485.8
						z"/>
				</g>
				<g class="st0">
					<path class="st5" d="M252.9,16.3l0-7.9l-24.7,0v7.9c-4.6,0.3-8.3,4.1-8.3,8.8l0,2.1v18.6v25.1l41.2,0V45.8V27.1v-2.1
						C261.1,20.4,257.5,16.6,252.9,16.3z"/>
					<path class="st4" d="M252.9,13.5h-19.2v6c0,0-7.3,0.7-7.3,10.4v40.9h-6.5V23.7c0,0-0.1-7.5,8.3-7.5l0-7.2l24.7,0V13.5z"/>
					<rect x="223.2" y="-3" class="st1" width="34.7" height="11.3"/>
					<path class="st3" d="M261.1,72.3h-41.2c-0.8,0-1.5-0.7-1.5-1.5l0-45.8c0-4.9,3.5-9.1,8.3-10.1l0-6.6c0-0.8,0.7-1.5,1.5-1.5
						h24.7c0.8,0,1.5,0.7,1.5,1.5V15c4.7,1,8.3,5.2,8.3,10.1v45.8C262.6,71.7,261.9,72.3,261.1,72.3z M221.4,69.4h38.3l0-44.3
						c0-3.9-3-7.1-6.9-7.4c-0.8-0.1-1.4-0.7-1.4-1.5V9.8h-21.8v6.4c0,0.8-0.6,1.4-1.4,1.5c-3.9,0.3-6.9,3.5-6.9,7.4V69.4z"/>
					<path class="st3" d="M257.9,9.8l-34.7,0c-0.8,0-1.5-0.7-1.5-1.5V-3c0-0.8,0.7-1.5,1.5-1.5l34.7,0c0.8,0,1.5,0.7,1.5,1.5V8.4
						C259.3,9.2,258.7,9.8,257.9,9.8z M224.7,6.9l31.7,0v-8.4l-31.7,0V6.9z"/>
					<path class="st3" d="M231.3,9.8c-0.8,0-1.5-0.7-1.5-1.5V-3c0-0.8,0.7-1.5,1.5-1.5c0.8,0,1.5,0.7,1.5,1.5V8.4
						C232.8,9.2,232.1,9.8,231.3,9.8z"/>
					<path class="st3" d="M240.5,9.8c-0.8,0-1.5-0.7-1.5-1.5V-3c0-0.8,0.7-1.5,1.5-1.5c0.8,0,1.5,0.7,1.5,1.5V8.4
						C242,9.2,241.3,9.8,240.5,9.8z"/>
					<path class="st3" d="M249.5,9.8c-0.8,0-1.5-0.7-1.5-1.5V-3c0-0.8,0.7-1.5,1.5-1.5c0.8,0,1.5,0.7,1.5,1.5V8.4
						C251,9.2,250.3,9.8,249.5,9.8z"/>
					<rect x="219.9" y="29.9" class="st1" width="41.2" height="25.8"/>
					<rect x="237.1" y="36.7" class="st5" width="5.4" height="12.2"/>
					<rect x="233.7" y="40.2" class="st5" width="12.2" height="5.4"/>
					<rect x="220.7" y="29" class="st6" width="5.7" height="26.8"/>
					<path class="st3" d="M261.1,57.2l-41.2,0c-0.8,0-1.5-0.7-1.5-1.5V29.9c0-0.8,0.7-1.5,1.5-1.5l41.2,0c0.8,0,1.5,0.7,1.5,1.5
						v25.8C262.6,56.6,261.9,57.2,261.1,57.2z M221.4,54.3l38.3,0V31.4h-38.3V54.3z"/>
				</g>
				<g class="st0">
					<path class="st1" d="M117.9,428.6c3.8,3.8,9.8,4.1,13.3,0.5l1.4-1.4c3.5-3.5,3.3-9.5-0.5-13.3L121,403.3l-14.2,14.2
						L117.9,428.6z"/>
					<path class="st5" d="M96.6,391.6l-1.4,1.4c-3.5,3.5-3.3,9.5,0.5,13.3l11.1,11.1l14.2-14.2l-11.1-11.1
						C106.1,388.3,100.1,388.1,96.6,391.6z"/>
					<path class="st6" d="M109.3,415l-2.5,2.5l11.1,11.1c3.8,3.8,9.8,4,13.3,0.5l1.4-1.4c2.2-2.2,3-5.4,2.2-8.4
						c-0.4,1-0.9,1.9-1.6,2.6C128.5,426.6,117.8,423.5,109.3,415z"/>
					<path class="st4" d="M109.3,415c-8.5-8.5-11.6-19.3-6.9-24c0.7-0.7,1.6-1.3,2.6-1.6c-3-0.7-6.2,0-8.4,2.2l-1.4,1.4
						c-3.5,3.5-3.3,9.5,0.5,13.3l11.1,11.1L109.3,415L109.3,415z"/>
					<path class="st3" d="M133.1,429.3l-1.4,1.4c-4.1,4.1-11,3.9-15.4-0.5L94,407.9c-4.4-4.4-4.6-11.3-0.5-15.4l1.4-1.4
						c4.1-4.1,11-3.9,15.4,0.5l22.3,22.3C137,418.3,137.2,425.2,133.1,429.3z M95.6,394.6c-3,3-2.7,8,0.5,11.2l22.3,22.3
						c3.2,3.2,8.3,3.5,11.2,0.5l1.4-1.4c3-3,2.7-8-0.5-11.2l-22.3-22.3c-3.2-3.2-8.3-3.5-11.2-0.5L95.6,394.6z"/>
					<path class="st3" d="M121.5,404.9l-13.6,13.6c-0.6,0.6-1.5,0.6-2.1,0c-0.6-0.6-0.6-1.5,0-2.1l13.6-13.6c0.6-0.6,1.5-0.6,2.1,0
						C122.1,403.4,122.1,404.3,121.5,404.9z"/>
				</g>
				<g class="st0">
					<path class="st1" d="M721.8,146.2c3.8-3.8,4.1-9.8,0.5-13.3l-1.4-1.4c-3.5-3.5-9.5-3.3-13.3,0.5l-11.1,11.1l14.2,14.2
						L721.8,146.2z"/>
					<path class="st5" d="M684.8,167.6l1.4,1.4c3.5,3.5,9.5,3.3,13.3-0.5l11.1-11.1l-14.2-14.2l-11.1,11.1
						C681.5,158.1,681.3,164,684.8,167.6z"/>
					<path class="st6" d="M708.2,154.9l2.5,2.5l11.1-11.1c3.8-3.8,4-9.8,0.5-13.3l-1.4-1.4c-2.2-2.2-5.4-3-8.4-2.2
						c1,0.4,1.9,0.9,2.6,1.6C719.9,135.6,716.7,146.3,708.2,154.9z"/>
					<path class="st4" d="M708.2,154.9c-8.5,8.5-19.3,11.6-24,6.9c-0.7-0.7-1.3-1.6-1.6-2.6c-0.7,3,0,6.2,2.2,8.4l1.4,1.4
						c3.5,3.5,9.5,3.3,13.3-0.5l11.1-11.1L708.2,154.9L708.2,154.9z"/>
					<path class="st3" d="M722.5,131l1.4,1.4c4.1,4.1,3.9,11-0.5,15.4l-22.3,22.3c-4.4,4.4-11.3,4.6-15.4,0.5l-1.4-1.4
						c-4.1-4.1-3.9-11,0.5-15.4l22.3-22.3C711.5,127.1,718.4,126.9,722.5,131z M687.8,168.5c3,3,8,2.7,11.2-0.5l22.3-22.3
						c3.2-3.2,3.5-8.3,0.5-11.2l-1.4-1.4c-3-3-8-2.7-11.2,0.5l-22.3,22.3c-3.2,3.2-3.5,8.3-0.5,11.2L687.8,168.5z"/>
					<path class="st3" d="M698.1,142.6l13.6,13.6c0.6,0.6,0.6,1.5,0,2.1c-0.6,0.6-1.5,0.6-2.1,0L696,144.7c-0.6-0.6-0.6-1.5,0-2.1
						C696.6,142.1,697.5,142.1,698.1,142.6z"/>
				</g>
				<g class="st0">
					<path class="st1" d="M573,399.5c3.8-3.8,4.1-9.8,0.5-13.3l-1.4-1.4c-3.5-3.5-9.5-3.3-13.3,0.5l-11.1,11.1l14.2,14.2L573,399.5z
						"/>
					<path class="st5" d="M536,420.9l1.4,1.4c3.5,3.5,9.5,3.3,13.3-0.5l11.1-11.1l-14.2-14.2l-11.1,11.1
						C532.7,411.4,532.4,417.3,536,420.9z"/>
					<path class="st6" d="M559.4,408.2l2.5,2.5l11.1-11.1c3.8-3.8,4-9.8,0.5-13.3l-1.4-1.4c-2.2-2.2-5.4-3-8.4-2.2
						c1,0.4,1.9,0.9,2.6,1.6C571,388.9,567.9,399.6,559.4,408.2z"/>
					<path class="st4" d="M559.4,408.2c-8.5,8.5-19.3,11.6-24,6.9c-0.7-0.7-1.3-1.6-1.6-2.6c-0.7,3,0,6.2,2.2,8.4l1.4,1.4
						c3.5,3.5,9.5,3.3,13.3-0.5l11.1-11.1L559.4,408.2L559.4,408.2z"/>
					<path class="st3" d="M573.7,384.3l1.4,1.4c4.1,4.1,3.9,11-0.5,15.4l-22.3,22.3c-4.4,4.4-11.3,4.6-15.4,0.5l-1.4-1.4
						c-4.1-4.1-3.9-11,0.5-15.4l22.3-22.3C562.7,380.4,569.6,380.2,573.7,384.3z M539,421.8c3,3,8,2.7,11.2-0.5l22.3-22.3
						c3.2-3.2,3.5-8.3,0.5-11.2l-1.4-1.4c-3-3-8-2.7-11.2,0.5l-22.3,22.3c-3.2,3.2-3.5,8.3-0.5,11.2L539,421.8z"/>
					<path class="st3" d="M549.3,395.9l13.6,13.6c0.6,0.6,0.6,1.5,0,2.1c-0.6,0.6-1.5,0.6-2.1,0L547.2,398c-0.6-0.6-0.6-1.5,0-2.1
						C547.7,395.4,548.7,395.4,549.3,395.9z"/>
				</g>
				<g class="st0">
					<path class="st1" d="M410.7,58.5c3.8-3.8,4.1-9.8,0.5-13.3l-1.4-1.4c-3.5-3.5-9.5-3.3-13.3,0.5l-11.1,11.1l14.2,14.2
						L410.7,58.5z"/>
					<path class="st5" d="M373.7,79.8l1.4,1.4c3.5,3.5,9.5,3.3,13.3-0.5l11.1-11.1l-14.2-14.2l-11.1,11.1
						C370.4,70.3,370.2,76.3,373.7,79.8z"/>
					<path class="st6" d="M397.1,67.1l2.5,2.5l11.1-11.1c3.8-3.8,4-9.8,0.5-13.3l-1.4-1.4c-2.2-2.2-5.4-3-8.4-2.2
						c1,0.4,1.9,0.9,2.6,1.6C408.7,47.9,405.6,58.6,397.1,67.1z"/>
					<path class="st4" d="M397.1,67.1c-8.5,8.5-19.3,11.6-24,6.9c-0.7-0.7-1.3-1.6-1.6-2.6c-0.7,3,0,6.2,2.2,8.4l1.4,1.4
						c3.5,3.5,9.5,3.3,13.3-0.5l11.1-11.1L397.1,67.1L397.1,67.1z"/>
					<path class="st3" d="M411.4,43.3l1.4,1.4c4.1,4.1,3.9,11-0.5,15.4L390,82.4c-4.4,4.4-11.3,4.6-15.4,0.5l-1.4-1.4
						c-4.1-4.1-3.9-11,0.5-15.4L396,43.8C400.4,39.4,407.3,39.2,411.4,43.3z M376.7,80.8c3,3,8,2.7,11.2-0.5L410.2,58
						c3.2-3.2,3.5-8.3,0.5-11.2l-1.4-1.4c-3-3-8-2.7-11.2,0.5l-22.3,22.3c-3.2,3.2-3.5,8.3-0.5,11.2L376.7,80.8z"/>
					<path class="st3" d="M387,54.9l13.6,13.6c0.6,0.6,0.6,1.5,0,2.1c-0.6,0.6-1.5,0.6-2.1,0L384.9,57c-0.6-0.6-0.6-1.5,0-2.1
						C385.4,54.3,386.4,54.3,387,54.9z"/>
				</g>
				<g class="st0">
					<path class="st1" d="M204.9,98.9c5.4,0,9.8-4.1,9.8-9v-2c0-5-4.4-9.1-9.8-9l-15.8,0v20.1H204.9z"/>
					<path class="st5" d="M163.6,87.8v2c0,5,4.4,9,9.8,9h15.8V78.8l-15.8,0C168,78.8,163.6,82.8,163.6,87.8z"/>
					<path class="st6" d="M189.2,95.4l0,3.6h15.8c5.4,0,9.8-4.1,9.8-9v-2c0-3.1-1.7-5.9-4.4-7.5c0.5,1,0.7,2,0.7,3
						C211,90,201.2,95.4,189.2,95.4z"/>
					<path class="st4" d="M189.2,95.4c-12.1,0-21.8-5.4-21.8-12c0-1,0.2-2.1,0.7-3c-2.6,1.6-4.4,4.4-4.4,7.5v2c0,5,4.4,9,9.8,9h15.8
						L189.2,95.4L189.2,95.4z"/>
					<path class="st3" d="M216.2,88.6v2c0,5.8-5,10.5-11.3,10.5h-31.5c-6.2,0-11.3-4.7-11.3-10.5v-2c0-5.8,5-10.5,11.3-10.5h31.5
						C211.1,78.1,216.2,82.8,216.2,88.6z M165.1,90.6c0,4.2,3.7,7.6,8.3,7.6h31.5c4.6,0,8.3-3.4,8.3-7.6v-2c0-4.2-3.7-7.6-8.3-7.6
						h-31.5c-4.6,0-8.3,3.4-8.3,7.6V90.6z"/>
					<path class="st3" d="M190.6,79.6l0,19.3c0,0.8-0.7,1.5-1.5,1.5c-0.8,0-1.5-0.7-1.5-1.5V79.6c0-0.8,0.7-1.5,1.5-1.5
						C190,78.1,190.6,78.7,190.6,79.6z"/>
				</g>
				<g class="st0">
					<path class="st11" d="M456,478.1c0,5.4,4.1,9.8,9,9.8h2c5,0,9-4.4,9-9.8l0-15.8l-20.1,0V478.1z"/>
					<path class="st5" d="M467,436.8h-2c-5,0-9,4.4-9,9.8v15.8l20.1,0v-15.8C476.1,441.2,472,436.8,467,436.8z"/>
					<path class="st10" d="M459.5,462.4l-3.6,0v15.8c0,5.4,4.1,9.8,9,9.8h2c3.1,0,5.9-1.7,7.5-4.4c-1,0.5-2,0.7-3,0.7
						C464.9,484.2,459.5,474.4,459.5,462.4z"/>
					<path class="st4" d="M459.5,462.4c0-12.1,5.4-21.8,12-21.8c1,0,2.1,0.2,3,0.7c-1.6-2.6-4.4-4.4-7.5-4.4h-2c-5,0-9,4.4-9,9.8
						v15.8L459.5,462.4L459.5,462.4z"/>
					<path class="st3" d="M466.2,489.4h-2c-5.8,0-10.5-5-10.5-11.3v-31.5c0-6.2,4.7-11.3,10.5-11.3h2c5.8,0,10.5,5,10.5,11.3v31.5
						C476.7,484.3,472,489.4,466.2,489.4z M464.2,438.3c-4.2,0-7.6,3.7-7.6,8.3v31.5c0,4.6,3.4,8.3,7.6,8.3h2c4.2,0,7.6-3.7,7.6-8.3
						l0-31.5c0-4.6-3.4-8.3-7.6-8.3H464.2z"/>
					<path class="st3" d="M474.5,463.9l-19.4,0c-0.8,0-1.5-0.7-1.5-1.5c0-0.8,0.7-1.5,1.5-1.5l19.4,0c0.8,0,1.5,0.7,1.5,1.5
						C476,463.2,475.3,463.9,474.5,463.9z"/>
				</g>
				<g class="st0">
					<path class="st11" d="M628.3,55.4c-3.8-3.8-9.8-4.1-13.3-0.5l-1.4,1.4c-3.5,3.5-3.3,9.5,0.5,13.3l11.1,11.1l14.2-14.2
						L628.3,55.4z"/>
					<path class="st5" d="M649.7,92.4l1.4-1.4c3.5-3.5,3.3-9.5-0.5-13.3l-11.1-11.1l-14.2,14.2l11.1,11.1
						C640.2,95.7,646.1,95.9,649.7,92.4z"/>
					<path class="st10" d="M637,69l2.5-2.5l-11.1-11.1c-3.8-3.8-9.8-4.1-13.3-0.5l-1.4,1.4c-2.2,2.2-3,5.4-2.2,8.4
						c0.4-1,0.9-1.9,1.6-2.6C617.7,57.4,628.4,60.5,637,69z"/>
					<path class="st4" d="M637,69c8.5,8.5,11.6,19.3,6.9,24c-0.7,0.7-1.6,1.3-2.6,1.6c3,0.7,6.2,0,8.4-2.2l1.4-1.4
						c3.5-3.5,3.3-9.5-0.5-13.3l-11.1-11.1L637,69L637,69z"/>
					<path class="st3" d="M613.1,54.7l1.4-1.4c4.1-4.1,11-3.9,15.4,0.5l22.3,22.3c4.4,4.4,4.6,11.3,0.5,15.4l-1.4,1.4
						c-4.1,4.1-11,3.9-15.4-0.5l-22.3-22.3C609.2,65.7,609,58.8,613.1,54.7z M650.6,89.4c3-3,2.7-8-0.5-11.2l-22.3-22.3
						c-3.2-3.2-8.3-3.5-11.2-0.5l-1.4,1.4c-3,3-2.7,8,0.5,11.2L638,90.3c3.2,3.2,8.3,3.5,11.2,0.5L650.6,89.4z"/>
					<path class="st3" d="M625.3,78.6L639,64.9c0.6-0.6,1.5-0.6,2.1,0c0.6,0.6,0.6,1.5,0,2.1l-13.7,13.7c-0.6,0.6-1.5,0.6-2.1,0
						C624.7,80.1,624.7,79.2,625.3,78.6z"/>
				</g>
				<g class="st0">
					<path class="st11" d="M114.4,308.4c0-5.4-4.1-9.8-9-9.8h-2c-5,0-9.1,4.4-9,9.8l0,15.8l20.1,0V308.4z"/>
					<path class="st5" d="M103.3,349.7h2c5,0,9-4.4,9-9.8v-15.8l-20.1,0v15.8C94.2,345.3,98.3,349.7,103.3,349.7z"/>
					<path class="st10" d="M110.9,324.1l3.6,0v-15.8c0-5.4-4.1-9.8-9-9.8h-2c-3.2,0-5.9,1.7-7.5,4.4c1-0.5,2-0.7,3-0.7
						C105.5,302.3,110.9,312.1,110.9,324.1z"/>
					<path class="st4" d="M110.9,324.1c0,12.1-5.4,21.8-12,21.8c-1,0-2.1-0.2-3-0.7c1.6,2.6,4.4,4.4,7.5,4.4h2c5,0,9-4.4,9-9.8
						v-15.8L110.9,324.1L110.9,324.1z"/>
					<path class="st3" d="M104.1,297.1h2c5.8,0,10.5,5,10.5,11.3v31.5c0,6.2-4.7,11.3-10.5,11.3h-2c-5.8,0-10.5-5-10.5-11.3l0-31.5
						C93.6,302.2,98.3,297.1,104.1,297.1z M106.1,348.2c4.2,0,7.6-3.7,7.6-8.3l0-31.5c0-4.6-3.4-8.3-7.6-8.3h-2
						c-4.2,0-7.6,3.7-7.6,8.3l0,31.5c0,4.6,3.4,8.3,7.6,8.3H106.1z"/>
					<path class="st3" d="M95.8,322.7l19.4,0c0.8,0,1.5,0.7,1.5,1.5c0,0.8-0.7,1.5-1.5,1.5l-19.4,0c-0.8,0-1.5-0.7-1.5-1.5
						C94.3,323.3,95,322.7,95.8,322.7z"/>
				</g>
				<g class="st0">
					<path class="st11" d="M102.3,144.3c-3.8-3.8-9.8-4.1-13.3-0.5l-1.4,1.4c-3.5,3.5-3.3,9.5,0.5,13.3l11.1,11.1l14.2-14.2
						L102.3,144.3z"/>
					<path class="st5" d="M123.6,181.3l1.4-1.4c3.5-3.5,3.3-9.5-0.5-13.3l-11.1-11.1l-14.2,14.2l11.1,11.1
						C114.1,184.6,120.1,184.9,123.6,181.3z"/>
					<path class="st10" d="M110.9,157.9l2.5-2.5l-11.1-11.1c-3.8-3.8-9.8-4.1-13.3-0.5l-1.4,1.4c-2.2,2.2-3,5.4-2.2,8.4
						c0.4-1,0.9-1.9,1.6-2.6C91.7,146.3,102.4,149.4,110.9,157.9z"/>
					<path class="st4" d="M110.9,157.9c8.5,8.5,11.6,19.3,6.9,24c-0.7,0.7-1.6,1.3-2.6,1.6c3,0.7,6.2,0,8.4-2.2l1.4-1.4
						c3.5-3.5,3.3-9.5-0.5-13.3l-11.1-11.1L110.9,157.9L110.9,157.9z"/>
					<path class="st3" d="M87,143.6l1.4-1.4c4.1-4.1,11-3.9,15.4,0.5l22.3,22.3c4.4,4.4,4.6,11.3,0.5,15.4l-1.4,1.4
						c-4.1,4.1-11,3.9-15.4-0.5L87.6,159C83.2,154.6,82.9,147.7,87,143.6z M124.6,178.3c3-3,2.7-8-0.5-11.2l-22.3-22.3
						c-3.2-3.2-8.3-3.5-11.2-0.5l-1.4,1.4c-3,3-2.7,8,0.5,11.2l22.3,22.3c3.2,3.2,8.3,3.5,11.2,0.5L124.6,178.3z"/>
					<path class="st3" d="M99.2,167.5l13.7-13.7c0.6-0.6,1.5-0.6,2.1,0c0.6,0.6,0.6,1.5,0,2.1l-13.7,13.7c-0.6,0.6-1.5,0.6-2.1,0
						C98.7,169,98.7,168.1,99.2,167.5z"/>
				</g>
				<g class="st0">
					<path class="st9" d="M627.1,398.7c-5.4,0-9.8,4.1-9.8,9v2c0,5,4.4,9,9.8,9l15.8,0l0-20.1H627.1z"/>
					<path class="st5" d="M668.4,409.8v-2c0-5-4.4-9-9.8-9l-15.8,0l0,20.1l15.8,0C664,418.9,668.4,414.8,668.4,409.8z"/>
					<path class="st8" d="M642.9,402.2l0-3.6h-15.8c-5.4,0-9.8,4.1-9.8,9v2c0,3.1,1.7,5.9,4.4,7.5c-0.5-1-0.7-2-0.7-3
						C621,407.6,630.8,402.2,642.9,402.2z"/>
					<path class="st4" d="M642.9,402.2c12.1,0,21.8,5.4,21.8,12c0,1-0.2,2.1-0.7,3c2.6-1.6,4.4-4.4,4.4-7.5l0-2c0-5-4.4-9-9.8-9
						l-15.8,0L642.9,402.2L642.9,402.2z"/>
					<path class="st3" d="M615.9,409v-2c0-5.8,5-10.5,11.3-10.5l31.5,0c6.2,0,11.3,4.7,11.3,10.5v2c0,5.8-5,10.5-11.3,10.5l-31.5,0
						C620.9,419.5,615.9,414.8,615.9,409z M666.9,407c0-4.2-3.7-7.6-8.3-7.6h-31.5c-4.6,0-8.3,3.4-8.3,7.6v2c0,4.2,3.7,7.6,8.3,7.6
						l31.5,0c4.6,0,8.3-3.4,8.3-7.6V407z"/>
					<path class="st3" d="M641.4,417.3v-19.4c0-0.8,0.7-1.5,1.5-1.5c0.8,0,1.5,0.7,1.5,1.5l0,19.4c0,0.8-0.7,1.5-1.5,1.5
						C642.1,418.8,641.4,418.1,641.4,417.3z"/>
				</g>
				<g class="st0">
					<path class="st9" d="M472.5,63.4c-5.4,0-9.8,4.1-9.8,9v2c0,5,4.4,9.1,9.8,9l15.8,0l0-20.1L472.5,63.4z"/>
					<path class="st5" d="M513.8,74.5v-2c0-5-4.4-9-9.8-9l-15.8,0l0,20.1l15.8,0C509.5,83.5,513.8,79.5,513.8,74.5z"/>
					<path class="st8" d="M488.3,66.9l0-3.6h-15.8c-5.4,0-9.8,4.1-9.8,9v2c0,3.1,1.7,5.9,4.4,7.5c-0.5-1-0.7-2-0.7-3
						C466.5,72.3,476.2,66.9,488.3,66.9z"/>
					<path class="st4" d="M488.3,66.9c12.1,0,21.8,5.4,21.8,12c0,1-0.2,2.1-0.7,3c2.6-1.6,4.4-4.4,4.4-7.5l0-2c0-5-4.4-9-9.8-9
						l-15.8,0L488.3,66.9L488.3,66.9z"/>
					<path class="st3" d="M461.3,73.7v-2c0-5.8,5-10.5,11.3-10.5l31.5,0c6.2,0,11.3,4.7,11.3,10.5v2c0,5.8-5,10.5-11.3,10.5l-31.5,0
						C466.3,84.2,461.3,79.5,461.3,73.7z M512.4,71.7c0-4.2-3.7-7.6-8.3-7.6h-31.5c-4.6,0-8.3,3.4-8.3,7.6v2c0,4.2,3.7,7.6,8.3,7.6
						l31.5,0c4.6,0,8.3-3.4,8.3-7.6V71.7z"/>
					<path class="st3" d="M486.8,82V62.6c0-0.8,0.7-1.5,1.5-1.5c0.8,0,1.5,0.7,1.5,1.5l0,19.4c0,0.8-0.7,1.5-1.5,1.5
						C487.5,83.5,486.8,82.8,486.8,82z"/>
				</g>
				<g class="st0">
					<path class="st9" d="M237.9,417.4c-5.4,0-9.8,4.1-9.8,9v2c0,5,4.4,9,9.8,9l15.8,0l0-20.1H237.9z"/>
					<path class="st5" d="M279.2,428.5v-2c0-5-4.4-9-9.8-9l-15.8,0l0,20.1l15.8,0C274.8,437.6,279.2,433.5,279.2,428.5z"/>
					<path class="st8" d="M253.7,420.9l0-3.6h-15.8c-5.4,0-9.8,4.1-9.8,9v2c0,3.1,1.7,5.9,4.4,7.5c-0.5-1-0.7-2-0.7-3
						C231.8,426.3,241.6,420.9,253.7,420.9z"/>
					<path class="st4" d="M253.7,420.9c12.1,0,21.8,5.4,21.8,12c0,1-0.2,2.1-0.7,3c2.6-1.6,4.4-4.4,4.4-7.5l0-2c0-5-4.4-9-9.8-9
						l-15.8,0L253.7,420.9L253.7,420.9z"/>
					<path class="st3" d="M226.7,427.7v-2c0-5.8,5-10.5,11.3-10.5l31.5,0c6.2,0,11.3,4.7,11.3,10.5v2c0,5.8-5,10.5-11.3,10.5
						l-31.5,0C231.7,438.2,226.7,433.5,226.7,427.7z M277.7,425.7c0-4.2-3.7-7.6-8.3-7.6h-31.5c-4.6,0-8.3,3.4-8.3,7.6v2
						c0,4.2,3.7,7.6,8.3,7.6l31.5,0c4.6,0,8.3-3.4,8.3-7.6V425.7z"/>
					<path class="st3" d="M252.2,436v-19.4c0-0.8,0.7-1.5,1.5-1.5c0.8,0,1.5,0.7,1.5,1.5l0,19.4c0,0.8-0.7,1.5-1.5,1.5
						C252.9,437.5,252.2,436.8,252.2,436z"/>
				</g>
				<g class="st0">
					<path class="st9" d="M679.9,286.3c0,5.4,4.1,9.8,9.1,9.8h2c5,0,9.1-4.4,9-9.8v-15.8l-20.1,0V286.3z"/>
					<path class="st5" d="M691,245h-2c-5,0-9,4.4-9,9.8v15.8l20.1,0l0-15.8C700,249.4,696,245,691,245z"/>
					<path class="st8" d="M683.4,270.5l-3.6,0v15.8c0,5.4,4.1,9.8,9,9.8h2c3.1,0,5.9-1.7,7.5-4.4c-1,0.5-2,0.7-3,0.7
						C688.8,292.4,683.4,282.6,683.4,270.5z"/>
					<path class="st4" d="M683.4,270.5c0-12.1,5.4-21.9,12-21.8c1,0,2.1,0.2,3,0.7c-1.6-2.6-4.4-4.4-7.5-4.4l-2,0c-5,0-9,4.4-9,9.8
						l0,15.8L683.4,270.5L683.4,270.5z"/>
					<path class="st3" d="M690.2,297.5h-2c-5.8,0-10.5-5-10.5-11.3l0-31.5c0-6.2,4.7-11.3,10.5-11.3h2c5.8,0,10.5,5,10.5,11.3v31.5
						C700.7,292.5,696,297.5,690.2,297.5z M688.1,246.5c-4.2,0-7.6,3.7-7.6,8.3v31.5c0,4.6,3.4,8.3,7.6,8.3h2c4.2,0,7.6-3.7,7.6-8.3
						l0-31.5c0-4.6-3.4-8.3-7.6-8.3H688.1z"/>
					<path class="st3" d="M698.5,272h-19.4c-0.8,0-1.5-0.7-1.5-1.5c0-0.8,0.7-1.5,1.5-1.5l19.4,0c0.8,0,1.5,0.7,1.5,1.5
						C699.9,271.3,699.3,272,698.5,272z"/>
				</g>
			</g>
		</g>
	</g>
</g>
<g id="BACKGROUND_1">
</g>
<g id="DESIGNED_BY_FREEPIK">
</g>
</svg>
