<?xml version="1.0" encoding="utf-8"?>
<!-- Generator: Adobe Illustrator 22.0.1, SVG Export Plug-In . SVG Version: 6.00 Build 0)  -->
<svg version="1.1" id="Capa_1" xmlns="http://www.w3.org/2000/svg" xmlns:xlink="http://www.w3.org/1999/xlink" x="0px" y="0px"
	 viewBox="0 0 512 512" style="enable-background:new 0 0 512 512;" xml:space="preserve">
<style type="text/css">
	.st0{fill:#FFFFFF;}
</style>
<g>
	<path class="st0" d="M437,75C388.7,26.6,324.4,0,256,0C187.6,0,123.3,26.6,75,75S0,187.6,0,256c0,68.4,26.6,132.7,75,181
		c48.4,48.3,112.6,75,181,75c68.4,0,132.7-26.6,181-75c48.4-48.3,75-112.6,75-181C512,187.6,485.4,123.3,437,75z M425.7,425.7
		C380.4,471,320.1,496,256,496c-64.1,0-124.4-25-169.7-70.3C41,380.4,16,320.1,16,256c0-64.1,25-124.4,70.3-169.7
		C131.6,41,191.9,16,256,16c64.1,0,124.4,25,169.7,70.3C471,131.6,496,191.9,496,256C496,320.1,471,380.4,425.7,425.7z"/>
	<path class="st0" d="M430,115c-2.8-3.4-7.8-4-11.3-1.2c-3.4,2.8-4,7.8-1.2,11.3c29.9,36.9,46.4,83.4,46.4,131
		c0,55.6-21.6,107.8-60.9,147.1S311.6,464,256,464c-51.3,0-100.5-18.8-138.7-53c-3.3-2.9-8.3-2.7-11.3,0.6s-2.7,8.4,0.6,11.3
		c41.1,36.8,94.1,57,149.3,57c59.8,0,116.1-23.3,158.4-65.6C456.7,372.1,480,315.8,480,256C480,204.8,462.3,154.7,430,115z"/>
	<path class="st0" d="M48,256c0-114.7,93.3-208,208-208c51.3,0,100.5,18.8,138.7,53c3.3,2.9,8.4,2.7,11.3-0.6
		c2.9-3.3,2.7-8.3-0.6-11.3C364.2,52.3,311.2,32,256,32c-59.8,0-116.1,23.3-158.4,65.6C55.3,139.9,32,196.2,32,256
		c0,51.2,17.7,101.3,50,141c1.6,1.9,3.9,3,6.2,3c1.8,0,3.6-0.6,5-1.8c3.4-2.8,4-7.8,1.2-11.3C64.5,350.1,48,303.6,48,256z"/>
	<path class="st0" d="M190.2,301.7c-10,7.2-15.4,17-15.4,27.7s5.5,20.5,15.4,27.7c9.2,6.6,21.3,10.3,34,10.3s24.8-3.7,34-10.3
		c10-7.2,15.5-17,15.5-27.7s-5.5-20.5-15.5-27.7c-9.2-6.6-21.3-10.3-34-10.3S199.3,295,190.2,301.7z M257.6,329.4
		c0,11.9-15.3,22-33.4,22c-18.1,0-33.4-10.1-33.4-22s15.3-22,33.4-22S257.6,317.5,257.6,329.4z"/>
	<path class="st0" d="M319.4,139.7c-1.2-3-4.2-5-7.4-5h-84.3c-19.6,0-39.3,7.3-54.1,20c-15.1,13-23.7,30.5-23.7,48.1
		c0,34.1,21.7,59.9,53.7,65.1c0,0.5,0.1,1,0.1,1.5c-17.9,2.3-34.3,9.7-46.8,21.1c-14.1,12.8-22.2,29.6-22.2,46.1
		c0,32.8,36.7,56.6,87.3,56.6c42.9,0,87.2-24.7,87.2-66c0-26.4-7.8-40.8-32.2-59.1l-1.5-1.1c-6.5-4.8-9.8-7.7-11.4-9.3
		c0.9-1,2.8-2.8,6.9-6c16.8-13.1,25.7-29.7,25.7-48c0-10.6-2.2-20.5-6.4-29.1l27.3-26.2C319.9,146.2,320.6,142.8,319.4,139.7z
		 M274.7,167.4c-2.8,2.7-3.3,6.9-1.2,10.1c4.7,7.2,7.1,16.3,7.1,26.3c0,13.1-6.8,25.4-19.6,35.4c-11,8.6-13.7,12.6-13.7,20.3
		c0,1,0.2,1.9,0.5,2.8c1.3,3.5,4.9,7.8,18.1,17.7l1.4,1.1c20.5,15.4,25.8,24.9,25.8,46.3c0,17.9-11.7,29.4-21.4,35.9
		c-13.4,8.9-31.5,14-49.7,14c-20.8,0-39.5-4.5-52.7-12.6c-8.5-5.2-18.6-14.3-18.6-28c0-30,32.7-51.1,63.2-52
		c2.7-0.1,5.1-1.5,6.5-3.7s1.6-5.1,0.5-7.5c-1-2.2-1.4-4.5-1.4-7c0-1.4,0.1-2.7,0.4-4.1c0.4-2.3-0.2-4.6-1.6-6.4s-3.6-2.9-5.8-3
		c-27.9-1.5-46.6-21.6-46.6-50c0-12.9,6.6-26.1,18.2-36c11.9-10.2,27.8-16.1,43.7-16.1h64.4L274.7,167.4z"/>
	<path class="st0" d="M203.4,163.9c-8.1,4.1-13.6,12.5-15.1,23c-1.4,9.6,0.6,20.3,5.6,30.1c8.4,16.6,22.9,26.6,36.6,26.6
		c4.1,0,8.1-0.9,11.9-2.8l0,0c16.2-8.2,20.4-31.5,9.5-53.1c-5-9.8-12.4-17.7-20.9-22.3C221.5,160.3,211.5,159.8,203.4,163.9z
		 M223.3,179.5c5.6,3,10.8,8.7,14.2,15.5c6.5,12.9,5.4,27.6-2.5,31.6c-7.8,4-20.4-3.9-26.9-16.8c-3.4-6.8-4.9-14.3-4-20.6
		c0.4-3.1,1.9-8.6,6.5-11c1.5-0.7,3-1,4.5-1C218.4,177.1,221.4,178.4,223.3,179.5z"/>
	<path class="st0" d="M360,246.7c4.4,0,8-3.6,8-8v-32h32c4.4,0,8-3.6,8-8s-3.6-8-8-8h-32v-32c0-4.4-3.6-8-8-8s-8,3.6-8,8v32h-32
		c-4.4,0-8,3.6-8,8s3.6,8,8,8h32v32C352,243.1,355.6,246.7,360,246.7z"/>
</g>
</svg>
