<?xml version="1.0" encoding="utf-8"?>
<!-- Generator: Adobe Illustrator 22.0.1, SVG Export Plug-In . SVG Version: 6.00 Build 0)  -->
<svg version="1.1" id="Layer_1" xmlns="http://www.w3.org/2000/svg" xmlns:xlink="http://www.w3.org/1999/xlink" x="0px" y="0px"
	 viewBox="0 0 409.6 409.6" style="enable-background:new 0 0 409.6 409.6;" xml:space="preserve">
<style type="text/css">
	.st0{fill:#FFFFFF;}
</style>
<g>
	<g>
		<path class="st0" d="M349.6,60C310.9,21.3,259.5,0,204.8,0S98.7,21.3,60,60C21.3,98.7,0,150.1,0,204.8c0,54.7,21.3,106.1,60,144.8
			c38.7,38.7,90.1,60,144.8,60c54.7,0,106.1-21.3,144.8-60c38.7-38.7,60-90.1,60-144.8C409.6,150.1,388.3,98.7,349.6,60L349.6,60z
			 M340.6,340.6c-36.3,36.3-84.5,56.2-135.8,56.2c-51.3,0-99.5-20-135.8-56.2c-36.3-36.3-56.2-84.5-56.2-135.8
			c0-51.3,20-99.5,56.2-135.8s84.5-56.2,135.8-56.2c51.3,0,99.5,20,135.8,56.2c36.3,36.3,56.2,84.5,56.2,135.8
			C396.8,256.1,376.8,304.3,340.6,340.6L340.6,340.6z"/>
		<path class="st0" d="M344,92c-2.2-2.7-6.3-3.2-9-0.9c-2.7,2.2-3.2,6.3-0.9,9c23.9,29.5,37.1,66.7,37.1,104.8
			c0,44.5-17.3,86.2-48.7,117.7s-73.2,48.7-117.7,48.7c-41,0-80.4-15-110.9-42.4c-2.6-2.4-6.7-2.1-9,0.5c-2.4,2.6-2.1,6.7,0.5,9
			c32.9,29.4,75.3,45.6,119.5,45.6c47.9,0,92.9-18.6,126.7-52.5c33.8-33.8,52.5-78.8,52.5-126.7C384,163.8,369.8,123.7,344,92
			L344,92z"/>
		<path class="st0" d="M38.4,204.8C38.4,113,113,38.4,204.8,38.4c41,0,80.4,15,110.9,42.4c2.6,2.4,6.7,2.1,9-0.5
			c2.4-2.6,2.1-6.7-0.5-9C291.4,41.8,249,25.6,204.8,25.6c-47.9,0-92.9,18.6-126.7,52.5c-33.8,33.8-52.5,78.8-52.5,126.7
			c0,41,14.2,81.1,40,112.8c1.3,1.6,3.1,2.4,5,2.4c1.4,0,2.8-0.5,4-1.4c2.7-2.2,3.2-6.3,0.9-9C51.6,280.1,38.4,242.9,38.4,204.8
			L38.4,204.8z"/>
	</g>
	<g>
		<path class="st0" d="M258.6,102.1H151.4c-27.2,0-49.3,22.1-49.3,49.3v107.2c0,27.2,22.1,49.3,49.3,49.3h107.2
			c27.2,0,49.3-22.1,49.3-49.3V151.4C307.9,124.2,285.8,102.1,258.6,102.1z M294.9,258.6c0,20-16.3,36.3-36.3,36.3H151.4
			c-20,0-36.3-16.3-36.3-36.3V151.4c0-20,16.3-36.3,36.3-36.3h107.2c20,0,36.3,16.3,36.3,36.3V258.6z"/>
		<path class="st0" d="M262.5,139.7c-4.4,0-7.9,3.5-7.9,7.9s3.5,7.9,7.9,7.9c4.4,0,7.9-3.5,7.9-7.9
			C270.4,143.3,266.9,139.7,262.5,139.7z"/>
		<path class="st0" d="M205,154.6c-27.8,0-50.4,22.6-50.4,50.4c0,27.8,22.6,50.4,50.4,50.4c27.8,0,50.4-22.6,50.4-50.4
			C255.4,177.2,232.8,154.6,205,154.6z M205,242.5c-20.7,0-37.5-16.8-37.5-37.5c0-20.6,16.8-37.4,37.5-37.4
			c20.6,0,37.4,16.8,37.4,37.4C242.4,225.7,225.6,242.5,205,242.5z"/>
	</g>
</g>
</svg>
