<?xml version="1.0" encoding="utf-8"?>
<!-- Generator: Adobe Illustrator 22.0.1, SVG Export Plug-In . SVG Version: 6.00 Build 0)  -->
<svg version="1.1" id="Capa_1" xmlns="http://www.w3.org/2000/svg" xmlns:xlink="http://www.w3.org/1999/xlink" x="0px" y="0px"
	 viewBox="0 0 512 512" style="enable-background:new 0 0 512 512;" xml:space="preserve">
<style type="text/css">
	.st0{fill:#FFFFFF;}
</style>
<g>
	<path class="st0" d="M437,75C388.7,26.6,324.4,0,256,0C187.6,0,123.3,26.6,75,75S0,187.6,0,256c0,68.4,26.6,132.7,75,181
		c48.4,48.3,112.6,75,181,75c68.4,0,132.7-26.6,181-75c48.4-48.3,75-112.6,75-181C512,187.6,485.4,123.3,437,75z M425.7,425.7
		C380.4,471,320.1,496,256,496c-64.1,0-124.4-25-169.7-70.3C41,380.4,16,320.1,16,256c0-64.1,25-124.4,70.3-169.7
		C131.6,41,191.9,16,256,16c64.1,0,124.4,25,169.7,70.3C471,131.6,496,191.9,496,256C496,320.1,471,380.4,425.7,425.7z"/>
	<path class="st0" d="M430,115c-2.8-3.4-7.8-4-11.3-1.2c-3.4,2.8-4,7.8-1.2,11.3c29.9,36.9,46.4,83.4,46.4,131
		c0,55.6-21.6,107.8-60.9,147.1S311.6,464,256,464c-51.3,0-100.5-18.8-138.7-53c-3.3-2.9-8.3-2.7-11.3,0.6s-2.7,8.4,0.6,11.3
		c41.1,36.8,94.1,57,149.3,57c59.8,0,116.1-23.3,158.4-65.6C456.7,372.1,480,315.8,480,256C480,204.8,462.3,154.7,430,115z"/>
	<path class="st0" d="M48,256c0-114.7,93.3-208,208-208c51.3,0,100.5,18.8,138.7,53c3.3,2.9,8.4,2.7,11.3-0.6
		c2.9-3.3,2.7-8.3-0.6-11.3C364.2,52.3,311.2,32,256,32c-59.8,0-116.1,23.3-158.4,65.6C55.3,139.9,32,196.2,32,256
		c0,51.2,17.7,101.3,50,141c1.6,1.9,3.9,3,6.2,3c1.8,0,3.6-0.6,5-1.8c3.4-2.8,4-7.8,1.2-11.3C64.5,350.1,48,303.6,48,256z"/>
	<path class="st0" d="M325.7,373h49.6c4.4,0,8-3.6,8-8v-85.5c0-24-6.2-42.9-18.4-56.2c-11.4-12.4-27.6-18.9-46.7-18.9
		c-16.6,0-28.3,5.1-36.7,11.6v-0.1c0-4.4-3.6-8-8-8h-49.6c-2.2,0-4.3,0.9-5.8,2.5c-1.5,1.6-2.3,3.7-2.2,5.9
		c0.6,13.6,0,147.4,0,148.7c0,2.1,0.8,4.2,2.3,5.7s3.5,2.4,5.7,2.4h49.6c4.4,0,8-3.6,8-8v-83.3c0-4.3,0.3-7.4,1.1-9.1
		c1.6-4,6.5-13.1,18-13.1c4.7,0,17.1,0,17.1,25.7V365C317.7,369.5,321.3,373,325.7,373z M300.6,243.5c-14.7,0-27,8.7-32.8,23.1
		c-1.5,3.8-2.2,8.4-2.2,15.1V357H232c0.1-25.9,0.4-105.5,0.1-133.1h33.4V237c0,3.5,2.3,6.7,5.7,7.7c3.4,1,7.1-0.3,9-3.3
		c6.7-10.4,16.5-21,38-21c31.2,0,49.1,21.5,49.1,59.1V357h-33.6v-71.8c0-12.1-2.4-21.9-7.2-28.9C320.7,248,311.8,243.5,300.6,243.5z
		"/>
	<path class="st0" d="M207.7,169.6c-0.4-19.8-15.1-33.6-35.7-33.6c-20.9,0-36,14.2-36,33.8s14.9,33.8,35.4,33.8h0.3
		c20.9,0,36-14.2,36-33.8C207.7,169.7,207.7,169.7,207.7,169.6z M171.7,187.5h-0.3c-11.6,0-19.4-7.1-19.4-17.8s8-17.8,20-17.8
		c11.9,0,19.5,6.8,19.7,17.9C191.7,180.4,183.7,187.5,171.7,187.5z"/>
	<path class="st0" d="M146.9,207.9c-4.4,0-8,3.6-8,8V365c0,4.4,3.6,8,8,8h49.6c4.4,0,8-3.6,8-8V215.9c0-4.4-3.6-8-8-8H146.9z
		 M188.5,357h-33.6V223.9h33.6V357z"/>
</g>
</svg>
