<?xml version="1.0" encoding="utf-8"?>
<!-- Generator: Adobe Illustrator 22.0.1, SVG Export Plug-In . SVG Version: 6.00 Build 0)  -->
<svg version="1.1" id="Capa_1" xmlns="http://www.w3.org/2000/svg" xmlns:xlink="http://www.w3.org/1999/xlink" x="0px" y="0px"
	 viewBox="0 0 512 512" style="enable-background:new 0 0 512 512;" xml:space="preserve">
<style type="text/css">
	.st0{fill:#FFFFFF;}
</style>
<g>
	<path class="st0" d="M437,75C388.7,26.6,324.4,0,256,0C187.6,0,123.3,26.6,75,75S0,187.6,0,256c0,68.4,26.6,132.7,75,181
		c48.4,48.3,112.6,75,181,75c68.4,0,132.7-26.6,181-75c48.4-48.3,75-112.6,75-181C512,187.6,485.4,123.3,437,75z M425.7,425.7
		C380.4,471,320.1,496,256,496c-64.1,0-124.4-25-169.7-70.3C41,380.4,16,320.1,16,256c0-64.1,25-124.4,70.3-169.7
		C131.6,41,191.9,16,256,16c64.1,0,124.4,25,169.7,70.3C471,131.6,496,191.9,496,256C496,320.1,471,380.4,425.7,425.7z"/>
	<path class="st0" d="M430,115c-2.8-3.4-7.8-4-11.3-1.2c-3.4,2.8-4,7.8-1.2,11.3c29.9,36.9,46.4,83.4,46.4,131
		c0,55.6-21.6,107.8-60.9,147.1S311.6,464,256,464c-51.3,0-100.5-18.8-138.7-53c-3.3-2.9-8.3-2.7-11.3,0.6s-2.7,8.4,0.6,11.3
		c41.1,36.8,94.1,57,149.3,57c59.8,0,116.1-23.3,158.4-65.6C456.7,372.1,480,315.8,480,256C480,204.8,462.3,154.7,430,115z"/>
	<path class="st0" d="M48,256c0-114.7,93.3-208,208-208c51.3,0,100.5,18.8,138.7,53c3.3,2.9,8.4,2.7,11.3-0.6
		c2.9-3.3,2.7-8.3-0.6-11.3C364.2,52.3,311.2,32,256,32c-59.8,0-116.1,23.3-158.4,65.6C55.3,139.9,32,196.2,32,256
		c0,51.2,17.7,101.3,50,141c1.6,1.9,3.9,3,6.2,3c1.8,0,3.6-0.6,5-1.8c3.4-2.8,4-7.8,1.2-11.3C64.5,350.1,48,303.6,48,256z"/>
	<path class="st0" d="M188.6,390.9l0.1,0.5c0.5,4,3.4,7.2,7.3,8.2c0.9,0.2,1.8,0.4,2.7,0.4c3.1,0,6.1-1.4,8-3.9l0.3-0.4
		c6.7-8.5,22.8-30.6,29-52.9c1.1-4,4.5-17.5,7.3-28.2c9,6.7,21.3,10.9,33.6,10.9c26.3,0,49.9-11.8,66.6-33.3
		c15.9-20.6,24.7-49.1,24.7-80.5c0-24.9-10.6-49.3-29.2-67.2c-19.7-18.9-46.8-29.3-76.5-29.3c-45.1,0-72.9,18.6-88.3,34.1
		c-19,19.3-30,44.9-30,70.2c0,32.2,13.7,57,36.6,66.4c3.9,1.6,8,1.5,11.5-0.2c3.5-1.7,5.9-5,7-9c0.4-1.3,0.9-3.6,1.5-6
		c0.6-2.4,1.2-4.9,1.6-6.4c1.9-7.2,0.1-11.1-3.9-15.8c-5.7-6.7-8.3-14.6-8.3-25.1c0-17.5,6.5-33.9,18.2-46
		c12.6-13,29.8-19.9,49.8-19.9c34.7,0,56.2,19.6,56.2,51.1c0,41.5-18,74.1-40.9,74.1c-5.7,0-10.7-2.3-13.9-6.3
		c-2.9-3.7-3.9-8.5-2.7-13.6c1.6-6.8,3.8-14,6-20.9c4-13.1,7.9-25.5,7.9-35.7c0-18.6-11.6-31.1-28.8-31.1
		c-21.2,0-37.8,21.1-37.8,47.9c0,11.7,2.8,20.7,4.5,25.1c-3,12.9-16.6,70.4-19.3,81.5C184.1,351.8,186.7,377.5,188.6,390.9z
		 M204.9,333.5c3-12.5,19.9-84.1,19.9-84.1c0.4-1.8,0.2-3.7-0.6-5.4c0-0.1-4.1-8.6-4.1-20.9c0-17.9,9.6-31.9,21.8-31.9
		c11.1,0,12.8,9.5,12.8,15.1c0,7.8-3.5,19.1-7.2,31c-2.2,7.2-4.5,14.6-6.2,21.9c-2.4,9.9-0.3,19.6,5.7,27.2
		c6.2,7.8,15.8,12.3,26.4,12.3c16.8,0,31.9-10.1,42.4-28.4c9.4-16.4,14.6-38.3,14.6-61.7c0-19.3-6.6-35.9-19-48
		c-12.9-12.5-31.3-19.1-53.2-19.1c-24.1,0-45.9,8.8-61.3,24.8c-14.6,15.1-22.7,35.4-22.7,57.1c0,14.2,4,25.8,12.1,35.4
		c0.3,0.4,0.6,0.7,0.7,0.9c0,0.1-0.1,0.3-0.1,0.5c-0.4,1.5-1,4.1-1.7,6.6c-0.3,1.1-0.6,2.2-0.8,3.2c-15.5-7.6-24.3-25.9-24.3-50.5
		c0-21.2,9.2-42.7,25.3-59c13.3-13.4,37.4-29.4,77-29.4c25.5,0,48.7,8.8,65.4,24.8c15.4,14.8,24.3,35.1,24.3,55.6
		c0,27.8-7.6,52.9-21.4,70.7c-13.7,17.7-32.4,27.1-53.9,27.1c-14.1,0-26.8-7.8-30.6-14.9c-1.5-2.9-4.7-4.6-8-4.2
		c-3.3,0.4-6,2.8-6.8,6c-0.1,0.4-9,35.5-10.8,42.2c-3.5,12.8-11.1,25.9-17.6,35.6C201.6,358.7,202.3,344.4,204.9,333.5z"/>
</g>
</svg>
