<?xml version="1.0" encoding="utf-8"?>
<!-- Generator: Adobe Illustrator 22.0.1, SVG Export Plug-In . SVG Version: 6.00 Build 0)  -->
<svg version="1.1" id="Capa_1" xmlns="http://www.w3.org/2000/svg" xmlns:xlink="http://www.w3.org/1999/xlink" x="0px" y="0px"
	 viewBox="0 0 512 512" style="enable-background:new 0 0 512 512;" xml:space="preserve">
<style type="text/css">
	.st0{fill:#FFFFFF;}
</style>
<g>
	<path class="st0" d="M437,75C388.7,26.6,324.4,0,256,0C187.6,0,123.3,26.6,75,75S0,187.6,0,256c0,68.4,26.6,132.7,75,181
		c48.4,48.3,112.6,75,181,75c68.4,0,132.7-26.6,181-75c48.4-48.3,75-112.6,75-181C512,187.6,485.4,123.3,437,75z M425.7,425.7
		C380.4,471,320.1,496,256,496c-64.1,0-124.4-25-169.7-70.3C41,380.4,16,320.1,16,256c0-64.1,25-124.4,70.3-169.7
		C131.6,41,191.9,16,256,16c64.1,0,124.4,25,169.7,70.3C471,131.6,496,191.9,496,256C496,320.1,471,380.4,425.7,425.7z"/>
	<path class="st0" d="M430,115c-2.8-3.4-7.8-4-11.3-1.2c-3.4,2.8-4,7.8-1.2,11.3c29.9,36.9,46.4,83.4,46.4,131
		c0,55.6-21.6,107.8-60.9,147.1S311.6,464,256,464c-51.3,0-100.5-18.8-138.7-53c-3.3-2.9-8.3-2.7-11.3,0.6s-2.7,8.4,0.6,11.3
		c41.1,36.8,94.1,57,149.3,57c59.8,0,116.1-23.3,158.4-65.6C456.7,372.1,480,315.8,480,256C480,204.8,462.3,154.7,430,115z"/>
	<path class="st0" d="M48,256c0-114.7,93.3-208,208-208c51.3,0,100.5,18.8,138.7,53c3.3,2.9,8.4,2.7,11.3-0.6
		c2.9-3.3,2.7-8.3-0.6-11.3C364.2,52.3,311.2,32,256,32c-59.8,0-116.1,23.3-158.4,65.6C55.3,139.9,32,196.2,32,256
		c0,51.2,17.7,101.3,50,141c1.6,1.9,3.9,3,6.2,3c1.8,0,3.6-0.6,5-1.8c3.4-2.8,4-7.8,1.2-11.3C64.5,350.1,48,303.6,48,256z"/>
	<path class="st0" d="M398.7,194.8c2-3,1.8-6.9-0.5-9.6c-2.3-2.7-6.1-3.6-9.4-2.2c-0.2,0.1-0.4,0.2-0.6,0.3
		c1.9-3.4,3.4-6.9,4.6-10.7c1-3.2,0-6.6-2.6-8.7c-2.6-2.1-6.2-2.3-9.1-0.6c-8.1,4.8-16.7,8.3-25.7,10.5c-10.8-9.8-25-15.3-39.6-15.3
		c-32.5,0-58.9,26.4-58.9,58.9c0,0.9,0,1.9,0.1,2.8c-34.9-4.2-67-21.9-89.4-49.4c-1.7-2-4.2-3.1-6.8-2.9c-2.6,0.2-5,1.7-6.3,3.9
		c-5.2,8.9-8,19.2-8,29.6c0,10,2.5,19.5,7.1,28c-1.2,0.1-2.4,0.4-3.5,1.1c-2.4,1.4-3.9,4.1-3.9,6.9v0.6c0,17.6,7.9,33.8,20.6,44.7
		c-0.3,0.2-0.5,0.5-0.8,0.8c-1.9,2.1-2.5,5-1.6,7.7c5.5,17.1,18.3,30.3,34.3,36.7c-13,6.5-27.4,9.9-42.3,9.9
		c-3.8,0-7.5-0.2-11.2-0.6c-3.7-0.4-7.2,1.7-8.5,5.3c-1.3,3.5,0.1,7.4,3.2,9.4c24.6,15.8,53.1,24.1,82.3,24.1
		c57.5,0,93.4-27.1,113.5-49.9c25-28.3,39.3-65.8,39.3-102.9c0-0.9,0-1.8,0-2.7C384,213.3,392.1,204.6,398.7,194.8z M361.9,210.2
		c-2.2,1.6-3.4,4.2-3.3,6.9c0.1,2,0.1,4,0.1,6.2c0,33.2-12.9,66.9-35.3,92.3c-17.9,20.3-50,44.5-101.5,44.5
		c-15.8,0-31.3-2.7-45.9-7.9c17.5-3.2,33.9-10.5,48.2-21.7c2.7-2.1,3.7-5.6,2.6-8.8c-1.1-3.2-4.1-5.4-7.4-5.5
		c-14.1-0.3-26.8-7.4-34.5-18.5c4-0.2,8-0.9,11.9-2c3.6-1,6-4.3,5.9-8c-0.1-3.7-2.8-6.8-6.4-7.6c-15.9-3.2-28.4-15.2-32.7-30.3
		c4.3,1.1,8.7,1.8,13.1,1.9c3.6,0.1,6.8-2.1,7.9-5.5c1.1-3.4-0.2-7.1-3.2-9.1c-11.9-8-19.1-21.3-19.1-35.7c0-3.6,0.5-7.3,1.4-10.8
		c26.8,27.7,63.3,44.4,102,46.3c2.5,0.1,4.9-0.9,6.5-2.9c1.6-1.9,2.2-4.5,1.6-6.9c-0.7-3.1-1.1-6.4-1.1-9.8
		c0-23.6,19.2-42.9,42.9-42.9c11.8,0,23.2,4.9,31.3,13.5c1.9,2,4.7,2.9,7.4,2.4c3-0.6,6-1.3,9-2.2c-1.5,1.2-3.1,2.3-4.7,3.3
		c-3.2,1.9-4.7,5.9-3.5,9.4c1.2,3.6,4.8,5.8,8.5,5.4c1.3-0.2,2.6-0.3,3.9-0.5C365.8,207.3,363.9,208.8,361.9,210.2z"/>
</g>
</svg>
