<?xml version="1.0" encoding="utf-8"?>
<!-- Generator: Adobe Illustrator 22.0.1, SVG Export Plug-In . SVG Version: 6.00 Build 0)  -->
<svg version="1.1" id="Capa_1" xmlns="http://www.w3.org/2000/svg" xmlns:xlink="http://www.w3.org/1999/xlink" x="0px" y="0px"
	 viewBox="0 0 512 512" style="enable-background:new 0 0 512 512;" xml:space="preserve">
<style type="text/css">
	.st0{fill:#FFFFFF;}
</style>
<g>
	<path class="st0" d="M437,75C388.7,26.6,324.4,0,256,0C187.6,0,123.3,26.6,75,75S0,187.6,0,256c0,68.4,26.6,132.7,75,181
		c48.4,48.3,112.6,75,181,75c68.4,0,132.7-26.6,181-75c48.4-48.3,75-112.6,75-181C512,187.6,485.4,123.3,437,75z M425.7,425.7
		C380.4,471,320.1,496,256,496c-64.1,0-124.4-25-169.7-70.3C41,380.4,16,320.1,16,256c0-64.1,25-124.4,70.3-169.7
		C131.6,41,191.9,16,256,16c64.1,0,124.4,25,169.7,70.3C471,131.6,496,191.9,496,256C496,320.1,471,380.4,425.7,425.7z"/>
	<path class="st0" d="M430,115c-2.8-3.4-7.8-4-11.3-1.2c-3.4,2.8-4,7.8-1.2,11.3c29.9,36.9,46.4,83.4,46.4,131
		c0,55.6-21.6,107.8-60.9,147.1S311.6,464,256,464c-51.3,0-100.5-18.8-138.7-53c-3.3-2.9-8.3-2.7-11.3,0.6s-2.7,8.4,0.6,11.3
		c41.1,36.8,94.1,57,149.3,57c59.8,0,116.1-23.3,158.4-65.6C456.7,372.1,480,315.8,480,256C480,204.8,462.3,154.7,430,115z"/>
	<path class="st0" d="M48,256c0-114.7,93.3-208,208-208c51.3,0,100.5,18.8,138.7,53c3.3,2.9,8.4,2.7,11.3-0.6
		c2.9-3.3,2.7-8.3-0.6-11.3C364.2,52.3,311.2,32,256,32c-59.8,0-116.1,23.3-158.4,65.6C55.3,139.9,32,196.2,32,256
		c0,51.2,17.7,101.3,50,141c1.6,1.9,3.9,3,6.2,3c1.8,0,3.6-0.6,5-1.8c3.4-2.8,4-7.8,1.2-11.3C64.5,350.1,48,303.6,48,256z"/>
	<path class="st0" d="M393.8,199.2c-0.3-2.2-3.2-22.1-12.5-32.2c-11.1-12.4-23.8-13.7-29.9-14.3c-0.5-0.1-1-0.1-1.5-0.2
		c-0.1,0-0.2,0-0.4,0c-36.8-2.8-92.2-2.9-92.8-2.9h-0.1c-0.6,0-56,0-92.8,2.9c-0.1,0-0.2,0-0.4,0c-0.4,0.1-0.9,0.1-1.5,0.2
		c-6.1,0.6-18.7,1.9-29.9,14.3c-9.3,10.1-12.2,30-12.5,32.2c0,0,0,0.1,0,0.1c-0.1,0.9-2.7,23.5-2.7,46.4v21.3
		c0,23,2.6,45.5,2.7,46.4c0,0,0,0.1,0,0.1c0.3,2.2,3.2,22.1,12.5,32.2c10.3,11.5,23.4,13.1,30.4,14c1.2,0.2,2.3,0.3,3,0.4
		c0.2,0,0.5,0.1,0.8,0.1c21.2,2.2,87.5,2.8,90.4,2.9c0.6,0,56.1-0.1,92.8-2.9c0.1,0,0.3,0,0.4,0c0.5-0.1,1-0.1,1.5-0.2
		c6.1-0.6,18.7-2,29.8-14.3c9.3-10.1,12.2-30,12.5-32.2c0,0,0-0.1,0-0.1c0.1-0.9,2.7-23.5,2.7-46.4v-21.3c0-22.9-2.6-45.5-2.7-46.4
		C393.8,199.3,393.8,199.3,393.8,199.2z M380.5,267.1c0,21.4-2.4,43.1-2.6,44.5c-0.6,4.4-3.4,18-8.4,23.4c0,0-0.1,0.1-0.1,0.1
		c-7,7.8-14.6,8.6-19.6,9.1c-0.6,0.1-1.2,0.1-1.7,0.2c-36.1,2.8-90.9,2.9-91.4,2.9c-0.7,0-67.6-0.7-88.5-2.8
		c-1.2-0.2-2.4-0.4-3.7-0.5c-6-0.8-14.2-1.8-20.5-8.9c0,0-0.1-0.1-0.1-0.1c-4.4-4.8-7.5-16.9-8.4-23.4c-0.2-1.4-2.6-23.1-2.6-44.5
		v-21.3c0-21.4,2.4-43.1,2.6-44.5c0.6-4.4,3.4-18,8.4-23.5c0,0,0.1-0.1,0.1-0.1c7-7.8,14.6-8.6,19.6-9.1c0.6-0.1,1.1-0.1,1.6-0.2
		c36.1-2.8,90.8-2.8,91.4-2.8h0.1c0.5,0,55.3,0,91.4,2.8c0.5,0.1,1,0.1,1.6,0.2c5,0.5,12.6,1.3,19.6,9.1c0,0,0.1,0.1,0.1,0.1
		c4.5,4.8,7.5,16.9,8.4,23.5c0.2,1.4,2.6,23.1,2.6,44.5L380.5,267.1z"/>
	<path class="st0" d="M310.4,249.6L228,200.2c-2.5-1.5-5.5-1.5-8.1-0.1c-2.5,1.4-4.1,4.1-4.1,7v98.8c0,2.9,1.6,5.5,4.1,7
		c1.2,0.7,2.6,1,3.9,1c1.4,0,2.9-0.4,4.1-1.1l82.4-49.4c2.4-1.4,3.9-4,3.9-6.9S312.8,251,310.4,249.6z M231.9,291.7v-70.6l58.8,35.3
		L231.9,291.7z"/>
</g>
</svg>
