<?xml version="1.0" encoding="iso-8859-1"?>
<!-- Generator: Adobe Illustrator 19.0.0, SVG Export Plug-In . SVG Version: 6.00 Build 0)  -->
<svg version="1.1" id="Layer_1" xmlns="http://www.w3.org/2000/svg" xmlns:xlink="http://www.w3.org/1999/xlink" x="0px" y="0px"
	 viewBox="0 0 512 512" style="enable-background:new 0 0 512 512;" xml:space="preserve">
<circle style="fill:#CD2900;" cx="256.313" cy="256.313" r="247.916"/>
<path style="fill:#AC2201;" d="M256.318,8.402c-10.96,0-21.752,0.72-32.337,2.099C345.622,26.347,439.56,130.358,439.56,256.318
	s-93.939,229.971-215.579,245.817c10.585,1.379,21.377,2.099,32.337,2.099c136.92,0,247.916-110.996,247.916-247.916
	S393.239,8.402,256.318,8.402z"/>
<path style="fill:#FFFFFF;" d="M205.213,417.067c-16.772,0-32.945-4.766-41.093-7.608l-3.398-1.185
	c-1.429-0.498-2.388-1.846-2.388-3.361v-56.707c0-2.56,2.621-4.282,4.971-3.267l7.074,3.059c5.056,2.187,9.767,3.296,14,3.296
	c2.504,0,4.905-0.392,7.138-1.167c5.94-2.062,9.932-7.817,9.932-14.322V215.904c0-1.966,1.593-3.559,3.559-3.559h47.854
	c1.966,0,3.559,1.593,3.559,3.559v48.063c0,1.474,0.901,2.812,2.283,3.323c10.243,3.792,20.843,5.787,30.82,5.787
	c12.235,0,23.416-2.95,32.335-8.53c9.446-5.91,21.043-17.808,22.657-40.922c1.14-16.326-5.024-32.602-17.358-45.828
	c-16.962-18.189-43.606-29.048-71.274-29.048c-46.177,0-85.003,30.471-88.392,69.369l-0.308,3.544
	c-0.13,1.494-1.184,2.746-2.633,3.131l-55.108,14.61c-2.177,0.578-4.336-0.987-4.465-3.237l-0.355-6.195
	c-0.12-2.095-0.181-4.219-0.181-6.31c0-70.706,67.938-128.229,151.444-128.229c46.185,0,90.973,18.056,119.811,48.3
	c22.082,23.157,33.02,50.805,31.632,79.955c-1.544,32.405-14.699,59.084-38.045,77.152c-20.435,15.816-47.255,24.176-77.56,24.176
	c-10.176,0-20.624-0.966-31.126-2.875c-2.175-0.396-4.173,1.289-4.173,3.501v41.059c0,27.09-20.918,49.179-47.62,50.289
	c-1.173,0.05-2.38,0.073-3.588,0.073C205.215,417.067,205.214,417.067,205.213,417.067z"/>
<path d="M256,512c-68.379,0-132.667-26.628-181.019-74.982C26.628,388.667,0,324.379,0,256S26.628,123.333,74.981,74.982
	C123.333,26.628,187.62,0,256,0s132.667,26.628,181.019,74.982C485.372,123.333,512,187.62,512,256s-26.628,132.667-74.981,181.019
	C388.667,485.372,324.379,512,256,512z M256,16.168C123.756,16.168,16.168,123.756,16.168,256S123.756,495.832,256,495.832
	S495.832,388.244,495.832,256S388.244,16.168,256,16.168z"/>
<path d="M381.158,138.528c-30.234-31.708-77.064-50.638-125.272-50.638c-87.667,0-158.989,60.908-158.989,135.774
	c0,5.696,0.417,11.431,1.24,17.046c0.205,1.396,0.705,2.751,1.561,3.873c2.06,2.7,5.439,3.767,8.536,2.949l60.553-16.054
	c3.545-0.94,6.012-4.148,6.012-7.815c0-37.147,36.376-67.368,81.088-67.368c19.958,0,39.288,6.05,54.214,16.616
	c3.145,2.227,7.456,1.795,10.181-0.93c0.038-0.038,0.077-0.077,0.114-0.114c3.501-3.501,3.019-9.324-1.026-12.177
	c-17.644-12.441-40.258-19.562-63.483-19.562c-51.162,0-93.225,34.111-96.982,77.244l-45.671,12.108
	c-0.111-1.938-0.167-3.879-0.167-5.816c0-65.951,64.069-119.605,142.821-119.605c43.872,0,86.329,17.057,113.57,45.627
	c20.414,21.409,30.532,46.858,29.259,73.593c-1.419,29.805-13.422,54.269-34.71,70.744c-26.467,20.483-65.212,27.324-106.324,18.767
	c-1.345-0.28-2.752-0.282-4.066,0.115c-3.581,1.084-5.814,4.295-5.814,7.768v46.029c0,22.45-17.287,40.756-39.356,41.674
	c-16.655,0.698-33.441-4.254-41.486-7.06v-45.402c10.113,4.374,19.288,5.171,27.387,2.359c9.408-3.264,15.729-12.293,15.729-22.469
	V220.968h37.726v45.811c0,3.265,1.952,6.243,4.98,7.464c26.582,10.729,54.122,9.836,73.655-2.386
	c11.143-6.973,24.817-20.896,26.685-47.63c0.745-10.657-1.202-21.259-5.588-31.181c-2.285-5.169-9-6.493-12.996-2.497l-0.094,0.094
	c-2.362,2.362-2.959,5.923-1.61,8.978c3.303,7.482,4.724,15.397,4.16,23.48c-1.103,15.788-7.719,27.909-19.133,35.051
	c-13.746,8.603-34.008,9.644-53.89,2.994v-48.261c0-4.465-3.62-8.084-8.084-8.084h-53.895c-4.465,0-8.084,3.62-8.084,8.084v122.922
	c0,3.294-1.954,6.185-4.861,7.195c-6.172,2.139-14.977-0.403-25.475-7.356c-2.238-1.482-5.091-1.926-7.595-0.961
	c-3.157,1.217-5.185,4.233-5.185,7.546v64.674c0,3.234,1.927,6.157,4.9,7.431c1.026,0.44,24.277,10.275,49.539,10.275
	c1.29,0,2.589-0.025,3.887-0.08c30.759-1.278,54.853-26.679,54.853-57.827v-36.339c9.39,1.464,18.651,2.188,27.688,2.188
	c31.577-0.002,60.401-8.838,82.243-25.743c25.148-19.464,39.314-48.081,40.965-82.762
	C416.334,193.234,404.362,162.862,381.158,138.528z"/>
<g>
</g>
<g>
</g>
<g>
</g>
<g>
</g>
<g>
</g>
<g>
</g>
<g>
</g>
<g>
</g>
<g>
</g>
<g>
</g>
<g>
</g>
<g>
</g>
<g>
</g>
<g>
</g>
<g>
</g>
</svg>
