<?xml version="1.0" encoding="iso-8859-1"?>
<!-- Generator: Adobe Illustrator 19.0.0, SVG Export Plug-In . SVG Version: 6.00 Build 0)  -->
<svg version="1.1" id="Layer_1" xmlns="http://www.w3.org/2000/svg" xmlns:xlink="http://www.w3.org/1999/xlink" x="0px" y="0px"
	 viewBox="0 0 240.634 240.634" style="enable-background:new 0 0 240.634 240.634;" xml:space="preserve">
<g>
	<path style="fill:#FF1D25;" d="M209.724,41.092c77.461,87.911-6.508,224.727-119.628,195.531c-0.55-0.138-0.917-0.458-1.192-0.779
		c-42.626-10.359-78.011-52.343-85.94-94.19C-6.707,91.052,17.723,38.067,63.236,13.729
		C112.005-12.351,173.285-0.205,209.724,41.092z M205.782,111.54c-0.55-0.046-1.146-0.046-1.742-0.046
		c-3.025,0-6.188,0.046-9.121-0.733c-1.421,0.642-3.3,0.046-3.758-1.65c-1.008-3.621-0.688-7.379-0.596-11.092
		c-3.438,0.229-7.013-0.367-10.313-0.642c-1.421-0.092-2.796-0.275-4.171-0.412c-0.275,3.208-0.275,6.417-0.55,9.625
		c0.917,2.567-0.871,6.188-4.125,6.463c-3.942,0.367-8.159-0.046-12.284-0.733c0,4.079-0.046,8.113-0.092,12.192
		c-0.046,1.146,0,2.338,0,3.529c4.125-0.412,8.204-0.55,12.421-0.412c2.475,0.092,5.271,2.246,4.996,5.042
		c-0.321,3.621-0.55,7.242-0.733,10.909c4.904,0.367,9.809,0.779,14.667,1.192c0.229-3.713,0.321-7.425,0.183-11.184
		c-0.046-2.704,2.475-5.454,5.271-5.271c3.163,0.229,6.233,0.183,9.305,0.046C205.324,122.724,205.507,117.132,205.782,111.54z
		 M102.883,175.296c31.672-6.233,41.435-33.78,37.172-61.693c-16.638-1.192-33.139-1.513-49.868-1.788
		c-0.321-0.046-0.596-0.092-0.825-0.229c0.458,2.063,0.642,4.171,0.871,6.279c0.504,4.492,1.008,9.03,1.238,13.521
		c8.067-0.458,16.226-0.504,24.247,0.092c2.933,0.183,3.758,3.438,2.338,5.179c-1.375,13.2-19.8,17.784-31.305,17.326
		c-16.501-0.733-27.959-14.667-30.48-30.251s4.813-32.359,20.167-38.134c12.971-4.813,24.888,0.733,34.743,8.846
		c2.2-2.75,4.492-5.454,6.784-8.021c2.017-2.292,4.217-5.271,6.738-7.425c-20.167-11.092-41.297-17.784-63.298-4.95
		C40.229,86.378,29.779,111.999,36.7,135.65C44.673,162.875,75.153,180.705,102.883,175.296z"/>
</g>
<g>
</g>
<g>
</g>
<g>
</g>
<g>
</g>
<g>
</g>
<g>
</g>
<g>
</g>
<g>
</g>
<g>
</g>
<g>
</g>
<g>
</g>
<g>
</g>
<g>
</g>
<g>
</g>
<g>
</g>
</svg>
