<?xml version="1.0" encoding="iso-8859-1"?>
<!-- Generator: Adobe Illustrator 19.0.0, SVG Export Plug-In . SVG Version: 6.00 Build 0)  -->
<svg version="1.1" id="Layer_1" xmlns="http://www.w3.org/2000/svg" xmlns:xlink="http://www.w3.org/1999/xlink" x="0px" y="0px"
	 viewBox="0 0 232.79 232.79" style="enable-background:new 0 0 232.79 232.79;" xml:space="preserve">
<g>
	<path style="fill:#FF1D25;" d="M99.684,163.791c-7.471,23.971-15.721,48.676-32.176,67.835c-1.237,1.421-2.842,1.421-4.125,0.642
		c-2.292-0.092-4.538-1.604-4.675-4.492c-1.421-33.688,1.192-69.852,11.734-102.761c2.017-6.371,4.308-12.604,6.967-18.655
		c-6.188-14.575-5.042-32.038,8.754-42.535c11.321-8.571,26.355-7.288,30.938,7.288c5.454,17.325-0.412,40.243-6.921,60.456
		c2.842,1.604,5.179,3.804,8.342,5.409c8.25,4.309,17.234,4.263,25.576,0.596c2.75-1.192,5.088-2.75,7.104-4.492
		c4.583-5.363,8.067-11.321,10.542-17.601c1.1-3.3,2.063-6.738,3.025-10.175c5.546-26.997-7.059-56.514-38.364-66.048
		c-22.688-6.875-49.593-3.025-63.068,18.426c-9.259,14.713-8.892,30.847-6.463,46.98c2.704,6.05,5.913,13.384,4.217,19.113
		c-0.321,1.1-0.825,2.154-1.604,3.162c-4.263,5.546-12.604,5.042-17.738,1.192c-2.154-1.65-3.85-3.85-5.225-6.325
		c-22.276-21.771-4.583-70.86,12.192-90.523C76.767-1.673,125.947-9.052,163.669,11.345c37.768,20.396,53.122,73.381,36.255,112.478
		C184.57,159.436,135.252,182.308,99.684,163.791z"/>
</g>
<g>
</g>
<g>
</g>
<g>
</g>
<g>
</g>
<g>
</g>
<g>
</g>
<g>
</g>
<g>
</g>
<g>
</g>
<g>
</g>
<g>
</g>
<g>
</g>
<g>
</g>
<g>
</g>
<g>
</g>
</svg>
