<?xml version="1.0" encoding="iso-8859-1"?>
<!-- Generator: Adobe Illustrator 19.0.0, SVG Export Plug-In . SVG Version: 6.00 Build 0)  -->
<svg version="1.1" id="Layer_1" xmlns="http://www.w3.org/2000/svg" xmlns:xlink="http://www.w3.org/1999/xlink" x="0px" y="0px"
	 viewBox="0 0 226.826 226.826" style="enable-background:new 0 0 226.826 226.826;" xml:space="preserve">
<g>
	<path style="fill:#3FA9F5;" d="M191.762,185.452c15.813,56.697-96.94,43.589-122.608,27.822
		c-22.184-13.659-30.938-36.439-33.23-61.51c-1.971-21.038-1.283-42.489-1.65-63.619c-0.321-18.609-1.971-37.997,1.146-56.514
		c2.796-16.455,12.146-35.247,32.084-31.03c22.413,4.721,26.447,29.93,23.513,49.089c24.017-0.871,49.135-1.1,71.915,4.033
		c14.209,3.163,26.126,12.421,26.355,28.005c0.55,40.151-65.452,32.863-96.344,26.584c0.046,17.28-1.329,35.155,7.471,48.447
		c9.488,4.767,21.909,5.592,30.847,5.913C152.665,163.314,184.062,157.814,191.762,185.452z"/>
</g>
<g>
</g>
<g>
</g>
<g>
</g>
<g>
</g>
<g>
</g>
<g>
</g>
<g>
</g>
<g>
</g>
<g>
</g>
<g>
</g>
<g>
</g>
<g>
</g>
<g>
</g>
<g>
</g>
<g>
</g>
</svg>
