<?xml version="1.0" encoding="iso-8859-1"?>
<!-- Generator: Adobe Illustrator 19.0.0, SVG Export Plug-In . SVG Version: 6.00 Build 0)  -->
<svg version="1.1" id="Layer_1" xmlns="http://www.w3.org/2000/svg" xmlns:xlink="http://www.w3.org/1999/xlink" x="0px" y="0px"
	 viewBox="0 0 512 512" style="enable-background:new 0 0 512 512;" xml:space="preserve">
<g>
	<path style="fill:#EA163F;" d="M490.096,223.839H459.21v-30.888c0-6.465-5.239-11.705-11.705-11.705H405.81
		c-6.465,0-11.705,5.239-11.705,11.705v30.888h-30.886c-6.465,0-11.705,5.239-11.705,11.705v41.695
		c0,6.465,5.239,11.705,11.705,11.705h30.886v30.888c0,6.464,5.239,11.705,11.705,11.705h41.695c6.465,0,11.705-5.24,11.705-11.705
		v-30.888h30.886c6.465,0,11.705-5.239,11.705-11.705v-41.695C501.801,229.078,496.561,223.839,490.096,223.839z"/>
	<path style="fill:#EA163F;" d="M321.265,245.316c-0.201-2.738-1.701-10.851-1.701-10.851c-0.891-5.695-5.799-9.893-11.563-9.893
		H172.738c-6.465,0-11.705,5.24-11.705,11.705v46.791c0,6.464,5.239,11.705,11.705,11.705h68.958
		c-3.161,6.927-8.14,14.233-14.437,21.041c-13.735,14.854-34.218,23.374-56.199,23.374c-22.446,0-43.943-8.796-58.977-24.13
		c-31.294-31.912-30.935-87.516,0.763-118.991c14.922-14.812,35.478-23.309,56.392-23.309c14.183,0,27.815,3.824,39.443,11.06
		l13.285,9.091c4.63,3.168,10.859,2.608,14.848-1.343l38.748-38.386c2.479-2.456,3.733-5.89,3.42-9.365
		c-0.312-3.476-2.16-6.629-5.037-8.604c0,0-16.635-11.985-22.52-15.444c-5.81-3.415-17.981-9.265-24.138-12.005
		c-18.459-8.216-38.593-11.182-58.848-11.182c-41.758,0-81.147,16.028-110.911,45.125c-30.225,29.549-47.033,69.731-47.323,113.145
		c-0.292,43.423,15.979,83.837,45.813,113.796c29.602,29.729,71.6,46.78,115.229,46.78c43.164,0,83.663-16.759,111.109-45.981
		c21.742-23.146,36.67-53.941,38.59-89.406C321.413,271.368,321.899,253.973,321.265,245.316z"/>
</g>
<g>
	<path style="fill:#9C0E2B;" d="M447.505,341.737H405.81c-12.078,0-21.904-9.826-21.904-21.904v-20.689h-20.688
		c-12.078,0-21.904-9.826-21.904-21.904v-41.695c0-12.078,9.826-21.905,21.904-21.905h20.688v-20.689
		c0-12.078,9.826-21.904,21.904-21.904h41.695c12.078,0,21.904,9.826,21.904,21.904v20.689h20.687
		c12.078,0,21.904,9.826,21.904,21.905v41.695c0,12.078-9.826,21.904-21.904,21.904h-20.687v20.689
		C469.409,331.911,459.583,341.737,447.505,341.737z M363.218,234.038c-0.83,0-1.505,0.676-1.505,1.506v41.695
		c0,0.83,0.675,1.505,1.505,1.505h30.887c5.633,0,10.199,4.566,10.199,10.199v30.888c0,0.83,0.675,1.505,1.505,1.505h41.695
		c0.83,0,1.505-0.675,1.505-1.505v-30.888c0-5.633,4.566-10.199,10.199-10.199h30.886c0.83,0,1.505-0.675,1.505-1.505v-41.695
		c0-0.83-0.675-1.506-1.505-1.506H459.21c-5.633,0-10.199-4.566-10.199-10.199v-30.888c0-0.83-0.675-1.505-1.505-1.505H405.81
		c-0.83,0-1.505,0.675-1.505,1.505v30.888c0,5.633-4.566,10.199-10.199,10.199L363.218,234.038L363.218,234.038z"/>
	<path style="fill:#9C0E2B;" d="M171.245,425.622c-46.319,0-90.952-18.145-122.456-49.783
		C17.019,343.938-0.306,300.944,0.004,254.779c0.309-46.153,18.206-88.902,50.392-120.369
		c31.683-30.974,73.605-48.032,118.042-48.032c24.154,0,44.759,3.946,62.996,12.064c6.633,2.953,19.064,8.949,25.158,12.531
		c6.033,3.546,21.141,14.397,23.234,15.904c5.34,3.712,8.734,9.543,9.315,16.024c0.589,6.523-1.744,12.912-6.4,17.524
		l-38.748,38.385c-7.446,7.377-19.132,8.437-27.786,2.515l-13.097-8.961c-9.968-6.155-21.676-9.408-33.873-9.408
		c-18.243,0-36.179,7.417-49.207,20.349c-27.866,27.67-28.178,76.555-0.666,104.611c13.129,13.393,31.97,21.073,51.695,21.073
		c19.145,0,36.899-7.326,48.709-20.1c1.193-1.29,2.334-2.598,3.416-3.916h-50.447c-12.078,0-21.905-9.826-21.905-21.904v-46.791
		c0-12.078,9.826-21.904,21.905-21.904h135.264c10.806,0,19.869,7.71,21.613,18.355c0.4,2.167,1.602,8.84,1.823,11.842l0,0
		c0.713,9.73,0.1,28.467-0.309,36.016c-1.948,35.979-16.242,69.119-41.34,95.837C260.42,407.691,217.212,425.622,171.245,425.622z
		 M168.438,106.777c-39.075,0-75.932,14.994-103.781,42.221c-28.266,27.633-43.982,65.249-44.254,105.92
		c-0.273,40.681,14.941,78.513,42.84,106.531c27.704,27.821,67.069,43.778,108.001,43.778c40.359,0,78.148-15.587,103.676-42.764
		c21.762-23.168,34.155-51.861,35.839-82.975c0.476-8.808,0.913-25.523,0.335-33.424c-0.099-1.344-0.886-6.103-1.558-9.741
		c-0.017-0.092-0.033-0.185-0.047-0.277c-0.115-0.736-0.74-1.271-1.486-1.271H172.738c-0.83,0-1.506,0.675-1.506,1.505v46.791
		c0,0.83,0.676,1.505,1.506,1.505h68.958c3.47,0,6.702,1.764,8.58,4.684c1.877,2.919,2.141,6.592,0.701,9.749
		c-3.644,7.988-9.257,16.194-16.23,23.734c-15.658,16.935-38.871,26.647-63.685,26.647c-25.17,0-49.32-9.911-66.26-27.19
		c-16.785-17.116-26.319-41.488-26.156-66.865c0.163-25.378,10.009-49.617,27.016-66.503c16.821-16.697,39.994-26.272,63.579-26.272
		c16.084,0,31.587,4.357,44.833,12.6c0.125,0.079,0.249,0.159,0.37,0.242l13.285,9.091c0.595,0.406,1.398,0.335,1.911-0.172
		l38.748-38.385c0.319-0.317,0.479-0.756,0.44-1.204c-0.041-0.452-0.276-0.855-0.65-1.11c-0.064-0.044-0.129-0.09-0.193-0.136
		c-4.52-3.257-17.237-12.287-21.725-14.927c-5.376-3.159-17.083-8.794-23.119-11.481
		C207.567,110.145,189.675,106.777,168.438,106.777z"/>
	<path style="fill:#9C0E2B;" d="M276.399,264.16h-4.08c-5.633,0-10.199-4.566-10.199-10.199c0-5.633,4.566-10.199,10.199-10.199
		h4.08c5.633,0,10.199,4.566,10.199,10.199C286.599,259.594,282.032,264.16,276.399,264.16z"/>
	<path style="fill:#9C0E2B;" d="M242.742,264.16h-52.016c-5.633,0-10.199-4.566-10.199-10.199c0-5.633,4.566-10.199,10.199-10.199
		h52.016c5.633,0,10.199,4.566,10.199,10.199C252.941,259.594,248.375,264.16,242.742,264.16z"/>
</g>
<g>
</g>
<g>
</g>
<g>
</g>
<g>
</g>
<g>
</g>
<g>
</g>
<g>
</g>
<g>
</g>
<g>
</g>
<g>
</g>
<g>
</g>
<g>
</g>
<g>
</g>
<g>
</g>
<g>
</g>
</svg>
