<?xml version="1.0" encoding="iso-8859-1"?>
<!-- Generator: Adobe Illustrator 19.0.0, SVG Export Plug-In . SVG Version: 6.00 Build 0)  -->
<svg version="1.1" id="Layer_1" xmlns="http://www.w3.org/2000/svg" xmlns:xlink="http://www.w3.org/1999/xlink" x="0px" y="0px"
	 viewBox="0 0 512 512" style="enable-background:new 0 0 512 512;" xml:space="preserve">
<g>
	<path style="fill:#5184FA;" d="M124.631,168.352h-98.69c-4.38,0-7.929,3.55-7.929,7.929v317.048c0,4.38,3.549,7.929,7.929,7.929
		h98.69c4.38,0,7.929-3.549,7.929-7.929V176.281C132.56,171.902,129.012,168.352,124.631,168.352z"/>
	<path style="fill:#5184FA;" d="M75.322,10.74c-35.909,0-65.123,29.182-65.123,65.052c0,35.885,29.214,65.078,65.123,65.078
		c35.881,0,65.071-29.195,65.071-65.078C140.394,39.922,111.203,10.74,75.322,10.74z"/>
	<path style="fill:#5184FA;" d="M375.656,160.472c-39.637,0-68.938,17.04-86.711,36.401v-20.592c0-4.379-3.549-7.929-7.929-7.929
		h-94.513c-4.38,0-7.929,3.55-7.929,7.929v317.048c0,4.38,3.549,7.929,7.929,7.929h98.474c4.38,0,7.929-3.549,7.929-7.929V336.464
		c0-52.859,14.358-73.454,51.206-73.454c40.131,0,43.32,33.014,43.32,76.173V493.33c0,4.38,3.549,7.929,7.929,7.929h98.511
		c4.38,0,7.929-3.549,7.929-7.929V319.424C501.801,240.824,486.813,160.472,375.656,160.472z"/>
</g>
<g>
	<path style="fill:#2351BA;" d="M124.631,511.457h-98.69c-9.996,0-18.128-8.133-18.128-18.128V176.281
		c0-9.996,8.133-18.128,18.128-18.128h98.69c9.996,0,18.128,8.133,18.128,18.128v317.047
		C142.759,503.326,134.627,511.457,124.631,511.457z M28.212,491.059h94.15V178.551h-94.15V491.059z"/>
	<path style="fill:#2351BA;" d="M75.322,151.07C33.789,151.07,0,117.3,0,75.791C0,34.298,33.789,0.541,75.322,0.541
		c20.077,0,38.971,7.835,53.202,22.061c14.232,14.228,22.069,33.118,22.068,53.19C150.592,117.3,116.826,151.07,75.322,151.07z
		 M75.322,20.939c-30.284,0-54.924,24.607-54.924,54.852c0,30.26,24.639,54.88,54.924,54.88c30.257,0,54.872-24.619,54.872-54.88
		c0-14.623-5.715-28.389-16.091-38.763C103.725,26.653,89.952,20.939,75.322,20.939z"/>
	<path style="fill:#2351BA;" d="M493.872,511.459h-98.51c-9.996,0-18.128-8.132-18.128-18.128V339.184
		c0-51.793-7.119-65.974-33.121-65.974c-26.595,0-41.007,10.08-41.007,63.254v156.865c0,9.996-8.132,18.128-18.128,18.128h-98.474
		c-9.996,0-18.128-8.133-18.128-18.128V176.281c0-9.996,8.133-18.128,18.128-18.128h94.513c9.329,0,17.036,7.084,18.022,16.156
		c16.761-12.205,41.951-24.035,76.618-24.035c53.81,0,92.01,18.511,113.542,55.019C509.408,239.561,512,284.287,512,319.425v173.907
		C512,503.328,503.867,511.459,493.872,511.459z M397.631,491.061h93.97V319.425c0-77.259-14.046-148.753-115.946-148.753
		c-42.473,0-67.85,20.738-79.197,33.098c-2.842,3.098-7.294,4.134-11.214,2.607c-3.919-1.526-6.499-5.3-6.499-9.504v-18.322h-89.972
		v312.508h93.934V336.465c0-41.366,7.295-83.653,61.405-83.653c22.641,0,38.149,9.456,46.092,28.104
		c6.853,16.088,7.427,37.608,7.427,58.268v151.877H397.631z"/>
	<path style="fill:#2351BA;" d="M48.956,479.363c-5.633,0-10.199-4.566-10.199-10.199v-94.853c0-5.633,4.566-10.199,10.199-10.199
		s10.199,4.566,10.199,10.199v94.853C59.155,474.796,54.589,479.363,48.956,479.363z"/>
	<path style="fill:#2351BA;" d="M48.956,350.853c-5.633,0-10.199-4.566-10.199-10.199v-9.179c0-5.633,4.566-10.199,10.199-10.199
		s10.199,4.566,10.199,10.199v9.179C59.155,346.286,54.589,350.853,48.956,350.853z"/>
</g>
<g>
</g>
<g>
</g>
<g>
</g>
<g>
</g>
<g>
</g>
<g>
</g>
<g>
</g>
<g>
</g>
<g>
</g>
<g>
</g>
<g>
</g>
<g>
</g>
<g>
</g>
<g>
</g>
<g>
</g>
</svg>
