<?xml version="1.0" encoding="iso-8859-1"?>
<!-- Generator: Adobe Illustrator 19.0.0, SVG Export Plug-In . SVG Version: 6.00 Build 0)  -->
<svg version="1.1" id="Layer_1" xmlns="http://www.w3.org/2000/svg" xmlns:xlink="http://www.w3.org/1999/xlink" x="0px" y="0px"
	 viewBox="0 0 512 512" style="enable-background:new 0 0 512 512;" xml:space="preserve">
<path style="fill:#EA163F;" d="M399.073,60.573c-33.837-32.484-80.664-50.374-131.854-50.374
	c-78.196,0-126.289,32.053-152.865,58.942c-32.753,33.136-51.535,77.135-51.535,120.716c0,54.72,22.888,96.719,61.216,112.343
	c2.573,1.055,5.163,1.586,7.701,1.586c8.085,0,14.493-5.291,16.712-13.777c1.294-4.869,4.292-16.881,5.595-22.095
	c2.79-10.298,0.535-15.251-5.549-22.422c-11.086-13.116-16.247-28.628-16.247-48.814c0-59.96,44.646-123.684,127.396-123.684
	c65.658,0,106.444,37.317,106.444,97.388c0,37.907-8.165,73.013-22.996,98.854c-10.306,17.956-28.428,39.359-56.247,39.359
	c-12.03,0-22.837-4.942-29.657-13.557c-6.441-8.145-8.565-18.665-5.974-29.631c2.927-12.389,6.918-25.312,10.78-37.805
	c7.044-22.818,13.703-44.369,13.703-61.564c0-29.411-18.081-49.172-44.988-49.172c-34.195,0-60.985,34.731-60.985,79.069
	c0,21.744,5.779,38.008,8.395,44.254c-4.308,18.251-29.909,126.763-34.766,147.225c-2.808,11.945-19.723,106.288,8.274,113.811
	c31.458,8.453,59.575-83.432,62.437-93.815c2.319-8.444,10.435-40.374,15.409-60.003c15.186,14.628,39.637,24.516,63.428,24.516
	c44.851,0,85.187-20.183,113.578-56.828c27.535-35.543,42.7-85.083,42.7-139.486C449.181,133.076,430.916,91.146,399.073,60.573z"/>
<g>
	<path style="fill:#9C0E2B;" d="M155.862,512c-2.286,0-4.58-0.309-6.882-0.927c-17.271-4.64-24.87-26.073-23.232-65.52
		c1.153-27.77,6.432-55.179,7.676-60.475c2.589-10.913,11.099-46.949,19.112-80.897c-5.036,6.171-12.418,9.803-20.8,9.803
		c-3.875,0-7.767-0.789-11.568-2.348c-42.29-17.239-67.547-62.767-67.547-121.78c0-46.245,19.857-92.856,54.479-127.886
		C135.043,33.699,185.506,0,267.219,0c53.835,0,103.17,18.899,138.916,53.215c0.001,0,0.001,0,0.001,0
		c33.837,32.488,53.243,77.098,53.243,122.392c0,56.654-15.923,108.409-44.836,145.732c-30.365,39.195-73.566,60.781-121.64,60.781
		c-20.139,0-40.912-6.311-57.397-17.02c-4.888,19.228-9.867,38.674-11.607,45.01c-2.176,7.9-10.218,33.294-21.163,55.74
		C187.778,496.522,172.04,512,155.862,512z M230.709,127.063c-28.479,0-50.787,30.252-50.787,68.87
		c0,19.999,5.318,34.855,7.603,40.314c0.832,1.987,1.014,4.186,0.519,6.282l-2.411,10.217
		c-7.681,32.551-28.085,119.018-32.358,137.02c-1.551,6.603-6.14,32.334-7.148,56.632c-1.389,33.471,4.721,44.055,8.146,44.976
		c5.437,1.459,16.586-6.691,30.13-34.465c12.173-24.963,19.757-51.946,19.829-52.211c1.71-6.225,7.021-26.905,15.356-59.798
		c0.892-3.523,3.592-6.305,7.087-7.302c3.495-0.996,7.257-0.059,9.874,2.462c13.662,13.159,35.781,21.663,56.353,21.663
		c41.626,0,79.099-18.779,105.516-52.876c26.157-33.766,40.563-81.084,40.563-133.24c0-39.77-17.12-79.017-46.973-107.679
		c-31.928-30.651-76.246-47.532-124.789-47.532c-74.673,0-120.401,30.405-145.611,55.912
		c-30.878,31.241-48.589,72.627-48.589,113.546c0,50.427,20.511,88.894,54.868,102.899c1.351,0.554,2.641,0.831,3.851,0.831
		c4.555,0,6.244-3.859,6.845-6.159c1.215-4.571,4.002-15.723,5.341-21.082l0.227-0.907c0.016-0.064,0.033-0.13,0.05-0.194
		c1.711-6.311,0.985-7.893-3.482-13.155c-12.741-15.077-18.67-32.679-18.67-55.412c0-33.5,12.886-66.75,35.352-91.224
		c17.866-19.461,50.105-42.659,102.241-42.659c34.807,0,64.104,9.973,84.728,28.842c20.879,19.102,31.915,46.332,31.915,78.745
		c0,39.662-8.647,76.572-24.349,103.931c-16.703,29.101-39.212,44.481-65.093,44.481c-15.163,0-28.888-6.352-37.653-17.426
		c-8.419-10.643-11.225-24.246-7.903-38.306c3.018-12.772,7.056-25.837,10.961-38.472c6.823-22.104,13.248-42.915,13.248-58.552
		C265.497,142.36,251.843,127.063,230.709,127.063z M230.709,106.665c32.493,0,55.186,24.413,55.186,59.37
		c0,18.714-6.865,40.953-14.133,64.497c-3.83,12.388-7.763,25.118-10.622,37.217c-1.886,7.98-0.486,15.228,4.047,20.959
		c4.871,6.155,12.767,9.686,21.658,9.686c22.936,0,38.437-18.619,47.402-34.238c13.957-24.318,21.642-57.622,21.642-93.777
		c0-54.595-35.98-87.189-96.245-87.189c-76.122,0-117.196,58.471-117.196,113.485c0,17.882,4.268,30.906,13.837,42.23
		c3.933,4.633,6.88,9.133,8.26,14.395c0.442-1.87,0.855-3.623,1.237-5.241l1.677-7.103c-3.083-8.225-7.932-24.437-7.932-45.025
		C159.525,145.877,190.793,106.665,230.709,106.665z"/>
	<path style="fill:#9C0E2B;" d="M224.389,265.166c-0.957,0-1.932-0.136-2.896-0.421c-5.401-1.597-8.485-7.271-6.887-12.673
		l11.218-37.929c1.597-5.4,7.269-8.484,12.672-6.887c5.401,1.597,8.485,7.271,6.887,12.673l-11.218,37.929
		C232.852,262.294,228.791,265.166,224.389,265.166z"/>
	<path style="fill:#9C0E2B;" d="M244.298,197.855c-0.957,0-1.932-0.136-2.896-0.421c-5.401-1.597-8.484-7.271-6.888-12.672
		l1.508-5.099c1.598-5.4,7.272-8.484,12.673-6.887c5.401,1.597,8.484,7.271,6.888,12.672l-1.508,5.099
		C252.761,194.982,248.699,197.855,244.298,197.855z"/>
</g>
<g>
</g>
<g>
</g>
<g>
</g>
<g>
</g>
<g>
</g>
<g>
</g>
<g>
</g>
<g>
</g>
<g>
</g>
<g>
</g>
<g>
</g>
<g>
</g>
<g>
</g>
<g>
</g>
<g>
</g>
</svg>
