<svg xmlns="http://www.w3.org/2000/svg" viewBox="0 0 3167.394 669.156"><defs><style>.a,.b{fill:#7f60bf;}.b{opacity:0.25;}</style></defs><g transform="translate(641.363)"><path class="a" d="M4009.748,1368H6974.94c58.967,342.04-528.973,505-1154.066,611.6s-893.526-32.274-1346.308-185.175S3960.777,1522.2,4009.748,1368Z" transform="translate(-4526 -1368)"/><path class="b" d="M4009.748,1368H6974.94c58.967,342.04-528.973,505-1154.066,611.6s-893.526-32.274-1346.308-185.175S3960.777,1522.2,4009.748,1368Z" transform="translate(-4453 -1368)"/><path class="b" d="M4009.748,1368H6974.94c58.967,342.04-528.973,505-1154.066,611.6s-893.526-32.274-1346.308-185.175S3960.777,1522.2,4009.748,1368Z" transform="translate(-4637 -1368)"/><path class="b" d="M4009.748,1368H6974.94c58.967,352.578-528.973,520.554-1154.066,630.445s-893.526-33.269-1346.308-190.88S3960.777,1526.947,4009.748,1368Z" transform="translate(-4613 -1368)"/></g></svg>