<svg xmlns="http://www.w3.org/2000/svg" viewBox="0 0 691.821 441.988">
  <defs>
    <style>
      .cls-1, .cls-2 {
        fill: #7f60bf;
      }

      .cls-2 {
        opacity: 0.46;
      }

      .cls-3, .cls-4 {
        stroke: none;
      }

      .cls-4 {
        fill: #707070;
      }
    </style>
  </defs>
  <g id="Group_1" data-name="Group 1" transform="translate(-526.319 -318.696)">
    <g id="Path_1" data-name="Path 1" class="cls-1" transform="translate(504 348)">
      <path class="cls-3" d="M 154.5807800292969 390.2665100097656 C 118.1959533691406 390.2665100097656 87.61637115478516 380.6093444824219 66.14787292480469 362.339111328125 C 55.28603744506836 353.0953369140625 46.89012145996094 341.7533569335938 41.1933708190918 328.6281127929688 C 35.30495452880859 315.0614318847656 32.31928634643555 299.6171875 32.31928634643555 282.7245178222656 C 32.31928634643555 269.8628540039063 33.77545547485352 255.6141815185547 36.64728546142578 240.3741760253906 C 39.54812240600586 224.9802703857422 43.82645416259766 208.9375152587891 49.36345291137695 192.6913452148438 C 61.15445327758789 158.0950927734375 78.07970428466797 124.2816848754883 98.30928802490234 94.90660095214844 C 109.2716217041016 78.98834991455078 121.1792068481445 64.41034698486328 133.7013702392578 51.5775146484375 C 147.0482940673828 37.89951324462891 161.2152099609375 26.0856819152832 175.8084564208984 16.46426391601563 C 208.1345367431641 -4.848485469818115 242.6814575195313 -15.65490245819092 278.4897155761719 -15.65490245819092 C 290.8404541015625 -15.65490245819092 303.4857177734375 -14.34940242767334 316.0743713378906 -11.77456855773926 C 329.1533813476563 -9.099485397338867 342.5225219726563 -4.982235431671143 355.8104553222656 0.4626812338829041 C 368.1969604492188 5.538264751434326 380.5386962890625 10.56218147277832 392.4742126464844 15.42068099975586 C 437.5078735351563 33.7524299621582 480.0440368652344 51.06759643554688 518.4234008789063 68.44142913818359 C 538.9366455078125 77.72751617431641 556.6929321289063 86.3154296875 572.7072143554688 94.69584655761719 C 590.4962768554688 104.0050964355469 605.85693359375 112.9050140380859 619.6670532226563 121.9040985107422 C 649.9912719726563 141.6642608642578 672.0267944335938 161.4941864013672 687.032470703125 182.52685546875 C 691.0023803710938 188.0912628173828 694.5291748046875 193.8296051025391 697.5147705078125 199.5824279785156 C 700.5593872070313 205.4486846923828 703.1365966796875 211.5137634277344 705.1752319335938 217.6093444824219 C 707.2503051757813 223.8142700195313 708.83154296875 230.2433471679688 709.8751220703125 236.718017578125 C 710.935791015625 243.2992706298828 711.4736328125 250.1301879882813 711.4736328125 257.0210876464844 C 711.4736328125 274.7831115722656 706.785400390625 287.0815124511719 697.140869140625 294.6189270019531 C 694.8855590820313 296.381591796875 692.3037719726563 297.9198608398438 689.4673461914063 299.1910095214844 C 686.722900390625 300.4209289550781 683.641845703125 301.4445190429688 680.3101196289063 302.2333374023438 C 674.0167236328125 303.7234191894531 666.6866455078125 304.44775390625 657.901123046875 304.44775390625 C 649.2399291992188 304.4478454589844 639.2822875976563 303.7560119628906 626.5637817382813 302.2705993652344 C 615.2031860351563 300.9437561035156 603.0282592773438 299.1463623046875 590.138427734375 297.2434387207031 C 557.9091796875 292.4852600097656 521.3796997070313 287.0922546386719 483.74560546875 287.0922546386719 C 426.8223571777344 287.0922546386719 379.7987976074219 299.7550964355469 339.9877014160156 325.8043518066406 C 323.5040283203125 336.5900268554688 306.7052001953125 346.2307739257813 290.0578002929688 354.4588623046875 C 273.9510498046875 362.419677734375 257.7403564453125 369.1806030273438 241.8761138916016 374.5538330078125 C 226.4489593505859 379.7789306640625 211.14794921875 383.7609252929688 196.3982849121094 386.3890991210938 C 181.9589538574219 388.9620056152344 167.8895416259766 390.2665100097656 154.5807800292969 390.2665100097656 Z"/>
      <path class="cls-4" d="M 278.4897155761719 -15.15493774414063 C 242.7810363769531 -15.15493774414063 208.3265991210938 -4.376251220703125 176.0836791992188 16.88165283203125 C 161.520263671875 26.48348999023438 147.3812255859375 38.27432250976563 134.0592651367188 51.92672729492188 C 121.556884765625 64.73931884765625 109.6673583984375 79.29522705078125 98.72100830078125 95.19015502929688 C 78.51715087890625 124.5280609130859 61.61309814453125 158.2992401123047 49.83673095703125 192.8527374267578 C 44.307373046875 209.0764007568359 40.03509521484375 225.0961608886719 37.13861083984375 240.4668273925781 C 34.27252197265625 255.6763153076172 32.81927490234375 269.8938903808594 32.81927490234375 282.7245483398438 C 32.81927490234375 299.5484008789063 35.791015625 314.9255676269531 41.65203857421875 328.4290771484375 C 47.318115234375 341.483642578125 55.66876220703125 352.7645568847656 66.471923828125 361.9583129882813 C 87.84881591796875 380.150634765625 118.3163452148438 389.7665710449219 154.580810546875 389.7665710449219 C 167.8602294921875 389.7665710449219 181.900146484375 388.4646606445313 196.310546875 385.8969116210938 C 211.03564453125 383.2730712890625 226.3121948242188 379.2973937988281 241.7156982421875 374.0802307128906 C 257.5591125488281 368.7141418457031 273.7492980957031 361.9617309570313 289.8362731933594 354.0105590820313 C 306.4656982421875 345.7913208007813 323.2469482421875 336.16064453125 339.7139587402344 325.385986328125 C 379.6090393066406 299.28173828125 426.7221984863281 286.5922241210938 483.74560546875 286.5922241210938 C 521.41650390625 286.5922241210938 557.9652709960938 291.9880676269531 590.211669921875 296.7487182617188 C 603.0975341796875 298.6510620117188 615.268798828125 300.447998046875 626.6218872070313 301.7738952636719 C 639.3206176757813 303.2569885253906 649.259765625 303.9477233886719 657.901123046875 303.9477233886719 C 666.6473388671875 303.9477233886719 673.939697265625 303.2278137207031 680.1948852539063 301.7467346191406 C 683.49609375 300.9651489257813 686.5470581054688 299.9517211914063 689.2628784179688 298.7346496582031 C 692.0624389648438 297.47998046875 694.6094360351563 295.9627380371094 696.8329467773438 294.2249755859375 C 699.1180419921875 292.4390563964844 701.144775390625 290.3554077148438 702.8568115234375 288.0318298339844 C 704.6171264648438 285.642578125 706.1073608398438 282.9149780273438 707.2862548828125 279.9248962402344 C 708.4976196289063 276.8522338867188 709.42138671875 273.3985595703125 710.0316772460938 269.6598205566406 C 710.6566772460938 265.831298828125 710.9736328125 261.5789794921875 710.9736328125 257.0210571289063 C 710.9736328125 250.15673828125 710.4379272460938 243.3525695800781 709.3814697265625 236.7975769042969 C 708.3422241210938 230.3496398925781 706.7675170898438 223.9471435546875 704.7010498046875 217.7679901123047 C 702.6707153320313 211.6969909667969 700.1036376953125 205.6559906005859 697.071044921875 199.8127288818359 C 694.09619140625 194.0807342529297 690.581787109375 188.3626556396484 686.6254272460938 182.8173217773438 C 671.6566772460938 161.8363952636719 649.6652221679688 142.0485687255859 619.3942260742188 122.3230743408203 C 605.59765625 113.3328247070313 590.25048828125 104.4408111572266 572.4755859375 95.13906860351563 C 556.469970703125 86.7630615234375 538.721923828125 78.17922973632813 518.217529296875 68.89715576171875 C 479.8470458984375 51.5272216796875 437.3152770996094 34.21389770507813 392.2861938476563 15.88406372070313 C 380.3503723144531 11.02532958984375 368.0081176757813 6.00115966796875 355.6208801269531 0.925323486328125 C 342.3616943359375 -4.50775146484375 329.0226135253906 -8.6158447265625 315.9742126464844 -11.28475952148438 C 303.41845703125 -13.85275268554688 290.806884765625 -15.15493774414063 278.4897155761719 -15.15493774414063 M 278.48974609375 -16.1549072265625 C 302.8835144042969 -16.1549072265625 328.7520751953125 -11.165283203125 356.0000305175781 -3.0517578125e-05 C 553.7982177734375 81.0509033203125 711.9736328125 137.4514007568359 711.9736328125 257.0210571289063 C 711.9736328125 294.4303588867188 691.264892578125 304.94775390625 657.901123046875 304.94775390625 C 615.047607421875 304.94775390625 551.290283203125 287.5922546386719 483.7455749511719 287.5922546386719 C 435.7954406738281 287.5922546386719 385.9495239257813 296.3280639648438 340.2614440917969 326.2227478027344 C 272.8827819824219 370.31005859375 207.6005859375 390.7665405273438 154.5807495117188 390.7665405273438 C 81.57757568359375 390.7665405273438 31.81927490234375 351.9893798828125 31.81927490234375 282.7245483398438 C 31.81927490234375 179.6263885498047 125.8043212890625 -16.1549072265625 278.48974609375 -16.1549072265625 Z"/>
    </g>
    <g id="Path_2" data-name="Path 2" class="cls-2" transform="translate(507 359)">
      <path class="cls-3" d="M 175.0668334960938 401.1845703125 C 164.4682769775391 401.1845703125 153.8906402587891 400.2215576171875 143.6277313232422 398.3223876953125 C 133.6242828369141 396.4712219238281 123.7953720092773 393.7082214355469 114.4140090942383 390.1101989746094 C 105.2031021118164 386.5775756835938 96.32691955566406 382.2035827636719 88.03201293945313 377.1095581054688 C 79.81774139404297 372.0651245117188 72.09846496582031 366.2689208984375 65.08873748779297 359.8821105957031 C 58.0819206237793 353.4980163574219 51.72373962402344 346.4688415527344 46.19064712524414 338.9898376464844 C 40.60783004760742 331.4436645507813 35.81437301635742 323.3703918457031 31.94337463378906 314.9942932128906 C 28.00355529785156 306.4692993164063 24.97819328308105 297.5403747558594 22.95137405395508 288.4554748535156 C 20.87310218811035 279.1397399902344 19.81937408447266 269.5423889160156 19.81937408447266 259.9298400878906 C 19.81937408447266 246.2288513183594 21.55682945251465 231.2104797363281 24.98337364196777 215.2919311523438 C 28.38182830810547 199.5041198730469 33.39183044433594 183.0582122802734 39.87428283691406 166.4109344482422 C 53.26810073852539 132.0143890380859 72.39101409912109 98.16693878173828 95.17573547363281 68.52766418457031 C 107.2101898193359 52.87284469604492 120.185920715332 38.5018424987793 133.7423706054688 25.81411743164063 C 148.0338287353516 12.43838977813721 163.0423736572266 0.8723897337913513 178.3511047363281 -8.56279182434082 C 194.5624694824219 -18.55442810058594 211.2915496826172 -26.26297378540039 228.0736541748047 -31.47442817687988 C 236.8287353515625 -34.19324493408203 245.7417449951172 -36.27315521240234 254.5651092529297 -37.65642929077148 C 263.6532897949219 -39.08124542236328 272.8813781738281 -39.8036994934082 281.9927368164063 -39.8036994934082 C 293.75537109375 -39.8036994934082 305.6648254394531 -38.60042953491211 317.3902893066406 -36.2274284362793 C 400.0526428222656 -19.49815559387207 500.3580932617188 21.37202644348145 579.1632080078125 70.43375396728516 C 599.1439819335938 82.87320709228516 617.3806762695313 95.62111663818359 633.366455078125 108.3232116699219 C 650.0228271484375 121.5582046508789 664.281494140625 134.7838439941406 675.7464599609375 147.6328430175781 C 687.7724609375 161.1104736328125 696.8217163085938 174.2880249023438 702.6431274414063 186.7993927001953 C 705.65966796875 193.2827606201172 707.8500366210938 199.6854858398438 709.1533813476563 205.8299407958984 C 710.4905395507813 212.1336669921875 710.9276733398438 218.3250274658203 710.4525756835938 224.2318420410156 C 710.0026245117188 229.8254852294922 708.7128295898438 234.9280242919922 706.618896484375 239.3977508544922 C 704.6028442382813 243.70166015625 701.7630004882813 247.5836639404297 698.1783447265625 250.9358367919922 C 691.4459228515625 257.23193359375 681.918212890625 261.9533081054688 669.0506591796875 265.3697509765625 C 657.925537109375 268.323486328125 644.3895263671875 270.3187561035156 626.452392578125 271.6488342285156 C 610.4044799804688 272.8388366699219 592.7200927734375 273.3565673828125 573.9972534179688 273.9046630859375 C 491.7104797363281 276.3135681152344 389.3016357421875 279.3115844726563 317.1597290039063 342.5858459472656 C 294.537109375 362.4278564453125 270.3738403320313 377.5037536621094 245.3410949707031 387.3948364257813 C 222.1836395263672 396.5450134277344 198.5399169921875 401.1845703125 175.0668334960938 401.1845703125 Z"/>
      <path class="cls-4" d="M 281.9927368164063 -39.30374145507813 C 272.9071960449219 -39.30374145507813 263.7052001953125 -38.58328247070313 254.6424560546875 -37.16244506835938 C 245.843017578125 -35.78292846679688 236.9539184570313 -33.70855712890625 228.221923828125 -30.99700927734375 C 211.4798583984375 -25.79791259765625 194.7891235351563 -18.1068115234375 178.6134033203125 -8.13726806640625 C 163.3330078125 1.28045654296875 148.3511962890625 12.826171875 134.083984375 26.1790771484375 C 120.5473022460938 38.84835815429688 107.5900268554688 53.19900512695313 95.57208251953125 68.83236694335938 C 72.81591796875 98.4344482421875 53.717041015625 132.2393493652344 40.340087890625 166.5922698974609 C 33.8673095703125 183.2149047851563 28.864990234375 199.6351776123047 25.47210693359375 215.3971710205078 C 22.05291748046875 231.2811737060547 20.31927490234375 246.2641754150391 20.31927490234375 259.9298095703125 C 20.31927490234375 269.5057983398438 21.3690185546875 279.0665283203125 23.43927001953125 288.3465576171875 C 25.4583740234375 297.3968200683594 28.47216796875 306.2918090820313 32.3970947265625 314.7845458984375 C 36.25390625 323.1297302246094 41.0299072265625 331.1735534667969 46.59246826171875 338.6924438476563 C 52.10626220703125 346.1453552246094 58.44256591796875 353.1502685546875 65.42535400390625 359.512451171875 C 72.4119873046875 365.878173828125 80.10601806640625 371.6553649902344 88.29364013671875 376.6834411621094 C 96.5623779296875 381.7613525390625 105.4107666015625 386.1217346191406 114.593017578125 389.6433715820313 C 123.9459228515625 393.2304382324219 133.7451782226563 395.9850769042969 143.7186279296875 397.8307189941406 C 153.95166015625 399.724365234375 164.4986572265625 400.6845397949219 175.0667114257813 400.6845397949219 C 198.4767456054688 400.6845397949219 222.0586547851563 396.0568237304688 245.1573791503906 386.9298095703125 C 270.1365661621094 377.059814453125 294.2506408691406 362.013916015625 316.8301086425781 342.2098999023438 C 389.107177734375 278.8169860839844 491.6156616210938 275.8161010742188 573.982666015625 273.4048156738281 C 592.6996459960938 272.8569030761719 610.378662109375 272.33935546875 626.4154052734375 271.1501770019531 C 644.3209228515625 269.8224487304688 657.8278198242188 267.8321838378906 668.92236328125 264.8864440917969 C 681.7081298828125 261.4917297363281 691.1660766601563 256.8089904785156 697.8368530273438 250.5707244873047 C 701.374755859375 247.2620849609375 704.1771240234375 243.4316253662109 706.1660766601563 239.1856384277344 C 708.2345581054688 234.7701721191406 709.509033203125 229.7255401611328 709.9541015625 224.1917266845703 C 710.4253540039063 218.3330841064453 709.9913940429688 212.1901702880859 708.664306640625 205.9336395263672 C 707.3687133789063 199.826171875 705.1903686523438 193.4594573974609 702.1897583007813 187.0102691650391 C 696.3890380859375 174.5433654785156 687.3667602539063 161.4069061279297 675.3733520507813 147.9657287597656 C 663.9273071289063 135.1379089355469 649.689453125 121.9320068359375 633.0553588867188 108.7147216796875 C 617.08447265625 96.02444458007813 598.863525390625 83.28762817382813 578.89892578125 70.85818481445313 C 500.14111328125 21.8258056640625 399.8988342285156 -19.01919555664063 317.2911071777344 -35.73745727539063 C 305.5982971191406 -38.10382080078125 293.7221984863281 -39.30374145507813 281.9927368164063 -39.30374145507813 M 281.9927673339844 -40.3037109375 C 293.6311340332031 -40.3037109375 305.4568786621094 -39.1527099609375 317.4894714355469 -36.71755981445313 C 483.5736694335938 -3.10528564453125 718.7526245117188 127.2785339355469 710.950927734375 224.2719116210938 C 703.149169921875 321.2653503417969 455.0790100097656 222.2845458984375 317.4894714355469 342.9617309570313 C 270.2518615722656 384.3929443359375 220.295654296875 401.6845397949219 175.0667724609375 401.6845397949219 C 88.55706787109375 401.6845397949219 19.31927490234375 338.448486328125 19.31927490234375 259.9298095703125 C 19.31927490234375 149.0228424072266 132.988037109375 -40.3037109375 281.9927673339844 -40.3037109375 Z"/>
    </g>
    <g id="Path_3" data-name="Path 3" class="cls-2" transform="translate(510 333)">
      <path class="cls-3" d="M 185.6542510986328 405.0357666015625 C 164.4586791992188 405.0357666015625 144.3145904541016 402.6689453125 125.7815093994141 398.0009460449219 C 107.1515045166016 393.3086242675781 90.70259094238281 386.4284362792969 76.89167022705078 377.5516052246094 C 62.65842056274414 368.4032897949219 51.57983779907227 357.3473510742188 43.96367263793945 344.6911010742188 C 35.95650482177734 331.3850402832031 31.89650535583496 316.4733581542969 31.89650535583496 300.3702087402344 C 31.89650535583496 283.8696899414063 32.20075607299805 269.3556213378906 32.8266716003418 255.9987030029297 C 33.5593376159668 240.3657836914063 34.72558975219727 226.259521484375 36.39208984375 212.8740234375 C 40.21308898925781 182.1842803955078 46.64958953857422 155.8719482421875 56.06942367553711 132.4336090087891 C 58.6252555847168 126.0742797851563 61.44400405883789 119.8415298461914 64.44734191894531 113.908447265625 C 67.53842163085938 107.8022766113281 70.92017364501953 101.8256149291992 74.49867248535156 96.14444732666016 C 78.17317199707031 90.31085968017578 82.16692352294922 84.61144256591797 86.36875915527344 79.20452880859375 C 90.67525482177734 73.66310882568359 95.33000946044922 68.26211547851563 100.2039260864258 63.15144729614258 C 105.1908416748047 57.92227935791016 110.5560913085938 52.84086227416992 116.1506729125977 48.04827880859375 C 121.8668365478516 43.15152740478516 127.9920043945313 38.41102981567383 134.3561706542969 33.95844650268555 C 140.850341796875 29.41477966308594 147.7850036621094 25.03677940368652 154.9674987792969 20.94594573974609 C 162.2885131835938 16.7763614654541 170.0820007324219 12.78261280059814 178.1317596435547 9.07561206817627 C 195.0314178466797 1.293112397193909 216.9469299316406 -2.652971029281616 243.2695007324219 -2.652971029281616 C 258.1755981445313 -2.652971029281616 274.5321655273438 -1.372804284095764 291.8849182128906 1.152112364768982 C 308.7494201660156 3.605945825576782 326.697998046875 7.255112171173096 345.2319946289063 11.99819564819336 C 363.4063415527344 16.64919662475586 382.2494201660156 22.37844657897949 401.2379150390625 29.02669525146484 C 420.0602416992188 35.61677932739258 439.1017456054688 43.13619613647461 457.83349609375 51.37619400024414 C 476.6203308105469 59.64036178588867 495.1646728515625 68.65985870361328 512.9514770507813 78.18419647216797 C 530.9956665039063 87.84627532958984 548.3475952148438 98.0751953125 564.5252685546875 108.5869445800781 C 581.1024780273438 119.3582763671875 596.5665893554688 130.5055236816406 610.4881591796875 141.7190246582031 C 624.8667602539063 153.30078125 637.7477416992188 165.0739440917969 648.7733154296875 176.7116088867188 C 665.1121826171875 193.9575347900391 677.5553588867188 211.0735321044922 685.757080078125 227.5841064453125 C 690.0287475585938 236.1832733154297 693.1932373046875 244.7261199951172 695.16259765625 252.9751892089844 C 697.1925048828125 261.4776916503906 698.0009765625 269.8722839355469 697.565673828125 277.9255981445313 C 697.0386962890625 287.6752014160156 695.79248046875 296.1008605957031 693.8617553710938 302.9685974121094 C 692.9231567382813 306.307373046875 691.7990112304688 309.3667907714844 690.5205688476563 312.0618591308594 C 689.27294921875 314.6921081542969 687.8385009765625 317.0592041015625 686.257080078125 319.0973510742188 C 684.7184448242188 321.0803527832031 682.989990234375 322.8171081542969 681.1198120117188 324.2591857910156 C 679.3035278320313 325.6598510742188 677.2915649414063 326.8302001953125 675.1400146484375 327.7377014160156 C 671.002197265625 329.4829406738281 666.2893676757813 330.3319396972656 660.7322387695313 330.3332824707031 C 660.7285766601563 330.3332824707031 660.7237548828125 330.3332824707031 660.7200927734375 330.3332824707031 C 653.2176513671875 330.3334350585938 644.3565673828125 328.7957458496094 632.83251953125 325.4943542480469 C 622.481201171875 322.5288696289063 611.12890625 318.4674377441406 599.110107421875 314.1676025390625 C 566.5332641601563 302.512939453125 529.6099243164063 289.3032836914063 490.7506713867188 289.3032836914063 C 453.0108337402344 289.3032836914063 420.3546752929688 301.8547668457031 390.9159240722656 327.6749572753906 C 376.16259765625 340.6147766113281 359.9376831054688 352.2402648925781 342.6917419433594 362.228515625 C 326.280517578125 371.7334594726563 308.8040771484375 379.8408508300781 290.7480163574219 386.32568359375 C 273.4451599121094 392.5400390625 255.5541687011719 397.2878723144531 237.5718383789063 400.4373474121094 C 220.1504211425781 403.4886169433594 202.6828460693359 405.0357666015625 185.6542510986328 405.0357666015625 Z"/>
      <path class="cls-4" d="M 243.2693481445313 -2.153045654296875 C 217.01953125 -2.153045654296875 195.1744384765625 1.777618408203125 178.3407592773438 9.529693603515625 C 170.3040771484375 13.23068237304688 162.5234375 17.21786499023438 155.2149047851563 21.38037109375 C 148.0457763671875 25.46353149414063 141.124267578125 29.83328247070313 134.6427612304688 34.3680419921875 C 128.2919311523438 38.81137084960938 122.1797485351563 43.54177856445313 116.4759521484375 48.42794799804688 C 110.8939819335938 53.20962524414063 105.5410766601563 58.27944946289063 100.565673828125 63.49652099609375 C 95.70343017578125 68.59503173828125 91.0596923828125 73.98318481445313 86.76361083984375 79.5113525390625 C 82.5716552734375 84.9052734375 78.5875244140625 90.5911865234375 74.92169189453125 96.41094970703125 C 71.35150146484375 102.0789489746094 67.97747802734375 108.0419311523438 64.8934326171875 114.13427734375 C 61.896484375 120.0545349121094 59.083740234375 126.2740173339844 56.5333251953125 132.6200256347656 C 47.12982177734375 156.0178680419922 40.703857421875 182.2893676757813 36.88824462890625 212.9357757568359 C 35.22332763671875 226.3084411621094 34.05816650390625 240.4021148681641 33.326171875 256.0220947265625 C 32.7005615234375 269.3711853027344 32.396484375 283.8775329589844 32.396484375 300.3701782226563 C 32.396484375 316.3811950683594 36.43243408203125 331.2061767578125 44.39208984375 344.4332885742188 C 51.96844482421875 357.0232849121094 62.9937744140625 368.0243530273438 77.1619873046875 377.1309509277344 C 84.02789306640625 381.5439453125 91.6591796875 385.5135192871094 99.84375 388.929443359375 C 107.9547729492188 392.314697265625 116.7225952148438 395.20361328125 125.9036865234375 397.5160217285156 C 144.3968505859375 402.1739501953125 164.4998168945313 404.5357055664063 185.6542358398438 404.5357055664063 C 202.6539916992188 404.5357055664063 220.0925903320313 402.9911193847656 237.485595703125 399.9447937011719 C 255.4398498535156 396.8002014160156 273.3030090332031 392.0597839355469 290.5790100097656 385.8551025390625 C 308.60693359375 379.3804321289063 326.0558471679688 371.2857666015625 342.441162109375 361.7958679199219 C 359.6589965820313 351.8239440917969 375.8573303222656 340.217529296875 390.586181640625 327.2990112304688 C 420.1201782226563 301.3953552246094 452.8842468261719 288.8032836914063 490.7506713867188 288.8032836914063 C 529.7020263671875 288.8032836914063 566.6728515625 302.0290222167969 599.2916259765625 313.6978759765625 C 611.2999267578125 317.9936218261719 622.6422729492188 322.0512084960938 632.9759521484375 325.0118713378906 C 644.45703125 328.3012084960938 653.27685546875 329.8332824707031 660.7323608398438 329.8332824707031 C 666.2210693359375 329.8332824707031 670.870361328125 328.9977722167969 674.9457397460938 327.2790222167969 C 677.0576782226563 326.3883666992188 679.0321655273438 325.2398681640625 680.8145141601563 323.8654479980469 C 682.6510620117188 322.4491882324219 684.349365234375 320.742431640625 685.8619995117188 318.7926940917969 C 687.4212646484375 316.782958984375 688.836669921875 314.44677734375 690.06884765625 311.8489379882813 C 691.3352661132813 309.1790161132813 692.4494018554688 306.1459350585938 693.3804321289063 302.8339538574219 C 695.30126953125 296.0011901855469 696.5413208007813 287.6117858886719 697.0663452148438 277.8986206054688 C 697.4990844726563 269.8933715820313 696.6949462890625 261.5469360351563 694.67626953125 253.0912780761719 C 692.7156982421875 244.8789520263672 689.5641479492188 236.3718566894531 685.309326171875 227.8066101074219 C 677.1296997070313 211.3404388427734 664.715087890625 194.2653656005859 648.4103393554688 177.0554504394531 C 637.400146484375 165.4340362548828 624.5357666015625 153.6761169433594 610.1744995117188 142.1084442138672 C 596.2661743164063 130.905517578125 580.81591796875 119.7682800292969 564.2528076171875 109.0061950683594 C 548.0870361328125 98.50210571289063 530.7472534179688 88.28036499023438 512.7155151367188 78.62493896484375 C 494.93994140625 69.106689453125 476.4072570800781 60.09286499023438 457.6321716308594 51.8338623046875 C 438.9121704101563 43.59902954101563 419.8828430175781 36.0843505859375 401.0726013183594 29.49853515625 C 382.0976867675781 22.85504150390625 363.2684326171875 17.13003540039063 345.1080017089844 12.4825439453125 C 326.5910034179688 7.7437744140625 308.659912109375 4.098114013671875 291.8128356933594 1.6468505859375 C 274.4838256835938 -0.874542236328125 258.1514282226563 -2.153045654296875 243.2693481445313 -2.153045654296875 M 243.2693481445313 -3.153045654296875 C 407.9474792480469 -3.153045654296875 704.9136352539063 151.2510681152344 698.06494140625 277.9526062011719 C 695.9009399414063 317.9866943359375 682.2388916015625 330.833251953125 660.7323608398438 330.833251953125 C 622.2767333984375 330.833251953125 558.70068359375 289.8033142089844 490.7506713867188 289.8033142089844 C 457.8182983398438 289.8033142089844 423.8710327148438 299.4356994628906 391.2455749511719 328.0508728027344 C 330.4287414550781 381.3921813964844 253.0499267578125 405.5357360839844 185.6542358398438 405.5357360839844 C 100.5767822265625 405.5357360839844 31.396484375 367.0880432128906 31.396484375 300.3701782226563 C 31.396484375 180.8005218505859 47.11175537109375 68.86126708984375 177.9224853515625 8.621368408203125 C 195.4555053710938 0.547210693359375 217.7807006835938 -3.153045654296875 243.2693481445313 -3.153045654296875 Z"/>
    </g>
  </g>
</svg>
