<svg xmlns="http://www.w3.org/2000/svg" xmlns:xlink="http://www.w3.org/1999/xlink" width="1921" height="1185" viewBox="0 0 1921 1185">
  <defs>
    <clipPath id="clip-path">
      <rect id="Rectangle_2" data-name="Rectangle 2" width="1921" height="1185" fill="#fff"/>
    </clipPath>
  </defs>
  <g id="Mask_Group_1" data-name="Mask Group 1" clip-path="url(#clip-path)">
    <g id="Group_236" data-name="Group 236" transform="translate(385.531 -883.81)">
      <g id="Group_33" data-name="Group 33" transform="translate(736.236 102.602)">
        <g id="Group_24" data-name="Group 24" transform="translate(0.001)">
          <path id="Path_1" data-name="Path 1" d="M451.162,130.1l-.062,20.575-62.714,36.455-24.653,14.335h-.062l-130.31,75.751.062-20.575,130.248-75.689,24.715-14.4Z" transform="translate(62.883 39.814)" fill="#a33726"/>
          <path id="Path_2" data-name="Path 2" d="M697.878,272.517,634.422,309.4l-23.973,13.9L480.139,399.057,185.722,229.142,316.958,152.9l24.591-14.273L403.461,102.6Z" transform="translate(-183.832 -102.602)" fill="#cc4731"/>
          <path id="Path_3" data-name="Path 3" d="M511.343,168.218,293.6,294.758l-60.243-34.786,131.483-76.431,23.665-13.717L451.1,133.432Z" transform="translate(62.883 57.059)" fill="#b8402c"/>
          <path id="Path_4" data-name="Path 4" d="M488.583,151.712l-.062,20.513-61.849,35.96L401.957,222.52,270.782,298.766l.062-20.513,131.113-76.184,24.715-14.4Z" transform="translate(256.671 151.726)" fill="#a33726"/>
          <path id="Path_5" data-name="Path 5" d="M631.827,234.416l-61.911,35.96-24.592,14.335L414.087,360.957,243.122,262.282l131.236-76.307L399.011,171.7l61.849-35.96Z" transform="translate(113.427 69.022)" fill="#cc4731"/>
          <path id="Path_6" data-name="Path 6" d="M548.763,189.818,331.025,316.358l-60.243-34.786,131.113-76.184,24.653-14.335,61.973-36.022Z" transform="translate(256.671 168.919)" fill="#b8402c"/>
          <path id="Path_7" data-name="Path 7" d="M1067.523,631.256l-1.918,676.505L185.416,799.584l1.918-676.506L481.7,293.033l-.058,20.535,60.278,34.8.059-20.535,170.933,98.689-.058,20.534,60.278,34.8.058-20.534Z" transform="translate(-185.416 3.442)" fill="#ed5e47"/>
          <path id="Path_8" data-name="Path 8" d="M547.526,184.842l-1.915,676.51-60,34.848L460.9,910.6l-133.028,77.3,1.915-676.51L460.9,235.2l24.715-14.4Z" transform="translate(552.325 323.298)" fill="#a33726"/>
          <g id="Group_1" data-name="Group 1" transform="translate(1013.226 544.099)">
            <path id="Path_9" data-name="Path 9" d="M374.117,190.662v675.4l-24.715,14.4v-675.4Z" transform="translate(-349.402 -190.662)" fill="#091b28"/>
          </g>
          <g id="Group_2" data-name="Group 2" transform="translate(487.786 240.724)">
            <path id="Path_10" data-name="Path 10" d="M459.919,240.236l-24.591,14.335L264.362,155.834l24.653-14.273Z" transform="translate(-264.362 -141.562)" fill="#143d59"/>
          </g>
          <g id="Group_3" data-name="Group 3" transform="translate(658.628 339.398)">
            <path id="Path_11" data-name="Path 11" d="M316.727,157.532v20.513L292.012,192.38V171.928Z" transform="translate(-292.012 -157.532)" fill="#091b28"/>
          </g>
          <g id="Group_4" data-name="Group 4" transform="translate(658.566 359.973)">
            <path id="Path_12" data-name="Path 12" d="M359.265,185.423l-24.646,14.332L292,175.2l24.653-14.335Z" transform="translate(-292.002 -160.862)" fill="#0f2f45"/>
          </g>
          <g id="Group_5" data-name="Group 5" transform="translate(133.126 36.022)">
            <path id="Path_13" data-name="Path 13" d="M524.734,278.656l-.309.556-23.974,13.9L206.962,122.7l24.591-14.273Z" transform="translate(-206.962 -108.432)" fill="#143d59"/>
          </g>
          <g id="Group_6" data-name="Group 6" transform="translate(426.555 206.37)">
            <path id="Path_14" data-name="Path 14" d="M279.167,136v20.575l-24.653,14.335h-.062V150.4Z" transform="translate(-254.452 -136.002)" fill="#091b28"/>
          </g>
          <g id="Group_7" data-name="Group 7" transform="translate(426.576 226.883)">
            <path id="Path_15" data-name="Path 15" d="M322.662,163.383l-24.83,14.438L254.456,153.7l1.152-.66,23.664-13.717Z" transform="translate(-254.456 -139.322)" fill="#0f2f45"/>
          </g>
          <g id="Group_12" data-name="Group 12" transform="translate(368.987 151.011)">
            <g id="Group_11" data-name="Group 11">
              <g id="Group_8" data-name="Group 8" transform="translate(28.325 48.855)">
                <path id="Path_16" data-name="Path 16" d="M249.948,160.256,293.5,134.949l-.229,80.778-43.547,25.307Z" transform="translate(-249.719 -134.949)" fill="#091b28"/>
              </g>
              <path id="Path_17" data-name="Path 17" d="M288.15,176.984l-.092,32.592-.229,80.778,43.547-25.307.23-80.778.092-32.592Z" transform="translate(-24.033 0.536)" fill="#091b28"/>
              <g id="Group_9" data-name="Group 9" transform="translate(0.321)">
                <path id="Path_18" data-name="Path 18" d="M245.187,152.349l43.547-25.307,263.8,152.212-43.547,25.307Z" transform="translate(-245.187 -127.042)" fill="#143d59"/>
              </g>
              <g id="Group_10" data-name="Group 10" transform="translate(0 25.307)">
                <path id="Path_19" data-name="Path 19" d="M509.253,283.35l-.092,32.592-.229,80.778-28.364-16.376.229-80.778L273.689,179.993l-.229,80.778-28.325-16.353.229-80.778.092-32.5Z" transform="translate(-245.135 -131.138)" fill="#2e5e7d"/>
              </g>
            </g>
          </g>
          <path id="Path_20" data-name="Path 20" d="M792.636,327.257l-61.911,35.96-24.653,14.335L574.9,453.8,280.542,283.882l131.236-76.246L436.37,193.3l61.911-35.96Z" transform="translate(307.216 180.882)" fill="#cc4731"/>
          <g id="Group_13" data-name="Group 13" transform="translate(718.994 374.184)">
            <path id="Path_21" data-name="Path 21" d="M620.728,333.077l-24.653,14.335L301.782,177.5l24.591-14.335Z" transform="translate(-301.782 -163.162)" fill="#143d59"/>
          </g>
          <g id="Group_18" data-name="Group 18" transform="translate(774.507 429.978)">
            <g id="Group_17" data-name="Group 17">
              <g id="Group_14" data-name="Group 14" transform="translate(70.456 40.678)">
                <path id="Path_22" data-name="Path 22" d="M322.22,267.35l152.416-88.575-.05,17.633L322.169,284.983Z" transform="translate(-322.169 -178.775)" fill="#091b28"/>
              </g>
              <g id="Group_15" data-name="Group 15" transform="translate(0.05)">
                <path id="Path_23" data-name="Path 23" d="M310.775,260.766l152.416-88.575,70.456,40.678L381.231,301.444Z" transform="translate(-310.775 -172.192)" fill="#143d59"/>
              </g>
              <g id="Group_16" data-name="Group 16" transform="translate(0 88.575)">
                <path id="Path_24" data-name="Path 24" d="M381.273,227.2l-.05,17.633-70.456-40.678.05-17.634Z" transform="translate(-310.766 -186.527)" fill="#2e5e7d"/>
              </g>
            </g>
          </g>
          <g id="Group_23" data-name="Group 23" transform="translate(104.756 50.813)">
            <g id="Group_22" data-name="Group 22">
              <g id="Group_19" data-name="Group 19" transform="translate(70.456 40.678)">
                <path id="Path_25" data-name="Path 25" d="M213.824,205.984l152.416-88.575-.049,17.634L213.773,223.617Z" transform="translate(-213.773 -117.409)" fill="#091b28"/>
              </g>
              <g id="Group_20" data-name="Group 20" transform="translate(0.05)">
                <path id="Path_26" data-name="Path 26" d="M202.378,199.4l152.416-88.575L425.25,151.5,272.835,240.078Z" transform="translate(-202.378 -110.826)" fill="#143d59"/>
              </g>
              <g id="Group_21" data-name="Group 21" transform="translate(0 88.575)">
                <path id="Path_27" data-name="Path 27" d="M272.877,165.839l-.05,17.633L202.37,142.794l.05-17.633Z" transform="translate(-202.37 -125.161)" fill="#2e5e7d"/>
              </g>
            </g>
          </g>
        </g>
        <g id="Group_32" data-name="Group 32" transform="translate(0 126.518)">
          <g id="Group_31" data-name="Group 31">
            <g id="Group_25" data-name="Group 25" transform="translate(263.528 364.067)">
              <path id="Path_28" data-name="Path 28" d="M583.11,512.769c-.315,112.465-80.224,158-178.1,101.492C307.1,557.732,227.753,420.249,228.068,307.783c.321-112.509,80.188-158.021,178.1-101.492C504.041,262.8,583.432,400.26,583.11,512.769ZM293.692,381.811l80.4,46.421-.266,92.335,62.807,36.263.26-92.341,80.361,46.4.2-72.168-80.361-46.39.266-92.385-62.807-36.257-.259,92.378-80.4-46.415-.2,72.161" transform="translate(-228.067 -182.001)" fill="#ed5e47"/>
            </g>
            <g id="Group_26" data-name="Group 26" transform="translate(329.153 445.749)">
              <path id="Path_29" data-name="Path 29" d="M382.355,231.48l-.262,92.383,80.358,46.395-.2,72.165-80.358-46.394-.262,92.337-62.8-36.259.261-92.337-80.4-46.418.2-72.165,80.4,46.417.262-92.382Z" transform="translate(-238.688 -195.221)" fill="#fff"/>
            </g>
            <g id="Group_27" data-name="Group 27" transform="translate(250.355 347.147)">
              <path id="Path_30" data-name="Path 30" d="M417.254,205.336c105.131,60.7,190.379,208.4,190.04,329.2s-86.15,169.7-191.281,109S225.6,435.166,225.936,314.359,312.123,144.636,417.254,205.336Zm-1.2,423.107c97.871,56.511,177.781,10.973,178.1-101.492.321-112.509-79.069-249.967-176.94-306.478-97.914-56.529-177.781-11.017-178.1,101.492-.321,112.465,79.026,249.948,176.94,306.478" transform="translate(-225.935 -179.262)" fill="#fff"/>
            </g>
            <g id="Group_28" data-name="Group 28">
              <path id="Path_31" data-name="Path 31" d="M773.156,461.3,1067.523,631.26l-1.915,676.5L185.416,799.588l1.915-676.51,294.33,169.934-.056,20.532,60.28,34.8.055-20.538L712.876,426.5l-.062,20.532,60.28,34.8ZM435.772,605.322c-.34,120.807,84.945,268.485,190.076,329.179S816.784,946.3,817.13,825.5s-84.908-268.5-190.04-329.2S436.112,484.515,435.772,605.322m583.742,67.095c3.633,2.095,6.6.451,6.611-3.72a14.512,14.512,0,0,0-6.568-11.375l-784.6-452.988c-3.633-2.095-6.562-.383-6.574,3.787a14.335,14.335,0,0,0,6.531,11.307l784.6,452.988m-1.613,569.167c3.627,2.094,6.6.4,6.611-3.769a14.422,14.422,0,0,0-6.568-11.326l-784.6-452.994c-3.633-2.095-6.562-.426-6.574,3.744a14.412,14.412,0,0,0,6.531,11.35l784.6,452.994" transform="translate(-185.416 -123.078)" fill="#ed5e47"/>
            </g>
            <g id="Group_29" data-name="Group 29" transform="translate(41.354 649.515)">
              <path id="Path_32" data-name="Path 32" d="M983.284,682.095a14.422,14.422,0,0,1,6.568,11.326c-.013,4.171-2.984,5.863-6.611,3.769L198.64,244.2a14.412,14.412,0,0,1-6.531-11.35c.012-4.171,2.941-5.839,6.574-3.738Z" transform="translate(-192.109 -228.199)" fill="#fff"/>
            </g>
            <g id="Group_30" data-name="Group 30" transform="translate(42.967 80.362)">
              <path id="Path_33" data-name="Path 33" d="M983.545,589.967a14.5,14.5,0,0,1,6.568,11.375c-.012,4.171-2.978,5.814-6.611,3.719L198.9,152.074a14.335,14.335,0,0,1-6.531-11.307c.012-4.171,2.941-5.882,6.574-3.787Z" transform="translate(-192.37 -136.084)" fill="#fff"/>
            </g>
          </g>
        </g>
      </g>
      <g id="Group_73" data-name="Group 73" transform="translate(998.066 1384.245)">
        <g id="Group_71" data-name="Group 71" transform="translate(0)">
          <g id="Group_36" data-name="Group 36" transform="translate(998.274 157.541)">
            <path id="Path_34" data-name="Path 34" d="M392.281,340.393c-1.884-1.088-2.83-2.527-2.824-3.967l-.1,35.256c-.006,1.44.939,2.879,2.824,3.973l22.726,13.118.1-35.256Z" transform="translate(-389.358 -330.871)" fill="#a33726"/>
            <g id="Group_34" data-name="Group 34" transform="translate(25.546 14.74)">
              <path id="Path_35" data-name="Path 35" d="M407.193,337.913l-.1,35.257-13.6,7.9.1-35.257Z" transform="translate(-393.493 -337.913)" fill="#ed5e47"/>
            </g>
            <g id="Group_35" data-name="Group 35" transform="translate(0.1)">
              <path id="Path_36" data-name="Path 36" d="M428.522,350.27l-13.6,7.9L392.2,345.055c-3.744-2.169-3.769-5.721-.043-7.884a15.078,15.078,0,0,1,13.642-.025Z" transform="translate(-389.374 -335.527)" fill="#ed5e47"/>
            </g>
          </g>
          <g id="Group_68" data-name="Group 68">
            <g id="Group_37" data-name="Group 37" transform="translate(877.188 87.623)">
              <path id="Path_37" data-name="Path 37" d="M383.461,324.211l-.1,35.257-13.6,7.9.1-35.256Z" transform="translate(-369.761 -324.211)" fill="#2e5e7d"/>
            </g>
            <path id="Path_38" data-name="Path 38" d="M508.459,325.644c-31.876-18.406-83.542-18.406-115.172-.025L245.529,411.485l-.1,35.256,147.758-85.866c31.629-18.376,83.3-18.376,115.172.025,16.028,9.256,24.041,21.44,24,33.612l.105-35.256C532.5,347.084,524.493,334.9,508.459,325.644Z" transform="translate(-136.449 -300.675)" fill="#143d59"/>
            <g id="Group_38" data-name="Group 38" transform="translate(95.332 102.933)">
              <path id="Path_39" data-name="Path 39" d="M256.969,334.567l-.1,35.256a52.163,52.163,0,0,0-6.271-4.257,64.858,64.858,0,0,0-7.377-3.621l.1-35.256a64.9,64.9,0,0,1,7.377,3.621A51.7,51.7,0,0,1,256.969,334.567Z" transform="translate(-243.221 -326.689)" fill="#2e5e7d"/>
            </g>
            <g id="Group_39" data-name="Group 39" transform="translate(0 131.071)">
              <path id="Path_40" data-name="Path 40" d="M348.333,331.589l-.1,35.256c-.025,8.873-5.851,17.727-17.5,24.492-23.436,13.624-61.577,13.624-85.168,0-11.869-6.852-17.8-15.848-17.776-24.839l.1-35.256c-.025,8.984,5.907,17.986,17.776,24.839,23.591,13.618,61.732,13.618,85.168,0C342.482,349.316,348.308,340.456,348.333,331.589Z" transform="translate(-227.792 -331.243)" fill="#091b28"/>
            </g>
            <g id="Group_40" data-name="Group 40" transform="translate(0.101 96.36)">
              <path id="Path_41" data-name="Path 41" d="M330.472,335.843c23.59,13.618,23.72,35.713.278,49.331s-61.577,13.618-85.168,0-23.714-35.713-.278-49.331S306.882,322.219,330.472,335.843Z" transform="translate(-227.808 -325.625)" fill="#10334a"/>
            </g>
            <g id="Group_41" data-name="Group 41" transform="translate(572.992 198.681)">
              <path id="Path_42" data-name="Path 42" d="M335.5,350.771l-.1,35.257-14.872-8.586.1-35.257Z" transform="translate(-320.528 -342.185)" fill="#2e5e7d"/>
            </g>
            <path id="Path_43" data-name="Path 43" d="M593.582,335.874c-17.752-10.25-42.2-15.465-67.126-14.328-24.919,1.094-47.607,8.471-62.288,20.2l-127.888,102.1a57.64,57.64,0,0,0-13.247,14.6l-.1,35.256a57.645,57.645,0,0,1,13.247-14.6l127.887-102.1c14.681-11.727,37.363-19.111,62.288-20.2,24.925-1.137,49.374,4.078,67.126,14.328l18.777,10.838.1-35.256Z" transform="translate(264.928 -251.187)" fill="#143d59"/>
            <g id="Group_42" data-name="Group 42" transform="translate(573.09 59.019)">
              <path id="Path_44" data-name="Path 44" d="M638.341,348.185l-13.6,7.9L605.965,345.25c-17.752-10.25-42.2-15.465-67.126-14.329-24.919,1.094-47.607,8.471-62.288,20.2L348.664,453.23a57.637,57.637,0,0,0-13.247,14.6l-14.872-8.588a70.831,70.831,0,0,1,12.512-12.568L460.944,344.521c17.968-14.328,45.8-23.368,76.338-24.758,30.511-1.365,60.545,5.029,82.282,17.585Z" transform="translate(-320.544 -319.582)" fill="#2e5e7d"/>
            </g>
            <path id="Path_45" data-name="Path 45" d="M412.369,350.03l-18.777-10.838-.1,35.256,18.777,10.844c16.274,9.392,25.258,22.064,25.222,35.25l.105-35.256C437.634,372.094,428.644,359.428,412.369,350.03Z" transform="translate(630.33 -159.006)" fill="#143d59"/>
            <g id="Group_43" data-name="Group 43" transform="translate(582.13 207.267)">
              <path id="Path_46" data-name="Path 46" d="M322.007,397.929l.1-35.256a36.4,36.4,0,0,1,5.734-19.1l-.1,35.256A36.4,36.4,0,0,0,322.007,397.929Z" transform="translate(-322.007 -343.575)" fill="#ed5e47"/>
            </g>
            <g id="Group_44" data-name="Group 44" transform="translate(562.809 198.679)">
              <path id="Path_47" data-name="Path 47" d="M318.88,405.084l.1-35.256c.025-9.385,3.392-18.8,10.182-27.644l-.1,35.256C322.272,386.289,318.9,395.7,318.88,405.084Z" transform="translate(-318.88 -342.185)" fill="#ed5e47"/>
            </g>
            <g id="Group_45" data-name="Group 45" transform="translate(586.016 209.047)">
              <path id="Path_48" data-name="Path 48" d="M322.636,396.512l.105-35.262a34.693,34.693,0,0,1,4.918-17.387l-.1,35.256A34.771,34.771,0,0,0,322.636,396.512Z" transform="translate(-322.636 -343.863)" fill="#a33726"/>
            </g>
            <g id="Group_46" data-name="Group 46" transform="translate(582.129 226.366)">
              <path id="Path_49" data-name="Path 49" d="M322.007,381.922l.1-35.256c-.043,14.866,9.929,29.633,29.466,40.916l-.1,35.256C331.936,411.561,321.964,396.788,322.007,381.922Z" transform="translate(-322.007 -346.666)" fill="#ed5e47"/>
            </g>
            <path id="Path_50" data-name="Path 50" d="M457.922,360.473,321.261,439.894c-42.089,24.462-63.165,56.542-63.252,88.671l-.105,35.256c.093-32.129,21.168-64.209,63.258-88.671l136.661-79.422c19.45-11.3,29.188-26.117,29.231-40.959l.1-35.256C487.11,334.355,477.373,349.172,457.922,360.473Z" transform="translate(-71.85 -260.913)" fill="#143d59"/>
            <g id="Group_47" data-name="Group 47" transform="translate(611.598 267.283)">
              <path id="Path_51" data-name="Path 51" d="M385.182,386.951l-.1,35.257-58.305-33.662.1-35.257Z" transform="translate(-326.776 -353.288)" fill="#ed5e47"/>
            </g>
            <g id="Group_48" data-name="Group 48" transform="translate(597.998 275.186)">
              <path id="Path_52" data-name="Path 52" d="M376.117,384.267l-.1,35.257-51.442-29.7.1-35.257Z" transform="translate(-324.575 -354.567)" fill="#ed5e47"/>
            </g>
            <g id="Group_49" data-name="Group 49" transform="translate(562.809 226.322)">
              <path id="Path_53" data-name="Path 53" d="M318.88,381.915l.1-35.256c-.049,17.751,11.857,35.392,35.188,48.861l-.1,35.256C330.737,417.307,318.831,399.667,318.88,381.915Z" transform="translate(-318.88 -346.659)" fill="#ed5e47"/>
            </g>
            <path id="Path_54" data-name="Path 54" d="M354.709,397.112c-24.1-13.915-36.411-32.129-36.356-50.456l-.1,35.256c-.056,18.326,12.252,36.541,36.356,50.456l48.719,28.125.1-35.256Z" transform="translate(240.687 -120.352)" fill="#a33726"/>
            <g id="Group_50" data-name="Group 50" transform="translate(669.904 300.945)">
              <path id="Path_55" data-name="Path 55" d="M394.619,392.4l-.1,35.256-58.306-33.663.1-35.257Z" transform="translate(-336.213 -358.736)" fill="#ed5e47"/>
            </g>
            <g id="Group_51" data-name="Group 51" transform="translate(590.555 335.953)">
              <path id="Path_56" data-name="Path 56" d="M326.193,365.973l-.1,35.257-2.722-1.571.1-35.257Z" transform="translate(-323.371 -364.402)" fill="#ed5e47"/>
            </g>
            <g id="Group_52" data-name="Group 52" transform="translate(559.037 196.998)">
              <path id="Path_57" data-name="Path 57" d="M332.323,343.594c-19.63,25.58-10.652,55.917,25.005,76.5l51.444,29.7-56.165,32.642-2.719-1.576L403.347,449.8l-48.719-28.125c-37.2-21.477-46.31-53.205-25.222-79.761Z" transform="translate(-318.27 -341.913)" fill="#ed5e47"/>
            </g>
            <g id="Group_53" data-name="Group 53" transform="translate(593.277 304.886)">
              <path id="Path_58" data-name="Path 58" d="M380.074,359.374l-.1,35.257-56.163,32.638.1-35.257Z" transform="translate(-323.811 -359.374)" fill="#ed5e47"/>
            </g>
            <g id="Group_54" data-name="Group 54" transform="translate(663.129 312.789)">
              <path id="Path_59" data-name="Path 59" d="M386.7,390.376l-.1,35.256-51.48-29.722.1-35.257Z" transform="translate(-335.116 -360.653)" fill="#ed5e47"/>
            </g>
            <g id="Group_55" data-name="Group 55" transform="translate(593.277 337.524)">
              <path id="Path_60" data-name="Path 60" d="M337.6,372.56l-.1,35.256-13.689-7.9.1-35.257Z" transform="translate(-323.811 -364.656)" fill="#ed5e47"/>
            </g>
            <g id="Group_56" data-name="Group 56" transform="translate(606.966 345.427)">
              <path id="Path_61" data-name="Path 61" d="M328.848,367.507l-.1,35.256-2.722-1.572.1-35.256Z" transform="translate(-326.027 -365.936)" fill="#ed5e47"/>
            </g>
            <g id="Group_57" data-name="Group 57" transform="translate(728.207 334.611)">
              <path id="Path_62" data-name="Path 62" d="M449.4,377.71l-.1,35.256c-35.349,7.384-75.677,2.62-103.649-13.525l.105-35.256C373.719,380.33,414.054,385.088,449.4,377.71Z" transform="translate(-345.649 -364.185)" fill="#ed5e47"/>
            </g>
            <g id="Group_58" data-name="Group 58" transform="translate(831.857 348.137)">
              <path id="Path_63" data-name="Path 63" d="M377.436,374.984l-.1,35.257-14.912-8.61.1-35.256Z" transform="translate(-362.424 -366.374)" fill="#2e5e7d"/>
            </g>
            <g id="Group_59" data-name="Group 59" transform="translate(714.608 342.513)">
              <path id="Path_64" data-name="Path 64" d="M475.71,379.694l-.1,35.262c-44.1,11.455-96.537,6.327-132.163-14.236l.1-35.256C379.174,386.027,431.619,391.155,475.71,379.694Z" transform="translate(-343.448 -365.464)" fill="#ed5e47"/>
            </g>
            <g id="Group_60" data-name="Group 60" transform="translate(606.966 312.789)">
              <path id="Path_65" data-name="Path 65" d="M382.289,360.653l-.1,35.257-56.163,32.638.1-35.256Z" transform="translate(-326.027 -360.653)" fill="#ed5e47"/>
            </g>
            <g id="Group_61" data-name="Group 61" transform="translate(609.687 315.932)">
              <path id="Path_66" data-name="Path 66" d="M380.026,361.162l-.1,35.257-53.459,31.067.1-35.256Z" transform="translate(-326.467 -361.162)" fill="#a33726"/>
            </g>
            <g id="Group_62" data-name="Group 62" transform="translate(582.227 207.267)">
              <path id="Path_67" data-name="Path 67" d="M571.75,484.444c-35.342,7.378-75.677,2.62-103.642-13.525L409.8,437.251l-58.309-33.662c-28.008-16.17-36.356-39.513-23.733-60.014l3.077,1.779c-11.252,19.469-3.108,41.379,23.362,56.665l58.308,33.662,58.3,33.662c26.433,15.261,64.327,19.933,97.908,13.346Z" transform="translate(-322.023 -343.575)" fill="#ed5e47"/>
            </g>
            <g id="Group_63" data-name="Group 63" transform="translate(831.954 172.283)">
              <path id="Path_68" data-name="Path 68" d="M586.784,348.751c21.737,12.549,32.883,29.93,30.622,47.6-2.3,17.7-17.776,33.872-42.491,44.3l-175.9,74.436a159.811,159.811,0,0,1-21.663,7.285l-14.915-8.607a134,134,0,0,0,25.166-7.724l175.9-74.386c20.161-8.564,32.828-21.731,34.675-36.146,1.841-14.464-7.241-28.607-24.993-38.858l-18.777-10.838,13.6-7.9Z" transform="translate(-362.44 -337.913)" fill="#2e5e7d"/>
            </g>
            <path id="Path_69" data-name="Path 69" d="M604.987,351.058c-2.3,17.7-17.776,33.872-42.491,44.3L386.6,469.8a160.642,160.642,0,0,1-21.662,7.285l-.1,35.262a161.009,161.009,0,0,0,21.663-7.291l175.9-74.435c24.715-10.43,40.193-26.6,42.491-44.3a36.406,36.406,0,0,0,.291-4.406l.1-35.256A35.008,35.008,0,0,1,604.987,351.058Z" transform="translate(481.933 -120.337)" fill="#143d59"/>
            <g id="Group_64" data-name="Group 64" transform="translate(663.145 315.933)">
              <path id="Path_70" data-name="Path 70" d="M346.386,367.253q-.047,17.628-.1,35.256c.859.321,1.724.642,2.6.951q.055-17.628.105-35.256C348.116,367.9,347.245,367.574,346.386,367.253Z" transform="translate(-277.283 -329.618)" fill="#a33726"/>
              <path id="Path_71" data-name="Path 71" d="M383.981,389.313l-48.762-28.15-.1,35.256,48.763,28.151a136.17,136.17,0,0,0,20.241,9.484q.046-17.628.1-35.256A136.789,136.789,0,0,1,383.981,389.313Z" transform="translate(-335.119 -361.162)" fill="#a33726"/>
              <path id="Path_72" data-name="Path 72" d="M443,375.262c-2.07.334-4.152.63-6.24.9q-5.58.714-11.221,1.118-5.7.408-11.431.507a203.379,203.379,0,0,1-45.754-4.331c-.754-.161-1.5-.328-2.249-.494a170.878,170.878,0,0,1-19.377-5.586q-.046,17.628-.1,35.256A170.551,170.551,0,0,0,366,408.22c.748.173,1.5.334,2.243.494h0a203.421,203.421,0,0,0,45.76,4.331q5.728-.093,11.431-.507h0q5.644-.408,11.227-1.125c2.082-.266,4.165-.562,6.228-.9a186.739,186.739,0,0,0,18.672-3.973c.031-10.572.068-24.678.1-35.256A186.5,186.5,0,0,1,443,375.262Z" transform="translate(-275.558 -328.971)" fill="#a33726"/>
            </g>
            <g id="Group_65" data-name="Group 65" transform="translate(562.909 198.679)">
              <path id="Path_73" data-name="Path 73" d="M602.857,500.249c-44.091,11.462-96.537,6.333-132.163-14.23l-51.481-29.726-56.158,32.642-13.692-7.9,56.165-32.642-51.444-29.7c-35.657-20.587-44.635-50.925-25.005-76.505l14.872,8.589c-12.623,20.5-4.276,43.844,23.733,60.014l58.309,33.662L484.3,478.117c27.965,16.145,68.3,20.9,103.642,13.525Z" transform="translate(-318.896 -342.185)" fill="#ed5e47"/>
            </g>
            <path id="Path_74" data-name="Path 74" d="M660.484,451.229c-92.218,53.594-242.818,53.594-335.641,0-46.73-26.976-70.055-62.461-69.956-97.883l-.1,35.256c-.1,35.423,23.226,70.907,69.956,97.884,92.823,53.594,243.417,53.594,335.641,0l34.527-20.069.1-35.256Z" transform="translate(-87.987 -85.712)" fill="#143d59"/>
            <g id="Group_66" data-name="Group 66" transform="translate(95.431)">
              <path id="Path_75" data-name="Path 75" d="M533.415,327.1c39.408,22.75,39.618,59.736.464,82.492L397.217,489.011c-84.735,49.245-84.284,129.37,1.044,178.633,85.285,49.245,223.621,49.239,308.356,0l34.527-20.068,13.686,7.9L720.3,675.547c-92.218,53.594-242.818,53.594-335.641,0-92.867-53.613-93.318-140.826-1.094-194.414L520.23,401.711c31.629-18.382,31.425-48.33-.414-66.712-31.876-18.406-83.542-18.406-115.172-.025L256.886,420.841a51.7,51.7,0,0,0-6.271-4.257,64.893,64.893,0,0,0-7.378-3.621L391,327.1C430.15,304.341,494.007,304.341,533.415,327.1Z" transform="translate(-243.237 -310.03)" fill="#2e5e7d"/>
            </g>
            <g id="Group_67" data-name="Group 67" transform="translate(607.067 312.788)">
              <path id="Path_76" data-name="Path 76" d="M568.762,406.3c-45.815,12.277-100.621,7.105-137.78-14.347L382.22,363.8l-53.458,31.067-2.719-1.569L382.2,360.653l51.481,29.725c35.627,20.563,88.072,25.692,132.163,14.23Z" transform="translate(-326.043 -360.653)" fill="#ed5e47"/>
            </g>
          </g>
          <g id="Group_70" data-name="Group 70" transform="translate(877.189 87.622)">
            <path id="Path_77" data-name="Path 77" d="M406.185,338.608a14.969,14.969,0,0,1-13.6,0L369.86,325.49l-.1,35.256L392.48,373.87a15,15,0,0,0,13.606,0c1.878-1.094,2.823-2.521,2.83-3.948l.1-35.256C409.015,336.093,408.069,337.52,406.185,338.608Z" transform="translate(-369.761 -317.587)" fill="#a33726"/>
            <g id="Group_69" data-name="Group 69" transform="translate(0.099)">
              <path id="Path_78" data-name="Path 78" d="M406.1,337.329c3.788,2.187,3.763,5.721,0,7.9a14.969,14.969,0,0,1-13.6,0l-22.725-13.118,13.6-7.9Z" transform="translate(-369.777 -324.211)" fill="#ed5e47"/>
            </g>
          </g>
        </g>
        <g id="Group_72" data-name="Group 72" transform="translate(29.482 113.086)">
          <path id="Path_79" data-name="Path 79" d="M281.095,333.156c11.165,6.451,11.221,16.88.13,23.325s-29.1,6.444-40.261,0c-11.128-6.42-11.227-16.874-.136-23.325S269.973,326.737,281.095,333.156Z" transform="translate(-232.563 -328.332)" fill="#4186b3"/>
        </g>
      </g>
      <g id="Group_81" data-name="Group 81" transform="translate(466.694 653.459)">
        <g id="Group_74" data-name="Group 74" transform="translate(12.116 96.293)">
          <path id="Path_80" data-name="Path 80" d="M322.782,207.847l-.859,302.2c-.037,13.13-8.663,26.235-25.883,36.238-34.681,20.155-91.068,20.155-125.984,0-17.566-10.146-26.34-23.455-26.3-36.745l.859-302.2c-.037,13.29,8.737,26.6,26.3,36.739,34.916,20.155,91.3,20.155,125.984,0C314.119,234.076,322.745,220.97,322.782,207.847Z" transform="translate(-143.753 -207.34)" fill="#ed5e47"/>
        </g>
        <g id="Group_75" data-name="Group 75" transform="translate(12.975 44.95)">
          <path id="Path_81" data-name="Path 81" d="M295.772,214.142c34.91,20.155,35.052,52.841.408,72.971-34.687,20.155-91.068,20.155-125.984,0s-35.1-52.816-.408-72.971C204.432,194.005,260.856,193.981,295.772,214.142Z" transform="translate(-143.892 -199.03)" fill="#a33726"/>
        </g>
        <g id="Group_76" data-name="Group 76" transform="translate(12.975 191.273)">
          <path id="Path_82" data-name="Path 82" d="M143.892,336.123c.074,13.2,8.848,26.414,26.3,36.492,34.916,20.155,91.3,20.155,125.984,0,17.325-10.071,25.951-23.275,25.883-36.485V222.712c.068,13.21-8.558,26.42-25.883,36.485-34.687,20.161-91.068,20.161-125.984,0-17.455-10.078-26.229-23.281-26.3-36.485Z" transform="translate(-143.892 -222.712)" fill="#fff"/>
        </g>
        <g id="Group_80" data-name="Group 80" transform="translate(0 0)">
          <g id="Group_79" data-name="Group 79">
            <g id="Group_77" data-name="Group 77" transform="translate(0 58.523)">
              <path id="Path_83" data-name="Path 83" d="M345.054,201.845l-.142,50.369c-.043,14.946-9.867,29.874-29.5,41.286-39.55,22.979-103.84,22.96-143.643-.025-20.013-11.554-30.016-26.729-29.973-41.879l.142-50.369c-.043,15.156,9.96,30.325,29.973,41.886,39.81,22.979,104.1,23,143.643.019C335.186,231.719,345.011,216.8,345.054,201.845Z" transform="translate(-141.792 -201.227)" fill="#fff"/>
            </g>
            <g id="Group_78" data-name="Group 78" transform="translate(0.142)">
              <path id="Path_84" data-name="Path 84" d="M314.925,208.979c39.8,22.985,40.05,60.224.507,83.2s-103.834,22.96-143.643-.019c-39.76-22.96-40.014-60.2-.463-83.178S275.159,186.025,314.925,208.979Z" transform="translate(-141.815 -191.755)" fill="#e6e7e8"/>
            </g>
          </g>
        </g>
      </g>
      <g id="Group_95" data-name="Group 95" transform="translate(185.291 859.628)">
        <g id="Group_86" data-name="Group 86">
          <g id="Group_85" data-name="Group 85">
            <g id="Group_82" data-name="Group 82" transform="translate(0 67.303)">
              <path id="Path_85" data-name="Path 85" d="M205.92,582.686,97.051,519.419l-.8-283.4,108.869,63.268Z" transform="translate(-96.248 -236.016)" fill="#4186b3"/>
            </g>
            <g id="Group_83" data-name="Group 83">
              <path id="Path_86" data-name="Path 86" d="M205.117,355.693,96.248,292.425l116.572-67.3L321.689,288.39Z" transform="translate(-96.248 -225.123)" fill="#39759c"/>
            </g>
            <g id="Group_84" data-name="Group 84" transform="translate(108.869 63.267)">
              <path id="Path_87" data-name="Path 87" d="M230.44,235.362l.8,283.4-116.572,67.3-.8-283.4Z" transform="translate(-113.868 -235.362)" fill="#2e5e7d"/>
            </g>
          </g>
        </g>
        <g id="Group_94" data-name="Group 94" transform="translate(108.85 63.258)">
          <g id="Group_87" data-name="Group 87" transform="translate(0.656 231.679)">
            <path id="Path_88" data-name="Path 88" d="M114.118,391.9l-.147-51.721,116.612-67.326.146,51.721Z" transform="translate(-113.971 -272.857)" fill="#2e5e7d"/>
          </g>
          <g id="Group_88" data-name="Group 88" transform="translate(0.356 125.925)">
            <path id="Path_89" data-name="Path 89" d="M230.535,255.741l.3,105.755L114.222,428.822l-.3-105.755Z" transform="translate(-113.923 -255.741)" fill="#143d59"/>
          </g>
          <g id="Group_89" data-name="Group 89">
            <path id="Path_90" data-name="Path 90" d="M113.865,302.685l116.611-67.324.358,125.923-116.611,67.33Zm97.3,49.251-.031-10.108-77.395,44.685.025,10.108,77.4-44.685m-.192-68.362-.031-10.059-77.4,44.685.031,10.065,77.4-44.691m.062,22.756-.031-10.059-77.395,44.685.025,10.065,77.4-44.691m.068,22.806-.031-10.065-77.4,44.685.031,10.065,77.4-44.685" transform="translate(-113.865 -235.361)" fill="#2e5e7d"/>
          </g>
          <g id="Group_90" data-name="Group 90" transform="translate(19.747 60.908)">
            <path id="Path_91" data-name="Path 91" d="M194.46,245.219l.028,10.063-77.4,44.686-.028-10.063Z" transform="translate(-117.061 -245.219)" fill="#fff"/>
          </g>
          <g id="Group_91" data-name="Group 91" transform="translate(19.682 38.152)">
            <path id="Path_92" data-name="Path 92" d="M194.45,241.536l.028,10.063-77.4,44.687-.029-10.063Z" transform="translate(-117.05 -241.536)" fill="#fff"/>
          </g>
          <g id="Group_92" data-name="Group 92" transform="translate(19.876 106.465)">
            <path id="Path_93" data-name="Path 93" d="M194.481,252.592l.028,10.109-77.4,44.686-.028-10.109Z" transform="translate(-117.082 -252.592)" fill="#fff"/>
          </g>
          <g id="Group_93" data-name="Group 93" transform="translate(19.811 83.71)">
            <path id="Path_94" data-name="Path 94" d="M194.471,248.909l.028,10.063-77.4,44.686-.028-10.063Z" transform="translate(-117.071 -248.909)" fill="#fff"/>
          </g>
        </g>
      </g>
      <g id="Group_108" data-name="Group 108" transform="translate(643.331 1027.194)">
        <g id="Group_100" data-name="Group 100">
          <g id="Group_99" data-name="Group 99">
            <g id="Group_96" data-name="Group 96" transform="translate(0.012 67.302)">
              <path id="Path_95" data-name="Path 95" d="M280.054,609.824,171.185,546.554l-.124-51.16-.309-106.088-.371-126.17,108.869,63.27.371,125.737.309,106.151Z" transform="translate(-170.382 -263.135)" fill="#4186b3"/>
            </g>
            <g id="Group_97" data-name="Group 97">
              <path id="Path_96" data-name="Path 96" d="M279.249,382.814,170.38,319.546l116.572-67.3L395.82,315.51Z" transform="translate(-170.38 -252.243)" fill="#39759c"/>
            </g>
            <g id="Group_98" data-name="Group 98" transform="translate(108.869 63.268)">
              <path id="Path_97" data-name="Path 97" d="M304.571,262.482l.8,283.4L188.8,613.189l-.8-283.4Z" transform="translate(-188 -262.482)" fill="#2e5e7d"/>
            </g>
          </g>
        </g>
        <g id="Group_107" data-name="Group 107" transform="translate(0.382 103.395)">
          <g id="Group_105" data-name="Group 105" transform="translate(15.732)">
            <g id="Group_101" data-name="Group 101" transform="translate(0.129 22.801)">
              <path id="Path_98" data-name="Path 98" d="M250.476,317.377l-.028,10.063L173.009,282.73l.029-10.063Z" transform="translate(-173.009 -272.667)" fill="#fff"/>
            </g>
            <g id="Group_102" data-name="Group 102" transform="translate(0.194)">
              <path id="Path_99" data-name="Path 99" d="M250.487,313.686l-.028,10.063-77.439-44.709.028-10.064Z" transform="translate(-173.019 -268.977)" fill="#fff"/>
            </g>
            <g id="Group_103" data-name="Group 103" transform="translate(0 68.358)">
              <path id="Path_100" data-name="Path 100" d="M250.455,324.749l-.028,10.063L172.988,290.1l.028-10.063Z" transform="translate(-172.988 -280.04)" fill="#fff"/>
            </g>
            <g id="Group_104" data-name="Group 104" transform="translate(0.065 45.557)">
              <path id="Path_101" data-name="Path 101" d="M250.465,321.059l-.028,10.063L173,286.413l.028-10.063Z" transform="translate(-172.998 -276.35)" fill="#fff"/>
            </g>
          </g>
          <g id="Group_106" data-name="Group 106" transform="translate(0 90.077)">
            <path id="Path_102" data-name="Path 102" d="M279.62,452.543l-108.869-62.9-.309-106.088,108.869,62.837Z" transform="translate(-170.442 -283.555)" fill="#1b5278"/>
          </g>
        </g>
      </g>
      <g id="Group_132" data-name="Group 132" transform="translate(92.279 1297.69)">
        <g id="Group_109" data-name="Group 109" transform="translate(215.296 79.436)">
          <path id="Path_103" data-name="Path 103" d="M127.889,310.055c2.719,1.576,2.737,4.121.031,5.7a10.851,10.851,0,0,1-9.83,0c-2.719-1.576-2.737-4.121-.031-5.7A10.85,10.85,0,0,1,127.889,310.055Z" transform="translate(-116.039 -308.878)" fill="#fff"/>
        </g>
        <g id="Group_110" data-name="Group 110" transform="translate(236.09 91.439)">
          <path id="Path_104" data-name="Path 104" d="M131.289,312.018c2.725,1.576,2.737,4.127.031,5.7a10.851,10.851,0,0,1-9.83,0c-2.762-1.594-2.774-4.146-.068-5.715A10.834,10.834,0,0,1,131.289,312.018Z" transform="translate(-119.405 -310.82)" fill="#fff"/>
        </g>
        <g id="Group_111" data-name="Group 111" transform="translate(256.914 103.465)">
          <path id="Path_105" data-name="Path 105" d="M134.627,313.944c2.762,1.594,2.774,4.146.068,5.715a10.835,10.835,0,0,1-9.867-.019c-2.725-1.576-2.737-4.127-.031-5.7A10.852,10.852,0,0,1,134.627,313.944Z" transform="translate(-122.775 -312.767)" fill="#fff"/>
        </g>
        <g id="Group_112" data-name="Group 112" transform="translate(216.494 102.832)">
          <path id="Path_106" data-name="Path 106" d="M128.114,313.863c2.725,1.569,2.737,4.121.037,5.691a10.852,10.852,0,0,1-9.83,0c-2.762-1.594-2.78-4.146-.074-5.715A10.853,10.853,0,0,1,128.114,313.863Z" transform="translate(-116.233 -312.664)" fill="#fff"/>
        </g>
        <g id="Group_113" data-name="Group 113" transform="translate(237.32 114.853)">
          <path id="Path_107" data-name="Path 107" d="M131.451,315.787c2.762,1.594,2.774,4.146.074,5.715a10.846,10.846,0,0,1-9.874-.019c-2.719-1.575-2.731-4.121-.031-5.7A10.85,10.85,0,0,1,131.451,315.787Z" transform="translate(-119.604 -314.61)" fill="#fff"/>
        </g>
        <g id="Group_114" data-name="Group 114" transform="translate(176.102 102.211)">
          <path id="Path_108" data-name="Path 108" d="M121.547,313.741c2.719,1.576,2.737,4.127.031,5.7a10.851,10.851,0,0,1-9.83,0c-2.725-1.569-2.737-4.121-.031-5.7A10.85,10.85,0,0,1,121.547,313.741Z" transform="translate(-109.696 -312.564)" fill="#fff"/>
        </g>
        <g id="Group_115" data-name="Group 115" transform="translate(196.898 114.219)">
          <path id="Path_109" data-name="Path 109" d="M124.946,315.706c2.719,1.569,2.737,4.121.031,5.691a10.812,10.812,0,0,1-9.83,0c-2.762-1.594-2.774-4.146-.068-5.715A10.852,10.852,0,0,1,124.946,315.706Z" transform="translate(-113.062 -314.507)" fill="#fff"/>
        </g>
        <g id="Group_131" data-name="Group 131">
          <g id="Group_116" data-name="Group 116" transform="translate(194.468 67.412)">
            <path id="Path_110" data-name="Path 110" d="M124.518,308.109c2.719,1.569,2.737,4.121.031,5.691a10.813,10.813,0,0,1-9.83,0c-2.719-1.569-2.737-4.121-.031-5.691A10.851,10.851,0,0,1,124.518,308.109Z" transform="translate(-112.668 -306.932)" fill="#fff"/>
          </g>
          <g id="Group_117" data-name="Group 117" transform="translate(174.871 78.8)">
            <path id="Path_111" data-name="Path 111" d="M121.344,309.951c2.725,1.569,2.737,4.121.031,5.7a10.851,10.851,0,0,1-9.83,0c-2.719-1.576-2.731-4.127-.031-5.7A10.852,10.852,0,0,1,121.344,309.951Z" transform="translate(-109.497 -308.775)" fill="#fff"/>
          </g>
          <g id="Group_118" data-name="Group 118" transform="translate(155.274 90.187)">
            <path id="Path_112" data-name="Path 112" d="M118.176,311.795c2.719,1.569,2.737,4.121.031,5.7a10.852,10.852,0,0,1-9.83,0c-2.725-1.576-2.737-4.127-.031-5.7A10.851,10.851,0,0,1,118.176,311.795Z" transform="translate(-106.325 -310.618)" fill="#fff"/>
          </g>
          <g id="Group_119" data-name="Group 119" transform="translate(195.7 90.824)">
            <path id="Path_113" data-name="Path 113" d="M124.714,311.9c2.725,1.576,2.737,4.121.037,5.7a10.851,10.851,0,0,1-9.83,0c-2.725-1.575-2.737-4.121-.037-5.7A10.851,10.851,0,0,1,124.714,311.9Z" transform="translate(-112.868 -310.721)" fill="#fff"/>
          </g>
          <g id="Group_120" data-name="Group 120" transform="translate(135.677 101.575)">
            <path id="Path_114" data-name="Path 114" d="M115,313.637c2.725,1.576,2.737,4.121.031,5.7a10.85,10.85,0,0,1-9.83,0c-2.719-1.576-2.737-4.121-.031-5.7A10.852,10.852,0,0,1,115,313.637Z" transform="translate(-103.153 -312.461)" fill="#fff"/>
          </g>
          <g id="Group_121" data-name="Group 121" transform="translate(116.082 112.962)">
            <path id="Path_115" data-name="Path 115" d="M111.833,315.48c2.719,1.576,2.731,4.127.031,5.7a10.849,10.849,0,0,1-9.83,0c-2.725-1.569-2.737-4.121-.031-5.7A10.852,10.852,0,0,1,111.833,315.48Z" transform="translate(-99.982 -314.304)" fill="#fff"/>
          </g>
          <g id="Group_122" data-name="Group 122" transform="translate(156.508 113.598)">
            <path id="Path_116" data-name="Path 116" d="M118.372,315.583c2.725,1.576,2.737,4.128.031,5.7a10.851,10.851,0,0,1-9.83,0c-2.719-1.569-2.731-4.121-.031-5.7A10.851,10.851,0,0,1,118.372,315.583Z" transform="translate(-106.525 -314.406)" fill="#fff"/>
          </g>
          <g id="Group_123" data-name="Group 123" transform="translate(136.911 124.987)">
            <path id="Path_117" data-name="Path 117" d="M115.2,317.432c2.719,1.569,2.731,4.121.031,5.691a10.813,10.813,0,0,1-9.83,0c-2.725-1.57-2.737-4.121-.031-5.691A10.812,10.812,0,0,1,115.2,317.432Z" transform="translate(-103.353 -316.25)" fill="#fff"/>
          </g>
          <g id="Group_124" data-name="Group 124" transform="translate(177.302 125.607)">
            <path id="Path_118" data-name="Path 118" d="M121.771,317.549c2.725,1.569,2.737,4.121.031,5.691a10.8,10.8,0,0,1-9.824,0c-2.762-1.594-2.78-4.14-.074-5.715A10.853,10.853,0,0,1,121.771,317.549Z" transform="translate(-109.89 -316.35)" fill="#fff"/>
          </g>
          <g id="Group_125" data-name="Group 125" transform="translate(198.126 137.628)">
            <path id="Path_119" data-name="Path 119" d="M125.11,319.472c2.762,1.594,2.774,4.146.074,5.722a10.866,10.866,0,0,1-9.874-.025c-2.719-1.569-2.737-4.121-.031-5.7A10.852,10.852,0,0,1,125.11,319.472Z" transform="translate(-113.26 -318.296)" fill="#fff"/>
          </g>
          <g id="Group_126" data-name="Group 126" transform="translate(93.716 54.446)">
            <path id="Path_120" data-name="Path 120" d="M208.531,304.833l87.336,50.424L183.7,420.443,96.362,370.019Zm13.89,78.668a10.833,10.833,0,0,0,9.867.018c2.706-1.569,2.694-4.121-.068-5.715a10.851,10.851,0,0,0-9.83,0c-2.706,1.575-2.694,4.121.031,5.7m-19.6,11.387a10.867,10.867,0,0,0,9.874.025c2.7-1.576,2.688-4.128-.074-5.722a10.85,10.85,0,0,0-9.83,0c-2.706,1.576-2.688,4.127.031,5.7m-19.593,11.387a10.853,10.853,0,0,0,9.867.025c2.706-1.575,2.688-4.127-.074-5.722a10.852,10.852,0,0,0-9.83,0c-2.7,1.576-2.688,4.128.037,5.7m58.784-34.162a10.846,10.846,0,0,0,9.874.019c2.7-1.569,2.688-4.121-.074-5.715a10.852,10.852,0,0,0-9.83,0c-2.7,1.576-2.688,4.121.031,5.7m19.6-11.387a10.833,10.833,0,0,0,9.867.019c2.706-1.569,2.694-4.121-.068-5.715a10.851,10.851,0,0,0-9.83,0c-2.706,1.569-2.694,4.121.031,5.7m-79.576,22.157a10.8,10.8,0,0,0,9.824,0c2.706-1.569,2.694-4.121-.031-5.691a10.853,10.853,0,0,0-9.867-.025c-2.706,1.57-2.688,4.121.074,5.715m-19.6,11.388a10.815,10.815,0,0,0,9.83,0c2.706-1.57,2.688-4.122-.031-5.691a10.866,10.866,0,0,0-9.874-.025c-2.7,1.576-2.688,4.121.074,5.716M201.629,371.5a10.812,10.812,0,0,0,9.83,0c2.706-1.569,2.688-4.121-.031-5.691a10.852,10.852,0,0,0-9.867-.025c-2.706,1.569-2.694,4.121.068,5.715m39.192-22.775a10.851,10.851,0,0,0,9.83,0c2.706-1.569,2.694-4.121-.031-5.7a10.835,10.835,0,0,0-9.867-.019c-2.706,1.57-2.694,4.121.068,5.715m-19.593,11.387a10.851,10.851,0,0,0,9.83,0c2.7-1.569,2.688-4.121-.037-5.691a10.854,10.854,0,0,0-9.867-.025c-2.706,1.569-2.688,4.121.074,5.715M161.2,370.859a10.851,10.851,0,0,0,9.83,0c2.706-1.569,2.694-4.121-.031-5.7a10.852,10.852,0,0,0-9.83,0c-2.7,1.576-2.688,4.128.031,5.7m-19.593,11.387a10.814,10.814,0,0,0,9.83,0c2.7-1.57,2.688-4.121-.031-5.691a10.813,10.813,0,0,0-9.83,0c-2.706,1.569-2.694,4.121.031,5.691M180.8,359.471a10.852,10.852,0,0,0,9.83,0c2.706-1.569,2.688-4.121-.031-5.7a10.852,10.852,0,0,0-9.83,0c-2.706,1.576-2.694,4.128.031,5.7m19.6-11.387a10.852,10.852,0,0,0,9.83,0c2.7-1.575,2.688-4.121-.037-5.7a10.851,10.851,0,0,0-9.83,0c-2.7,1.576-2.688,4.121.037,5.7M219.992,336.7a10.851,10.851,0,0,0,9.83,0c2.706-1.576,2.688-4.127-.031-5.7a10.85,10.85,0,0,0-9.83,0c-2.706,1.575-2.688,4.121.031,5.7m-60.02,10.751a10.852,10.852,0,0,0,9.83,0c2.706-1.576,2.688-4.127-.031-5.7a10.85,10.85,0,0,0-9.83,0c-2.706,1.569-2.694,4.121.031,5.7m-19.6,11.387a10.85,10.85,0,0,0,9.83,0c2.706-1.576,2.694-4.121-.031-5.7a10.851,10.851,0,0,0-9.83,0c-2.706,1.576-2.688,4.121.031,5.7M120.78,370.222a10.851,10.851,0,0,0,9.83,0c2.7-1.57,2.688-4.121-.031-5.7a10.852,10.852,0,0,0-9.83,0c-2.706,1.575-2.694,4.127.031,5.7m58.785-34.162a10.851,10.851,0,0,0,9.83,0c2.706-1.576,2.694-4.127-.031-5.7a10.851,10.851,0,0,0-9.83,0c-2.7,1.569-2.688,4.121.031,5.7m19.6-11.394a10.813,10.813,0,0,0,9.83,0c2.706-1.569,2.688-4.121-.031-5.691a10.851,10.851,0,0,0-9.83,0c-2.706,1.57-2.688,4.121.031,5.691" transform="translate(-96.362 -304.833)" fill="#fbcb83"/>
          </g>
          <g id="Group_127" data-name="Group 127" transform="translate(217.722 126.24)">
            <path id="Path_121" data-name="Path 121" d="M128.284,317.63c2.762,1.594,2.774,4.146.068,5.715a10.833,10.833,0,0,1-9.867-.018c-2.725-1.576-2.737-4.121-.031-5.7A10.851,10.851,0,0,1,128.284,317.63Z" transform="translate(-116.432 -316.453)" fill="#fff"/>
          </g>
          <g id="Group_128" data-name="Group 128" transform="translate(157.706 136.994)">
            <path id="Path_122" data-name="Path 122" d="M118.6,319.392c2.719,1.569,2.737,4.121.031,5.691a10.815,10.815,0,0,1-9.83,0c-2.762-1.594-2.774-4.14-.074-5.715A10.866,10.866,0,0,1,118.6,319.392Z" transform="translate(-106.718 -318.193)" fill="#fff"/>
          </g>
          <g id="Group_129" data-name="Group 129" transform="translate(178.53 149.015)">
            <path id="Path_123" data-name="Path 123" d="M121.935,321.316c2.762,1.6,2.78,4.146.074,5.721a10.853,10.853,0,0,1-9.867-.025c-2.725-1.569-2.737-4.121-.037-5.7A10.851,10.851,0,0,1,121.935,321.316Z" transform="translate(-110.089 -320.139)" fill="#fff"/>
          </g>
          <g id="Group_130" data-name="Group 130">
            <path id="Path_124" data-name="Path 124" d="M441.269,311.449c35.627,20.569,35.775,53.891.42,74.435L236.556,505.09c-35.392,20.569-92.879,20.569-128.5.006s-35.849-53.891-.463-74.46l205.14-119.213C348.082,290.886,405.649,290.88,441.269,311.449ZM262.247,466.078l112.169-65.186-87.336-50.425L174.91,415.653l87.336,50.425" transform="translate(-81.195 -296.021)" fill="#fff"/>
          </g>
        </g>
      </g>
      <g id="Group_156" data-name="Group 156" transform="translate(272.738 1403.535)">
        <g id="Group_133" data-name="Group 133" transform="translate(215.296 79.438)">
          <path id="Path_125" data-name="Path 125" d="M157.092,327.186c2.725,1.569,2.737,4.121.037,5.7a10.851,10.851,0,0,1-9.83,0c-2.725-1.576-2.737-4.128-.037-5.7A10.851,10.851,0,0,1,157.092,327.186Z" transform="translate(-145.246 -326.009)" fill="#fff"/>
        </g>
        <g id="Group_134" data-name="Group 134" transform="translate(236.09 91.44)">
          <path id="Path_126" data-name="Path 126" d="M160.5,329.15c2.719,1.576,2.731,4.121.031,5.7a10.85,10.85,0,0,1-9.83,0c-2.762-1.594-2.78-4.146-.074-5.721A10.866,10.866,0,0,1,160.5,329.15Z" transform="translate(-148.611 -327.951)" fill="#fff"/>
        </g>
        <g id="Group_135" data-name="Group 135" transform="translate(256.916 103.468)">
          <path id="Path_127" data-name="Path 127" d="M163.829,331.075c2.762,1.594,2.774,4.146.074,5.715a10.866,10.866,0,0,1-9.874-.025c-2.719-1.57-2.731-4.121-.031-5.691A10.851,10.851,0,0,1,163.829,331.075Z" transform="translate(-151.982 -329.898)" fill="#fff"/>
        </g>
        <g id="Group_136" data-name="Group 136" transform="translate(216.494 102.829)">
          <path id="Path_128" data-name="Path 128" d="M157.324,330.992c2.719,1.576,2.737,4.128.031,5.7a10.851,10.851,0,0,1-9.83,0c-2.762-1.594-2.774-4.146-.068-5.715A10.834,10.834,0,0,1,157.324,330.992Z" transform="translate(-145.44 -329.794)" fill="#fff"/>
        </g>
        <g id="Group_137" data-name="Group 137" transform="translate(237.318 114.855)">
          <path id="Path_129" data-name="Path 129" d="M160.661,332.918c2.762,1.594,2.774,4.146.068,5.715a10.835,10.835,0,0,1-9.867-.018c-2.725-1.576-2.737-4.128-.031-5.7A10.85,10.85,0,0,1,160.661,332.918Z" transform="translate(-148.81 -331.741)" fill="#fff"/>
        </g>
        <g id="Group_138" data-name="Group 138" transform="translate(176.104 102.213)">
          <path id="Path_130" data-name="Path 130" d="M150.75,330.872c2.725,1.569,2.737,4.121.031,5.7a10.851,10.851,0,0,1-9.83,0c-2.719-1.576-2.731-4.127-.031-5.7A10.851,10.851,0,0,1,150.75,330.872Z" transform="translate(-138.903 -329.695)" fill="#fff"/>
        </g>
        <g id="Group_139" data-name="Group 139" transform="translate(196.898 114.217)">
          <path id="Path_131" data-name="Path 131" d="M154.149,332.841c2.725,1.569,2.737,4.121.037,5.691a10.851,10.851,0,0,1-9.83,0c-2.762-1.594-2.78-4.146-.074-5.715A10.815,10.815,0,0,1,154.149,332.841Z" transform="translate(-142.268 -331.637)" fill="#fff"/>
        </g>
        <g id="Group_155" data-name="Group 155">
          <g id="Group_140" data-name="Group 140" transform="translate(194.468 67.41)">
            <path id="Path_132" data-name="Path 132" d="M153.721,325.244c2.725,1.569,2.737,4.121.037,5.691a10.814,10.814,0,0,1-9.83,0c-2.725-1.569-2.737-4.121-.037-5.691A10.813,10.813,0,0,1,153.721,325.244Z" transform="translate(-141.875 -324.062)" fill="#fff"/>
          </g>
          <g id="Group_141" data-name="Group 141" transform="translate(174.87 78.797)">
            <path id="Path_133" data-name="Path 133" d="M150.555,327.087c2.719,1.569,2.737,4.121.031,5.69a10.813,10.813,0,0,1-9.83,0c-2.725-1.569-2.737-4.121-.031-5.69A10.812,10.812,0,0,1,150.555,327.087Z" transform="translate(-138.703 -325.905)" fill="#fff"/>
          </g>
          <g id="Group_142" data-name="Group 142" transform="translate(155.275 90.185)">
            <path id="Path_134" data-name="Path 134" d="M147.379,328.93c2.725,1.569,2.737,4.121.031,5.691a10.814,10.814,0,0,1-9.83,0c-2.719-1.569-2.731-4.121-.031-5.691A10.813,10.813,0,0,1,147.379,328.93Z" transform="translate(-135.532 -327.748)" fill="#fff"/>
          </g>
          <g id="Group_143" data-name="Group 143" transform="translate(195.7 90.826)">
            <path id="Path_135" data-name="Path 135" d="M153.924,329.028c2.719,1.569,2.737,4.121.031,5.7a10.85,10.85,0,0,1-9.83,0c-2.719-1.575-2.737-4.127-.031-5.7A10.852,10.852,0,0,1,153.924,329.028Z" transform="translate(-142.074 -327.852)" fill="#fff"/>
          </g>
          <g id="Group_144" data-name="Group 144" transform="translate(135.678 101.577)">
            <path id="Path_136" data-name="Path 136" d="M144.211,330.769c2.719,1.569,2.731,4.121.031,5.691a10.814,10.814,0,0,1-9.83,0c-2.725-1.569-2.737-4.121-.031-5.691A10.851,10.851,0,0,1,144.211,330.769Z" transform="translate(-132.36 -329.592)" fill="#fff"/>
          </g>
          <g id="Group_145" data-name="Group 145" transform="translate(116.081 112.964)">
            <path id="Path_137" data-name="Path 137" d="M141.038,332.611c2.725,1.57,2.737,4.121.031,5.7a10.852,10.852,0,0,1-9.83,0c-2.719-1.576-2.737-4.127-.031-5.7A10.852,10.852,0,0,1,141.038,332.611Z" transform="translate(-129.188 -331.435)" fill="#fff"/>
          </g>
          <g id="Group_146" data-name="Group 146" transform="translate(156.506 113.601)">
            <path id="Path_138" data-name="Path 138" d="M147.583,332.715c2.719,1.575,2.737,4.127.031,5.7a10.851,10.851,0,0,1-9.83,0c-2.725-1.569-2.737-4.121-.031-5.7A10.849,10.849,0,0,1,147.583,332.715Z" transform="translate(-135.731 -331.538)" fill="#fff"/>
          </g>
          <g id="Group_147" data-name="Group 147" transform="translate(136.91 124.988)">
            <path id="Path_139" data-name="Path 139" d="M144.409,334.558c2.725,1.575,2.737,4.127.031,5.7a10.851,10.851,0,0,1-9.83,0c-2.719-1.569-2.737-4.121-.031-5.7A10.85,10.85,0,0,1,144.409,334.558Z" transform="translate(-132.559 -333.38)" fill="#fff"/>
          </g>
          <g id="Group_148" data-name="Group 148" transform="translate(177.302 125.607)">
            <path id="Path_140" data-name="Path 140" d="M150.981,334.682c2.719,1.569,2.737,4.121.031,5.691a10.812,10.812,0,0,1-9.83,0c-2.762-1.594-2.774-4.146-.074-5.715A10.847,10.847,0,0,1,150.981,334.682Z" transform="translate(-139.097 -333.481)" fill="#fff"/>
          </g>
          <g id="Group_149" data-name="Group 149" transform="translate(198.126 137.63)">
            <path id="Path_141" data-name="Path 141" d="M154.312,336.6c2.762,1.594,2.78,4.146.074,5.715a10.834,10.834,0,0,1-9.867-.019c-2.725-1.576-2.737-4.121-.031-5.7A10.838,10.838,0,0,1,154.312,336.6Z" transform="translate(-142.467 -335.427)" fill="#fff"/>
          </g>
          <g id="Group_150" data-name="Group 150" transform="translate(93.713 54.442)">
            <path id="Path_142" data-name="Path 142" d="M237.737,321.963l87.343,50.431L212.911,437.579l-87.343-50.425Zm13.89,78.674a10.848,10.848,0,0,0,9.874.018c2.7-1.569,2.688-4.121-.074-5.715a10.851,10.851,0,0,0-9.83,0c-2.706,1.57-2.688,4.121.031,5.7m-19.593,11.387a10.834,10.834,0,0,0,9.867.019c2.706-1.57,2.688-4.121-.068-5.715a10.851,10.851,0,0,0-9.83,0c-2.706,1.569-2.694,4.121.031,5.7m-19.6,11.387a10.851,10.851,0,0,0,9.867.025c2.706-1.575,2.694-4.127-.068-5.721a10.852,10.852,0,0,0-9.83,0c-2.706,1.576-2.688,4.127.031,5.7m58.791-34.162a10.834,10.834,0,0,0,9.867.018c2.706-1.569,2.694-4.121-.068-5.715a10.851,10.851,0,0,0-9.83,0c-2.706,1.569-2.694,4.121.031,5.7m19.593-11.394a10.867,10.867,0,0,0,9.874.025c2.7-1.569,2.688-4.121-.074-5.715a10.851,10.851,0,0,0-9.83,0c-2.7,1.57-2.688,4.121.031,5.691m-79.576,22.163a10.812,10.812,0,0,0,9.83,0c2.706-1.569,2.688-4.121-.031-5.691a10.827,10.827,0,0,0-9.874-.025c-2.7,1.569-2.688,4.121.074,5.715m-19.6,11.387a10.812,10.812,0,0,0,9.83,0c2.706-1.569,2.694-4.121-.031-5.691a10.853,10.853,0,0,0-9.867-.025c-2.706,1.569-2.694,4.121.068,5.715m39.2-22.775a10.851,10.851,0,0,0,9.83,0c2.7-1.57,2.688-4.121-.037-5.7a10.833,10.833,0,0,0-9.867-.018c-2.706,1.569-2.688,4.121.074,5.715m39.192-22.775a10.849,10.849,0,0,0,9.83,0c2.7-1.575,2.688-4.127-.031-5.7a10.867,10.867,0,0,0-9.874-.025c-2.706,1.576-2.688,4.127.074,5.721m-19.6,11.388a10.851,10.851,0,0,0,9.83,0c2.706-1.569,2.688-4.121-.031-5.7a10.834,10.834,0,0,0-9.867-.019c-2.706,1.57-2.694,4.121.068,5.715m-60.02,10.751a10.851,10.851,0,0,0,9.83,0c2.706-1.569,2.688-4.121-.031-5.7a10.851,10.851,0,0,0-9.83,0c-2.706,1.576-2.694,4.127.031,5.7m-19.6,11.388a10.851,10.851,0,0,0,9.83,0c2.706-1.569,2.694-4.121-.031-5.7a10.85,10.85,0,0,0-9.83,0c-2.706,1.575-2.688,4.128.031,5.7m39.192-22.775a10.852,10.852,0,0,0,9.83,0c2.706-1.576,2.694-4.127-.031-5.7a10.851,10.851,0,0,0-9.83,0c-2.7,1.569-2.688,4.121.031,5.7m19.6-11.387a10.851,10.851,0,0,0,9.83,0c2.706-1.576,2.688-4.128-.031-5.7a10.852,10.852,0,0,0-9.83,0c-2.706,1.569-2.688,4.121.031,5.7m19.6-11.387a10.852,10.852,0,0,0,9.83,0c2.7-1.576,2.688-4.127-.037-5.7a10.851,10.851,0,0,0-9.83,0c-2.7,1.569-2.688,4.121.037,5.7m-60.026,10.745a10.813,10.813,0,0,0,9.83,0c2.706-1.569,2.694-4.121-.031-5.691a10.813,10.813,0,0,0-9.83,0c-2.7,1.569-2.688,4.121.031,5.691m-19.593,11.388a10.814,10.814,0,0,0,9.83,0c2.7-1.569,2.688-4.121-.031-5.691a10.851,10.851,0,0,0-9.83,0c-2.706,1.569-2.694,4.121.031,5.691m-19.6,11.394a10.851,10.851,0,0,0,9.83,0c2.706-1.576,2.694-4.128-.031-5.7a10.851,10.851,0,0,0-9.83,0c-2.706,1.569-2.688,4.121.031,5.7m58.791-34.168a10.813,10.813,0,0,0,9.83,0c2.706-1.569,2.688-4.121-.031-5.69a10.812,10.812,0,0,0-9.83,0c-2.706,1.569-2.694,4.121.031,5.69m19.6-11.387a10.814,10.814,0,0,0,9.83,0c2.7-1.569,2.688-4.121-.037-5.691a10.813,10.813,0,0,0-9.83,0c-2.7,1.569-2.688,4.121.037,5.691" transform="translate(-125.568 -321.963)" fill="#fbcb83"/>
          </g>
          <g id="Group_151" data-name="Group 151" transform="translate(217.721 126.242)">
            <path id="Path_143" data-name="Path 143" d="M157.488,334.761c2.762,1.594,2.774,4.146.074,5.715a10.848,10.848,0,0,1-9.874-.018c-2.719-1.576-2.737-4.128-.031-5.7A10.851,10.851,0,0,1,157.488,334.761Z" transform="translate(-145.638 -333.584)" fill="#fff"/>
          </g>
          <g id="Group_152" data-name="Group 152" transform="translate(157.703 136.996)">
            <path id="Path_144" data-name="Path 144" d="M147.809,336.523c2.725,1.569,2.737,4.121.031,5.691a10.813,10.813,0,0,1-9.83,0c-2.762-1.594-2.774-4.146-.068-5.715A10.853,10.853,0,0,1,147.809,336.523Z" transform="translate(-135.925 -335.324)" fill="#fff"/>
          </g>
          <g id="Group_153" data-name="Group 153" transform="translate(178.53 149.017)">
            <path id="Path_145" data-name="Path 145" d="M151.145,338.447c2.762,1.594,2.774,4.146.068,5.721a10.851,10.851,0,0,1-9.867-.025c-2.719-1.569-2.737-4.121-.031-5.7A10.851,10.851,0,0,1,151.145,338.447Z" transform="translate(-139.295 -337.27)" fill="#fff"/>
          </g>
          <g id="Group_154" data-name="Group 154">
            <path id="Path_146" data-name="Path 146" d="M470.479,328.582c35.62,20.569,35.769,53.885.42,74.429L265.759,522.223c-35.386,20.569-92.879,20.569-128.5,0s-35.849-53.885-.457-74.454L341.937,328.557C377.291,308.013,434.853,308.013,470.479,328.582ZM291.456,483.211l112.169-65.186-87.343-50.431L204.114,432.786l87.343,50.424" transform="translate(-110.401 -313.152)" fill="#fff"/>
          </g>
        </g>
      </g>
      <g id="Group_167" data-name="Group 167" transform="translate(967.838 1192.242)">
        <g id="Group_160" data-name="Group 160" transform="translate(0.847 22.729)">
          <g id="Group_159" data-name="Group 159">
            <g id="Group_157" data-name="Group 157" transform="translate(0 55.915)">
              <path id="Path_147" data-name="Path 147" d="M417.2,292.2l-.216,75.547c-.037,14.285-9.435,28.552-28.187,39.451-37.746,21.935-99.125,21.953-137.156,0-19.1-11.035-28.645-25.512-28.6-39.964l.216-75.553c-.043,14.458,9.5,28.935,28.6,39.964,38.03,21.959,99.41,21.934,137.149,0C407.763,320.748,417.154,306.487,417.2,292.2Z" transform="translate(-223.037 -291.683)" fill="#fff"/>
            </g>
            <g id="Group_158" data-name="Group 158" transform="translate(0.211)">
              <path id="Path_148" data-name="Path 148" d="M388.382,299.072c38.03,21.953,38.191,57.505.445,79.44s-99.119,21.959-137.149,0c-37.993-21.929-38.154-57.487-.408-79.415S350.389,277.138,388.382,299.072Z" transform="translate(-223.071 -282.634)" fill="#7fc6f5"/>
            </g>
          </g>
        </g>
        <g id="Group_166" data-name="Group 166" transform="translate(0 0)">
          <g id="Group_164" data-name="Group 164" transform="translate(0)">
            <g id="Group_163" data-name="Group 163">
              <g id="Group_161" data-name="Group 161" transform="translate(0.094 56.172)">
                <path id="Path_149" data-name="Path 149" d="M416.94,288.6l-.074,25.178c-.043,14.285-9.429,28.552-28.175,39.445-37.746,21.934-99.163,21.934-137.156,0-19.117-11.035-28.663-25.524-28.62-39.995l.068-25.185c-.037,14.471,9.509,28.96,28.626,40,37.987,21.928,99.41,21.928,137.149,0C407.511,317.148,416.9,302.888,416.94,288.6Z" transform="translate(-222.915 -288.046)" fill="#194d70"/>
              </g>
              <g id="Group_162" data-name="Group 162">
                <ellipse id="Ellipse_1" data-name="Ellipse 1" cx="56.174" cy="96.981" rx="56.174" ry="96.981" transform="translate(0 112.348) rotate(-89.838)" fill="#0b2130"/>
              </g>
            </g>
          </g>
          <g id="Group_165" data-name="Group 165" transform="translate(34.206 21.407)">
            <path id="Path_150" data-name="Path 150" d="M335.724,293.087c24.659,14.229,24.789,37.326.29,51.561s-64.364,14.236-89.023,0-24.746-37.307-.247-51.543S311.071,278.851,335.724,293.087Z" transform="translate(-228.436 -282.42)" fill="#ed5e47"/>
          </g>
        </g>
      </g>
      <g id="Group_194" data-name="Group 194" transform="translate(79.054 1668.121)">
        <g id="Group_168" data-name="Group 168">
          <path id="Path_151" data-name="Path 151" d="M686.4,574.61c12.858,7.421,12.926,19.451.111,26.9L504.187,707.465c-12.771,7.421-33.538,7.421-46.4,0L88.747,494.391c-12.864-7.421-12.932-19.451-.154-26.871L270.915,361.561c12.821-7.445,33.581-7.445,46.439-.025Z" transform="translate(-79.054 -355.974)" fill="#e6e7e8"/>
        </g>
        <g id="Group_193" data-name="Group 193" transform="translate(73.538 25.83)">
          <g id="Group_171" data-name="Group 171" transform="translate(98.124)">
            <g id="Group_169" data-name="Group 169" transform="translate(0 25.801)">
              <path id="Path_152" data-name="Path 152" d="M196.46,364.59l-.043,15.107c-.018,6.6-4.356,13.2-13.025,18.24-17.443,10.133-45.791,10.114-63.307,0-8.842-5.11-13.266-11.808-13.247-18.5l.043-15.107c-.019,6.685,4.405,13.389,13.247,18.493,17.517,10.115,45.865,10.139,63.307,0C192.1,377.787,196.441,371.189,196.46,364.59Z" transform="translate(-106.837 -364.33)" fill="#ed5e47"/>
            </g>
            <g id="Group_170" data-name="Group 170" transform="translate(0.045)">
              <path id="Path_153" data-name="Path 153" d="M183.23,367.759c17.517,10.109,17.609,26.556.167,36.689s-45.791,10.115-63.307,0c-17.554-10.133-17.684-26.556-.247-36.689S165.676,357.62,183.23,367.759Z" transform="translate(-106.844 -360.154)" fill="#ff755e"/>
            </g>
          </g>
          <g id="Group_174" data-name="Group 174" transform="translate(190.163 53.137)">
            <g id="Group_172" data-name="Group 172" transform="translate(0 25.801)">
              <path id="Path_154" data-name="Path 154" d="M211.368,373.183l-.043,15.107c-.019,6.605-4.368,13.2-13.043,18.246-17.436,10.133-45.747,10.133-63.3,0-8.848-5.11-13.266-11.807-13.247-18.5l.043-15.107c-.025,6.685,4.4,13.389,13.241,18.493,17.56,10.139,45.871,10.139,63.307,0C207,386.381,211.349,379.788,211.368,373.183Z" transform="translate(-121.733 -372.93)" fill="#ed5e47"/>
            </g>
            <g id="Group_173" data-name="Group 173" transform="translate(0.04)">
              <path id="Path_155" data-name="Path 155" d="M198.124,376.359c17.554,10.133,17.609,26.556.167,36.689s-45.747,10.139-63.307,0-17.684-26.556-.241-36.689S180.571,366.22,198.124,376.359Z" transform="translate(-121.739 -368.754)" fill="#ff755e"/>
            </g>
          </g>
          <g id="Group_177" data-name="Group 177" transform="translate(282.214 106.286)">
            <g id="Group_175" data-name="Group 175" transform="translate(0 25.82)">
              <path id="Path_156" data-name="Path 156" d="M226.266,381.788l-.043,15.113c-.019,6.6-4.356,13.192-13.019,18.227-17.443,10.133-45.791,10.115-63.344-.018-8.836-5.1-13.247-11.789-13.229-18.468l.043-15.107c-.019,6.673,4.393,13.365,13.229,18.462,17.554,10.133,45.9,10.158,63.344.025C221.91,394.986,226.247,388.393,226.266,381.788Z" transform="translate(-136.631 -381.535)" fill="#ed5e47"/>
            </g>
            <g id="Group_176" data-name="Group 176" transform="translate(0.045)">
              <path id="Path_157" data-name="Path 157" d="M213.005,384.949c17.554,10.133,17.647,26.575.2,36.714s-45.791,10.108-63.344-.025-17.646-26.532-.21-36.671S195.445,374.81,213.005,384.949Z" transform="translate(-136.638 -377.356)" fill="#ff755e"/>
            </g>
          </g>
          <g id="Group_180" data-name="Group 180" transform="translate(374.271 159.435)">
            <g id="Group_178" data-name="Group 178" transform="translate(0 25.796)">
              <path id="Path_158" data-name="Path 158" d="M241.153,390.393l-.043,15.107c-.019,6.605-4.356,13.2-13.025,18.24-17.443,10.133-45.8,10.115-63.307,0-8.848-5.1-13.266-11.807-13.247-18.5l.043-15.107c-.018,6.692,4.4,13.389,13.247,18.5,17.511,10.108,45.865,10.133,63.307,0C236.8,403.59,241.134,397,241.153,390.393Z" transform="translate(-151.53 -390.133)" fill="#ed5e47"/>
            </g>
            <g id="Group_179" data-name="Group 179" transform="translate(0.041)">
              <path id="Path_159" data-name="Path 159" d="M227.921,393.558c17.517,10.115,17.609,26.556.173,36.7s-45.8,10.108-63.307,0c-17.56-10.14-17.69-26.562-.247-36.7S210.367,383.425,227.921,393.558Z" transform="translate(-151.537 -385.958)" fill="#ff755e"/>
            </g>
          </g>
          <g id="Group_183" data-name="Group 183" transform="translate(0 57.035)">
            <g id="Group_181" data-name="Group 181" transform="translate(0 25.796)">
              <path id="Path_160" data-name="Path 160" d="M180.566,373.82l-.043,15.107c-.019,6.605-4.356,13.2-13.025,18.24-17.406,10.115-45.791,10.115-63.307,0-8.842-5.1-13.253-11.807-13.235-18.493L91,373.56c-.019,6.692,4.393,13.4,13.235,18.5,17.517,10.108,45.9,10.108,63.307,0C176.21,387.018,180.548,380.425,180.566,373.82Z" transform="translate(-90.956 -373.56)" fill="#ed5e47"/>
            </g>
            <g id="Group_182" data-name="Group 182" transform="translate(0.047)">
              <path id="Path_161" data-name="Path 161" d="M167.335,376.985c17.511,10.115,17.6,26.556.167,36.7-17.406,10.108-45.791,10.108-63.307,0-17.554-10.139-17.646-26.581-.247-36.7C121.39,366.852,149.775,366.852,167.335,376.985Z" transform="translate(-90.964 -369.385)" fill="#ff755e"/>
            </g>
          </g>
          <g id="Group_186" data-name="Group 186" transform="translate(92.038 110.172)">
            <g id="Group_184" data-name="Group 184" transform="translate(0 25.796)">
              <path id="Path_162" data-name="Path 162" d="M195.469,382.413l-.037,15.113c-.018,6.605-4.368,13.2-13.043,18.24-17.4,10.115-45.754,10.133-63.307,0-8.835-5.1-13.247-11.807-13.229-18.493l.043-15.113c-.019,6.692,4.393,13.4,13.229,18.5,17.554,10.133,45.908,10.108,63.307,0C191.106,395.617,195.45,389.018,195.469,382.413Z" transform="translate(-105.852 -382.16)" fill="#ed5e47"/>
            </g>
            <g id="Group_185" data-name="Group 185" transform="translate(0.041)">
              <path id="Path_163" data-name="Path 163" d="M182.23,385.585c17.554,10.133,17.609,26.556.167,36.7-17.4,10.108-45.753,10.133-63.307,0s-17.646-26.581-.247-36.7C136.285,375.452,164.677,375.452,182.23,385.585Z" transform="translate(-105.859 -377.985)" fill="#ff755e"/>
            </g>
          </g>
          <g id="Group_189" data-name="Group 189" transform="translate(184.089 163.319)">
            <g id="Group_187" data-name="Group 187" transform="translate(0 25.823)">
              <path id="Path_164" data-name="Path 164" d="M210.373,391.019l-.043,15.107c-.019,6.6-4.356,13.2-13.018,18.227-17.4,10.115-45.791,10.115-63.345-.018-8.829-5.1-13.235-11.783-13.216-18.462l.043-15.107c-.019,6.673,4.387,13.359,13.216,18.456,17.554,10.14,45.939,10.14,63.344.025C206.017,404.211,210.354,397.618,210.373,391.019Z" transform="translate(-120.75 -390.766)" fill="#ed5e47"/>
            </g>
            <g id="Group_188" data-name="Group 188" transform="translate(0.045)">
              <path id="Path_165" data-name="Path 165" d="M197.106,394.177c17.56,10.133,17.653,26.581.21,36.714-17.405,10.115-45.791,10.115-63.344-.025s-17.609-26.556-.21-36.664C151.2,384.062,179.553,384.043,197.106,394.177Z" transform="translate(-120.757 -386.587)" fill="#ff755e"/>
            </g>
          </g>
          <g id="Group_192" data-name="Group 192" transform="translate(276.146 216.464)">
            <g id="Group_190" data-name="Group 190" transform="translate(0 25.802)">
              <path id="Path_166" data-name="Path 166" d="M225.253,399.617l-.043,15.113c-.018,6.6-4.356,13.2-13.025,18.234-17.4,10.115-45.791,10.115-63.307,0-8.836-5.1-13.247-11.8-13.229-18.493l.043-15.107c-.019,6.685,4.393,13.389,13.229,18.493,17.517,10.115,45.908,10.115,63.307,0C220.9,412.815,225.235,406.222,225.253,399.617Z" transform="translate(-135.649 -399.364)" fill="#ed5e47"/>
            </g>
            <g id="Group_191" data-name="Group 191" transform="translate(0.041)">
              <path id="Path_167" data-name="Path 167" d="M212.027,402.788c17.517,10.115,17.609,26.563.167,36.7-17.4,10.115-45.791,10.115-63.307,0-17.554-10.133-17.647-26.581-.241-36.7C166.082,392.655,194.473,392.655,212.027,402.788Z" transform="translate(-135.656 -395.188)" fill="#ff755e"/>
            </g>
          </g>
        </g>
      </g>
      <g id="Group_221" data-name="Group 221" transform="translate(490.347 1572.456)">
        <g id="Group_195" data-name="Group 195">
          <path id="Path_168" data-name="Path 168" d="M752.964,559.126c12.864,7.421,12.932,19.451.117,26.9L570.753,691.981c-12.778,7.421-33.538,7.421-46.4,0L155.308,478.908c-12.858-7.421-12.926-19.451-.148-26.871L337.482,346.077c12.815-7.445,33.581-7.445,46.439-.019Z" transform="translate(-145.62 -340.491)" fill="#e6e7e8"/>
        </g>
        <g id="Group_220" data-name="Group 220" transform="translate(73.539 25.834)">
          <g id="Group_198" data-name="Group 198" transform="translate(98.124)">
            <g id="Group_196" data-name="Group 196" transform="translate(0 25.796)">
              <path id="Path_169" data-name="Path 169" d="M263.026,349.107l-.043,15.107c-.019,6.6-4.356,13.2-13.025,18.24-17.443,10.133-45.791,10.115-63.307,0-8.842-5.1-13.266-11.808-13.247-18.5l.043-15.107c-.019,6.686,4.4,13.389,13.247,18.493,17.517,10.115,45.865,10.139,63.307,0C258.67,362.3,263.007,355.705,263.026,349.107Z" transform="translate(-173.403 -348.847)" fill="#4186b3"/>
            </g>
            <g id="Group_197" data-name="Group 197" transform="translate(0.043)">
              <path id="Path_170" data-name="Path 170" d="M249.8,352.272c17.511,10.115,17.6,26.556.167,36.689s-45.791,10.115-63.307,0c-17.554-10.133-17.69-26.556-.247-36.689S232.238,342.139,249.8,352.272Z" transform="translate(-173.41 -344.672)" fill="#5facde"/>
            </g>
          </g>
          <g id="Group_201" data-name="Group 201" transform="translate(190.157 53.132)">
            <g id="Group_199" data-name="Group 199" transform="translate(0 25.801)">
              <path id="Path_171" data-name="Path 171" d="M277.939,357.7l-.043,15.107c-.018,6.605-4.368,13.2-13.043,18.246-17.443,10.133-45.753,10.133-63.307,0-8.842-5.11-13.266-11.807-13.247-18.5l.043-15.107c-.018,6.686,4.405,13.39,13.247,18.493,17.554,10.139,45.865,10.139,63.307,0C273.571,370.9,277.914,364.306,277.939,357.7Z" transform="translate(-188.298 -357.447)" fill="#4186b3"/>
            </g>
            <g id="Group_200" data-name="Group 200" transform="translate(0.045)">
              <path id="Path_172" data-name="Path 172" d="M264.691,360.876c17.554,10.133,17.609,26.556.167,36.689s-45.754,10.139-63.307,0-17.684-26.556-.247-36.689S247.137,350.736,264.691,360.876Z" transform="translate(-188.305 -353.271)" fill="#5facde"/>
            </g>
          </g>
          <g id="Group_204" data-name="Group 204" transform="translate(282.214 106.281)">
            <g id="Group_202" data-name="Group 202" transform="translate(0 25.82)">
              <path id="Path_173" data-name="Path 173" d="M292.832,366.305l-.043,15.113c-.018,6.6-4.356,13.192-13.019,18.228-17.443,10.139-45.791,10.115-63.344-.019-8.836-5.1-13.247-11.789-13.229-18.468l.043-15.107c-.019,6.673,4.393,13.365,13.229,18.462,17.554,10.139,45.9,10.158,63.344.025C288.476,379.5,292.813,372.91,292.832,366.305Z" transform="translate(-203.197 -366.052)" fill="#4186b3"/>
            </g>
            <g id="Group_203" data-name="Group 203" transform="translate(0.041)">
              <path id="Path_174" data-name="Path 174" d="M279.569,369.466c17.56,10.133,17.653,26.575.21,36.714s-45.791,10.115-63.344-.025-17.653-26.531-.21-36.671S262.015,359.327,279.569,369.466Z" transform="translate(-203.204 -361.873)" fill="#5facde"/>
            </g>
          </g>
          <g id="Group_207" data-name="Group 207" transform="translate(374.271 159.43)">
            <g id="Group_205" data-name="Group 205" transform="translate(0 25.796)">
              <path id="Path_175" data-name="Path 175" d="M307.713,374.91l-.043,15.107c-.019,6.6-4.356,13.2-13.025,18.24-17.436,10.133-45.79,10.115-63.307,0-8.842-5.1-13.266-11.807-13.241-18.493l.037-15.113c-.018,6.692,4.405,13.389,13.247,18.5,17.517,10.108,45.871,10.133,63.307,0C303.357,388.107,307.694,381.515,307.713,374.91Z" transform="translate(-218.096 -374.65)" fill="#4186b3"/>
            </g>
            <g id="Group_206" data-name="Group 206" transform="translate(0.04)">
              <path id="Path_176" data-name="Path 176" d="M294.487,378.075c17.517,10.115,17.609,26.556.167,36.7s-45.791,10.108-63.307,0c-17.554-10.139-17.684-26.556-.241-36.7S276.934,367.942,294.487,378.075Z" transform="translate(-218.102 -370.475)" fill="#5facde"/>
            </g>
          </g>
          <g id="Group_210" data-name="Group 210" transform="translate(0 57.03)">
            <g id="Group_208" data-name="Group 208" transform="translate(0 25.802)">
              <path id="Path_177" data-name="Path 177" d="M247.126,358.331l-.037,15.113c-.025,6.6-4.356,13.2-13.031,18.233-17.4,10.115-45.791,10.115-63.3,0-8.842-5.1-13.253-11.807-13.235-18.493l.043-15.107c-.018,6.685,4.393,13.389,13.229,18.493,17.517,10.108,45.908,10.108,63.307,0C242.77,371.529,247.108,364.936,247.126,358.331Z" transform="translate(-157.522 -358.078)" fill="#4186b3"/>
            </g>
            <g id="Group_209" data-name="Group 209" transform="translate(0.041)">
              <path id="Path_178" data-name="Path 178" d="M233.9,361.5c17.517,10.115,17.609,26.556.167,36.7-17.4,10.108-45.791,10.108-63.307,0-17.554-10.139-17.646-26.581-.241-36.7C187.955,351.369,216.346,351.369,233.9,361.5Z" transform="translate(-157.529 -353.902)" fill="#5facde"/>
            </g>
          </g>
          <g id="Group_213" data-name="Group 213" transform="translate(92.032 110.167)">
            <g id="Group_211" data-name="Group 211" transform="translate(0 25.796)">
              <path id="Path_179" data-name="Path 179" d="M262.04,366.93,262,382.043c-.018,6.605-4.362,13.2-13.037,18.24-17.4,10.114-45.753,10.133-63.307,0-8.842-5.1-13.253-11.807-13.235-18.493l.043-15.113c-.018,6.692,4.393,13.4,13.235,18.5,17.554,10.133,45.9,10.109,63.307,0C257.677,380.134,262.021,373.535,262.04,366.93Z" transform="translate(-172.417 -366.677)" fill="#4186b3"/>
            </g>
            <g id="Group_212" data-name="Group 212" transform="translate(0.047)">
              <path id="Path_180" data-name="Path 180" d="M248.8,370.1c17.554,10.133,17.609,26.556.167,36.7-17.405,10.109-45.754,10.133-63.307,0s-17.646-26.581-.247-36.7C202.851,359.969,231.243,359.969,248.8,370.1Z" transform="translate(-172.425 -362.502)" fill="#5facde"/>
            </g>
          </g>
          <g id="Group_216" data-name="Group 216" transform="translate(184.089 163.314)">
            <g id="Group_214" data-name="Group 214" transform="translate(0 25.823)">
              <path id="Path_181" data-name="Path 181" d="M276.939,375.536l-.043,15.107c-.019,6.6-4.356,13.2-13.019,18.233-17.406,10.109-45.791,10.109-63.351-.025-8.829-5.1-13.229-11.783-13.21-18.462l.043-15.107c-.018,6.673,4.381,13.358,13.21,18.462,17.554,10.133,45.945,10.133,63.351.019C272.583,388.728,276.92,382.135,276.939,375.536Z" transform="translate(-187.316 -375.283)" fill="#4186b3"/>
            </g>
            <g id="Group_215" data-name="Group 215" transform="translate(0.044)">
              <path id="Path_182" data-name="Path 182" d="M263.673,378.693c17.554,10.133,17.647,26.581.21,36.714-17.405,10.115-45.8,10.115-63.351-.018s-17.6-26.562-.2-36.671C217.771,368.579,246.119,368.56,263.673,378.693Z" transform="translate(-187.323 -371.104)" fill="#5facde"/>
            </g>
          </g>
          <g id="Group_219" data-name="Group 219" transform="translate(276.146 216.46)">
            <g id="Group_217" data-name="Group 217" transform="translate(0 25.802)">
              <path id="Path_183" data-name="Path 183" d="M291.819,384.134l-.043,15.113c-.018,6.6-4.356,13.2-13.025,18.233-17.4,10.115-45.791,10.115-63.307,0-8.836-5.1-13.247-11.8-13.229-18.493l.043-15.107c-.019,6.685,4.393,13.389,13.229,18.493,17.517,10.115,45.908,10.115,63.307,0C287.463,397.338,291.8,390.739,291.819,384.134Z" transform="translate(-202.215 -383.881)" fill="#4186b3"/>
            </g>
            <g id="Group_218" data-name="Group 218" transform="translate(0.041)">
              <path id="Path_184" data-name="Path 184" d="M278.593,387.3c17.517,10.115,17.609,26.563.167,36.7-17.4,10.115-45.791,10.115-63.307,0-17.554-10.133-17.646-26.581-.247-36.7C232.648,377.172,261.04,377.172,278.593,387.3Z" transform="translate(-202.222 -379.705)" fill="#5facde"/>
            </g>
          </g>
        </g>
      </g>
      <g id="Group_223" data-name="Group 223" transform="translate(1869.687 892.407)">
        <path id="Path_185" data-name="Path 185" d="M558.01,353.757,552.4,231.066H533.82l-5.61,122.716a95.715,95.715,0,0,1-56.381,87.4,174.248,174.248,0,0,0-102.3,174.543C376.862,700.335,446,768.153,530.718,774.01A174.254,174.254,0,0,0,613.3,440.7C579.2,425.69,558.01,391.009,558.01,353.757Z" transform="translate(-368.86 -227.124)" fill="#4186b3"/>
        <g id="Group_222" data-name="Group 222" transform="translate(19.618 244.134)">
          <path id="Path_186" data-name="Path 186" d="M643.683,269.94A174.082,174.082,0,0,1,372.035,479.084c27.372,52.358,80.676,89.351,142.241,93.608A174.138,174.138,0,0,0,643.683,269.94Z" transform="translate(-372.035 -269.94)" fill="#2477ad"/>
        </g>
        <path id="Path_187" data-name="Path 187" d="M414.168,234.988c0,2.515-4.164,4.554-9.305,4.554s-9.305-2.039-9.305-4.554,4.164-4.56,9.305-4.56S414.168,232.467,414.168,234.988Z" transform="translate(-230.598 -230.428)" fill="#143d59"/>
        <circle id="Ellipse_2" data-name="Ellipse 2" cx="77.696" cy="77.696" r="77.696" transform="translate(4.238 336.99) rotate(-52.93)" fill="#4895c7"/>
      </g>
      <g id="Group_231" data-name="Group 231" transform="translate(2146.736 1338.462)">
        <g id="Group_224" data-name="Group 224" transform="translate(7.612 60.508)">
          <path id="Path_188" data-name="Path 188" d="M527.434,312.734l-.538,189.91c-.025,8.243-5.443,16.479-16.262,22.769-21.8,12.667-57.234,12.667-79.168,0-11.042-6.376-16.559-14.736-16.535-23.09l.538-189.909c-.025,8.354,5.493,16.72,16.534,23.09,21.941,12.667,57.37,12.667,79.168,0C521.99,329.213,527.409,320.983,527.434,312.734Z" transform="translate(-414.931 -312.413)" fill="#fff"/>
        </g>
        <g id="Group_225" data-name="Group 225" transform="translate(8.152 28.245)">
          <path id="Path_189" data-name="Path 189" d="M510.459,316.686c21.941,12.667,22.033,33.2.259,45.858-21.8,12.667-57.227,12.667-79.168,0s-22.058-33.192-.259-45.858C453.065,304.032,488.525,304.02,510.459,316.686Z" transform="translate(-415.018 -307.191)" fill="#a33726"/>
        </g>
        <g id="Group_226" data-name="Group 226" transform="translate(8.15 120.201)">
          <path id="Path_190" data-name="Path 190" d="M415.018,393.34c.049,8.3,5.561,16.6,16.534,22.929,21.941,12.666,57.37,12.666,79.168,0,10.887-6.327,16.312-14.625,16.263-22.923V322.074c.049,8.3-5.375,16.6-16.263,22.923-21.8,12.673-57.227,12.673-79.168.006-10.974-6.333-16.485-14.637-16.534-22.929Z" transform="translate(-415.018 -322.074)" fill="#4186b3"/>
        </g>
        <g id="Group_230" data-name="Group 230">
          <g id="Group_229" data-name="Group 229">
            <g id="Group_227" data-name="Group 227" transform="translate(0 36.776)">
              <path id="Path_191" data-name="Path 191" d="M541.432,308.961l-.093,31.647c-.025,9.4-6.2,18.777-18.536,25.951-24.857,14.44-65.254,14.427-90.271-.018-12.574-7.26-18.864-16.794-18.833-26.315l.087-31.654c-.025,9.521,6.259,19.055,18.839,26.321,25.012,14.44,65.414,14.452,90.265.013C535.229,327.732,541.4,318.353,541.432,308.961Z" transform="translate(-413.699 -308.572)" fill="#ed5e47"/>
            </g>
            <g id="Group_228" data-name="Group 228" transform="translate(0.088)">
              <path id="Path_192" data-name="Path 192" d="M522.495,313.445c25.018,14.44,25.172,37.845.321,52.284s-65.254,14.427-90.265-.012c-24.987-14.427-25.148-37.832-.3-52.272S497.508,299.018,522.495,313.445Z" transform="translate(-413.713 -302.62)" fill="#cc4731"/>
            </g>
          </g>
        </g>
      </g>
      <g id="Group_235" data-name="Group 235" transform="translate(1135.438 1865.261)">
        <g id="Group_234" data-name="Group 234" transform="translate(0)">
          <path id="Path_193" data-name="Path 193" d="M408.451,443.892H250.145l-.043,15.113H408.407c39.241,0,71.031-18.425,70.864-41.181l.043-15.107C479.481,425.467,447.692,443.892,408.451,443.892Z" transform="translate(-249.627 -311.043)" fill="#a33726"/>
          <g id="Group_232" data-name="Group 232" transform="translate(0 41.178)">
            <path id="Path_194" data-name="Path 194" d="M250.545,486.219l-.043,15.11-.476-91.674.043-15.11Z" transform="translate(-250.025 -394.545)" fill="#ed5e47"/>
          </g>
          <g id="Group_233" data-name="Group 233" transform="translate(0.042)">
            <path id="Path_195" data-name="Path 195" d="M458.713,450.421c12.907,7.452,20.915,17.752,20.964,29.133.167,22.75-31.623,41.175-70.864,41.175H250.508l-.476-91.668c-.167-22.756,31.58-41.206,70.858-41.181,19.642-.012,37.449,4.591,50.363,12.049s20.921,17.752,20.965,29.127l.049,9.293,16.083.025C427.993,438.36,445.8,442.97,458.713,450.421Z" transform="translate(-250.032 -387.88)" fill="#ed5e47"/>
          </g>
        </g>
      </g>
    </g>
  </g>
</svg>
