<?xml version="1.0" encoding="utf-8"?>
<!-- Generator: Adobe Illustrator 22.0.1, SVG Export Plug-In . SVG Version: 6.00 Build 0)  -->
<svg version="1.1" id="Layer_1" xmlns="http://www.w3.org/2000/svg" xmlns:xlink="http://www.w3.org/1999/xlink" x="0px" y="0px"
	 viewBox="0 0 512 512" style="enable-background:new 0 0 512 512;" xml:space="preserve">
<style type="text/css">
	.st0{fill:#FFFFFF;}
</style>
<g>
	<g>
		<path class="st0" d="M437,75C388.7,26.6,324.4,0,256,0S123.3,26.6,75,75S0,187.6,0,256c0,51.6,15.2,101.1,44,143.6L0.6,500.8
			c-2.8,6.6,4.3,13.5,10.8,10.4l96.8-46.1C151.7,495.8,202.6,512,256,512c68.4,0,132.7-26.6,181-75c48.4-48.4,75-112.6,75-181
			S485.4,123.3,437,75z M256,496c-51.6,0-100.7-16.1-142.1-46.6c-2.4-1.7-5.6-2-8.2-0.8l-81.9,39l36.8-85.8c1.1-2.6,0.8-5.5-0.8-7.8
			C31.1,353.5,16,305.8,16,256C16,123.7,123.7,16,256,16s240,107.6,240,240S388.3,496,256,496z"/>
	</g>
</g>
<g>
	<g>
		<path class="st0" d="M397,96.1c-3.3-2.9-8.4-2.6-11.3,0.7s-2.6,8.4,0.7,11.3c42.4,37.5,66.8,91.4,66.8,147.9
			c0,108.7-88.5,197.2-197.2,197.2c-108.7,0-197.2-88.5-197.2-197.2S147.3,58.8,256,58.8c34.7,0,68.8,9.1,98.6,26.4
			c3.8,2.2,8.7,0.9,11-2.9s0.9-8.7-2.9-11C330.4,52.6,293.5,42.8,256,42.8C138.4,42.8,42.8,138.4,42.8,256S138.4,469.2,256,469.2
			S469.2,373.6,469.2,256C469.2,194.9,442.9,136.6,397,96.1z"/>
	</g>
</g>
<g>
	<g>
		<path class="st0" d="M392.1,342.9l-7.7-41.6c-0.6-3.2-3.1-5.8-6.3-6.4l-60.5-12.1c-2.6-0.5-5.3,0.3-7.2,2.2l-24.8,24.8
			c-41.8-18.7-65-41.8-85.3-85.5l24.8-24.8c1.9-1.9,2.7-4.6,2.2-7.2l-12.1-60.5c-0.6-3.2-3.2-5.7-6.4-6.3l-41.6-7.7
			c-1.1-0.2-2.2-0.2-3.2,0.1c-10.9,2.5-20.8,8-28.8,15.9c-13.7,13.7-18.9,33.7-15.1,57.9c3.5,22,10.5,46,19.7,67.5
			c1.7,4.1,6.5,6,10.5,4.2c4.1-1.7,5.9-6.5,4.2-10.5c-8.7-20.3-15.3-42.9-18.6-63.6c-3-19.2,0.6-34,10.6-44.1
			c5.4-5.4,12.1-9.3,19.4-11.2l34.6,6.4l10.2,50.9L185,216.9c-2.3,2.3-3,5.9-1.7,8.9c23.3,52.2,50.7,79.6,100.9,100.9
			c3,1.3,6.5,0.6,8.8-1.7l25.7-25.7l50.9,10.2l6.4,34.6c-2,7.3-5.8,14-11.2,19.4c-10.1,10.1-24.9,13.6-44.1,10.6
			c-38.3-6-91.5-24.6-125.7-58.8l-0.5-0.5c-9.3-9.3-18-20.7-25.8-33.7c-2.3-3.8-7.2-5-11-2.8c-3.8,2.3-5,7.2-2.8,11
			c8.5,14.1,17.9,26.5,28.2,36.8l0.5,0.5c37,36.8,93.8,56.8,134.6,63.2c16.3,2.6,33.7,1.4,48.1-7.4c3.6-2.2,6.9-4.8,9.8-7.7
			c7.9-7.9,13.4-17.9,15.9-28.8C392.3,345.1,392.3,344,392.1,342.9z"/>
	</g>
</g>
</svg>
