<svg xmlns="http://www.w3.org/2000/svg" xmlns:xlink="http://www.w3.org/1999/xlink" viewBox="0 0 3682.273 1824.097"><defs><style>.a,.b{fill:url(#a);}.b{opacity:0.11;}.c,.d,.f{fill:none;}.c,.d{stroke:#fff;stroke-width:10px;}.c{opacity:0.4;}.d{opacity:0.24;}.e{stroke:none;}</style><linearGradient id="a" x1="0.416" y1="0.627" x2="1.006" y2="0.975" gradientUnits="objectBoundingBox"><stop offset="0" stop-color="#ffb400"/><stop offset="1" stop-color="#ffd164"/></linearGradient></defs><g transform="translate(1320.576 484.127)"><path class="a" d="M527.318,771.678c778.543,170.815,1254,264.813,2251.163,458.642-63.516,170.506-166.991,314.775-334.338,425.493-691.5,457.5-2265.568,291.376-2876.6-122.577S-251.226,600.863,527.318,771.678Z" transform="translate(-823.614 -678.633) rotate(-11)"/><path class="b" d="M598.553,793.219c714.9,138.963,1347.87,258.383,2183.995,420.909-63.26,173.035-168.983,329.595-338.405,441.685-691.5,457.5-2115.228,326.04-2726.264-87.912S-116.35,654.255,598.553,793.219Z" transform="translate(-740.614 -667.633) rotate(-11)"/><g class="c" transform="translate(228 141)"><circle class="e" cx="36.5" cy="36.5" r="36.5"/><circle class="f" cx="36.5" cy="36.5" r="31.5"/></g><g class="c" transform="translate(1540 337)"><circle class="e" cx="36.5" cy="36.5" r="36.5"/><circle class="f" cx="36.5" cy="36.5" r="31.5"/></g><g class="c" transform="translate(1005 141)"><circle class="e" cx="45" cy="45" r="45"/><circle class="f" cx="45" cy="45" r="40"/></g><g class="c" transform="translate(1176 18)"><circle class="e" cx="45" cy="45" r="45"/><circle class="f" cx="45" cy="45" r="40"/></g><g class="c" transform="translate(175 775)"><circle class="e" cx="15.5" cy="15.5" r="15.5"/><circle class="f" cx="15.5" cy="15.5" r="10.5"/></g><g class="c" transform="translate(1172 514)"><circle class="e" cx="15.5" cy="15.5" r="15.5"/><circle class="f" cx="15.5" cy="15.5" r="10.5"/></g><g class="c" transform="translate(596 171)"><circle class="e" cx="18" cy="18" r="18"/><circle class="f" cx="18" cy="18" r="13"/></g><g class="c" transform="translate(105 334)"><circle class="e" cx="18" cy="18" r="18"/><circle class="f" cx="18" cy="18" r="13"/></g><g class="d" transform="translate(72.898 107.398) rotate(30)"><rect class="e" width="47" height="47" rx="17"/><rect class="f" x="5" y="5" width="37" height="37" rx="12"/></g><g class="d" transform="translate(1069.898 319.398) rotate(30)"><rect class="e" width="47" height="47" rx="17"/><rect class="f" x="5" y="5" width="37" height="37" rx="12"/></g><g class="d" transform="translate(1724.67 148.833) rotate(-135)"><rect class="e" width="37" height="37" rx="17"/><rect class="f" x="5" y="5" width="27" height="27" rx="12"/></g></g></svg>