<?xml version="1.0" encoding="utf-8"?>
<!-- Generator: Adobe Illustrator 22.0.1, SVG Export Plug-In . SVG Version: 6.00 Build 0)  -->
<svg version="1.1" id="Capa_1" xmlns="http://www.w3.org/2000/svg" xmlns:xlink="http://www.w3.org/1999/xlink" x="0px" y="0px"
	 viewBox="0 0 112.2 112.2" style="enable-background:new 0 0 112.2 112.2;" xml:space="preserve">
<style type="text/css">
	.st0{fill:#CB2027;}
	.st1{fill:#F1F2F2;}
</style>
<g>
	<circle class="st0" cx="56.1" cy="56.1" r="56.1"/>
	<g>
		<path class="st1" d="M60.6,75.1c-4.2-0.3-6-2.4-9.3-4.4c-1.8,9.6-4.1,18.8-10.7,23.6c-2-14.5,3-25.4,5.3-36.9
			c-4-6.7,0.5-20.2,8.9-16.9c10.4,4.1-9,25,4,27.6c13.6,2.7,19.1-23.5,10.7-32C57.4,23.6,34.2,35.7,37,53.3
			c0.7,4.3,5.2,5.6,1.8,11.6C31,63.2,28.7,57,29,48.9c0.5-13.4,12-22.7,23.6-24C67.2,23.2,81,30.2,82.9,44
			C85,59.5,76.3,76.3,60.6,75.1L60.6,75.1z"/>
	</g>
</g>
</svg>
