<?xml version="1.0" encoding="utf-8"?>
<!-- Generator: Adobe Illustrator 22.0.1, SVG Export Plug-In . SVG Version: 6.00 Build 0)  -->
<svg version="1.1" id="Layer_1" xmlns="http://www.w3.org/2000/svg" xmlns:xlink="http://www.w3.org/1999/xlink" x="0px" y="0px"
	 viewBox="0 0 473.9 473.9" style="enable-background:new 0 0 473.9 473.9;" xml:space="preserve">
<style type="text/css">
	.st0{fill:#D42428;}
	.st1{fill:#CC202D;}
	.st2{fill:#BA202E;}
	.st3{fill:#FFFFFF;}
</style>
<circle class="st0" cx="237" cy="237" r="237"/>
<path class="st1" d="M404.5,69.4c92.5,92.5,92.5,242.6,0,335.1c-92.5,92.5-242.6,92.5-335.1,0L404.5,69.4z"/>
<path class="st2" d="M469.2,284.4L351.9,167.1l-138.3,15.7l-83.7,129.5l156.3,156.3C378.2,449.3,450.4,376.6,469.2,284.4z"/>
<path class="st3" d="M361,191.2c0-19.9-16.1-36-35.9-36H156.4c-19.9,0-35.9,16.1-35.9,36v96.4c0,19.9,16.1,36,35.9,36H325
	c19.9,0,35.9-16.1,35.9-36L361,191.2L361,191.2z M216.6,280.1v-90.6l68.7,45.3L216.6,280.1z"/>
</svg>
