<?xml version="1.0" encoding="iso-8859-1"?>
<!-- Generator: Adobe Illustrator 19.0.0, SVG Export Plug-In . SVG Version: 6.00 Build 0)  -->
<svg version="1.1" id="Layer_1" xmlns="http://www.w3.org/2000/svg" xmlns:xlink="http://www.w3.org/1999/xlink" x="0px" y="0px"
	 viewBox="0 0 502 502" style="enable-background:new 0 0 502 502;" xml:space="preserve">
<g>
	<g>
		<g>
			<rect x="5" y="5" style="fill:#DC4E41;" width="492" height="492"/>
			<path d="M497,502H5c-2.762,0-5-2.239-5-5V5c0-2.761,2.238-5,5-5h492c2.762,0,5,2.239,5,5v492C502,499.761,499.762,502,497,502z
				 M10,492h482V10H10V492z"/>
		</g>
	</g>
	<g>
		<g>
			<path style="fill:#FFFFFF;" d="M286.535,232.1c5.152,0.031,10.305,0.069,15.457,0.113c2.592,37.197-2.881,76.993-27.075,106.862
				c-33.082,42.612-94.256,55.109-144.03,38.381c-52.799-17.342-91.209-70.531-90.054-126.291l0,0
				c-2.621-68.899,57.73-132.551,126.688-133.374c35.139-2.989,69.318,10.664,95.946,32.916
				c-10.917,11.985-22.028,23.862-33.869,34.944c-23.443-14.216-51.615-25.075-79-15.429
				c-44.135,12.548-70.871,64.669-54.517,107.844c13.508,45.125,68.365,69.86,111.374,50.908
				c22.252-7.949,36.915-28.483,43.377-50.568c-25.522-0.505-51.045-0.195-76.546-0.902c-0.079-15.169-0.137-30.288-0.079-45.464
				c14.464-0.027,28.935-0.058,43.411-0.073L286.535,232.1z"/>
			<path d="M175.321,389.608c-15.692,0-31.361-2.483-46.026-7.413c-55.292-18.16-94.591-73.237-93.464-130.987
				c-1.258-34.196,12.58-69.107,37.98-95.809c25.325-26.623,59.383-42.145,93.468-42.605c34.374-2.868,69.66,9.228,99.394,34.077
				c1.046,0.874,1.689,2.137,1.782,3.497s-0.374,2.699-1.292,3.707c-10.479,11.505-21.87,23.735-34.148,35.228
				c-1.637,1.533-4.094,1.787-6.01,0.625c-29-17.587-53.452-22.488-74.746-14.989c-0.097,0.034-0.195,0.065-0.294,0.094
				c-19.869,5.649-37.003,20.302-47.008,40.201c-9.905,19.703-11.438,41.959-4.201,61.063c0.042,0.111,0.08,0.223,0.114,0.337
				c5.966,19.928,21.091,36.76,41.496,46.178c20.695,9.551,43.685,10.131,63.071,1.588c0.11-0.048,0.222-0.092,0.335-0.133
				c17.03-6.084,30.696-20.846,38.178-40.977c-9.111-0.133-18.28-0.185-27.206-0.234c-13.955-0.078-28.385-0.158-42.597-0.553
				c-2.696-0.075-4.848-2.275-4.861-4.972c-0.088-16.854-0.135-31.044-0.079-45.509c0.011-2.75,2.24-4.976,4.99-4.981l8.237-0.016
				c11.722-0.023,23.449-0.046,35.179-0.058c0.002,0,0.003,0,0.005,0c2.759,0,4.997,2.235,5,4.995
				c0.003,2.761-2.233,5.002-4.995,5.005c-11.727,0.012-23.45,0.035-35.17,0.058l-3.262,0.006
				c-0.025,11.344,0.008,22.734,0.07,35.598c12.538,0.288,25.225,0.358,37.538,0.427c11.181,0.063,22.742,0.127,34.131,0.353
				c1.558,0.031,3.011,0.785,3.932,2.041c0.922,1.255,1.206,2.868,0.769,4.362c-7.718,26.378-24.596,45.98-46.325,53.813
				c-21.976,9.623-47.891,8.995-71.131-1.732c-22.95-10.593-40.011-29.619-46.833-52.218c-8.153-21.677-6.45-46.79,4.681-68.931
				c11.234-22.345,30.568-38.843,53.061-45.286c23.416-8.192,49.561-3.625,79.822,13.97c9.638-9.205,18.749-18.861,27.286-28.168
				c-26.856-20.964-58.007-31.053-88.246-28.483c-0.121,0.01-0.242,0.016-0.364,0.018c-31.465,0.375-63.001,14.773-86.524,39.5
				c-23.588,24.796-36.428,57.12-35.228,88.684c0.004,0.098,0.005,0.196,0.003,0.293c-1.109,53.517,35.318,104.588,86.616,121.437
				c51.392,17.272,108.34,2.179,138.521-36.697c0.021-0.027,0.042-0.054,0.063-0.081c19.548-24.133,28.371-57.342,26.251-98.754
				c-3.593-0.028-7.186-0.053-10.778-0.075c-2.762-0.017-4.986-2.269-4.97-5.03c0.017-2.762,2.278-4.959,5.03-4.97
				c5.156,0.031,10.313,0.069,15.47,0.113c2.61,0.023,4.764,2.049,4.945,4.652c3.215,46.15-6.254,83.266-28.146,110.317
				c-16.506,21.24-40.182,36.175-68.47,43.188C198.953,388.201,187.13,389.607,175.321,389.608z M259.614,236.993
				c-0.005,0-0.009,0-0.014,0l-1.397-0.004c-4.579-0.013-7.693-0.021-12.593-0.026c-2.762-0.003-4.998-2.244-4.995-5.005
				c0.003-2.76,2.241-4.995,5-4.995c0.002,0,0.003,0,0.005,0c4.906,0.005,8.025,0.013,12.61,0.026l1.397,0.004
				c2.762,0.007,4.994,2.252,4.986,5.014C264.606,234.764,262.369,236.993,259.614,236.993z"/>
		</g>
		<g>
			<path style="fill:#FFFFFF;" d="M384.906,193.746h37.962c0.058,12.721,0.166,25.464,0.253,38.157
				c12.693,0.115,25.443,0.195,38.128,0.253v38.02c-12.685,0.058-25.436,0.108-38.128,0.195c-0.137,12.75-0.195,25.443-0.253,38.186
				c-12.693-0.058-25.407,0-38.02,0c-0.137-12.743-0.137-25.436-0.253-38.128c-12.693-0.145-25.465-0.195-38.157-0.253v-38.02
				c12.693-0.087,25.385-0.137,38.157-0.253C384.653,219.21,384.769,206.467,384.906,193.746L384.906,193.746z"/>
			<path d="M384.848,313.557c-2.74,0-4.971-2.206-5-4.946c-0.074-6.919-0.108-13.823-0.142-20.72
				c-0.021-4.173-0.041-8.343-0.071-12.514c-10.191-0.098-20.5-0.144-30.515-0.189l-2.704-0.012c-2.753-0.013-4.978-2.248-4.978-5
				v-38.02c0-2.748,2.218-4.981,4.966-5c4.543-0.031,9.085-0.057,13.631-0.083c6.518-0.038,13.043-0.076,19.586-0.127
				c0.055-9.739,0.146-20.454,0.284-33.252c0.029-2.74,2.26-4.946,5-4.946h37.963c2.753,0,4.987,2.225,5,4.978
				c0.041,8.972,0.106,17.955,0.172,26.923l0.046,6.299c10.305,0.086,21.216,0.155,33.186,0.209c2.753,0.013,4.978,2.248,4.978,5
				v38.02c0,2.752-2.225,4.987-4.978,5l-6.234,0.028c-8.98,0.04-17.983,0.08-26.966,0.135c-0.104,11.157-0.154,22.36-0.203,33.241
				c-0.006,1.326-0.539,2.596-1.48,3.529c-0.942,0.933-2.24,1.43-3.542,1.448c-8.451-0.038-17.052-0.025-25.368-0.013
				C393.26,313.55,389.048,313.557,384.848,313.557z M351.438,265.198c10.931,0.049,22.172,0.105,33.214,0.231
				c2.722,0.031,4.918,2.233,4.943,4.954c0.053,5.818,0.081,11.636,0.11,17.458c0.025,5.232,0.051,10.469,0.095,15.713
				c2.551-0.002,5.104-0.006,7.662-0.01c6.695-0.01,13.577-0.02,20.428-0.004c0.051-10.927,0.11-22.12,0.23-33.223
				c0.029-2.727,2.239-4.927,4.966-4.946c10.618-0.073,21.277-0.12,31.905-0.167l1.257-0.005v-28.066
				c-11.934-0.06-22.83-0.135-33.173-0.229c-2.73-0.025-4.937-2.235-4.955-4.966l-0.08-11.217
				c-0.054-7.32-0.107-14.649-0.147-21.974h-28.04c-0.131,12.74-0.214,23.385-0.258,33.18c-0.013,2.735-2.22,4.953-4.955,4.978
				c-8.208,0.074-16.384,0.121-24.547,0.168c-2.887,0.017-5.771,0.034-8.655,0.052V265.198z"/>
		</g>
	</g>
	<g>
		<path d="M364.956,457H51c-2.762,0-5-2.239-5-5s2.238-5,5-5h313.956c2.762,0,5,2.239,5,5S367.718,457,364.956,457z"/>
	</g>
	<g>
		<path d="M449,457h-49.267c-2.762,0-5-2.239-5-5s2.238-5,5-5H449c2.762,0,5,2.239,5,5S451.762,457,449,457z"/>
	</g>
</g>
<g>
</g>
<g>
</g>
<g>
</g>
<g>
</g>
<g>
</g>
<g>
</g>
<g>
</g>
<g>
</g>
<g>
</g>
<g>
</g>
<g>
</g>
<g>
</g>
<g>
</g>
<g>
</g>
<g>
</g>
</svg>
