<?xml version="1.0" encoding="iso-8859-1"?>
<!-- Generator: Adobe Illustrator 19.0.0, SVG Export Plug-In . SVG Version: 6.00 Build 0)  -->
<svg version="1.1" id="Layer_1" xmlns="http://www.w3.org/2000/svg" xmlns:xlink="http://www.w3.org/1999/xlink" x="0px" y="0px"
	 viewBox="0 0 502 502" style="enable-background:new 0 0 502 502;" xml:space="preserve">
<g>
	<g>
		<g>
			<rect x="5" y="5" style="fill:#F2484B;" width="492" height="492"/>
		</g>
		<g>
			<path d="M497,502H5c-2.761,0-5-2.239-5-5V5c0-2.761,2.239-5,5-5h492c2.762,0,5,2.239,5,5v492C502,499.761,499.762,502,497,502z
				 M10,492h482V10H10V492z"/>
		</g>
	</g>
	<g>
		<g>
			<path style="fill:#FFFFFF;" d="M332.183,460.467H169.817c-70.737,0-128.284-57.548-128.284-128.284V169.817
				c0-70.737,57.548-128.284,128.284-128.284h162.366c70.737,0,128.285,57.548,128.285,128.284v162.366
				C460.468,402.919,402.919,460.467,332.183,460.467z M169.817,89.686c-44.185,0-80.132,35.947-80.132,80.132v162.366
				c0,44.185,35.947,80.132,80.132,80.132h162.366c44.185,0,80.131-35.947,80.131-80.132V169.817
				c0-44.185-35.946-80.132-80.131-80.132L169.817,89.686L169.817,89.686z"/>
			<path d="M332.183,465.467H169.817c-73.493,0-133.285-59.792-133.285-133.285V169.817c0-73.493,59.792-133.285,133.285-133.285
				h162.365c73.494,0,133.285,59.792,133.285,133.285v162.365C465.468,405.676,405.677,465.467,332.183,465.467z M169.817,46.533
				c-67.979,0-123.285,55.305-123.285,123.285v162.365c0,67.979,55.305,123.285,123.285,123.285h162.365
				c67.979,0,123.285-55.305,123.285-123.285V169.817c0-67.979-55.306-123.285-123.285-123.285H169.817V46.533z M332.183,417.314
				H169.817c-46.942,0-85.132-38.19-85.132-85.132V169.817c0-46.942,38.19-85.132,85.132-85.132h162.365
				c46.941,0,85.131,38.19,85.131,85.132v162.365C417.313,379.125,379.124,417.314,332.183,417.314z M169.817,94.686
				c-41.428,0-75.132,33.704-75.132,75.132v162.365c0,41.428,33.704,75.132,75.132,75.132h162.365
				c41.428,0,75.131-33.704,75.131-75.132V169.817c0-41.428-33.703-75.132-75.131-75.132L169.817,94.686L169.817,94.686z"/>
		</g>
	</g>
	<g>
		<g>
			<path style="fill:#FFFFFF;" d="M251,340.092c-49.125,0-89.092-39.966-89.092-89.092s39.966-89.092,89.092-89.092
				c49.125,0,89.092,39.966,89.092,89.092S300.125,340.092,251,340.092z M251,204.286c-25.758,0-46.714,20.956-46.714,46.714
				s20.956,46.714,46.714,46.714s46.714-20.956,46.714-46.714S276.758,204.286,251,204.286z"/>
		</g>
	</g>
	<g>
		<g>
			<path style="fill:#FFFFFF;" d="M350.968,168c-9.356,0-16.968-7.612-16.968-16.968s7.612-16.968,16.968-16.968
				s16.968,7.612,16.968,16.968S360.324,168,350.968,168z"/>
			<path d="M350.968,173C338.854,173,329,163.146,329,151.032s9.854-21.968,21.968-21.968s21.968,9.854,21.968,21.968
				S363.081,173,350.968,173z M350.968,139.064c-6.599,0-11.968,5.369-11.968,11.968S344.369,163,350.968,163
				s11.968-5.369,11.968-11.968S357.566,139.064,350.968,139.064z"/>
		</g>
	</g>
	<g>
		<path d="M175.333,381C145.374,381,121,356.626,121,326.667V236c0-2.761,2.239-5,5-5s5,2.239,5,5v90.666
			C131,351.112,150.888,371,175.333,371c2.761,0,5,2.239,5,5S178.095,381,175.333,381z"/>
	</g>
	<g>
		<path d="M126,200c-2.761,0-5-2.239-5-5v-19.667c0-2.761,2.239-5,5-5s5,2.239,5,5V195C131,197.761,128.761,200,126,200z"/>
	</g>
	<g>
		<g>
			<path d="M251,345.092c-51.882,0-94.092-42.209-94.092-94.092s42.209-94.092,94.092-94.092c14.025,0,27.53,3.027,40.14,8.998
				c2.496,1.182,3.562,4.163,2.379,6.659c-1.182,2.496-4.163,3.56-6.658,2.379c-11.261-5.332-23.326-8.036-35.86-8.036
				c-46.368,0-84.092,37.724-84.092,84.092s37.724,84.092,84.092,84.092s84.092-37.724,84.092-84.092c0-2.761,2.238-5,5-5
				s5,2.239,5,5C345.092,302.882,302.883,345.092,251,345.092z M251,302.713c-28.515,0-51.713-23.199-51.713-51.713
				s23.199-51.713,51.713-51.713s51.714,23.199,51.714,51.713S279.515,302.713,251,302.713z M251,209.287
				c-23.001,0-41.713,18.712-41.713,41.713s18.712,41.713,41.713,41.713s41.714-18.712,41.714-41.713S274.001,209.287,251,209.287z
				 M332.495,220.001c-1.917,0-3.746-1.109-4.573-2.974c-3.166-7.137-7.318-13.808-12.342-19.826
				c-1.77-2.12-1.485-5.273,0.635-7.042c2.121-1.77,5.273-1.485,7.043,0.634c5.618,6.731,10.263,14.193,13.805,22.179
				c1.12,2.524-0.019,5.479-2.543,6.598C333.86,219.863,333.172,220.001,332.495,220.001z"/>
		</g>
	</g>
</g>
<g>
</g>
<g>
</g>
<g>
</g>
<g>
</g>
<g>
</g>
<g>
</g>
<g>
</g>
<g>
</g>
<g>
</g>
<g>
</g>
<g>
</g>
<g>
</g>
<g>
</g>
<g>
</g>
<g>
</g>
</svg>
