<?xml version="1.0" encoding="iso-8859-1"?>
<!-- Generator: Adobe Illustrator 19.0.0, SVG Export Plug-In . SVG Version: 6.00 Build 0)  -->
<svg version="1.1" id="Layer_1" xmlns="http://www.w3.org/2000/svg" xmlns:xlink="http://www.w3.org/1999/xlink" x="0px" y="0px"
	 viewBox="0 0 502 502" style="enable-background:new 0 0 502 502;" xml:space="preserve">
<g>
	<g>
		<rect x="5" y="5" style="fill:#DC472E;" width="492" height="492"/>
		<path d="M497,502H5c-2.762,0-5-2.239-5-5V5c0-2.761,2.238-5,5-5h492c2.762,0,5,2.239,5,5v492C502,499.761,499.762,502,497,502z
			 M10,492h482V10H10V492z"/>
	</g>
	<g>
		<path style="fill:#FFFFFF;" d="M442.392,284.625c0-11.453-4.231-22.046-11.39-30.588c-10.238-12.217-26.464-20.24-44.863-20.59
			l0,0c-90.079-1.717-180.199-1.717-270.284,0c-31.257,0.595-56.246,23.345-56.246,51.178v125.256
			c0,27.845,24.989,50.596,56.246,51.191c90.085,1.717,180.204,1.717,270.284,0c31.265-0.595,56.253-23.345,56.253-51.191v-56.689
			L442.392,284.625L442.392,284.625z"/>
		<path d="M250.998,467.354c-45.185,0-90.369-0.428-135.239-1.283c-16.328-0.311-31.641-6.233-43.114-16.678
			c-11.631-10.586-18.036-24.619-18.036-39.512V284.625c0-14.888,6.405-28.917,18.036-39.501
			c11.475-10.443,26.787-16.365,43.115-16.676c89.739-1.711,180.741-1.711,270.475,0c19.275,0.367,36.989,8.523,48.599,22.377
			c8.216,9.803,12.559,21.491,12.559,33.799c0,2.761-2.238,5-5,5s-5-2.239-5-5c0-9.93-3.535-19.396-10.223-27.376
			c-9.752-11.637-24.741-18.49-41.125-18.802c-89.608-1.708-180.481-1.708-270.094,0c-28.311,0.539-51.342,21.254-51.342,46.179
			v125.256c0,24.932,23.031,45.653,51.341,46.192c89.614,1.708,180.487,1.708,270.094,0c28.314-0.539,51.349-21.26,51.349-46.192
			v-56.689c0-2.761,2.238-5,5-5s5,2.239,5,5v56.689c0,14.894-6.405,28.926-18.037,39.512
			c-11.475,10.444-26.789,16.367-43.121,16.678C341.366,466.926,296.183,467.354,250.998,467.354z"/>
	</g>
	<g>
		<polygon style="fill:#DC472E;" points="148.131,430.082 123.057,430.082 123.057,288.364 97.107,288.364 97.107,264.655 
			174.134,264.655 174.134,288.311 148.131,288.311 		"/>
		<path d="M148.131,435.083h-25.074c-2.762,0-5-2.239-5-5V293.364h-20.95c-2.762,0-5-2.239-5-5v-23.709c0-2.761,2.238-5,5-5h77.027
			c2.762,0,5,2.239,5,5v23.657c0,2.761-2.238,5-5,5h-21.003v136.771C153.131,432.844,150.893,435.083,148.131,435.083z
			 M128.057,425.083h15.074V288.312c0-2.761,2.238-5,5-5h21.003v-13.657h-67.027v13.709h20.95c2.762,0,5,2.239,5,5L128.057,425.083
			L128.057,425.083z"/>
	</g>
	<g>
		<path style="fill:#DC472E;" d="M237.842,371.258v58.838h-22.196v-13.45c-0.805,0.857-1.255,1.322-1.674,1.8
			c-4.779,5.389-10.194,9.875-17.106,12.261c-3.375,1.157-6.851,1.548-10.399,0.937c-4.845-0.805-8.101-3.595-10.061-8.001
			c-1.822-4.068-2.286-8.426-2.3-12.805c-0.053-16.195-0.026-101.914-0.026-102.744h22.141c0.041,0.75,0.126,54.81,0.139,84.821
			c0,1.635,0.014,3.309,0.339,4.898c0.818,4.027,3.908,5.755,7.783,4.34c4.466-1.628,7.868-4.705,10.724-8.394
			c0.425-0.531,0.425-1.482,0.425-2.246v-83.552l22.209-0.053v63.35H237.842z"/>
		<path d="M189.806,436.929c-1.404,0-2.801-0.119-4.187-0.358c-6.301-1.046-11.076-4.815-13.781-10.896
			c-2.423-5.412-2.72-11.052-2.731-14.822c-0.046-14.14-0.031-81.448-0.025-101.741v-1.019c0-2.761,2.238-5,5-5h22.141
			c2.655,0,4.848,2.076,4.992,4.727c0.06,1.09,0.137,62.33,0.147,85.091c0,1.552,0.018,2.823,0.237,3.897
			c0.009,0.894,0.399,1.109,1.17,0.646c2.855-1.041,5.372-2.952,7.864-5.98V307.96c0-2.757,2.231-4.994,4.988-5l22.209-0.053
			c0.004,0,0.008,0,0.012,0c1.324,0,2.594,0.525,3.531,1.46c0.94,0.938,1.469,2.211,1.469,3.54v122.187c0,2.761-2.238,5-5,5h-22.195
			c-2.762,0-5-2.239-5-5v-1.498c-3.863,3.122-7.841,5.349-12.148,6.835C195.591,436.43,192.682,436.929,189.806,436.929z
			 M179.08,313.095c-0.007,23.927-0.017,84.422,0.026,97.728c0.015,4.608,0.589,7.932,1.863,10.778
			c1.351,3.037,3.298,4.609,6.317,5.111c2.614,0.45,5.208,0.208,7.959-0.735c5.271-1.819,10.036-5.267,14.985-10.848
			c0.315-0.361,0.673-0.742,1.187-1.286l0.583-0.619c1.404-1.495,3.579-1.982,5.485-1.227c1.907,0.754,3.16,2.598,3.16,4.649v8.45
			h12.195V312.921l-12.209,0.029v78.563c0,1.213,0,3.473-1.525,5.375c-3.797,4.904-8.037,8.185-12.911,9.962
			c-3.261,1.191-6.528,1.027-9.196-0.465c-2.663-1.49-4.51-4.181-5.199-7.577c-0.439-2.145-0.439-4.311-0.439-5.893
			c-0.012-25.509-0.072-65.914-0.114-79.821H179.08V313.095z"/>
	</g>
	<g>
		<path style="fill:#DC472E;" d="M322.291,418.334c-2.97,8.931-9.503,13.477-18.894,13.377c-7.635-0.066-13.829-3.103-18.933-8.639
			c-0.572-0.611-2.145-2.286-2.145-2.286v9.283h-22.243V264.641h22.243v54.452c0,0,1.249-2.506,2.392-3.795
			c3.448-3.853,7.635-6.83,12.812-8.14c8.533-2.133,18.368,0.505,23.053,10.479c2.764,5.895,3.535,12.182,3.535,18.58
			c0.039,23.119,0.039,46.245,0.014,69.365C324.111,409.908,323.666,414.186,322.291,418.334L322.291,418.334z"/>
		<path d="M303.7,436.712c-0.118,0-0.237,0-0.356-0.002c-6.022-0.052-11.49-1.697-16.335-4.903
			c-0.706,1.904-2.539,3.262-4.689,3.262h-22.243c-2.762,0-5-2.239-5-5V264.641c0-2.761,2.238-5,5-5h22.243c2.762,0,5,2.239,5,5
			v41.729c2.802-1.899,5.802-3.257,8.978-4.061c12.293-3.073,23.594,2.109,28.805,13.201c2.736,5.833,4.01,12.412,4.01,20.707
			c0.037,21.683,0.041,44.377,0.014,69.37c-0.018,5.529-0.681,10.076-2.088,14.32c-0.001,0.002-0.001,0.003-0.002,0.005
			C323.429,430.757,315.148,436.712,303.7,436.712z M282.318,415.786c1.354,0,2.681,0.55,3.645,1.576l2.153,2.294
			c4.337,4.704,9.342,7.002,15.325,7.054c7.232,0.053,11.852-3.179,14.105-9.955c1.063-3.208,1.564-6.764,1.578-11.189
			c0.027-24.974,0.023-47.658-0.014-69.341c0-6.782-0.973-12.012-3.062-16.466c-3.744-7.969-11.398-9.231-17.313-7.752
			c-3.798,0.961-7.171,3.129-10.299,6.624c-0.438,0.495-1.253,1.909-1.644,2.691c-1.034,2.076-3.359,3.167-5.62,2.637
			c-2.259-0.532-3.854-2.547-3.854-4.867V269.64h-12.243v155.428h12.243v-4.283c0-2.051,1.252-3.894,3.158-4.648
			C281.075,415.9,281.7,415.786,282.318,415.786z"/>
	</g>
	<g>
		<path style="fill:#DC472E;" d="M404.427,413.681c-3.855,11.284-11.815,17.545-23.492,19.259
			c-7.244,1.063-14.413,0.91-21.205-2.167c-9.295-4.193-14.559-11.769-16.818-21.418c-1.05-4.491-1.568-9.203-1.621-13.815
			c-0.18-18.114-0.094-36.242-0.054-54.358c0.014-9.469,2.273-18.208,8.766-25.464c7.402-8.288,16.872-11.378,27.69-10.68
			c3.256,0.199,6.572,0.732,9.663,1.754c10.519,3.457,16.141,11.337,18.347,21.791c0.844,4.027,1.157,8.207,1.223,12.327
			c0.179,9.663-0.066,30.96-0.066,30.96h-42.584v30.53c0,5.481,4.44,9.921,9.921,9.921c5.469,0,9.91-4.44,9.91-9.921v-15.69h22.879
			C406.985,386.709,407.324,405.23,404.427,413.681L404.427,413.681z"/>
		<path d="M373.299,438.54c-5.788,0-10.877-1.058-15.633-3.212c-10.243-4.621-16.848-12.977-19.623-24.833
			c-1.104-4.723-1.693-9.734-1.753-14.898c-0.153-15.406-0.113-31.054-0.074-46.186l0.02-8.24
			c0.018-11.839,3.302-21.257,10.041-28.787c8.057-9.022,18.75-13.17,31.737-12.335c3.964,0.243,7.641,0.915,10.911,1.997
			c11.446,3.762,18.942,12.583,21.67,25.505c0.814,3.887,1.249,8.229,1.33,13.279c0.178,9.615-0.056,30.226-0.065,31.098
			c-0.032,2.739-2.261,4.942-5,4.942h-37.585v25.53c0,2.714,2.208,4.921,4.922,4.921c2.707,0,4.909-2.208,4.909-4.921v-15.69
			c0-2.761,2.238-5,5-5h22.88c2.726,0,4.949,2.184,4.999,4.909c0.036,1.985,0.265,19.655-2.826,28.681l0,0
			c-4.428,12.96-13.68,20.56-27.497,22.589C378.707,438.321,375.931,438.54,373.299,438.54z M374.789,309.943
			c-8.695,0-15.599,2.993-21.058,9.105c-5.102,5.7-7.482,12.734-7.496,22.14l-0.02,8.248c-0.039,15.102-0.079,30.718,0.074,46.054
			c0.051,4.429,0.552,8.714,1.49,12.727c2.057,8.787,6.638,14.675,14.005,17.999c5.1,2.311,10.95,2.874,18.424,1.778
			c10.087-1.482,16.279-6.543,19.486-15.929c0-0.001,0.001-0.003,0.002-0.004c1.626-4.745,2.153-14.015,2.274-20.352h-12.866v10.69
			c0,8.228-6.688,14.921-14.909,14.921c-8.228,0-14.922-6.694-14.922-14.921v-30.53c0-2.761,2.238-5,5-5h37.634
			c0.061-6.876,0.142-19.229,0.019-25.868c-0.071-4.419-0.438-8.143-1.118-11.394c-2.003-9.492-6.915-15.404-15.016-18.066
			c-2.461-0.814-5.286-1.322-8.406-1.513C376.504,309.971,375.638,309.943,374.789,309.943z"/>
	</g>
	<g>
		<path style="fill:#FFFFFF;" d="M384.106,335.805c0-5.469-4.44-9.921-9.91-9.921c-5.481,0-9.921,4.452-9.921,9.921v17.138h19.831
			V335.805z"/>
		<path d="M384.105,357.943h-19.831c-2.762,0-5-2.239-5-5v-17.138c0-8.228,6.694-14.921,14.922-14.921
			c8.221,0,14.909,6.694,14.909,14.921v17.138C389.105,355.705,386.867,357.943,384.105,357.943z M369.274,347.943h9.831v-12.138
			c0-2.714-2.202-4.921-4.909-4.921c-2.714,0-4.922,2.208-4.922,4.921V347.943z"/>
	</g>
	<g>
		<path style="fill:#FFFFFF;" d="M299.629,339.756c-1.143-2.844-3.595-4.26-6.672-4.559c-3.601-0.352-6.485,1.104-9.103,3.416
			c-1.043,0.91-1.523,2.273-1.523,2.273l0.054,56.861v1.807c0,0,0.624,0.846,0.723,0.958c2.12,2.298,4.6,4.12,7.769,4.779
			c5.229,1.068,8.918-1.104,9.935-5.949c0.259-1.215,0.412-2.465,0.412-3.7c0.025-21.871,0.066-27.143-0.048-49
			c-0.012-2.312-0.691-4.84-1.548-7v0.114H299.629z"/>
		<path d="M293.297,410.546c-1.099,0-2.242-0.117-3.42-0.357c-3.871-0.804-7.282-2.86-10.443-6.288
			c-0.027-0.03-0.055-0.06-0.081-0.09c-0.111-0.126-0.237-0.271-0.988-1.286c-0.636-0.86-0.979-1.902-0.979-2.972v-1.807
			l-0.054-56.856c-0.001-0.567,0.096-1.13,0.283-1.665c0.215-0.611,1.063-2.733,2.952-4.38c4.029-3.559,8.251-5.08,12.876-4.625
			c4.826,0.47,8.487,2.854,10.413,6.75c0.163,0.258,0.304,0.534,0.42,0.826c0.857,2.162,1.884,5.446,1.901,8.819
			c0.093,17.958,0.082,24.885,0.062,38.686l-0.015,10.346c0,1.519-0.175,3.114-0.521,4.736
			C304.368,406.741,299.563,410.546,293.297,410.546z M287.386,397.744c1.502,1.479,2.95,2.327,4.509,2.651
			c3.442,0.705,3.766-0.841,4.025-2.082c0.203-0.953,0.305-1.847,0.305-2.672l0.015-10.355c0.021-13.779,0.031-20.695-0.062-38.619
			c-0.006-1.26-0.344-2.856-0.956-4.549c-0.086-0.16-0.163-0.326-0.232-0.498c-0.176-0.437-0.502-1.25-2.517-1.447
			c-1.229-0.119-2.8,0.031-5.14,2.04L287.386,397.744z"/>
	</g>
	<g>
		<path style="fill:#FFFFFF;" d="M355.93,83.309l-0.007,123.463h-22.878l0.026-13.267c-2.524,2.492-4.682,4.823-7.061,6.914
			c-4.202,3.701-8.964,6.466-14.536,7.555c-8.557,1.669-15.844-1.029-18.57-9.893c-0.908-2.953-1.457-6.132-1.483-9.212V83.309
			h22.705v86.93c0,1.25,0.101,2.512,0.321,3.735c0.687,3.88,3.554,5.705,7.294,4.409c4.549-1.57,8.029-4.73,10.975-8.445
			c0.421-0.527,0.34-1.522,0.34-2.297V83.309H355.93z"/>
		<path d="M328.057,83.309c0-2.761,2.238-5,5-5h22.873c1.326,0,2.598,0.527,3.535,1.464c0.938,0.938,1.465,2.21,1.465,3.536
			l-0.007,123.463c0,2.761-2.238,5-5,5h-22.878c-1.328,0-2.601-0.528-3.539-1.468s-1.464-2.214-1.461-3.542l0.003-1.513
			c-4.923,4.041-10.047,6.544-15.614,7.633c-1.936,0.377-3.798,0.563-5.57,0.563c-9.164,0,1.772,0,0,0
			c-9.164,0-15.988-4.948-18.739-13.893c-1.086-3.532-1.675-7.211-1.703-10.641V83.309c0-2.761,2.238-5,5-5h22.705
			c2.762,0,5,2.239,5,5v86.93c0,1,0.081,1.958,0.242,2.847c0.474,2.675,8.294-4.883,8.689-5.35L328.057,83.309z M296.421,88.309
			V188.87c0.021,2.433,0.457,5.125,1.262,7.743c0.644,2.09,2.602,8.452,12.834,6.455c4.256-0.832,8.243-2.926,12.188-6.4
			c1.505-1.323,2.974-2.811,4.528-4.386c0.75-0.76,1.52-1.539,2.324-2.334c1.437-1.418,3.585-1.833,5.445-1.053
			c1.861,0.78,3.071,2.603,3.067,4.621l-0.016,8.257h12.868l0.007-113.463h-12.873l0.003,79.589
			c0.015,1.155,0.044,3.305-1.435,5.158c-4.025,5.074-8.363,8.366-13.253,10.053c-3.163,1.095-6.318,0.871-8.881-0.634
			c-2.603-1.528-4.366-4.237-4.967-7.628c-0.264-1.458-0.398-3.013-0.398-4.607v-81.93h-12.703V88.309z"/>
	</g>
	<g>
		<path style="fill:#FFFFFF;" d="M166.709,104.766c-4.963-20.935-15.371-65.125-15.371-65.125h-26.033c0,0,20,66.334,28.945,95.914
			c0.327,1.076,0.474,2.232,0.474,3.353l-0.014,67.837h24.008l-0.012-67.837c0-1.122,0.152-2.278,0.474-3.353
			c8.944-29.58,28.945-95.914,28.945-95.914h-26.033c0,0-10.408,44.189-15.371,65.125
			C166.721,104.766,166.709,104.766,166.709,104.766z"/>
		<path d="M178.719,211.745h-24.008c-1.326,0-2.599-0.527-3.536-1.465s-1.464-2.21-1.464-3.536l0.014-67.837
			c0-0.686-0.089-1.343-0.259-1.9c-8.947-29.585-28.948-95.922-28.948-95.922c-0.457-1.514-0.17-3.156,0.773-4.425
			s2.432-2.018,4.014-2.018h26.033c2.319,0,4.335,1.596,4.867,3.854c0,0,5.575,23.673,10.511,44.573
			c4.935-20.9,10.51-44.572,10.51-44.572c0.532-2.258,2.547-3.854,4.867-3.854h26.033c1.582,0,3.07,0.749,4.014,2.018
			c0.943,1.27,1.23,2.911,0.773,4.425c0,0-20.003,66.336-28.946,95.917c-0.168,0.563-0.26,1.228-0.26,1.906l0.012,67.836
			c0,1.326-0.526,2.598-1.464,3.536C181.316,211.218,180.045,211.745,178.719,211.745z M159.712,201.745h14.006l-0.011-62.836
			c0-1.636,0.236-3.291,0.683-4.786c7.253-23.988,21.767-72.109,27.006-89.482h-15.344c-2.641,11.208-10.388,44.084-14.464,61.278
			c-0.534,2.255-2.548,3.847-4.865,3.847s-4.345-1.592-4.879-3.847c-4.076-17.193-11.824-50.069-14.465-61.278h-15.344
			c5.238,17.373,19.751,65.491,27.002,89.466c0.456,1.503,0.688,3.119,0.688,4.8L159.712,201.745z"/>
	</g>
	<g>
		<path style="fill:#FFFFFF;" d="M239.455,80.217c-18.09,0-32.752,14.669-32.752,32.759v64.109c0,18.09,14.662,32.754,32.752,32.754
			c18.096,0,32.759-14.664,32.759-32.754v-64.109C272.214,94.886,257.552,80.217,239.455,80.217L239.455,80.217z M248.914,178.381
			c0,5.211-4.241,9.447-9.452,9.447s-9.452-4.236-9.452-9.447V111.68c0-5.211,4.241-9.452,9.452-9.452s9.452,4.241,9.452,9.452
			V178.381z"/>
		<path d="M239.455,214.838c-20.816,0-37.752-16.937-37.752-37.754v-64.109c0-20.82,16.936-37.759,37.752-37.759
			c20.82,0,37.759,16.938,37.759,37.759v64.109C277.214,197.902,260.275,214.838,239.455,214.838z M239.455,85.217
			c-15.303,0-27.752,12.453-27.752,27.759v64.109c0,15.304,12.449,27.754,27.752,27.754c15.307,0,27.759-12.45,27.759-27.754
			v-64.109C267.214,97.669,254.762,85.217,239.455,85.217z M239.462,192.828c-7.969,0-14.451-6.481-14.451-14.447V111.68
			c0-7.969,6.482-14.452,14.451-14.452s14.452,6.483,14.452,14.452v66.701C253.914,186.347,247.431,192.828,239.462,192.828z
			 M239.462,107.228c-2.454,0-4.451,1.997-4.451,4.452v66.701c0,2.452,1.997,4.447,4.451,4.447c2.455,0,4.452-1.995,4.452-4.447
			V111.68C243.914,109.225,241.917,107.228,239.462,107.228z"/>
	</g>
	<g>
		<path d="M49,41.192c-2.762,0-5,2.239-5,5v112.804c0,2.761,2.238,5,5,5s5-2.239,5-5V46.192C54,43.431,51.762,41.192,49,41.192z"/>
		<path d="M49,182.601c-2.762,0-5,2.239-5,5v17.591c0,2.761,2.238,5,5,5s5-2.239,5-5v-17.591C54,184.839,51.762,182.601,49,182.601z
			"/>
	</g>
	<g>
		<path d="M442.392,335.191c-2.762,0-5-2.239-5-5v-22c0-2.761,2.238-5,5-5s5,2.239,5,5v22
			C447.392,332.953,445.153,335.191,442.392,335.191z"/>
	</g>
</g>
<g>
</g>
<g>
</g>
<g>
</g>
<g>
</g>
<g>
</g>
<g>
</g>
<g>
</g>
<g>
</g>
<g>
</g>
<g>
</g>
<g>
</g>
<g>
</g>
<g>
</g>
<g>
</g>
<g>
</g>
</svg>
